<svg width="112" height="107" viewBox="0 0 112 107" fill="none" xmlns="http://www.w3.org/2000/svg">
<path d="M20.4052 19.1962C20.0911 19.4665 19.6582 19.974 19.4462 20.3185C19.0275 21.0265 18.6786 23.6984 18.8248 25.0484L18.9165 25.9023L17.6254 26.1141C16.9255 26.2452 15.6776 26.4656 14.8826 26.6229L13.4257 26.9007L13.3021 28.1614C13.2141 29.1056 10.2669 52.2205 9.48861 58.0157L9.3845 58.6781L12.8717 61.1745C24.2664 69.3065 43.6603 83.9282 51.6301 90.385C53.0242 91.5146 53.4604 91.7627 53.9375 91.7133C54.271 91.6625 56.4284 91.4782 58.7344 91.3145C68.8696 90.552 80.2155 89.2114 92.1051 87.3942C94.4212 87.0436 96.5505 86.6831 96.8356 86.6047C97.3108 86.4741 97.5665 85.5451 100.786 72.2707C104.989 54.9849 104.795 55.9172 104.447 55.5428C104.3 55.3788 103.606 54.5676 102.913 53.7564C101.109 51.656 98.8463 49.375 96.2049 47.055C94.4416 45.4749 93.9166 44.9037 93.7703 44.3715C93.3784 42.9459 91.6155 41.5906 89.597 41.1642C89.1594 41.0596 88.7251 40.8928 88.6262 40.7564C88.5274 40.6201 86.7955 39.154 84.7761 37.4603C82.7429 35.7909 81.0057 34.3058 80.8793 34.2179C80.7667 34.1058 80.7198 33.1169 80.7607 32.0017C80.825 29.6329 80.5424 28.3817 79.6828 27.4118C78.1543 25.6445 74.5687 24.8721 70.4151 25.3803L68.8508 25.565L66.6864 24.0134C65.5038 23.1323 64.4233 22.3254 64.3107 22.2133C64.1686 22.0683 64.0926 21.2714 64.1145 20.1614C64.1826 17.9552 63.8506 17.0447 62.5862 15.9408C60.1943 13.8588 55.1574 13.6081 48.9695 15.2684C46.0129 16.0404 45.4084 16.3701 44.8576 17.5642C44.4788 18.343 44.1694 20.0432 44.1821 21.205C44.1764 21.779 44.1065 22.2684 44.0114 22.2945C43.2716 22.3548 39.0049 22.5261 38.87 22.4814C38.7593 22.4505 38.7103 22.1982 38.7322 21.906C38.9438 19.7011 36.3771 17.5037 33.1155 17.092C30.5733 16.7687 27.9631 17.0161 24.2443 17.9158C21.5433 18.5766 20.8885 18.7975 20.4052 19.1962ZM28.6634 18.7453C31.016 18.5279 32.816 18.6054 34.2553 19.0071C35.7863 19.4448 36.6107 20.1381 36.9085 21.2216L37.1385 22.0579L35.5798 22.4864C33.546 23.0456 31.9333 23.2027 29.478 23.1213C25.5911 22.9633 21.2128 21.8363 21.1402 20.9772C21.1312 20.7957 21.3018 20.5239 21.547 20.3747C22.1928 19.9723 26.7308 18.9291 28.6634 18.7453ZM24.4677 24.0081C28.5822 24.6965 32.8541 24.5442 35.8449 23.5993L37.5589 23.0667L37.4686 23.7049C37.3954 24.2566 37.2885 24.3882 36.492 24.6889C35.7526 24.974 35.6215 25.0918 35.7103 25.415C35.7887 25.7001 35.9721 25.7723 36.4578 25.6797C37.0627 25.5747 37.2774 25.761 37.1125 26.2766C37.0336 26.5845 33.8551 27.0699 31.7995 27.1035C30.4181 27.1357 29.9914 27.2939 30.1168 27.7501C30.2997 28.4153 32.6219 28.5333 35.3024 28.0213C36.7784 27.7382 36.8596 27.7363 36.8501 28.1478C36.811 29.3443 36.5692 29.4312 32.6332 29.8387C28.8926 30.2129 23.4471 29.6655 22.0449 28.8039C21.0789 28.1904 20.3525 25.5484 20.5608 23.4058L20.6116 22.9216L21.7259 23.3308C22.3384 23.5509 23.5701 23.8665 24.4677 24.0081ZM55.1672 15.8747C57.5407 15.7332 59.8496 16.1002 61.0423 16.7946C61.7797 17.246 61.9132 17.4342 62.1726 18.3033L62.4443 19.2917L60.4433 19.8214C59.0506 20.1839 57.9115 20.3539 56.7117 20.3771C53.0447 20.4244 47.8872 19.5117 46.8861 18.6216C46.4565 18.249 46.4461 18.211 46.7341 17.8456C47.1513 17.2811 52.4929 16.0375 55.1672 15.8747ZM17.8035 26.9851L19.0395 26.8702L19.2328 27.5735C19.5411 28.695 20.1688 29.5651 21.1348 30.1786C23.2417 31.5211 30.1118 32.0448 34.7315 31.2244C36.1747 30.9708 36.3338 31.0292 35.9945 31.6541C35.3468 32.793 35.2966 36.1801 35.8924 38.347C36.5665 40.799 37.6869 41.6767 40.7603 42.2219C44.3474 42.8508 49.0569 42.8032 52.56 42.0854C54.283 41.7344 54.3728 41.6892 54.6898 41.1319C55.1722 40.2837 55.5329 33.1926 55.1671 31.8621C54.864 30.7597 54.0752 29.7499 53.0574 29.171L52.4516 28.8265L52.9444 28.8341C55.1454 28.8832 58.3177 28.747 59.7713 28.5314C61.5637 28.284 61.7799 28.3267 61.4145 28.8565C61.1369 29.26 60.8369 31.3664 60.8468 32.8152C60.862 33.4653 61.0581 34.6993 61.2881 35.5357C61.9988 38.1207 63.0603 38.9328 66.4639 39.4895C69.8728 40.0652 73.545 40.0369 77.2662 39.4432C80.0679 39.0001 80.5217 38.5686 80.4534 36.4612C80.4511 36.1552 80.511 35.8525 80.5713 35.7746C80.6507 35.6914 82.0377 36.7208 83.6655 38.0314C85.2986 39.3611 86.7222 40.5235 86.8538 40.6304C87.0287 40.7459 86.7764 40.7948 86.0018 40.8033C83.1232 40.8178 77.5739 41.9755 76.0785 42.8568C75.6917 43.0858 75.1913 43.571 74.9793 43.9155C74.0764 45.3903 73.8999 48.6895 74.5897 51.1985C75.3089 53.7403 76.2682 54.4783 79.6339 55.0454C83.067 55.6349 86.6874 55.6413 90.2565 55.0894C92.5156 54.7546 93.3205 54.4106 93.5197 53.7221C93.609 53.4522 93.7769 51.8318 93.8944 50.1026C94.0171 48.3925 94.1127 46.9555 94.1403 46.9071C94.1954 46.8101 97.3979 49.6096 98.8566 51.0486C101.602 53.7488 103.134 55.4538 102.785 55.4476C102.598 55.4376 100.973 55.4755 99.1856 55.5172C92.4656 55.6883 87.1051 56.1194 70.1063 57.8692L57.9027 59.139L56.9814 58.3906C45.6262 49.2868 22.1221 31.9107 15.8814 28.0247L14.77 27.3285L15.6619 27.2264C16.158 27.1718 17.1069 27.054 17.8035 26.9851ZM17.3158 30.2677C33.8826 42.1911 43.5881 49.4586 53.5525 57.3706L57.2359 60.2832L57.1423 60.9836C57.0981 61.3433 56.3754 66.4486 55.5506 72.2976C54.7068 78.1517 53.812 84.4901 53.541 86.4046L53.0623 89.8686L51.9799 88.9804C43.5493 82.037 22.9318 66.8317 13.3526 60.4698L10.1809 58.3774L12.0413 43.2074C13.0754 34.8476 13.983 28.0355 14.0643 28.0336C14.1508 28.0507 15.6085 29.0401 17.3158 30.2677ZM49.6766 21.1868C53.9883 21.9232 57.3251 21.8645 60.6808 20.9828L63.005 20.3642L62.8372 21.1668C62.678 21.9261 62.6176 22.0041 61.8003 22.2288C61.192 22.396 60.9521 22.5642 60.9145 22.7994C60.8807 23.1971 61.3393 23.3777 61.9475 23.2105C62.2897 23.1164 62.4108 23.1853 62.4426 23.5242C62.4901 23.92 62.3727 24.0136 61.6091 24.2849C61.1064 24.464 59.734 24.6777 58.5551 24.7769C56.1108 24.9583 55.435 25.1032 55.3286 25.4595C55.1294 26.1481 57.1803 26.3202 59.9958 25.8528C61.7345 25.5588 62.1978 25.5337 62.1792 25.7637C62.1588 25.9124 62.1783 26.1319 62.2096 26.246C62.2723 26.4741 60.0014 26.9144 57.6435 27.1129C55.5485 27.3004 51.4833 27.0891 49.4458 26.668C47.3702 26.2573 46.7416 25.7555 46.3026 24.1588C46.0152 23.1134 45.8063 20.7175 45.9522 20.2072C45.9831 20.0965 46.4017 20.2063 46.8707 20.4249C47.3449 20.6625 48.606 21.0109 49.6766 21.1868ZM41.9239 23.6249L44.268 23.4507L44.524 24.382C44.9055 25.7696 45.5559 26.797 46.4839 27.421L47.3098 27.9708L46.0876 28.0615C44.5974 28.144 40.987 28.7687 39.4283 29.1972C38.63 29.4166 38.3292 29.438 38.353 29.227C38.3597 29.1025 38.4591 27.8281 38.5409 26.4154C38.7021 24.1018 38.7535 23.8423 39.1407 23.8381C39.3793 23.8134 40.6257 23.7365 41.9239 23.6249ZM65.4832 24.9166C66.1774 25.3596 66.7799 25.7663 66.7956 25.8234C66.8165 25.8994 66.1479 26.1445 65.2926 26.3797C64.1331 26.6985 63.7563 26.7407 63.761 26.535C63.7867 26.4053 63.82 25.7828 63.8586 25.1793C63.8781 24.581 63.967 24.0864 64.0535 24.1035C64.1209 24.1258 64.77 24.4789 65.4832 24.9166ZM46.48 29.7118C50.769 29.4731 53.4389 30.5586 53.7025 32.6327C53.7761 33.1236 53.7571 33.1288 51.7699 33.6343C48.8323 34.401 44.9386 34.3675 41.1316 33.5333C38.6269 32.9748 37.2732 32.1408 37.9722 31.5601C38.4693 31.1373 44.5265 29.8195 46.48 29.7118ZM38.7009 34.5082C40.2391 35.0462 41.6313 35.2768 44.5 35.449C47.3548 35.6454 49.6885 35.4332 52.1404 34.7591C53.2619 34.4508 54.1847 34.2379 54.1951 34.276C54.2735 34.5611 53.8971 35.6459 53.7379 35.5874C53.6462 35.5513 52.8893 35.6981 52.0857 35.8985C50.94 36.1931 50.5808 36.3736 50.4016 36.6887C50.021 37.3862 50.7751 37.5264 52.4477 37.0666C53.7973 36.6955 53.8163 36.6903 53.7792 37.1503C53.7368 37.5913 53.6333 37.6606 52.7 37.8354C52.1193 37.9542 50.7917 38.033 49.7196 38.0006C47.3509 37.9363 46.9555 38.2085 48.3972 38.9162C49.3888 39.4 50.7687 39.5112 52.4556 39.2519C53.0035 39.1626 53.4806 39.1132 53.4911 39.1512C53.4963 39.1703 53.4744 39.4625 53.4525 39.7547C53.4036 40.3202 53.3846 40.3254 52.0797 40.5615C47.3925 41.3595 41.0346 41.063 38.923 39.9262L37.9693 39.432L37.5451 37.4428C37.1561 35.7303 37.0473 34.145 37.2944 34.0771C37.3325 34.0667 37.9777 34.2573 38.7009 34.5082ZM71.6096 26.9736C75.9884 26.6898 78.5248 27.5871 79.0892 29.6399L79.2721 30.3052L77.4284 30.8121C74.5012 31.6168 71.6035 31.6366 67.4733 30.8912C64.7026 30.4059 63.3754 29.8916 63.2999 29.3195C63.2752 29.081 63.4216 28.7954 63.6806 28.622C64.5008 28.1103 69.198 27.1255 71.6096 26.9736ZM63.7593 31.5852C64.9757 32.0685 66.5514 32.3713 69.1677 32.5925C72.6089 32.9139 74.2512 32.7895 77.0263 32.0266C78.419 31.6641 79.5647 31.3696 79.5699 31.3886C79.5752 31.4076 79.5618 31.6566 79.521 31.9541C79.4805 32.4763 79.4097 32.5162 78.0602 32.8872C77.0528 33.1642 76.6175 33.3656 76.5039 33.6217C76.2079 34.2551 76.8341 34.451 78.0886 34.1061C78.7159 33.9336 79.2205 33.8358 79.231 33.8738C79.3616 34.349 79.115 34.6417 78.3927 34.8402C77.4233 35.1067 74.6107 35.2871 72.1659 35.2437C70.1084 35.196 69.5087 35.32 69.4611 35.742C69.4084 36.1449 69.7267 36.2618 71.3091 36.4401C73.1076 36.6612 75.8841 36.5726 77.5796 36.27L78.9604 36.013L78.872 36.7324L78.7836 37.4518L77.0743 37.7787C73.8564 38.418 69.4752 38.3959 66.1837 37.7266C63.8919 37.2731 63.4087 36.854 62.9346 34.9808C62.6453 33.8541 62.4602 31.2472 62.6692 31.1898C62.7073 31.1793 63.2038 31.3495 63.7593 31.5852ZM83.3915 42.6863C88.3211 42.0261 91.7532 42.9838 92.3542 45.1697C92.5319 45.816 92.5181 45.8402 91.6699 46.1756C90.547 46.6274 88.0736 47.0007 86.1321 47.003C82.9906 47.0284 78.1843 46.2032 77.0192 45.4604C76.4029 45.0778 76.4139 44.5228 77.0511 44.1636C77.6936 43.8235 81.4556 42.9323 83.3915 42.6863ZM77.0832 47.1806C78.4778 47.7171 79.4533 47.9192 82.0559 48.1645C85.8274 48.4974 87.2933 48.401 90.2257 47.6153C92.4738 47.0177 92.8454 46.9564 92.8373 47.2244C92.8411 47.3869 92.6676 48.7635 92.4546 50.294L92.0885 53.0524L91.0654 53.2724C86.1021 54.3303 78.4004 53.8308 77.0315 52.3467C76.6538 51.9395 76.4851 51.4747 76.1849 50.0853C75.8723 48.5766 75.7546 46.8098 75.9637 46.7523C75.9827 46.7471 76.5035 46.931 77.0832 47.1806ZM81.8476 57.8919C85.3601 57.5804 89.718 57.2206 91.547 57.1062C94.5411 56.9168 103.095 56.6503 103.26 56.7278C103.284 56.7416 102.924 58.3329 102.466 60.2374C101.99 62.1471 100.464 68.4954 99.0841 74.3334C97.6852 80.1766 96.4988 85.0822 96.4404 85.2414C96.2944 85.7517 81.6497 87.9584 70.3104 89.1746C65.6071 89.6908 54.5301 90.6713 54.3899 90.6076C54.3414 90.58 55.2904 83.6952 56.4713 75.2746L58.6496 59.9968L67.0489 59.2414C71.6782 58.8273 78.3402 58.2224 81.8476 57.8919Z" fill="#F38189"/>
<path d="M20.4052 19.1962C20.0911 19.4665 19.6582 19.974 19.4462 20.3185C19.0275 21.0265 18.6786 23.6984 18.8248 25.0484L18.9165 25.9023L17.6254 26.1141C16.9255 26.2452 15.6776 26.4656 14.8826 26.6229L13.4257 26.9007L13.3021 28.1614C13.2141 29.1056 10.2669 52.2205 9.48861 58.0157L9.3845 58.6781L12.8717 61.1745C24.2664 69.3065 43.6603 83.9282 51.6301 90.385C53.0242 91.5146 53.4604 91.7627 53.9375 91.7133C54.271 91.6625 56.4284 91.4782 58.7344 91.3145C68.8696 90.552 80.2155 89.2114 92.1051 87.3942C94.4212 87.0436 96.5505 86.6831 96.8356 86.6047C97.3108 86.4741 97.5665 85.5451 100.786 72.2707C104.989 54.9849 104.795 55.9172 104.447 55.5428C104.3 55.3788 103.606 54.5676 102.913 53.7564C101.109 51.656 98.8463 49.375 96.2049 47.055C94.4416 45.4749 93.9166 44.9037 93.7703 44.3715C93.3784 42.9459 91.6155 41.5906 89.597 41.1642C89.1594 41.0596 88.7251 40.8928 88.6262 40.7564C88.5274 40.6201 86.7955 39.154 84.7761 37.4603C82.7429 35.7909 81.0057 34.3058 80.8793 34.2179C80.7667 34.1058 80.7198 33.1169 80.7607 32.0017C80.825 29.6329 80.5424 28.3817 79.6828 27.4118C78.1543 25.6445 74.5687 24.8721 70.4151 25.3803L68.8508 25.565L66.6864 24.0134C65.5038 23.1323 64.4233 22.3254 64.3107 22.2133C64.1686 22.0683 64.0926 21.2714 64.1145 20.1614C64.1826 17.9552 63.8506 17.0447 62.5862 15.9408C60.1943 13.8588 55.1574 13.6081 48.9695 15.2684C46.0129 16.0404 45.4084 16.3701 44.8576 17.5642C44.4788 18.343 44.1694 20.0432 44.1821 21.205C44.1764 21.779 44.1065 22.2684 44.0114 22.2945C43.2716 22.3548 39.0049 22.5261 38.87 22.4814C38.7593 22.4505 38.7103 22.1982 38.7322 21.906C38.9438 19.7011 36.3771 17.5037 33.1155 17.092C30.5733 16.7687 27.9631 17.0161 24.2443 17.9158C21.5433 18.5766 20.8885 18.7975 20.4052 19.1962ZM28.6634 18.7453C31.016 18.5279 32.816 18.6054 34.2553 19.0071C35.7863 19.4448 36.6107 20.1381 36.9085 21.2216L37.1385 22.0579L35.5798 22.4864C33.546 23.0456 31.9333 23.2027 29.478 23.1213C25.5911 22.9633 21.2128 21.8363 21.1402 20.9772C21.1312 20.7957 21.3018 20.5239 21.547 20.3747C22.1928 19.9723 26.7308 18.9291 28.6634 18.7453ZM24.4677 24.0081C28.5822 24.6965 32.8541 24.5442 35.8449 23.5993L37.5589 23.0667L37.4686 23.7049C37.3954 24.2566 37.2885 24.3882 36.492 24.6889C35.7526 24.974 35.6215 25.0918 35.7103 25.415C35.7887 25.7001 35.9721 25.7723 36.4578 25.6797C37.0627 25.5747 37.2774 25.761 37.1125 26.2766C37.0336 26.5845 33.8551 27.0699 31.7995 27.1035C30.4181 27.1357 29.9914 27.2939 30.1168 27.7501C30.2997 28.4153 32.6219 28.5333 35.3024 28.0213C36.7784 27.7382 36.8596 27.7363 36.8501 28.1478C36.811 29.3443 36.5692 29.4312 32.6332 29.8387C28.8926 30.2129 23.4471 29.6655 22.0449 28.8039C21.0789 28.1904 20.3525 25.5484 20.5608 23.4058L20.6116 22.9216L21.7259 23.3308C22.3384 23.5509 23.5701 23.8665 24.4677 24.0081ZM55.1672 15.8747C57.5407 15.7332 59.8496 16.1002 61.0423 16.7946C61.7797 17.246 61.9132 17.4342 62.1726 18.3033L62.4443 19.2917L60.4433 19.8214C59.0506 20.1839 57.9115 20.3539 56.7117 20.3771C53.0447 20.4244 47.8872 19.5117 46.8861 18.6216C46.4565 18.249 46.4461 18.211 46.7341 17.8456C47.1513 17.2811 52.4929 16.0375 55.1672 15.8747ZM17.8035 26.9851L19.0395 26.8702L19.2328 27.5735C19.5411 28.695 20.1688 29.5651 21.1348 30.1786C23.2417 31.5211 30.1118 32.0448 34.7315 31.2244C36.1747 30.9708 36.3338 31.0292 35.9945 31.6541C35.3468 32.793 35.2966 36.1801 35.8924 38.347C36.5665 40.799 37.6869 41.6767 40.7603 42.2219C44.3474 42.8508 49.0569 42.8032 52.56 42.0854C54.283 41.7344 54.3728 41.6892 54.6898 41.1319C55.1722 40.2837 55.5329 33.1926 55.1671 31.8621C54.864 30.7597 54.0752 29.7499 53.0574 29.171L52.4516 28.8265L52.9444 28.8341C55.1454 28.8832 58.3177 28.747 59.7713 28.5314C61.5637 28.284 61.7799 28.3267 61.4145 28.8565C61.1369 29.26 60.8369 31.3664 60.8468 32.8152C60.862 33.4653 61.0581 34.6993 61.2881 35.5357C61.9988 38.1207 63.0603 38.9328 66.4639 39.4895C69.8728 40.0652 73.545 40.0369 77.2662 39.4432C80.0679 39.0001 80.5217 38.5686 80.4534 36.4612C80.4511 36.1552 80.511 35.8525 80.5713 35.7746C80.6507 35.6914 82.0377 36.7208 83.6655 38.0314C85.2986 39.3611 86.7222 40.5235 86.8538 40.6304C87.0287 40.7459 86.7764 40.7948 86.0018 40.8033C83.1232 40.8178 77.5739 41.9755 76.0785 42.8568C75.6917 43.0858 75.1913 43.571 74.9793 43.9155C74.0764 45.3903 73.8999 48.6895 74.5897 51.1985C75.3089 53.7403 76.2682 54.4783 79.6339 55.0454C83.067 55.6349 86.6874 55.6413 90.2565 55.0894C92.5156 54.7546 93.3205 54.4106 93.5197 53.7221C93.609 53.4522 93.7769 51.8318 93.8944 50.1026C94.0171 48.3925 94.1127 46.9555 94.1403 46.9071C94.1954 46.8101 97.3979 49.6096 98.8566 51.0486C101.602 53.7488 103.134 55.4538 102.785 55.4476C102.598 55.4376 100.973 55.4755 99.1856 55.5172C92.4656 55.6883 87.1051 56.1194 70.1063 57.8692L57.9027 59.139L56.9814 58.3906C45.6262 49.2868 22.1221 31.9107 15.8814 28.0247L14.77 27.3285L15.6619 27.2264C16.158 27.1718 17.1069 27.054 17.8035 26.9851ZM17.3158 30.2677C33.8826 42.1911 43.5881 49.4586 53.5525 57.3706L57.2359 60.2832L57.1423 60.9836C57.0981 61.3433 56.3754 66.4486 55.5506 72.2976C54.7068 78.1517 53.812 84.4901 53.541 86.4046L53.0623 89.8686L51.9799 88.9804C43.5493 82.037 22.9318 66.8317 13.3526 60.4698L10.1809 58.3774L12.0413 43.2074C13.0754 34.8476 13.983 28.0355 14.0643 28.0336C14.1508 28.0507 15.6085 29.0401 17.3158 30.2677ZM49.6766 21.1868C53.9883 21.9232 57.3251 21.8645 60.6808 20.9828L63.005 20.3642L62.8372 21.1668C62.678 21.9261 62.6176 22.0041 61.8003 22.2288C61.192 22.396 60.9521 22.5642 60.9145 22.7994C60.8807 23.1971 61.3393 23.3777 61.9475 23.2105C62.2897 23.1164 62.4108 23.1853 62.4426 23.5242C62.4901 23.92 62.3727 24.0136 61.6091 24.2849C61.1064 24.464 59.734 24.6777 58.5551 24.7769C56.1108 24.9583 55.435 25.1032 55.3286 25.4595C55.1294 26.1481 57.1803 26.3202 59.9958 25.8528C61.7345 25.5588 62.1978 25.5337 62.1792 25.7637C62.1588 25.9124 62.1783 26.1319 62.2096 26.246C62.2723 26.4741 60.0014 26.9144 57.6435 27.1129C55.5485 27.3004 51.4833 27.0891 49.4458 26.668C47.3702 26.2573 46.7416 25.7555 46.3026 24.1588C46.0152 23.1134 45.8063 20.7175 45.9522 20.2072C45.9831 20.0965 46.4017 20.2063 46.8707 20.4249C47.3449 20.6625 48.606 21.0109 49.6766 21.1868ZM41.9239 23.6249L44.268 23.4507L44.524 24.382C44.9055 25.7696 45.5559 26.797 46.4839 27.421L47.3098 27.9708L46.0876 28.0615C44.5974 28.144 40.987 28.7687 39.4283 29.1972C38.63 29.4166 38.3292 29.438 38.353 29.227C38.3597 29.1025 38.4591 27.8281 38.5409 26.4154C38.7021 24.1018 38.7535 23.8423 39.1407 23.8381C39.3793 23.8134 40.6257 23.7365 41.9239 23.6249ZM65.4832 24.9166C66.1774 25.3596 66.7799 25.7663 66.7956 25.8234C66.8165 25.8994 66.1479 26.1445 65.2926 26.3797C64.1331 26.6985 63.7563 26.7407 63.761 26.535C63.7867 26.4053 63.82 25.7828 63.8586 25.1793C63.8781 24.581 63.967 24.0864 64.0535 24.1035C64.1209 24.1258 64.77 24.4789 65.4832 24.9166ZM46.48 29.7118C50.769 29.4731 53.4389 30.5586 53.7025 32.6327C53.7761 33.1236 53.7571 33.1288 51.7699 33.6343C48.8323 34.401 44.9386 34.3675 41.1316 33.5333C38.6269 32.9748 37.2732 32.1408 37.9722 31.5601C38.4693 31.1373 44.5265 29.8195 46.48 29.7118ZM38.7009 34.5082C40.2391 35.0462 41.6313 35.2768 44.5 35.449C47.3548 35.6454 49.6885 35.4332 52.1404 34.7591C53.2619 34.4508 54.1847 34.2379 54.1951 34.276C54.2735 34.5611 53.8971 35.6459 53.7379 35.5874C53.6462 35.5513 52.8893 35.6981 52.0857 35.8985C50.94 36.1931 50.5808 36.3736 50.4016 36.6887C50.021 37.3862 50.7751 37.5264 52.4477 37.0666C53.7973 36.6955 53.8163 36.6903 53.7792 37.1503C53.7368 37.5913 53.6333 37.6606 52.7 37.8354C52.1193 37.9542 50.7917 38.033 49.7196 38.0006C47.3509 37.9363 46.9555 38.2085 48.3972 38.9162C49.3888 39.4 50.7687 39.5112 52.4556 39.2519C53.0035 39.1626 53.4806 39.1132 53.4911 39.1512C53.4963 39.1703 53.4744 39.4625 53.4525 39.7547C53.4036 40.3202 53.3846 40.3254 52.0797 40.5615C47.3925 41.3595 41.0346 41.063 38.923 39.9262L37.9693 39.432L37.5451 37.4428C37.1561 35.7303 37.0473 34.145 37.2944 34.0771C37.3325 34.0667 37.9777 34.2573 38.7009 34.5082ZM71.6096 26.9736C75.9884 26.6898 78.5248 27.5871 79.0892 29.6399L79.2721 30.3052L77.4284 30.8121C74.5012 31.6168 71.6035 31.6366 67.4733 30.8912C64.7026 30.4059 63.3754 29.8916 63.2999 29.3195C63.2752 29.081 63.4216 28.7954 63.6806 28.622C64.5008 28.1103 69.198 27.1255 71.6096 26.9736ZM63.7593 31.5852C64.9757 32.0685 66.5514 32.3713 69.1677 32.5925C72.6089 32.9139 74.2512 32.7895 77.0263 32.0266C78.419 31.6641 79.5647 31.3696 79.5699 31.3886C79.5752 31.4076 79.5618 31.6566 79.521 31.9541C79.4805 32.4763 79.4097 32.5162 78.0602 32.8872C77.0528 33.1642 76.6175 33.3656 76.5039 33.6217C76.2079 34.2551 76.8341 34.451 78.0886 34.1061C78.7159 33.9336 79.2205 33.8358 79.231 33.8738C79.3616 34.349 79.115 34.6417 78.3927 34.8402C77.4233 35.1067 74.6107 35.2871 72.1659 35.2437C70.1084 35.196 69.5087 35.32 69.4611 35.742C69.4084 36.1449 69.7267 36.2618 71.3091 36.4401C73.1076 36.6612 75.8841 36.5726 77.5796 36.27L78.9604 36.013L78.872 36.7324L78.7836 37.4518L77.0743 37.7787C73.8564 38.418 69.4752 38.3959 66.1837 37.7266C63.8919 37.2731 63.4087 36.854 62.9346 34.9808C62.6453 33.8541 62.4602 31.2472 62.6692 31.1898C62.7073 31.1793 63.2038 31.3495 63.7593 31.5852ZM83.3915 42.6863C88.3211 42.0261 91.7532 42.9838 92.3542 45.1697C92.5319 45.816 92.5181 45.8402 91.6699 46.1756C90.547 46.6274 88.0736 47.0007 86.1321 47.003C82.9906 47.0284 78.1843 46.2032 77.0192 45.4604C76.4029 45.0778 76.4139 44.5228 77.0511 44.1636C77.6936 43.8235 81.4556 42.9323 83.3915 42.6863ZM77.0832 47.1806C78.4778 47.7171 79.4533 47.9192 82.0559 48.1645C85.8274 48.4974 87.2933 48.401 90.2257 47.6153C92.4738 47.0177 92.8454 46.9564 92.8373 47.2244C92.8411 47.3869 92.6676 48.7635 92.4546 50.294L92.0885 53.0524L91.0654 53.2724C86.1021 54.3303 78.4004 53.8308 77.0315 52.3467C76.6538 51.9395 76.4851 51.4747 76.1849 50.0853C75.8723 48.5766 75.7546 46.8098 75.9637 46.7523C75.9827 46.7471 76.5035 46.931 77.0832 47.1806ZM81.8476 57.8919C85.3601 57.5804 89.718 57.2206 91.547 57.1062C94.5411 56.9168 103.095 56.6503 103.26 56.7278C103.284 56.7416 102.924 58.3329 102.466 60.2374C101.99 62.1471 100.464 68.4954 99.0841 74.3334C97.6852 80.1766 96.4988 85.0822 96.4404 85.2414C96.2944 85.7517 81.6497 87.9584 70.3104 89.1746C65.6071 89.6908 54.5301 90.6713 54.3899 90.6076C54.3414 90.58 55.2904 83.6952 56.4713 75.2746L58.6496 59.9968L67.0489 59.2414C71.6782 58.8273 78.3402 58.2224 81.8476 57.8919Z" fill="#F38189"/>
<path d="M20.4052 19.1962C20.0911 19.4665 19.6582 19.974 19.4462 20.3185C19.0275 21.0265 18.6786 23.6984 18.8248 25.0484L18.9165 25.9023L17.6254 26.1141C16.9255 26.2452 15.6776 26.4656 14.8826 26.6229L13.4257 26.9007L13.3021 28.1614C13.2141 29.1056 10.2669 52.2205 9.48861 58.0157L9.3845 58.6781L12.8717 61.1745C24.2664 69.3065 43.6603 83.9282 51.6301 90.385C53.0242 91.5146 53.4604 91.7627 53.9375 91.7133C54.271 91.6625 56.4284 91.4782 58.7344 91.3145C68.8696 90.552 80.2155 89.2114 92.1051 87.3942C94.4212 87.0436 96.5505 86.6831 96.8356 86.6047C97.3108 86.4741 97.5665 85.5451 100.786 72.2707C104.989 54.9849 104.795 55.9172 104.447 55.5428C104.3 55.3788 103.606 54.5676 102.913 53.7564C101.109 51.656 98.8463 49.375 96.2049 47.055C94.4416 45.4749 93.9166 44.9037 93.7703 44.3715C93.3784 42.9459 91.6155 41.5906 89.597 41.1642C89.1594 41.0596 88.7251 40.8928 88.6262 40.7564C88.5274 40.6201 86.7955 39.154 84.7761 37.4603C82.7429 35.7909 81.0057 34.3058 80.8793 34.2179C80.7667 34.1058 80.7198 33.1169 80.7607 32.0017C80.825 29.6329 80.5424 28.3817 79.6828 27.4118C78.1543 25.6445 74.5687 24.8721 70.4151 25.3803L68.8508 25.565L66.6864 24.0134C65.5038 23.1323 64.4233 22.3254 64.3107 22.2133C64.1686 22.0683 64.0926 21.2714 64.1145 20.1614C64.1826 17.9552 63.8506 17.0447 62.5862 15.9408C60.1943 13.8588 55.1574 13.6081 48.9695 15.2684C46.0129 16.0404 45.4084 16.3701 44.8576 17.5642C44.4788 18.343 44.1694 20.0432 44.1821 21.205C44.1764 21.779 44.1065 22.2684 44.0114 22.2945C43.2716 22.3548 39.0049 22.5261 38.87 22.4814C38.7593 22.4505 38.7103 22.1982 38.7322 21.906C38.9438 19.7011 36.3771 17.5037 33.1155 17.092C30.5733 16.7687 27.9631 17.0161 24.2443 17.9158C21.5433 18.5766 20.8885 18.7975 20.4052 19.1962ZM28.6634 18.7453C31.016 18.5279 32.816 18.6054 34.2553 19.0071C35.7863 19.4448 36.6107 20.1381 36.9085 21.2216L37.1385 22.0579L35.5798 22.4864C33.546 23.0456 31.9333 23.2027 29.478 23.1213C25.5911 22.9633 21.2128 21.8363 21.1402 20.9772C21.1312 20.7957 21.3018 20.5239 21.547 20.3747C22.1928 19.9723 26.7308 18.9291 28.6634 18.7453ZM24.4677 24.0081C28.5822 24.6965 32.8541 24.5442 35.8449 23.5993L37.5589 23.0667L37.4686 23.7049C37.3954 24.2566 37.2885 24.3882 36.492 24.6889C35.7526 24.974 35.6215 25.0918 35.7103 25.415C35.7887 25.7001 35.9721 25.7723 36.4578 25.6797C37.0627 25.5747 37.2774 25.761 37.1125 26.2766C37.0336 26.5845 33.8551 27.0699 31.7995 27.1035C30.4181 27.1357 29.9914 27.2939 30.1168 27.7501C30.2997 28.4153 32.6219 28.5333 35.3024 28.0213C36.7784 27.7382 36.8596 27.7363 36.8501 28.1478C36.811 29.3443 36.5692 29.4312 32.6332 29.8387C28.8926 30.2129 23.4471 29.6655 22.0449 28.8039C21.0789 28.1904 20.3525 25.5484 20.5608 23.4058L20.6116 22.9216L21.7259 23.3308C22.3384 23.5509 23.5701 23.8665 24.4677 24.0081ZM55.1672 15.8747C57.5407 15.7332 59.8496 16.1002 61.0423 16.7946C61.7797 17.246 61.9132 17.4342 62.1726 18.3033L62.4443 19.2917L60.4433 19.8214C59.0506 20.1839 57.9115 20.3539 56.7117 20.3771C53.0447 20.4244 47.8872 19.5117 46.8861 18.6216C46.4565 18.249 46.4461 18.211 46.7341 17.8456C47.1513 17.2811 52.4929 16.0375 55.1672 15.8747ZM17.8035 26.9851L19.0395 26.8702L19.2328 27.5735C19.5411 28.695 20.1688 29.5651 21.1348 30.1786C23.2417 31.5211 30.1118 32.0448 34.7315 31.2244C36.1747 30.9708 36.3338 31.0292 35.9945 31.6541C35.3468 32.793 35.2966 36.1801 35.8924 38.347C36.5665 40.799 37.6869 41.6767 40.7603 42.2219C44.3474 42.8508 49.0569 42.8032 52.56 42.0854C54.283 41.7344 54.3728 41.6892 54.6898 41.1319C55.1722 40.2837 55.5329 33.1926 55.1671 31.8621C54.864 30.7597 54.0752 29.7499 53.0574 29.171L52.4516 28.8265L52.9444 28.8341C55.1454 28.8832 58.3177 28.747 59.7713 28.5314C61.5637 28.284 61.7799 28.3267 61.4145 28.8565C61.1369 29.26 60.8369 31.3664 60.8468 32.8152C60.862 33.4653 61.0581 34.6993 61.2881 35.5357C61.9988 38.1207 63.0603 38.9328 66.4639 39.4895C69.8728 40.0652 73.545 40.0369 77.2662 39.4432C80.0679 39.0001 80.5217 38.5686 80.4534 36.4612C80.4511 36.1552 80.511 35.8525 80.5713 35.7746C80.6507 35.6914 82.0377 36.7208 83.6655 38.0314C85.2986 39.3611 86.7222 40.5235 86.8538 40.6304C87.0287 40.7459 86.7764 40.7948 86.0018 40.8033C83.1232 40.8178 77.5739 41.9755 76.0785 42.8568C75.6917 43.0858 75.1913 43.571 74.9793 43.9155C74.0764 45.3903 73.8999 48.6895 74.5897 51.1985C75.3089 53.7403 76.2682 54.4783 79.6339 55.0454C83.067 55.6349 86.6874 55.6413 90.2565 55.0894C92.5156 54.7546 93.3205 54.4106 93.5197 53.7221C93.609 53.4522 93.7769 51.8318 93.8944 50.1026C94.0171 48.3925 94.1127 46.9555 94.1403 46.9071C94.1954 46.8101 97.3979 49.6096 98.8566 51.0486C101.602 53.7488 103.134 55.4538 102.785 55.4476C102.598 55.4376 100.973 55.4755 99.1856 55.5172C92.4656 55.6883 87.1051 56.1194 70.1063 57.8692L57.9027 59.139L56.9814 58.3906C45.6262 49.2868 22.1221 31.9107 15.8814 28.0247L14.77 27.3285L15.6619 27.2264C16.158 27.1718 17.1069 27.054 17.8035 26.9851ZM17.3158 30.2677C33.8826 42.1911 43.5881 49.4586 53.5525 57.3706L57.2359 60.2832L57.1423 60.9836C57.0981 61.3433 56.3754 66.4486 55.5506 72.2976C54.7068 78.1517 53.812 84.4901 53.541 86.4046L53.0623 89.8686L51.9799 88.9804C43.5493 82.037 22.9318 66.8317 13.3526 60.4698L10.1809 58.3774L12.0413 43.2074C13.0754 34.8476 13.983 28.0355 14.0643 28.0336C14.1508 28.0507 15.6085 29.0401 17.3158 30.2677ZM49.6766 21.1868C53.9883 21.9232 57.3251 21.8645 60.6808 20.9828L63.005 20.3642L62.8372 21.1668C62.678 21.9261 62.6176 22.0041 61.8003 22.2288C61.192 22.396 60.9521 22.5642 60.9145 22.7994C60.8807 23.1971 61.3393 23.3777 61.9475 23.2105C62.2897 23.1164 62.4108 23.1853 62.4426 23.5242C62.4901 23.92 62.3727 24.0136 61.6091 24.2849C61.1064 24.464 59.734 24.6777 58.5551 24.7769C56.1108 24.9583 55.435 25.1032 55.3286 25.4595C55.1294 26.1481 57.1803 26.3202 59.9958 25.8528C61.7345 25.5588 62.1978 25.5337 62.1792 25.7637C62.1588 25.9124 62.1783 26.1319 62.2096 26.246C62.2723 26.4741 60.0014 26.9144 57.6435 27.1129C55.5485 27.3004 51.4833 27.0891 49.4458 26.668C47.3702 26.2573 46.7416 25.7555 46.3026 24.1588C46.0152 23.1134 45.8063 20.7175 45.9522 20.2072C45.9831 20.0965 46.4017 20.2063 46.8707 20.4249C47.3449 20.6625 48.606 21.0109 49.6766 21.1868ZM41.9239 23.6249L44.268 23.4507L44.524 24.382C44.9055 25.7696 45.5559 26.797 46.4839 27.421L47.3098 27.9708L46.0876 28.0615C44.5974 28.144 40.987 28.7687 39.4283 29.1972C38.63 29.4166 38.3292 29.438 38.353 29.227C38.3597 29.1025 38.4591 27.8281 38.5409 26.4154C38.7021 24.1018 38.7535 23.8423 39.1407 23.8381C39.3793 23.8134 40.6257 23.7365 41.9239 23.6249ZM65.4832 24.9166C66.1774 25.3596 66.7799 25.7663 66.7956 25.8234C66.8165 25.8994 66.1479 26.1445 65.2926 26.3797C64.1331 26.6985 63.7563 26.7407 63.761 26.535C63.7867 26.4053 63.82 25.7828 63.8586 25.1793C63.8781 24.581 63.967 24.0864 64.0535 24.1035C64.1209 24.1258 64.77 24.4789 65.4832 24.9166ZM46.48 29.7118C50.769 29.4731 53.4389 30.5586 53.7025 32.6327C53.7761 33.1236 53.7571 33.1288 51.7699 33.6343C48.8323 34.401 44.9386 34.3675 41.1316 33.5333C38.6269 32.9748 37.2732 32.1408 37.9722 31.5601C38.4693 31.1373 44.5265 29.8195 46.48 29.7118ZM38.7009 34.5082C40.2391 35.0462 41.6313 35.2768 44.5 35.449C47.3548 35.6454 49.6885 35.4332 52.1404 34.7591C53.2619 34.4508 54.1847 34.2379 54.1951 34.276C54.2735 34.5611 53.8971 35.6459 53.7379 35.5874C53.6462 35.5513 52.8893 35.6981 52.0857 35.8985C50.94 36.1931 50.5808 36.3736 50.4016 36.6887C50.021 37.3862 50.7751 37.5264 52.4477 37.0666C53.7973 36.6955 53.8163 36.6903 53.7792 37.1503C53.7368 37.5913 53.6333 37.6606 52.7 37.8354C52.1193 37.9542 50.7917 38.033 49.7196 38.0006C47.3509 37.9363 46.9555 38.2085 48.3972 38.9162C49.3888 39.4 50.7687 39.5112 52.4556 39.2519C53.0035 39.1626 53.4806 39.1132 53.4911 39.1512C53.4963 39.1703 53.4744 39.4625 53.4525 39.7547C53.4036 40.3202 53.3846 40.3254 52.0797 40.5615C47.3925 41.3595 41.0346 41.063 38.923 39.9262L37.9693 39.432L37.5451 37.4428C37.1561 35.7303 37.0473 34.145 37.2944 34.0771C37.3325 34.0667 37.9777 34.2573 38.7009 34.5082ZM71.6096 26.9736C75.9884 26.6898 78.5248 27.5871 79.0892 29.6399L79.2721 30.3052L77.4284 30.8121C74.5012 31.6168 71.6035 31.6366 67.4733 30.8912C64.7026 30.4059 63.3754 29.8916 63.2999 29.3195C63.2752 29.081 63.4216 28.7954 63.6806 28.622C64.5008 28.1103 69.198 27.1255 71.6096 26.9736ZM63.7593 31.5852C64.9757 32.0685 66.5514 32.3713 69.1677 32.5925C72.6089 32.9139 74.2512 32.7895 77.0263 32.0266C78.419 31.6641 79.5647 31.3696 79.5699 31.3886C79.5752 31.4076 79.5618 31.6566 79.521 31.9541C79.4805 32.4763 79.4097 32.5162 78.0602 32.8872C77.0528 33.1642 76.6175 33.3656 76.5039 33.6217C76.2079 34.2551 76.8341 34.451 78.0886 34.1061C78.7159 33.9336 79.2205 33.8358 79.231 33.8738C79.3616 34.349 79.115 34.6417 78.3927 34.8402C77.4233 35.1067 74.6107 35.2871 72.1659 35.2437C70.1084 35.196 69.5087 35.32 69.4611 35.742C69.4084 36.1449 69.7267 36.2618 71.3091 36.4401C73.1076 36.6612 75.8841 36.5726 77.5796 36.27L78.9604 36.013L78.872 36.7324L78.7836 37.4518L77.0743 37.7787C73.8564 38.418 69.4752 38.3959 66.1837 37.7266C63.8919 37.2731 63.4087 36.854 62.9346 34.9808C62.6453 33.8541 62.4602 31.2472 62.6692 31.1898C62.7073 31.1793 63.2038 31.3495 63.7593 31.5852ZM83.3915 42.6863C88.3211 42.0261 91.7532 42.9838 92.3542 45.1697C92.5319 45.816 92.5181 45.8402 91.6699 46.1756C90.547 46.6274 88.0736 47.0007 86.1321 47.003C82.9906 47.0284 78.1843 46.2032 77.0192 45.4604C76.4029 45.0778 76.4139 44.5228 77.0511 44.1636C77.6936 43.8235 81.4556 42.9323 83.3915 42.6863ZM77.0832 47.1806C78.4778 47.7171 79.4533 47.9192 82.0559 48.1645C85.8274 48.4974 87.2933 48.401 90.2257 47.6153C92.4738 47.0177 92.8454 46.9564 92.8373 47.2244C92.8411 47.3869 92.6676 48.7635 92.4546 50.294L92.0885 53.0524L91.0654 53.2724C86.1021 54.3303 78.4004 53.8308 77.0315 52.3467C76.6538 51.9395 76.4851 51.4747 76.1849 50.0853C75.8723 48.5766 75.7546 46.8098 75.9637 46.7523C75.9827 46.7471 76.5035 46.931 77.0832 47.1806ZM81.8476 57.8919C85.3601 57.5804 89.718 57.2206 91.547 57.1062C94.5411 56.9168 103.095 56.6503 103.26 56.7278C103.284 56.7416 102.924 58.3329 102.466 60.2374C101.99 62.1471 100.464 68.4954 99.0841 74.3334C97.6852 80.1766 96.4988 85.0822 96.4404 85.2414C96.2944 85.7517 81.6497 87.9584 70.3104 89.1746C65.6071 89.6908 54.5301 90.6713 54.3899 90.6076C54.3414 90.58 55.2904 83.6952 56.4713 75.2746L58.6496 59.9968L67.0489 59.2414C71.6782 58.8273 78.3402 58.2224 81.8476 57.8919Z" fill="#F38189"/>
<path d="M52.4183 43.8008C51.5881 44.4993 51.3386 45.079 51.0757 46.7255C50.8028 48.5587 50.8749 50.0109 51.3609 51.7786C52.0455 54.2686 53.0932 55.1049 56.2911 55.6568C59.7675 56.2549 63.5694 56.2523 67.4859 55.6253C69.6964 55.2629 70.2249 54.9541 70.406 53.9025C70.6812 52.3753 70.905 45.9761 70.7064 45.2538C70.0741 42.9539 67.3481 41.5158 63.4198 41.4305C59.903 41.3547 53.7455 42.6795 52.4183 43.8008ZM58.934 43.4815C61.4971 43.063 63.9486 42.982 65.5813 43.2691C67.6464 43.6418 69.1616 44.8403 69.1729 46.1456C69.1772 46.5329 69.0546 46.6075 67.572 47.0151C64.7209 47.7989 61.493 47.8072 57.3818 47.0566C54.9898 46.6103 53.1798 45.9017 53.2065 45.4037C53.2502 44.8192 55.6414 43.9983 58.934 43.4815ZM54.294 47.9464C55.5865 48.4089 57.0842 48.6513 60.1016 48.844C63.2192 49.0295 65.8726 48.7907 68.0082 48.0809C68.9481 47.7816 69.7136 47.5916 69.7345 47.6676C69.7554 47.7437 69.6661 48.0135 69.5525 48.2697C69.3614 48.6902 69.0022 48.8707 67.176 49.5159C65.3499 50.1611 65.0476 50.3259 65.069 50.6267C65.0832 50.8272 65.2738 50.9998 65.585 51.0164C65.9689 51.0744 65.8273 51.1542 64.896 51.4103C64.0839 51.654 63.6728 51.8692 63.5022 52.141C63.3007 52.5235 63.3112 52.5615 63.6747 52.7683C63.9897 52.9474 64.4996 52.8686 66.5852 52.2747L69.108 51.5607L68.9891 52.6156L68.8512 53.6757L67.199 53.9869C64 54.621 59.5999 54.6041 56.3274 53.9296C53.9059 53.4504 53.5543 53.1382 53.0298 51.1562C52.6778 49.8014 52.6075 49.2483 52.6855 47.6731C52.6832 47.3671 52.7697 47.3842 54.294 47.9464Z" fill="#F38189"/>
<path d="M52.4183 43.8008C51.5881 44.4993 51.3386 45.079 51.0757 46.7255C50.8028 48.5587 50.8749 50.0109 51.3609 51.7786C52.0455 54.2686 53.0932 55.1049 56.2911 55.6568C59.7675 56.2549 63.5694 56.2523 67.4859 55.6253C69.6964 55.2629 70.2249 54.9541 70.406 53.9025C70.6812 52.3753 70.905 45.9761 70.7064 45.2538C70.0741 42.9539 67.3481 41.5158 63.4198 41.4305C59.903 41.3547 53.7455 42.6795 52.4183 43.8008ZM58.934 43.4815C61.4971 43.063 63.9486 42.982 65.5813 43.2691C67.6464 43.6418 69.1616 44.8403 69.1729 46.1456C69.1772 46.5329 69.0546 46.6075 67.572 47.0151C64.7209 47.7989 61.493 47.8072 57.3818 47.0566C54.9898 46.6103 53.1798 45.9017 53.2065 45.4037C53.2502 44.8192 55.6414 43.9983 58.934 43.4815ZM54.294 47.9464C55.5865 48.4089 57.0842 48.6513 60.1016 48.844C63.2192 49.0295 65.8726 48.7907 68.0082 48.0809C68.9481 47.7816 69.7136 47.5916 69.7345 47.6676C69.7554 47.7437 69.6661 48.0135 69.5525 48.2697C69.3614 48.6902 69.0022 48.8707 67.176 49.5159C65.3499 50.1611 65.0476 50.3259 65.069 50.6267C65.0832 50.8272 65.2738 50.9998 65.585 51.0164C65.9689 51.0744 65.8273 51.1542 64.896 51.4103C64.0839 51.654 63.6728 51.8692 63.5022 52.141C63.3007 52.5235 63.3112 52.5615 63.6747 52.7683C63.9897 52.9474 64.4996 52.8686 66.5852 52.2747L69.108 51.5607L68.9891 52.6156L68.8512 53.6757L67.199 53.9869C64 54.621 59.5999 54.6041 56.3274 53.9296C53.9059 53.4504 53.5543 53.1382 53.0298 51.1562C52.6778 49.8014 52.6075 49.2483 52.6855 47.6731C52.6832 47.3671 52.7697 47.3842 54.294 47.9464Z" fill="#F38189"/>
<path d="M52.4183 43.8008C51.5881 44.4993 51.3386 45.079 51.0757 46.7255C50.8028 48.5587 50.8749 50.0109 51.3609 51.7786C52.0455 54.2686 53.0932 55.1049 56.2911 55.6568C59.7675 56.2549 63.5694 56.2523 67.4859 55.6253C69.6964 55.2629 70.2249 54.9541 70.406 53.9025C70.6812 52.3753 70.905 45.9761 70.7064 45.2538C70.0741 42.9539 67.3481 41.5158 63.4198 41.4305C59.903 41.3547 53.7455 42.6795 52.4183 43.8008ZM58.934 43.4815C61.4971 43.063 63.9486 42.982 65.5813 43.2691C67.6464 43.6418 69.1616 44.8403 69.1729 46.1456C69.1772 46.5329 69.0546 46.6075 67.572 47.0151C64.7209 47.7989 61.493 47.8072 57.3818 47.0566C54.9898 46.6103 53.1798 45.9017 53.2065 45.4037C53.2502 44.8192 55.6414 43.9983 58.934 43.4815ZM54.294 47.9464C55.5865 48.4089 57.0842 48.6513 60.1016 48.844C63.2192 49.0295 65.8726 48.7907 68.0082 48.0809C68.9481 47.7816 69.7136 47.5916 69.7345 47.6676C69.7554 47.7437 69.6661 48.0135 69.5525 48.2697C69.3614 48.6902 69.0022 48.8707 67.176 49.5159C65.3499 50.1611 65.0476 50.3259 65.069 50.6267C65.0832 50.8272 65.2738 50.9998 65.585 51.0164C65.9689 51.0744 65.8273 51.1542 64.896 51.4103C64.0839 51.654 63.6728 51.8692 63.5022 52.141C63.3007 52.5235 63.3112 52.5615 63.6747 52.7683C63.9897 52.9474 64.4996 52.8686 66.5852 52.2747L69.108 51.5607L68.9891 52.6156L68.8512 53.6757L67.199 53.9869C64 54.621 59.5999 54.6041 56.3274 53.9296C53.9059 53.4504 53.5543 53.1382 53.0298 51.1562C52.6778 49.8014 52.6075 49.2483 52.6855 47.6731C52.6832 47.3671 52.7697 47.3842 54.294 47.9464Z" fill="#F38189"/>
<path d="M57.5716 50.2754C57.6709 50.6366 58.5148 50.7317 59.3892 50.4913C60.2255 50.2614 60.1367 49.9382 59.182 49.8122C58.2084 49.6915 57.4723 49.9143 57.5716 50.2754Z" fill="#F38189"/>
<path d="M57.5716 50.2754C57.6709 50.6366 58.5148 50.7317 59.3892 50.4913C60.2255 50.2614 60.1367 49.9382 59.182 49.8122C58.2084 49.6915 57.4723 49.9143 57.5716 50.2754Z" fill="#F38189"/>
<path d="M57.5716 50.2754C57.6709 50.6366 58.5148 50.7317 59.3892 50.4913C60.2255 50.2614 60.1367 49.9382 59.182 49.8122C58.2084 49.6915 57.4723 49.9143 57.5716 50.2754Z" fill="#F38189"/>
<path d="M56.9818 51.8483C57.4147 52.1587 59.0003 52.2747 59.5117 52.0524C59.8709 51.8718 59.7497 51.8029 58.7034 51.6408C57.3059 51.3912 56.4815 51.5157 56.9818 51.8483Z" fill="#F38189"/>
<path d="M56.9818 51.8483C57.4147 52.1587 59.0003 52.2747 59.5117 52.0524C59.8709 51.8718 59.7497 51.8029 58.7034 51.6408C57.3059 51.3912 56.4815 51.5157 56.9818 51.8483Z" fill="#F38189"/>
<path d="M56.9818 51.8483C57.4147 52.1587 59.0003 52.2747 59.5117 52.0524C59.8709 51.8718 59.7497 51.8029 58.7034 51.6408C57.3059 51.3912 56.4815 51.5157 56.9818 51.8483Z" fill="#F38189"/>
<path d="M16.7535 39.3768C16.8162 39.6049 27.9706 46.0448 29.0226 46.4507C29.6213 46.695 29.9825 46.5957 29.8884 46.2535C29.7734 45.8354 24.4417 42.5786 20.7188 40.6377C17.6934 39.0775 16.5706 38.7115 16.7535 39.3768Z" fill="#F38189"/>
<path d="M16.7535 39.3768C16.8162 39.6049 27.9706 46.0448 29.0226 46.4507C29.6213 46.695 29.9825 46.5957 29.8884 46.2535C29.7734 45.8354 24.4417 42.5786 20.7188 40.6377C17.6934 39.0775 16.5706 38.7115 16.7535 39.3768Z" fill="#F38189"/>
<path d="M16.7535 39.3768C16.8162 39.6049 27.9706 46.0448 29.0226 46.4507C29.6213 46.695 29.9825 46.5957 29.8884 46.2535C29.7734 45.8354 24.4417 42.5786 20.7188 40.6377C17.6934 39.0775 16.5706 38.7115 16.7535 39.3768Z" fill="#F38189"/>
<path d="M13.5711 47.2846C13.4713 47.5165 13.189 48.9434 12.957 50.4792C12.7198 51.9959 12.4108 53.9209 12.2534 54.7614C11.9801 56.3699 12.0561 57.1668 12.4932 57.0466C12.9494 56.9212 13.3411 55.6686 13.9191 52.5658C14.5109 49.4386 14.7068 47.1768 14.4279 46.9059C14.1785 46.6678 13.795 46.8346 13.5711 47.2846Z" fill="#F38189"/>
<path d="M13.5711 47.2846C13.4713 47.5165 13.189 48.9434 12.957 50.4792C12.7198 51.9959 12.4108 53.9209 12.2534 54.7614C11.9801 56.3699 12.0561 57.1668 12.4932 57.0466C12.9494 56.9212 13.3411 55.6686 13.9191 52.5658C14.5109 49.4386 14.7068 47.1768 14.4279 46.9059C14.1785 46.6678 13.795 46.8346 13.5711 47.2846Z" fill="#F38189"/>
<path d="M13.5711 47.2846C13.4713 47.5165 13.189 48.9434 12.957 50.4792C12.7198 51.9959 12.4108 53.9209 12.2534 54.7614C11.9801 56.3699 12.0561 57.1668 12.4932 57.0466C12.9494 56.9212 13.3411 55.6686 13.9191 52.5658C14.5109 49.4386 14.7068 47.1768 14.4279 46.9059C14.1785 46.6678 13.795 46.8346 13.5711 47.2846Z" fill="#F38189"/>
<path d="M30.2232 43.3812C30.1923 43.4919 30.3087 43.7665 30.5044 43.958C31.7693 45.2867 51.5053 59.8143 52.1867 59.9132C52.3165 59.9389 52.4856 59.8106 52.5631 59.6462C52.6819 59.4091 52.3579 59.0484 51.227 58.1327C49.3896 56.6547 40.4667 49.9284 36.3266 46.9164C30.9849 43.0286 30.4223 42.6926 30.2232 43.3812Z" fill="#F38189"/>
<path d="M30.2232 43.3812C30.1923 43.4919 30.3087 43.7665 30.5044 43.958C31.7693 45.2867 51.5053 59.8143 52.1867 59.9132C52.3165 59.9389 52.4856 59.8106 52.5631 59.6462C52.6819 59.4091 52.3579 59.0484 51.227 58.1327C49.3896 56.6547 40.4667 49.9284 36.3266 46.9164C30.9849 43.0286 30.4223 42.6926 30.2232 43.3812Z" fill="#F38189"/>
<path d="M30.2232 43.3812C30.1923 43.4919 30.3087 43.7665 30.5044 43.958C31.7693 45.2867 51.5053 59.8143 52.1867 59.9132C52.3165 59.9389 52.4856 59.8106 52.5631 59.6462C52.6819 59.4091 52.3579 59.0484 51.227 58.1327C49.3896 56.6547 40.4667 49.9284 36.3266 46.9164C30.9849 43.0286 30.4223 42.6926 30.2232 43.3812Z" fill="#F38189"/>
<path d="M15.4888 49.9466C14.9622 51.1545 14.0695 55.1207 14.2947 55.345C14.6221 55.6435 15.0018 55.3142 15.1387 54.6223C15.2209 54.2522 15.595 52.8614 15.952 51.557C16.5717 49.424 16.5946 48.7635 16.1004 48.8993C16.0054 48.9255 15.7435 49.3859 15.4888 49.9466Z" fill="#F38189"/>
<path d="M15.4888 49.9466C14.9622 51.1545 14.0695 55.1207 14.2947 55.345C14.6221 55.6435 15.0018 55.3142 15.1387 54.6223C15.2209 54.2522 15.595 52.8614 15.952 51.557C16.5717 49.424 16.5946 48.7635 16.1004 48.8993C16.0054 48.9255 15.7435 49.3859 15.4888 49.9466Z" fill="#F38189"/>
<path d="M15.4888 49.9466C14.9622 51.1545 14.0695 55.1207 14.2947 55.345C14.6221 55.6435 15.0018 55.3142 15.1387 54.6223C15.2209 54.2522 15.595 52.8614 15.952 51.557C16.5717 49.424 16.5946 48.7635 16.1004 48.8993C16.0054 48.9255 15.7435 49.3859 15.4888 49.9466Z" fill="#F38189"/>
<path d="M80.9386 50.4957C80.7471 50.6914 80.7836 50.8245 81.0036 51.0298C82.1278 52.07 85.9369 52.1677 89.3634 51.2461C90.77 50.8594 91.1948 50.6199 91.0955 50.2588C91.0015 49.9166 90.6575 49.9295 88.4417 50.2729C86.2639 50.6058 84.1512 50.6551 82.4425 50.3889C81.7611 50.29 81.2094 50.2168 81.1904 50.222C81.1904 50.222 81.0645 50.3588 80.9386 50.4957Z" fill="#F38189"/>
<path d="M80.9386 50.4957C80.7471 50.6914 80.7836 50.8245 81.0036 51.0298C82.1278 52.07 85.9369 52.1677 89.3634 51.2461C90.77 50.8594 91.1948 50.6199 91.0955 50.2588C91.0015 49.9166 90.6575 49.9295 88.4417 50.2729C86.2639 50.6058 84.1512 50.6551 82.4425 50.3889C81.7611 50.29 81.2094 50.2168 81.1904 50.222C81.1904 50.222 81.0645 50.3588 80.9386 50.4957Z" fill="#F38189"/>
<path d="M80.9386 50.4957C80.7471 50.6914 80.7836 50.8245 81.0036 51.0298C82.1278 52.07 85.9369 52.1677 89.3634 51.2461C90.77 50.8594 91.1948 50.6199 91.0955 50.2588C91.0015 49.9166 90.6575 49.9295 88.4417 50.2729C86.2639 50.6058 84.1512 50.6551 82.4425 50.3889C81.7611 50.29 81.2094 50.2168 81.1904 50.222C81.1904 50.222 81.0645 50.3588 80.9386 50.4957Z" fill="#F38189"/>
<path d="M63.8539 65.1694C63.1634 66.5246 60.3723 84.8535 60.7677 85.3991C61.0988 85.86 61.3916 85.2889 61.7543 83.4105C62.646 78.9947 64.4476 68.8906 64.6792 67.1301C64.8665 65.7293 64.8532 65.1605 64.6522 64.95C64.304 64.5755 64.1139 64.6278 63.8539 65.1694Z" fill="#F38189"/>
<path d="M63.8539 65.1694C63.1634 66.5246 60.3723 84.8535 60.7677 85.3991C61.0988 85.86 61.3916 85.2889 61.7543 83.4105C62.646 78.9947 64.4476 68.8906 64.6792 67.1301C64.8665 65.7293 64.8532 65.1605 64.6522 64.95C64.304 64.5755 64.1139 64.6278 63.8539 65.1694Z" fill="#F38189"/>
<path d="M63.8539 65.1694C63.1634 66.5246 60.3723 84.8535 60.7677 85.3991C61.0988 85.86 61.3916 85.2889 61.7543 83.4105C62.646 78.9947 64.4476 68.8906 64.6792 67.1301C64.8665 65.7293 64.8532 65.1605 64.6522 64.95C64.304 64.5755 64.1139 64.6278 63.8539 65.1694Z" fill="#F38189"/>
<path d="M59.4196 71.2748C58.9496 72.2422 58.2203 77.472 58.4925 77.8673C58.5861 77.9847 58.7696 78.057 58.9216 78.0151C59.2637 77.9211 60.6128 71.376 60.351 71.0187C60.0839 70.6423 59.6658 70.7573 59.4196 71.2748Z" fill="#F38189"/>
<path d="M59.4196 71.2748C58.9496 72.2422 58.2203 77.472 58.4925 77.8673C58.5861 77.9847 58.7696 78.057 58.9216 78.0151C59.2637 77.9211 60.6128 71.376 60.351 71.0187C60.0839 70.6423 59.6658 70.7573 59.4196 71.2748Z" fill="#F38189"/>
<path d="M59.4196 71.2748C58.9496 72.2422 58.2203 77.472 58.4925 77.8673C58.5861 77.9847 58.7696 78.057 58.9216 78.0151C59.2637 77.9211 60.6128 71.376 60.351 71.0187C60.0839 70.6423 59.6658 70.7573 59.4196 71.2748Z" fill="#F38189"/>
<path d="M82.9704 77.7412C82.4957 78.0966 82.5883 78.5822 83.1557 78.7125C83.6123 78.8118 85.3197 78.4037 85.7426 78.083C86.0672 77.8507 85.9589 77.308 85.5469 77.0737C85.2076 76.8808 83.5298 77.3216 82.9704 77.7412Z" fill="#F38189"/>
<path d="M82.9704 77.7412C82.4957 78.0966 82.5883 78.5822 83.1557 78.7125C83.6123 78.8118 85.3197 78.4037 85.7426 78.083C86.0672 77.8507 85.9589 77.308 85.5469 77.0737C85.2076 76.8808 83.5298 77.3216 82.9704 77.7412Z" fill="#F38189"/>
<path d="M82.9704 77.7412C82.4957 78.0966 82.5883 78.5822 83.1557 78.7125C83.6123 78.8118 85.3197 78.4037 85.7426 78.083C86.0672 77.8507 85.9589 77.308 85.5469 77.0737C85.2076 76.8808 83.5298 77.3216 82.9704 77.7412Z" fill="#F38189"/>
<path d="M79.1526 80.9579C78.619 81.2477 78.3885 81.8222 78.7278 82.0151C78.8732 82.0978 80.0934 81.9259 81.4691 81.6499C87.7943 80.3403 91.0294 79.6144 91.1743 79.4724C91.44 79.1744 91.1625 78.7601 90.6973 78.704C89.2499 78.5703 80.3668 80.3174 79.1526 80.9579Z" fill="#F38189"/>
<path d="M79.1526 80.9579C78.619 81.2477 78.3885 81.8222 78.7278 82.0151C78.8732 82.0978 80.0934 81.9259 81.4691 81.6499C87.7943 80.3403 91.0294 79.6144 91.1743 79.4724C91.44 79.1744 91.1625 78.7601 90.6973 78.704C89.2499 78.5703 80.3668 80.3174 79.1526 80.9579Z" fill="#F38189"/>
<path d="M79.1526 80.9579C78.619 81.2477 78.3885 81.8222 78.7278 82.0151C78.8732 82.0978 80.0934 81.9259 81.4691 81.6499C87.7943 80.3403 91.0294 79.6144 91.1743 79.4724C91.44 79.1744 91.1625 78.7601 90.6973 78.704C89.2499 78.5703 80.3668 80.3174 79.1526 80.9579Z" fill="#F38189"/>
<path d="M71.0163 86.0161C71.0011 86.1838 71.1156 86.3772 71.28 86.4547C71.8407 86.7094 83.0745 84.6636 90.5331 82.9402C93.2963 82.2827 93.7283 82.1435 93.6655 81.9154C93.6081 81.7063 93.1343 81.6935 91.7758 81.883C90.7698 82.0164 89.7448 82.1551 89.5011 82.1608C88.7422 82.2263 81.307 83.514 77.5411 84.2427C72.785 85.1618 71.0553 85.6374 71.0163 86.0161Z" fill="#F38189"/>
<path d="M71.0163 86.0161C71.0011 86.1838 71.1156 86.3772 71.28 86.4547C71.8407 86.7094 83.0745 84.6636 90.5331 82.9402C93.2963 82.2827 93.7283 82.1435 93.6655 81.9154C93.6081 81.7063 93.1343 81.6935 91.7758 81.883C90.7698 82.0164 89.7448 82.1551 89.5011 82.1608C88.7422 82.2263 81.307 83.514 77.5411 84.2427C72.785 85.1618 71.0553 85.6374 71.0163 86.0161Z" fill="#F38189"/>
<path d="M71.0163 86.0161C71.0011 86.1838 71.1156 86.3772 71.28 86.4547C71.8407 86.7094 83.0745 84.6636 90.5331 82.9402C93.2963 82.2827 93.7283 82.1435 93.6655 81.9154C93.6081 81.7063 93.1343 81.6935 91.7758 81.883C90.7698 82.0164 89.7448 82.1551 89.5011 82.1608C88.7422 82.2263 81.307 83.514 77.5411 84.2427C72.785 85.1618 71.0553 85.6374 71.0163 86.0161Z" fill="#F38189"/>
</svg>
