<svg width="95" height="32" viewBox="0 0 95 32" fill="none" xmlns="http://www.w3.org/2000/svg">
<path d="M15.957 25.0288L0 24.5556L0.750571 0L7.08113 0.212116L6.49378 19.2855L16.1202 19.5303L15.9407 25.0451L15.957 25.0288Z" fill="#FF8C8C"/>
<path d="M26.2688 7.89701C31.5388 7.61964 35.4873 10.7686 35.7647 15.8102C36.0421 20.8192 32.4362 24.3762 27.1661 24.6536C21.8961 24.9309 17.9476 21.7819 17.6703 16.7729C17.3929 11.7313 20.9987 8.17438 26.2688 7.89701ZM29.5972 16.1202C29.4667 13.6891 28.3572 12.1066 26.5135 12.2208C24.6698 12.3187 23.7072 13.9992 23.8377 16.4302C23.9682 18.8613 25.0777 20.444 26.9214 20.3298C28.7651 20.2156 29.7278 18.5513 29.5972 16.1202Z" fill="#FF8C8C"/>
<path d="M44.6732 7.76642C46.4842 7.76642 48.2627 8.517 49.6332 9.9528H49.7311L49.9432 8.45166C51.7543 8.54956 53.6143 8.66384 55.4254 8.7291L54.838 21.5044C54.528 28.2919 51.0037 31.7183 45.5216 31.7183C42.4052 31.7183 39.6315 30.5598 37.4452 28.0472C40.0557 25.2735 40.4637 24.7187 40.4637 24.7187C41.8016 26.2524 43.5147 27.3619 45.2279 27.3619C47.349 27.3619 48.6869 26.0567 48.7848 23.185C48.7521 23.185 48.7195 23.1524 48.6869 23.1524C47.4469 24.0824 46.0437 24.5556 44.6405 24.5556C40.6921 24.5556 37.5105 21.5371 37.5105 16.4629C37.5105 11.3886 40.3168 7.76642 44.6732 7.76642ZM49.1274 15.9897C49.1274 13.6892 48.0995 12.1881 46.3863 12.1881C44.51 12.1881 43.5147 14.1786 43.5147 16.4629C43.5147 18.7471 44.5426 20.2971 46.2558 20.2971C48.1811 20.2971 49.1274 18.274 49.1274 15.9734V15.9897Z" fill="#FF8C8C"/>
<path d="M68.2171 25.2735L68.7718 0.717896L75.1024 0.848451L74.5477 25.404L68.2171 25.2735Z" fill="#FF8C8C"/>
<path d="M88.4979 14.6518C88.4653 12.9387 87.5352 12.4166 86.4421 12.4166C85.2021 12.4166 84.3536 13.2323 84.3536 14.7497L84.5657 24.4088L78.643 24.5066C78.5451 19.2366 78.3983 13.8849 78.2677 8.58224L83.7826 8.45168C83.8478 8.92484 83.9131 9.447 83.9457 9.92016C85.1042 8.71278 86.9315 7.92966 88.8731 7.92966C91.8263 7.92966 94.2901 9.12067 94.3553 13.3791L94.6327 24.164C92.6421 24.1966 90.6842 24.2293 88.71 24.2945L88.4979 14.6355V14.6518Z" fill="#FF8C8C"/>
</svg>
