<svg width="47" height="47" viewBox="0 0 47 47" fill="none" xmlns="http://www.w3.org/2000/svg">
<path d="M40.9619 18.0077C41.0199 18.1502 41.077 18.3913 41.0887 18.541C41.1071 18.8459 40.7699 19.7879 40.4929 20.2092L40.318 20.4759L40.7087 20.7646C40.9178 20.9264 41.2929 21.2106 41.5289 21.3972L41.9633 21.7358L41.7906 22.1733C41.6598 22.5002 38.7187 30.6378 37.9943 32.6846L37.9165 32.9211L36.3413 33.1554C31.1986 33.9127 22.3133 35.4596 18.5861 36.2434C17.9341 36.3806 17.748 36.3887 17.5987 36.2916C17.497 36.2183 16.8154 35.792 16.0811 35.3473C12.861 33.3787 9.33881 31.014 5.71767 28.3997C5.0117 27.8916 4.36913 27.4118 4.28819 27.3376C4.1533 27.214 4.22614 26.8637 5.41049 21.9318C6.9496 15.508 6.85563 15.8488 7.03414 15.7841C7.11058 15.7548 7.47705 15.6042 7.84352 15.4536C8.79545 15.065 9.92948 14.6945 11.1953 14.3752C12.0456 14.1517 12.3158 14.0519 12.4543 13.9008C12.8253 13.4961 13.6374 13.3468 14.3766 13.5478C14.5389 13.5874 14.7107 13.6058 14.7665 13.5775C14.8222 13.5492 15.6428 13.3581 16.597 13.1404C17.5516 12.9331 18.3772 12.7366 18.4339 12.729C18.4901 12.711 18.6731 12.3922 18.8484 12.0167C19.2284 11.223 19.5337 10.8575 19.982 10.6825C20.7865 10.3574 22.1022 10.7095 23.3887 11.5809L23.8743 11.9069L24.8523 11.7608C25.3923 11.6699 25.8861 11.5863 25.9423 11.5683C26.0138 11.5445 26.1738 11.294 26.3546 10.9235C26.7058 10.1829 26.9697 9.93827 27.5745 9.78763C28.7175 9.50478 30.4245 10.275 32.188 11.8717C33.0343 12.6276 33.1782 12.839 33.158 13.3268C33.1512 13.6483 32.9655 14.2626 32.7645 14.6443C32.6692 14.835 32.6094 15.0086 32.6364 15.0333C32.8707 15.1785 34.2516 15.9578 34.3037 15.9659C34.3456 15.9744 34.4045 15.8993 34.4467 15.799C34.7502 15.0346 35.9706 14.7432 37.1181 15.1596C38.013 15.4833 38.8336 16.0072 39.9101 16.9344C40.6907 17.6102 40.8697 17.7941 40.9619 18.0077ZM38.3093 16.46C37.5687 15.9897 36.9608 15.7104 36.4171 15.5994C35.8371 15.4847 35.4472 15.5742 35.1653 15.8818L34.9477 16.1192L35.3901 16.5248C35.9675 17.054 36.4738 17.3791 37.2989 17.7681C38.6102 18.3742 40.2478 18.7434 40.4173 18.4718C40.4511 18.4133 40.4407 18.2946 40.385 18.2038C40.2397 17.9614 38.9168 16.8481 38.3093 16.46ZM38.8044 18.9097C37.3282 18.4403 35.9423 17.6665 35.114 16.8476L34.6378 16.3814L34.5596 16.6075C34.4904 16.8022 34.5034 16.8638 34.7156 17.0981C34.9117 17.3175 34.9351 17.3787 34.851 17.4704C34.7768 17.5514 34.704 17.5442 34.5592 17.4313C34.377 17.2942 34.2745 17.3193 34.2417 17.5176C34.2156 17.6328 35.1837 18.3315 35.8573 18.6908C36.3084 18.9354 36.4226 19.06 36.3039 19.1895C36.1307 19.3783 35.3434 19.024 34.5443 18.4008C34.1046 18.0572 34.078 18.0429 34.0115 18.1804C33.8217 18.5824 33.8869 18.6521 35.1186 19.4534C36.2913 20.2106 38.1835 20.9521 38.7927 20.9049C39.2159 20.8658 39.9034 20.1157 40.1975 19.3724L40.2627 19.2038L39.8251 19.1503C39.5855 19.1193 39.125 19.015 38.8044 18.9097ZM30.0373 11.0224C29.2769 10.5736 28.4518 10.3038 27.9401 10.3313C27.6199 10.3555 27.5439 10.3951 27.311 10.6384L27.0538 10.919L27.6253 11.4329C28.0242 11.7886 28.3718 12.0377 28.7643 12.2486C29.9681 12.8853 31.827 13.4573 32.3086 13.3327C32.5136 13.2823 32.5235 13.2715 32.4902 13.102C32.448 12.8448 30.8935 11.5291 30.0373 11.0224ZM40.5023 21.0222L40.1134 20.7749L39.9304 20.9746C39.6386 21.2929 39.2838 21.4741 38.8606 21.5133C37.937 21.6001 35.5781 20.6095 34.1905 19.556C33.7565 19.2277 33.694 19.2201 33.7003 19.484C33.7215 19.9701 33.1644 21.0978 32.6005 21.713C31.9624 22.4091 31.4435 22.5094 30.3356 22.169C29.0437 21.7692 27.4955 20.9558 26.4595 20.1253C25.9496 19.7175 25.9275 19.6873 25.9172 19.4495C25.9014 19.0875 26.9833 16.6832 27.3295 16.3054C27.6164 15.9925 28.0481 15.7924 28.4824 15.7735L28.741 15.7622L28.5769 15.6813C27.8412 15.3247 26.816 14.7424 26.3722 14.425C25.8218 14.0396 25.7431 14.0171 25.7741 14.2541C25.7975 14.4344 25.5399 15.1813 25.2912 15.6584C25.1761 15.8706 24.9023 16.2452 24.6846 16.4826C24.0119 17.2165 23.5236 17.3051 22.3046 16.9125C21.0806 16.5254 19.8719 15.8941 18.7428 15.0676C17.8921 14.4467 17.8152 14.2272 18.1947 13.5424C18.2473 13.4417 18.2787 13.3315 18.272 13.2955C18.2599 13.2546 17.6272 13.3598 16.8673 13.5172C16.1024 13.68 15.4351 13.823 15.3735 13.836C15.2962 13.8446 15.3713 13.9035 15.6258 14.0375C16.5745 14.5299 18.2122 15.8523 18.5571 16.3968C18.6462 16.538 18.7293 16.7831 18.741 16.9328C18.7896 17.5731 18.2891 18.6932 17.6363 19.4055C16.9681 20.1236 16.526 20.205 15.3178 19.8224C14.0835 19.4357 12.886 18.8246 11.8001 18.0377C11.1103 17.5444 10.9026 17.2944 10.9534 17.0332C10.9696 16.9289 11.1885 16.365 11.4426 15.7737C11.6917 15.1878 11.9035 14.6967 11.9026 14.6761C11.9008 14.6347 10.3684 15.0174 9.64261 15.2458C8.2779 15.673 7.4829 15.977 7.59936 16.0341C7.66277 16.0624 8.19337 16.3502 8.77703 16.6667C10.9687 17.8614 12.6671 18.9118 17.9879 22.3692L21.8056 24.8558L22.2368 24.7645C27.5311 23.6794 38.241 21.9184 40.9615 21.6913L41.4466 21.6495L41.1692 21.4647C41.0145 21.3626 40.7209 21.163 40.5023 21.0222ZM40.1076 22.1895C32.6135 23.3237 28.1754 24.0814 23.5426 25.0082L21.8321 25.3468L21.7444 25.5941C21.6981 25.7205 21.0722 27.5299 20.3541 29.6024C19.6414 31.6798 18.8635 33.9259 18.6288 34.6044L18.2003 35.8302L18.7084 35.72C22.6704 34.8535 32.0588 33.321 36.3018 32.8411L37.7042 32.6869L39.6589 27.3588C40.7331 24.4212 41.5869 22.0164 41.5604 22.002C41.5289 21.993 40.8796 22.0731 40.1076 22.1895ZM30.952 13.7077C29.4024 13.2208 28.3097 12.6362 27.3502 11.7765L26.6869 11.1784L26.6064 11.4721C26.5304 11.75 26.5372 11.7859 26.7692 11.9986C26.9419 12.1569 26.9927 12.2531 26.9653 12.3372C26.9091 12.4744 26.7269 12.4564 26.5543 12.2981C26.4571 12.2091 26.4054 12.2113 26.3375 12.3179C26.2548 12.4406 26.2777 12.4914 26.4841 12.7104C26.6199 12.8548 27.0372 13.1578 27.41 13.3903C28.187 13.8642 28.3857 14.0266 28.3606 14.1624C28.3098 14.4236 27.6029 14.1331 26.7517 13.5018C26.2269 13.1102 26.0781 13.0234 26.0453 13.1025C26.0268 13.1551 25.9832 13.2244 25.9535 13.2568C25.8942 13.3215 26.57 13.8517 27.3156 14.3166C27.9761 14.7334 29.3552 15.3521 30.0999 15.5581C30.8553 15.7739 31.148 15.7145 31.5635 15.2613C31.8355 14.9645 32.3104 14.2082 32.3486 14.0148C32.3571 13.973 32.2002 13.9384 32.0082 13.9312C31.8113 13.9294 31.3355 13.8309 30.952 13.7077ZM33.1009 15.8265L32.3558 15.3719L32.1134 15.6363C31.7524 16.0302 31.3634 16.2595 30.9511 16.3086L30.5851 16.3504L30.9736 16.5873C31.452 16.867 32.5393 17.6849 32.9818 18.0905C33.2084 18.2983 33.3042 18.3563 33.332 18.2825C33.3509 18.2403 33.5339 17.8023 33.7462 17.3216C34.0848 16.5297 34.1117 16.4353 33.9845 16.3683C33.9098 16.3198 33.511 16.0832 33.1009 15.8265ZM25.0969 12.263C24.7925 12.2918 24.5245 12.3242 24.5097 12.3404C24.4899 12.362 24.6693 12.5562 24.9121 12.7788C25.2413 13.0805 25.3586 13.1583 25.3919 13.0895C25.4054 13.0423 25.4998 12.8309 25.5893 12.625C25.6842 12.424 25.7386 12.2455 25.7071 12.2365C25.681 12.2324 25.4067 12.2392 25.0969 12.263ZM30.5644 17.0662C29.1875 16.2609 28.1214 16.1674 27.683 16.8082C27.5755 16.9579 27.5809 16.9628 28.152 17.4665C28.9928 18.2174 30.2852 18.8658 31.6845 19.2349C32.6068 19.4746 33.1954 19.4283 33.0627 19.118C32.9701 18.8941 31.1917 17.4327 30.5644 17.0662ZM32.3226 19.9688C31.7232 19.886 31.2241 19.7264 30.2469 19.2974C29.2703 18.8788 28.5351 18.4134 27.839 17.7754C27.5206 17.4836 27.2517 17.2569 27.2419 17.2677C27.1677 17.3487 27.1083 17.7709 27.1708 17.7785C27.2072 17.7821 27.4325 17.9588 27.6641 18.1612C27.9928 18.4526 28.0809 18.5731 28.0868 18.7075C28.0944 19.0025 27.8215 18.9211 27.3466 18.4858C26.9635 18.1347 26.9581 18.1297 26.8925 18.288C26.8318 18.4409 26.8543 18.4814 27.133 18.6972C27.3048 18.8348 27.7302 19.0857 28.0899 19.2566C28.8836 19.6365 28.9681 19.7934 28.3719 19.7831C27.9622 19.775 27.4874 19.5781 26.9739 19.2067C26.8079 19.0843 26.6587 18.9872 26.6488 18.998C26.6438 19.0034 26.6016 19.1037 26.5593 19.204C26.4797 19.3991 26.4851 19.4041 26.8763 19.7031C28.29 20.7607 30.4412 21.7395 31.3316 21.7215L31.7304 21.7197L32.2075 21.1343C32.6261 20.6343 32.9305 20.1288 32.8604 20.0645C32.8496 20.0546 32.6041 20.0083 32.3226 19.9688ZM22.7241 11.9051C21.3252 11.0697 20.335 10.9366 19.8008 11.5194L19.6277 11.7082L20.1511 12.188C20.9821 12.9497 21.9363 13.447 23.4274 13.9003C24.4251 14.2092 24.9508 14.264 25.0727 14.0877C25.1212 14.0131 25.1212 13.8939 25.065 13.7928C24.8806 13.4848 23.4952 12.3638 22.7241 11.9051ZM24.5371 14.7586C24.0533 14.7123 23.4813 14.5455 22.5793 14.1755C21.3877 13.6988 20.8661 13.3796 20.0783 12.6574C19.6794 12.3018 19.3507 12.0104 19.3458 12.0158C19.3408 12.0212 19.3031 12.1057 19.2662 12.2109C19.1911 12.3904 19.2077 12.4155 19.5908 12.7667C19.8768 13.0289 19.9866 13.1692 19.9807 13.273C19.9713 13.5325 19.7311 13.4911 19.375 13.1647C19.1969 13.0014 19.0468 12.8836 19.0369 12.8944C18.9132 13.0293 18.9451 13.1678 19.1502 13.3558C19.4254 13.608 20.3243 14.144 21.1395 14.5437C21.8275 14.8765 22.0046 15.019 21.9489 15.1665C21.8981 15.3086 21.7731 15.2933 21.22 15.0842C20.5882 14.8527 19.6857 14.3531 19.1767 13.966L18.7639 13.6472L18.6713 13.8999L18.5787 14.1526L19.0881 14.5501C20.0432 15.3064 21.4947 16.0411 22.6958 16.3774C23.5299 16.6158 23.7606 16.5591 24.2345 16.0204C24.5209 15.6971 25.0237 14.867 24.9643 14.8126C24.9535 14.8027 24.7606 14.7748 24.5371 14.7586ZM16.1694 15.1018C14.6522 14.0487 13.3559 13.7839 12.7871 14.4044C12.6189 14.5879 12.6193 14.5983 12.8428 14.8528C13.1374 15.1922 13.8914 15.7345 14.5327 16.0641C15.5664 16.6046 17.2945 17.146 17.8053 17.0979C18.0737 17.0758 18.1641 16.8906 18.0144 16.6639C17.8597 16.4427 16.7675 15.511 16.1694 15.1018ZM17.4928 17.6554C16.9411 17.5965 16.5845 17.4981 15.6829 17.1383C14.3802 16.6096 13.9121 16.3294 13.0762 15.5731C12.4345 14.9949 12.3221 14.9117 12.2794 15.0016C12.2506 15.0547 12.0748 15.5389 11.886 16.0808L11.5397 17.0543L11.8406 17.3003C13.3015 18.4905 15.9311 19.6299 16.6349 19.3713C16.8287 19.3007 16.9631 19.1757 17.2976 18.7674C17.6565 18.3218 17.9946 17.7579 17.9353 17.7035C17.9299 17.6986 17.7266 17.6712 17.4928 17.6554ZM14.1042 20.3881C12.9962 19.6902 11.6171 18.8332 11.0321 18.4856C10.0748 17.9159 7.29315 16.379 7.2257 16.3767C7.21536 16.3772 7.06473 16.964 6.89342 17.6708C6.7275 18.3827 6.15646 20.7389 5.62363 22.9017C5.09621 25.0696 4.65736 26.8916 4.64972 26.9541C4.6115 27.1474 9.0771 30.3571 12.6182 32.6795C14.085 33.6467 17.5793 35.8469 17.6364 35.8496C17.6571 35.8487 18.5096 33.4128 19.5456 30.4302L21.4135 25.0127L18.7658 23.3405C17.3062 22.4196 15.2072 21.0913 14.1042 20.3881Z" fill="#F38189"/>
<path d="M40.9619 18.0077C41.0199 18.1502 41.077 18.3913 41.0887 18.541C41.1071 18.8459 40.7699 19.7879 40.4929 20.2092L40.318 20.4759L40.7087 20.7646C40.9178 20.9264 41.2929 21.2106 41.5289 21.3972L41.9633 21.7358L41.7906 22.1733C41.6598 22.5002 38.7187 30.6378 37.9943 32.6846L37.9165 32.9211L36.3413 33.1554C31.1986 33.9127 22.3133 35.4596 18.5861 36.2434C17.9341 36.3806 17.748 36.3887 17.5987 36.2916C17.497 36.2183 16.8154 35.792 16.0811 35.3473C12.861 33.3787 9.33881 31.014 5.71767 28.3997C5.0117 27.8916 4.36913 27.4118 4.28819 27.3376C4.1533 27.214 4.22614 26.8637 5.41049 21.9318C6.9496 15.508 6.85563 15.8488 7.03414 15.7841C7.11058 15.7548 7.47705 15.6042 7.84352 15.4536C8.79545 15.065 9.92948 14.6945 11.1953 14.3752C12.0456 14.1517 12.3158 14.0519 12.4543 13.9008C12.8253 13.4961 13.6374 13.3468 14.3766 13.5478C14.5389 13.5874 14.7107 13.6058 14.7665 13.5775C14.8222 13.5492 15.6428 13.3581 16.597 13.1404C17.5516 12.9331 18.3772 12.7366 18.4339 12.729C18.4901 12.711 18.6731 12.3922 18.8484 12.0167C19.2284 11.223 19.5337 10.8575 19.982 10.6825C20.7865 10.3574 22.1022 10.7095 23.3887 11.5809L23.8743 11.9069L24.8523 11.7608C25.3923 11.6699 25.8861 11.5863 25.9423 11.5683C26.0138 11.5445 26.1738 11.294 26.3546 10.9235C26.7058 10.1829 26.9697 9.93827 27.5745 9.78763C28.7175 9.50478 30.4245 10.275 32.188 11.8717C33.0343 12.6276 33.1782 12.839 33.158 13.3268C33.1512 13.6483 32.9655 14.2626 32.7645 14.6443C32.6692 14.835 32.6094 15.0086 32.6364 15.0333C32.8707 15.1785 34.2516 15.9578 34.3037 15.9659C34.3456 15.9744 34.4045 15.8993 34.4467 15.799C34.7502 15.0346 35.9706 14.7432 37.1181 15.1596C38.013 15.4833 38.8336 16.0072 39.9101 16.9344C40.6907 17.6102 40.8697 17.7941 40.9619 18.0077ZM38.3093 16.46C37.5687 15.9897 36.9608 15.7104 36.4171 15.5994C35.8371 15.4847 35.4472 15.5742 35.1653 15.8818L34.9477 16.1192L35.3901 16.5248C35.9675 17.054 36.4738 17.3791 37.2989 17.7681C38.6102 18.3742 40.2478 18.7434 40.4173 18.4718C40.4511 18.4133 40.4407 18.2946 40.385 18.2038C40.2397 17.9614 38.9168 16.8481 38.3093 16.46ZM38.8044 18.9097C37.3282 18.4403 35.9423 17.6665 35.114 16.8476L34.6378 16.3814L34.5596 16.6075C34.4904 16.8022 34.5034 16.8638 34.7156 17.0981C34.9117 17.3175 34.9351 17.3787 34.851 17.4704C34.7768 17.5514 34.704 17.5442 34.5592 17.4313C34.377 17.2942 34.2745 17.3193 34.2417 17.5176C34.2156 17.6328 35.1837 18.3315 35.8573 18.6908C36.3084 18.9354 36.4226 19.06 36.3039 19.1895C36.1307 19.3783 35.3434 19.024 34.5443 18.4008C34.1046 18.0572 34.078 18.0429 34.0115 18.1804C33.8217 18.5824 33.8869 18.6521 35.1186 19.4534C36.2913 20.2106 38.1835 20.9521 38.7927 20.9049C39.2159 20.8658 39.9034 20.1157 40.1975 19.3724L40.2627 19.2038L39.8251 19.1503C39.5855 19.1193 39.125 19.015 38.8044 18.9097ZM30.0373 11.0224C29.2769 10.5736 28.4518 10.3038 27.9401 10.3313C27.6199 10.3555 27.5439 10.3951 27.311 10.6384L27.0538 10.919L27.6253 11.4329C28.0242 11.7886 28.3718 12.0377 28.7643 12.2486C29.9681 12.8853 31.827 13.4573 32.3086 13.3327C32.5136 13.2823 32.5235 13.2715 32.4902 13.102C32.448 12.8448 30.8935 11.5291 30.0373 11.0224ZM40.5023 21.0222L40.1134 20.7749L39.9304 20.9746C39.6386 21.2929 39.2838 21.4741 38.8606 21.5133C37.937 21.6001 35.5781 20.6095 34.1905 19.556C33.7565 19.2277 33.694 19.2201 33.7003 19.484C33.7215 19.9701 33.1644 21.0978 32.6005 21.713C31.9624 22.4091 31.4435 22.5094 30.3356 22.169C29.0437 21.7692 27.4955 20.9558 26.4595 20.1253C25.9496 19.7175 25.9275 19.6873 25.9172 19.4495C25.9014 19.0875 26.9833 16.6832 27.3295 16.3054C27.6164 15.9925 28.0481 15.7924 28.4824 15.7735L28.741 15.7622L28.5769 15.6813C27.8412 15.3247 26.816 14.7424 26.3722 14.425C25.8218 14.0396 25.7431 14.0171 25.7741 14.2541C25.7975 14.4344 25.5399 15.1813 25.2912 15.6584C25.1761 15.8706 24.9023 16.2452 24.6846 16.4826C24.0119 17.2165 23.5236 17.3051 22.3046 16.9125C21.0806 16.5254 19.8719 15.8941 18.7428 15.0676C17.8921 14.4467 17.8152 14.2272 18.1947 13.5424C18.2473 13.4417 18.2787 13.3315 18.272 13.2955C18.2599 13.2546 17.6272 13.3598 16.8673 13.5172C16.1024 13.68 15.4351 13.823 15.3735 13.836C15.2962 13.8446 15.3713 13.9035 15.6258 14.0375C16.5745 14.5299 18.2122 15.8523 18.5571 16.3968C18.6462 16.538 18.7293 16.7831 18.741 16.9328C18.7896 17.5731 18.2891 18.6932 17.6363 19.4055C16.9681 20.1236 16.526 20.205 15.3178 19.8224C14.0835 19.4357 12.886 18.8246 11.8001 18.0377C11.1103 17.5444 10.9026 17.2944 10.9534 17.0332C10.9696 16.9289 11.1885 16.365 11.4426 15.7737C11.6917 15.1878 11.9035 14.6967 11.9026 14.6761C11.9008 14.6347 10.3684 15.0174 9.64261 15.2458C8.2779 15.673 7.4829 15.977 7.59936 16.0341C7.66277 16.0624 8.19337 16.3502 8.77703 16.6667C10.9687 17.8614 12.6671 18.9118 17.9879 22.3692L21.8056 24.8558L22.2368 24.7645C27.5311 23.6794 38.241 21.9184 40.9615 21.6913L41.4466 21.6495L41.1692 21.4647C41.0145 21.3626 40.7209 21.163 40.5023 21.0222ZM40.1076 22.1895C32.6135 23.3237 28.1754 24.0814 23.5426 25.0082L21.8321 25.3468L21.7444 25.5941C21.6981 25.7205 21.0722 27.5299 20.3541 29.6024C19.6414 31.6798 18.8635 33.9259 18.6288 34.6044L18.2003 35.8302L18.7084 35.72C22.6704 34.8535 32.0588 33.321 36.3018 32.8411L37.7042 32.6869L39.6589 27.3588C40.7331 24.4212 41.5869 22.0164 41.5604 22.002C41.5289 21.993 40.8796 22.0731 40.1076 22.1895ZM30.952 13.7077C29.4024 13.2208 28.3097 12.6362 27.3502 11.7765L26.6869 11.1784L26.6064 11.4721C26.5304 11.75 26.5372 11.7859 26.7692 11.9986C26.9419 12.1569 26.9927 12.2531 26.9653 12.3372C26.9091 12.4744 26.7269 12.4564 26.5543 12.2981C26.4571 12.2091 26.4054 12.2113 26.3375 12.3179C26.2548 12.4406 26.2777 12.4914 26.4841 12.7104C26.6199 12.8548 27.0372 13.1578 27.41 13.3903C28.187 13.8642 28.3857 14.0266 28.3606 14.1624C28.3098 14.4236 27.6029 14.1331 26.7517 13.5018C26.2269 13.1102 26.0781 13.0234 26.0453 13.1025C26.0268 13.1551 25.9832 13.2244 25.9535 13.2568C25.8942 13.3215 26.57 13.8517 27.3156 14.3166C27.9761 14.7334 29.3552 15.3521 30.0999 15.5581C30.8553 15.7739 31.148 15.7145 31.5635 15.2613C31.8355 14.9645 32.3104 14.2082 32.3486 14.0148C32.3571 13.973 32.2002 13.9384 32.0082 13.9312C31.8113 13.9294 31.3355 13.8309 30.952 13.7077ZM33.1009 15.8265L32.3558 15.3719L32.1134 15.6363C31.7524 16.0302 31.3634 16.2595 30.9511 16.3086L30.5851 16.3504L30.9736 16.5873C31.452 16.867 32.5393 17.6849 32.9818 18.0905C33.2084 18.2983 33.3042 18.3563 33.332 18.2825C33.3509 18.2403 33.5339 17.8023 33.7462 17.3216C34.0848 16.5297 34.1117 16.4353 33.9845 16.3683C33.9098 16.3198 33.511 16.0832 33.1009 15.8265ZM25.0969 12.263C24.7925 12.2918 24.5245 12.3242 24.5097 12.3404C24.4899 12.362 24.6693 12.5562 24.9121 12.7788C25.2413 13.0805 25.3586 13.1583 25.3919 13.0895C25.4054 13.0423 25.4998 12.8309 25.5893 12.625C25.6842 12.424 25.7386 12.2455 25.7071 12.2365C25.681 12.2324 25.4067 12.2392 25.0969 12.263ZM30.5644 17.0662C29.1875 16.2609 28.1214 16.1674 27.683 16.8082C27.5755 16.9579 27.5809 16.9628 28.152 17.4665C28.9928 18.2174 30.2852 18.8658 31.6845 19.2349C32.6068 19.4746 33.1954 19.4283 33.0627 19.118C32.9701 18.8941 31.1917 17.4327 30.5644 17.0662ZM32.3226 19.9688C31.7232 19.886 31.2241 19.7264 30.2469 19.2974C29.2703 18.8788 28.5351 18.4134 27.839 17.7754C27.5206 17.4836 27.2517 17.2569 27.2419 17.2677C27.1677 17.3487 27.1083 17.7709 27.1708 17.7785C27.2072 17.7821 27.4325 17.9588 27.6641 18.1612C27.9928 18.4526 28.0809 18.5731 28.0868 18.7075C28.0944 19.0025 27.8215 18.9211 27.3466 18.4858C26.9635 18.1347 26.9581 18.1297 26.8925 18.288C26.8318 18.4409 26.8543 18.4814 27.133 18.6972C27.3048 18.8348 27.7302 19.0857 28.0899 19.2566C28.8836 19.6365 28.9681 19.7934 28.3719 19.7831C27.9622 19.775 27.4874 19.5781 26.9739 19.2067C26.8079 19.0843 26.6587 18.9872 26.6488 18.998C26.6438 19.0034 26.6016 19.1037 26.5593 19.204C26.4797 19.3991 26.4851 19.4041 26.8763 19.7031C28.29 20.7607 30.4412 21.7395 31.3316 21.7215L31.7304 21.7197L32.2075 21.1343C32.6261 20.6343 32.9305 20.1288 32.8604 20.0645C32.8496 20.0546 32.6041 20.0083 32.3226 19.9688ZM22.7241 11.9051C21.3252 11.0697 20.335 10.9366 19.8008 11.5194L19.6277 11.7082L20.1511 12.188C20.9821 12.9497 21.9363 13.447 23.4274 13.9003C24.4251 14.2092 24.9508 14.264 25.0727 14.0877C25.1212 14.0131 25.1212 13.8939 25.065 13.7928C24.8806 13.4848 23.4952 12.3638 22.7241 11.9051ZM24.5371 14.7586C24.0533 14.7123 23.4813 14.5455 22.5793 14.1755C21.3877 13.6988 20.8661 13.3796 20.0783 12.6574C19.6794 12.3018 19.3507 12.0104 19.3458 12.0158C19.3408 12.0212 19.3031 12.1057 19.2662 12.2109C19.1911 12.3904 19.2077 12.4155 19.5908 12.7667C19.8768 13.0289 19.9866 13.1692 19.9807 13.273C19.9713 13.5325 19.7311 13.4911 19.375 13.1647C19.1969 13.0014 19.0468 12.8836 19.0369 12.8944C18.9132 13.0293 18.9451 13.1678 19.1502 13.3558C19.4254 13.608 20.3243 14.144 21.1395 14.5437C21.8275 14.8765 22.0046 15.019 21.9489 15.1665C21.8981 15.3086 21.7731 15.2933 21.22 15.0842C20.5882 14.8527 19.6857 14.3531 19.1767 13.966L18.7639 13.6472L18.6713 13.8999L18.5787 14.1526L19.0881 14.5501C20.0432 15.3064 21.4947 16.0411 22.6958 16.3774C23.5299 16.6158 23.7606 16.5591 24.2345 16.0204C24.5209 15.6971 25.0237 14.867 24.9643 14.8126C24.9535 14.8027 24.7606 14.7748 24.5371 14.7586ZM16.1694 15.1018C14.6522 14.0487 13.3559 13.7839 12.7871 14.4044C12.6189 14.5879 12.6193 14.5983 12.8428 14.8528C13.1374 15.1922 13.8914 15.7345 14.5327 16.0641C15.5664 16.6046 17.2945 17.146 17.8053 17.0979C18.0737 17.0758 18.1641 16.8906 18.0144 16.6639C17.8597 16.4427 16.7675 15.511 16.1694 15.1018ZM17.4928 17.6554C16.9411 17.5965 16.5845 17.4981 15.6829 17.1383C14.3802 16.6096 13.9121 16.3294 13.0762 15.5731C12.4345 14.9949 12.3221 14.9117 12.2794 15.0016C12.2506 15.0547 12.0748 15.5389 11.886 16.0808L11.5397 17.0543L11.8406 17.3003C13.3015 18.4905 15.9311 19.6299 16.6349 19.3713C16.8287 19.3007 16.9631 19.1757 17.2976 18.7674C17.6565 18.3218 17.9946 17.7579 17.9353 17.7035C17.9299 17.6986 17.7266 17.6712 17.4928 17.6554ZM14.1042 20.3881C12.9962 19.6902 11.6171 18.8332 11.0321 18.4856C10.0748 17.9159 7.29315 16.379 7.2257 16.3767C7.21536 16.3772 7.06473 16.964 6.89342 17.6708C6.7275 18.3827 6.15646 20.7389 5.62363 22.9017C5.09621 25.0696 4.65736 26.8916 4.64972 26.9541C4.6115 27.1474 9.0771 30.3571 12.6182 32.6795C14.085 33.6467 17.5793 35.8469 17.6364 35.8496C17.6571 35.8487 18.5096 33.4128 19.5456 30.4302L21.4135 25.0127L18.7658 23.3405C17.3062 22.4196 15.2072 21.0913 14.1042 20.3881Z" fill="#F38189"/>
<path d="M40.9619 18.0077C41.0199 18.1502 41.077 18.3913 41.0887 18.541C41.1071 18.8459 40.7699 19.7879 40.4929 20.2092L40.318 20.4759L40.7087 20.7646C40.9178 20.9264 41.2929 21.2106 41.5289 21.3972L41.9633 21.7358L41.7906 22.1733C41.6598 22.5002 38.7187 30.6378 37.9943 32.6846L37.9165 32.9211L36.3413 33.1554C31.1986 33.9127 22.3133 35.4596 18.5861 36.2434C17.9341 36.3806 17.748 36.3887 17.5987 36.2916C17.497 36.2183 16.8154 35.792 16.0811 35.3473C12.861 33.3787 9.33881 31.014 5.71767 28.3997C5.0117 27.8916 4.36913 27.4118 4.28819 27.3376C4.1533 27.214 4.22614 26.8637 5.41049 21.9318C6.9496 15.508 6.85563 15.8488 7.03414 15.7841C7.11058 15.7548 7.47705 15.6042 7.84352 15.4536C8.79545 15.065 9.92948 14.6945 11.1953 14.3752C12.0456 14.1517 12.3158 14.0519 12.4543 13.9008C12.8253 13.4961 13.6374 13.3468 14.3766 13.5478C14.5389 13.5874 14.7107 13.6058 14.7665 13.5775C14.8222 13.5492 15.6428 13.3581 16.597 13.1404C17.5516 12.9331 18.3772 12.7366 18.4339 12.729C18.4901 12.711 18.6731 12.3922 18.8484 12.0167C19.2284 11.223 19.5337 10.8575 19.982 10.6825C20.7865 10.3574 22.1022 10.7095 23.3887 11.5809L23.8743 11.9069L24.8523 11.7608C25.3923 11.6699 25.8861 11.5863 25.9423 11.5683C26.0138 11.5445 26.1738 11.294 26.3546 10.9235C26.7058 10.1829 26.9697 9.93827 27.5745 9.78763C28.7175 9.50478 30.4245 10.275 32.188 11.8717C33.0343 12.6276 33.1782 12.839 33.158 13.3268C33.1512 13.6483 32.9655 14.2626 32.7645 14.6443C32.6692 14.835 32.6094 15.0086 32.6364 15.0333C32.8707 15.1785 34.2516 15.9578 34.3037 15.9659C34.3456 15.9744 34.4045 15.8993 34.4467 15.799C34.7502 15.0346 35.9706 14.7432 37.1181 15.1596C38.013 15.4833 38.8336 16.0072 39.9101 16.9344C40.6907 17.6102 40.8697 17.7941 40.9619 18.0077ZM38.3093 16.46C37.5687 15.9897 36.9608 15.7104 36.4171 15.5994C35.8371 15.4847 35.4472 15.5742 35.1653 15.8818L34.9477 16.1192L35.3901 16.5248C35.9675 17.054 36.4738 17.3791 37.2989 17.7681C38.6102 18.3742 40.2478 18.7434 40.4173 18.4718C40.4511 18.4133 40.4407 18.2946 40.385 18.2038C40.2397 17.9614 38.9168 16.8481 38.3093 16.46ZM38.8044 18.9097C37.3282 18.4403 35.9423 17.6665 35.114 16.8476L34.6378 16.3814L34.5596 16.6075C34.4904 16.8022 34.5034 16.8638 34.7156 17.0981C34.9117 17.3175 34.9351 17.3787 34.851 17.4704C34.7768 17.5514 34.704 17.5442 34.5592 17.4313C34.377 17.2942 34.2745 17.3193 34.2417 17.5176C34.2156 17.6328 35.1837 18.3315 35.8573 18.6908C36.3084 18.9354 36.4226 19.06 36.3039 19.1895C36.1307 19.3783 35.3434 19.024 34.5443 18.4008C34.1046 18.0572 34.078 18.0429 34.0115 18.1804C33.8217 18.5824 33.8869 18.6521 35.1186 19.4534C36.2913 20.2106 38.1835 20.9521 38.7927 20.9049C39.2159 20.8658 39.9034 20.1157 40.1975 19.3724L40.2627 19.2038L39.8251 19.1503C39.5855 19.1193 39.125 19.015 38.8044 18.9097ZM30.0373 11.0224C29.2769 10.5736 28.4518 10.3038 27.9401 10.3313C27.6199 10.3555 27.5439 10.3951 27.311 10.6384L27.0538 10.919L27.6253 11.4329C28.0242 11.7886 28.3718 12.0377 28.7643 12.2486C29.9681 12.8853 31.827 13.4573 32.3086 13.3327C32.5136 13.2823 32.5235 13.2715 32.4902 13.102C32.448 12.8448 30.8935 11.5291 30.0373 11.0224ZM40.5023 21.0222L40.1134 20.7749L39.9304 20.9746C39.6386 21.2929 39.2838 21.4741 38.8606 21.5133C37.937 21.6001 35.5781 20.6095 34.1905 19.556C33.7565 19.2277 33.694 19.2201 33.7003 19.484C33.7215 19.9701 33.1644 21.0978 32.6005 21.713C31.9624 22.4091 31.4435 22.5094 30.3356 22.169C29.0437 21.7692 27.4955 20.9558 26.4595 20.1253C25.9496 19.7175 25.9275 19.6873 25.9172 19.4495C25.9014 19.0875 26.9833 16.6832 27.3295 16.3054C27.6164 15.9925 28.0481 15.7924 28.4824 15.7735L28.741 15.7622L28.5769 15.6813C27.8412 15.3247 26.816 14.7424 26.3722 14.425C25.8218 14.0396 25.7431 14.0171 25.7741 14.2541C25.7975 14.4344 25.5399 15.1813 25.2912 15.6584C25.1761 15.8706 24.9023 16.2452 24.6846 16.4826C24.0119 17.2165 23.5236 17.3051 22.3046 16.9125C21.0806 16.5254 19.8719 15.8941 18.7428 15.0676C17.8921 14.4467 17.8152 14.2272 18.1947 13.5424C18.2473 13.4417 18.2787 13.3315 18.272 13.2955C18.2599 13.2546 17.6272 13.3598 16.8673 13.5172C16.1024 13.68 15.4351 13.823 15.3735 13.836C15.2962 13.8446 15.3713 13.9035 15.6258 14.0375C16.5745 14.5299 18.2122 15.8523 18.5571 16.3968C18.6462 16.538 18.7293 16.7831 18.741 16.9328C18.7896 17.5731 18.2891 18.6932 17.6363 19.4055C16.9681 20.1236 16.526 20.205 15.3178 19.8224C14.0835 19.4357 12.886 18.8246 11.8001 18.0377C11.1103 17.5444 10.9026 17.2944 10.9534 17.0332C10.9696 16.9289 11.1885 16.365 11.4426 15.7737C11.6917 15.1878 11.9035 14.6967 11.9026 14.6761C11.9008 14.6347 10.3684 15.0174 9.64261 15.2458C8.2779 15.673 7.4829 15.977 7.59936 16.0341C7.66277 16.0624 8.19337 16.3502 8.77703 16.6667C10.9687 17.8614 12.6671 18.9118 17.9879 22.3692L21.8056 24.8558L22.2368 24.7645C27.5311 23.6794 38.241 21.9184 40.9615 21.6913L41.4466 21.6495L41.1692 21.4647C41.0145 21.3626 40.7209 21.163 40.5023 21.0222ZM40.1076 22.1895C32.6135 23.3237 28.1754 24.0814 23.5426 25.0082L21.8321 25.3468L21.7444 25.5941C21.6981 25.7205 21.0722 27.5299 20.3541 29.6024C19.6414 31.6798 18.8635 33.9259 18.6288 34.6044L18.2003 35.8302L18.7084 35.72C22.6704 34.8535 32.0588 33.321 36.3018 32.8411L37.7042 32.6869L39.6589 27.3588C40.7331 24.4212 41.5869 22.0164 41.5604 22.002C41.5289 21.993 40.8796 22.0731 40.1076 22.1895ZM30.952 13.7077C29.4024 13.2208 28.3097 12.6362 27.3502 11.7765L26.6869 11.1784L26.6064 11.4721C26.5304 11.75 26.5372 11.7859 26.7692 11.9986C26.9419 12.1569 26.9927 12.2531 26.9653 12.3372C26.9091 12.4744 26.7269 12.4564 26.5543 12.2981C26.4571 12.2091 26.4054 12.2113 26.3375 12.3179C26.2548 12.4406 26.2777 12.4914 26.4841 12.7104C26.6199 12.8548 27.0372 13.1578 27.41 13.3903C28.187 13.8642 28.3857 14.0266 28.3606 14.1624C28.3098 14.4236 27.6029 14.1331 26.7517 13.5018C26.2269 13.1102 26.0781 13.0234 26.0453 13.1025C26.0268 13.1551 25.9832 13.2244 25.9535 13.2568C25.8942 13.3215 26.57 13.8517 27.3156 14.3166C27.9761 14.7334 29.3552 15.3521 30.0999 15.5581C30.8553 15.7739 31.148 15.7145 31.5635 15.2613C31.8355 14.9645 32.3104 14.2082 32.3486 14.0148C32.3571 13.973 32.2002 13.9384 32.0082 13.9312C31.8113 13.9294 31.3355 13.8309 30.952 13.7077ZM33.1009 15.8265L32.3558 15.3719L32.1134 15.6363C31.7524 16.0302 31.3634 16.2595 30.9511 16.3086L30.5851 16.3504L30.9736 16.5873C31.452 16.867 32.5393 17.6849 32.9818 18.0905C33.2084 18.2983 33.3042 18.3563 33.332 18.2825C33.3509 18.2403 33.5339 17.8023 33.7462 17.3216C34.0848 16.5297 34.1117 16.4353 33.9845 16.3683C33.9098 16.3198 33.511 16.0832 33.1009 15.8265ZM25.0969 12.263C24.7925 12.2918 24.5245 12.3242 24.5097 12.3404C24.4899 12.362 24.6693 12.5562 24.9121 12.7788C25.2413 13.0805 25.3586 13.1583 25.3919 13.0895C25.4054 13.0423 25.4998 12.8309 25.5893 12.625C25.6842 12.424 25.7386 12.2455 25.7071 12.2365C25.681 12.2324 25.4067 12.2392 25.0969 12.263ZM30.5644 17.0662C29.1875 16.2609 28.1214 16.1674 27.683 16.8082C27.5755 16.9579 27.5809 16.9628 28.152 17.4665C28.9928 18.2174 30.2852 18.8658 31.6845 19.2349C32.6068 19.4746 33.1954 19.4283 33.0627 19.118C32.9701 18.8941 31.1917 17.4327 30.5644 17.0662ZM32.3226 19.9688C31.7232 19.886 31.2241 19.7264 30.2469 19.2974C29.2703 18.8788 28.5351 18.4134 27.839 17.7754C27.5206 17.4836 27.2517 17.2569 27.2419 17.2677C27.1677 17.3487 27.1083 17.7709 27.1708 17.7785C27.2072 17.7821 27.4325 17.9588 27.6641 18.1612C27.9928 18.4526 28.0809 18.5731 28.0868 18.7075C28.0944 19.0025 27.8215 18.9211 27.3466 18.4858C26.9635 18.1347 26.9581 18.1297 26.8925 18.288C26.8318 18.4409 26.8543 18.4814 27.133 18.6972C27.3048 18.8348 27.7302 19.0857 28.0899 19.2566C28.8836 19.6365 28.9681 19.7934 28.3719 19.7831C27.9622 19.775 27.4874 19.5781 26.9739 19.2067C26.8079 19.0843 26.6587 18.9872 26.6488 18.998C26.6438 19.0034 26.6016 19.1037 26.5593 19.204C26.4797 19.3991 26.4851 19.4041 26.8763 19.7031C28.29 20.7607 30.4412 21.7395 31.3316 21.7215L31.7304 21.7197L32.2075 21.1343C32.6261 20.6343 32.9305 20.1288 32.8604 20.0645C32.8496 20.0546 32.6041 20.0083 32.3226 19.9688ZM22.7241 11.9051C21.3252 11.0697 20.335 10.9366 19.8008 11.5194L19.6277 11.7082L20.1511 12.188C20.9821 12.9497 21.9363 13.447 23.4274 13.9003C24.4251 14.2092 24.9508 14.264 25.0727 14.0877C25.1212 14.0131 25.1212 13.8939 25.065 13.7928C24.8806 13.4848 23.4952 12.3638 22.7241 11.9051ZM24.5371 14.7586C24.0533 14.7123 23.4813 14.5455 22.5793 14.1755C21.3877 13.6988 20.8661 13.3796 20.0783 12.6574C19.6794 12.3018 19.3507 12.0104 19.3458 12.0158C19.3408 12.0212 19.3031 12.1057 19.2662 12.2109C19.1911 12.3904 19.2077 12.4155 19.5908 12.7667C19.8768 13.0289 19.9866 13.1692 19.9807 13.273C19.9713 13.5325 19.7311 13.4911 19.375 13.1647C19.1969 13.0014 19.0468 12.8836 19.0369 12.8944C18.9132 13.0293 18.9451 13.1678 19.1502 13.3558C19.4254 13.608 20.3243 14.144 21.1395 14.5437C21.8275 14.8765 22.0046 15.019 21.9489 15.1665C21.8981 15.3086 21.7731 15.2933 21.22 15.0842C20.5882 14.8527 19.6857 14.3531 19.1767 13.966L18.7639 13.6472L18.6713 13.8999L18.5787 14.1526L19.0881 14.5501C20.0432 15.3064 21.4947 16.0411 22.6958 16.3774C23.5299 16.6158 23.7606 16.5591 24.2345 16.0204C24.5209 15.6971 25.0237 14.867 24.9643 14.8126C24.9535 14.8027 24.7606 14.7748 24.5371 14.7586ZM16.1694 15.1018C14.6522 14.0487 13.3559 13.7839 12.7871 14.4044C12.6189 14.5879 12.6193 14.5983 12.8428 14.8528C13.1374 15.1922 13.8914 15.7345 14.5327 16.0641C15.5664 16.6046 17.2945 17.146 17.8053 17.0979C18.0737 17.0758 18.1641 16.8906 18.0144 16.6639C17.8597 16.4427 16.7675 15.511 16.1694 15.1018ZM17.4928 17.6554C16.9411 17.5965 16.5845 17.4981 15.6829 17.1383C14.3802 16.6096 13.9121 16.3294 13.0762 15.5731C12.4345 14.9949 12.3221 14.9117 12.2794 15.0016C12.2506 15.0547 12.0748 15.5389 11.886 16.0808L11.5397 17.0543L11.8406 17.3003C13.3015 18.4905 15.9311 19.6299 16.6349 19.3713C16.8287 19.3007 16.9631 19.1757 17.2976 18.7674C17.6565 18.3218 17.9946 17.7579 17.9353 17.7035C17.9299 17.6986 17.7266 17.6712 17.4928 17.6554ZM14.1042 20.3881C12.9962 19.6902 11.6171 18.8332 11.0321 18.4856C10.0748 17.9159 7.29315 16.379 7.2257 16.3767C7.21536 16.3772 7.06473 16.964 6.89342 17.6708C6.7275 18.3827 6.15646 20.7389 5.62363 22.9017C5.09621 25.0696 4.65736 26.8916 4.64972 26.9541C4.6115 27.1474 9.0771 30.3571 12.6182 32.6795C14.085 33.6467 17.5793 35.8469 17.6364 35.8496C17.6571 35.8487 18.5096 33.4128 19.5456 30.4302L21.4135 25.0127L18.7658 23.3405C17.3062 22.4196 15.2072 21.0913 14.1042 20.3881Z" fill="#037FA5"/>
<path d="M26.2157 20.7161C26.3717 21.0875 26.356 21.3213 26.164 21.9099C25.9437 22.5619 25.6739 23.0296 25.2139 23.5314C24.566 24.2383 24.0781 24.3372 22.9278 23.978C21.6778 23.5868 20.4219 22.942 19.2339 22.0714C18.5648 21.5773 18.4425 21.3857 18.5607 21.0076C18.7284 20.4563 19.7383 18.3037 19.9263 18.0987C20.5248 17.4458 21.6692 17.4323 22.9817 18.0694C24.1567 18.64 25.967 20.1207 26.2157 20.7161ZM24.1167 19.507C23.3406 18.9346 22.5442 18.4926 21.9561 18.3109C21.2105 18.0843 20.5068 18.2237 20.282 18.6531C20.215 18.7804 20.2429 18.8258 20.6637 19.2116C21.4731 19.9535 22.5384 20.503 24.0241 20.9513C24.8901 21.2089 25.6082 21.2813 25.6838 21.1122C25.7683 20.9117 25.1172 20.2354 24.1167 19.507ZM24.8937 21.7683C24.3883 21.7022 23.8523 21.5287 22.8226 21.0813C21.7609 20.6145 20.9246 20.0862 20.3391 19.4899C20.0792 19.2318 19.8584 19.0394 19.8386 19.061C19.8188 19.0826 19.8027 19.1869 19.7968 19.2907C19.7887 19.4621 19.8768 19.5826 20.371 20.1051C20.8652 20.6276 20.9372 20.7332 20.8792 20.829C20.8405 20.8929 20.7483 20.9176 20.6426 20.8704C20.5059 20.8245 20.5392 20.8749 20.8036 21.1172C21.0307 21.3353 21.1301 21.4761 21.1404 21.5948C21.1422 21.7553 21.1323 21.7661 20.9772 21.7729C20.8427 21.7787 20.6876 21.6663 20.099 21.1168L19.3863 20.4536L19.2469 20.8223L19.1129 21.196L19.6062 21.5786C20.5559 22.33 22.0128 23.0697 23.2084 23.401C24.0898 23.6528 24.2588 23.6092 24.7678 23.0431C25.1136 22.655 25.2305 22.4842 25.4715 21.9504C25.5241 21.8497 25.4927 21.8407 24.8937 21.7683Z" fill="#F38189"/>
<path d="M26.2157 20.7161C26.3717 21.0875 26.356 21.3213 26.164 21.9099C25.9437 22.5619 25.6739 23.0296 25.2139 23.5314C24.566 24.2383 24.0781 24.3372 22.9278 23.978C21.6778 23.5868 20.4219 22.942 19.2339 22.0714C18.5648 21.5773 18.4425 21.3857 18.5607 21.0076C18.7284 20.4563 19.7383 18.3037 19.9263 18.0987C20.5248 17.4458 21.6692 17.4323 22.9817 18.0694C24.1567 18.64 25.967 20.1207 26.2157 20.7161ZM24.1167 19.507C23.3406 18.9346 22.5442 18.4926 21.9561 18.3109C21.2105 18.0843 20.5068 18.2237 20.282 18.6531C20.215 18.7804 20.2429 18.8258 20.6637 19.2116C21.4731 19.9535 22.5384 20.503 24.0241 20.9513C24.8901 21.2089 25.6082 21.2813 25.6838 21.1122C25.7683 20.9117 25.1172 20.2354 24.1167 19.507ZM24.8937 21.7683C24.3883 21.7022 23.8523 21.5287 22.8226 21.0813C21.7609 20.6145 20.9246 20.0862 20.3391 19.4899C20.0792 19.2318 19.8584 19.0394 19.8386 19.061C19.8188 19.0826 19.8027 19.1869 19.7968 19.2907C19.7887 19.4621 19.8768 19.5826 20.371 20.1051C20.8652 20.6276 20.9372 20.7332 20.8792 20.829C20.8405 20.8929 20.7483 20.9176 20.6426 20.8704C20.5059 20.8245 20.5392 20.8749 20.8036 21.1172C21.0307 21.3353 21.1301 21.4761 21.1404 21.5948C21.1422 21.7553 21.1323 21.7661 20.9772 21.7729C20.8427 21.7787 20.6876 21.6663 20.099 21.1168L19.3863 20.4536L19.2469 20.8223L19.1129 21.196L19.6062 21.5786C20.5559 22.33 22.0128 23.0697 23.2084 23.401C24.0898 23.6528 24.2588 23.6092 24.7678 23.0431C25.1136 22.655 25.2305 22.4842 25.4715 21.9504C25.5241 21.8497 25.4927 21.8407 24.8937 21.7683Z" fill="#F38189"/>
<path d="M26.2157 20.7161C26.3717 21.0875 26.356 21.3213 26.164 21.9099C25.9437 22.5619 25.6739 23.0296 25.2139 23.5314C24.566 24.2383 24.0781 24.3372 22.9278 23.978C21.6778 23.5868 20.4219 22.942 19.2339 22.0714C18.5648 21.5773 18.4425 21.3857 18.5607 21.0076C18.7284 20.4563 19.7383 18.3037 19.9263 18.0987C20.5248 17.4458 21.6692 17.4323 22.9817 18.0694C24.1567 18.64 25.967 20.1207 26.2157 20.7161ZM24.1167 19.507C23.3406 18.9346 22.5442 18.4926 21.9561 18.3109C21.2105 18.0843 20.5068 18.2237 20.282 18.6531C20.215 18.7804 20.2429 18.8258 20.6637 19.2116C21.4731 19.9535 22.5384 20.503 24.0241 20.9513C24.8901 21.2089 25.6082 21.2813 25.6838 21.1122C25.7683 20.9117 25.1172 20.2354 24.1167 19.507ZM24.8937 21.7683C24.3883 21.7022 23.8523 21.5287 22.8226 21.0813C21.7609 20.6145 20.9246 20.0862 20.3391 19.4899C20.0792 19.2318 19.8584 19.0394 19.8386 19.061C19.8188 19.0826 19.8027 19.1869 19.7968 19.2907C19.7887 19.4621 19.8768 19.5826 20.371 20.1051C20.8652 20.6276 20.9372 20.7332 20.8792 20.829C20.8405 20.8929 20.7483 20.9176 20.6426 20.8704C20.5059 20.8245 20.5392 20.8749 20.8036 21.1172C21.0307 21.3353 21.1301 21.4761 21.1404 21.5948C21.1422 21.7553 21.1323 21.7661 20.9772 21.7729C20.8427 21.7787 20.6876 21.6663 20.099 21.1168L19.3863 20.4536L19.2469 20.8223L19.1129 21.196L19.6062 21.5786C20.5559 22.33 22.0128 23.0697 23.2084 23.401C24.0898 23.6528 24.2588 23.6092 24.7678 23.0431C25.1136 22.655 25.2305 22.4842 25.4715 21.9504C25.5241 21.8497 25.4927 21.8407 24.8937 21.7683Z" fill="#037FA5"/>
<path d="M23.4163 21.9828C23.3223 22.0854 23.0273 21.9738 22.7791 21.7463C22.5417 21.5287 22.6258 21.437 22.9626 21.557C23.3048 21.682 23.5103 21.8803 23.4163 21.9828Z" fill="#F38189"/>
<path d="M23.4163 21.9828C23.3223 22.0854 23.0273 21.9738 22.7791 21.7463C22.5417 21.5287 22.6258 21.437 22.9626 21.557C23.3048 21.682 23.5103 21.8803 23.4163 21.9828Z" fill="#F38189"/>
<path d="M23.4163 21.9828C23.3223 22.0854 23.0273 21.9738 22.7791 21.7463C22.5417 21.5287 22.6258 21.437 22.9626 21.557C23.3048 21.682 23.5103 21.8803 23.4163 21.9828Z" fill="#037FA5"/>
<path d="M23.3446 22.6025C23.149 22.6317 22.6054 22.4015 22.4741 22.2414C22.386 22.1209 22.4377 22.1186 22.8109 22.2423C23.315 22.3965 23.5663 22.5773 23.3446 22.6025Z" fill="#F38189"/>
<path d="M23.3446 22.6025C23.149 22.6317 22.6054 22.4015 22.4741 22.2414C22.386 22.1209 22.4377 22.1186 22.8109 22.2423C23.315 22.3965 23.5663 22.5773 23.3446 22.6025Z" fill="#F38189"/>
<path d="M23.3446 22.6025C23.149 22.6317 22.6054 22.4015 22.4741 22.2414C22.386 22.1209 22.4377 22.1186 22.8109 22.2423C23.315 22.3965 23.5663 22.5773 23.3446 22.6025Z" fill="#037FA5"/>
<path d="M38.7504 25.2948C38.6911 25.3596 33.9144 25.5984 33.498 25.5543C33.2588 25.5336 33.1562 25.4397 33.2453 25.3425C33.3541 25.2238 35.6676 25.0507 37.2265 25.0399C38.4905 25.0367 38.9236 25.106 38.7504 25.2948Z" fill="#F38189"/>
<path d="M38.7504 25.2948C38.6911 25.3596 33.9144 25.5984 33.498 25.5543C33.2588 25.5336 33.1562 25.4397 33.2453 25.3425C33.3541 25.2238 35.6676 25.0507 37.2265 25.0399C38.4905 25.0367 38.9236 25.106 38.7504 25.2948Z" fill="#F38189"/>
<path d="M38.7504 25.2948C38.6911 25.3596 33.9144 25.5984 33.498 25.5543C33.2588 25.5336 33.1562 25.4397 33.2453 25.3425C33.3541 25.2238 35.6676 25.0507 37.2265 25.0399C38.4905 25.0367 38.9236 25.106 38.7504 25.2948Z" fill="#037FA5"/>
<path d="M38.4628 28.447C38.4565 28.5405 38.3081 29.0599 38.1247 29.6067C37.9462 30.1481 37.7222 30.8365 37.6319 31.1409C37.4498 31.7187 37.2897 31.9692 37.1656 31.8554C37.0361 31.7367 37.1188 31.2565 37.4533 30.1332C37.7874 28.9996 38.1058 28.219 38.2438 28.1767C38.3666 28.1403 38.465 28.2604 38.4628 28.447Z" fill="#F38189"/>
<path d="M38.4628 28.447C38.4565 28.5405 38.3081 29.0599 38.1247 29.6067C37.9462 30.1481 37.7222 30.8365 37.6319 31.1409C37.4498 31.7187 37.2897 31.9692 37.1656 31.8554C37.0361 31.7367 37.1188 31.2565 37.4533 30.1332C37.7874 28.9996 38.1058 28.219 38.2438 28.1767C38.3666 28.1403 38.465 28.2604 38.4628 28.447Z" fill="#F38189"/>
<path d="M38.4628 28.447C38.4565 28.5405 38.3081 29.0599 38.1247 29.6067C37.9462 30.1481 37.7222 30.8365 37.6319 31.1409C37.4498 31.7187 37.2897 31.9692 37.1656 31.8554C37.0361 31.7367 37.1188 31.2565 37.4533 30.1332C37.7874 28.9996 38.1058 28.219 38.2438 28.1767C38.3666 28.1403 38.465 28.2604 38.4628 28.447Z" fill="#037FA5"/>
<path d="M33.6211 24.3366C33.6126 24.3785 33.5276 24.4495 33.4305 24.4796C32.7875 24.7045 23.8051 26.1624 23.5632 26.0796C23.516 26.0661 23.4818 25.9951 23.484 25.9277C23.4849 25.8292 23.6531 25.7649 24.1819 25.6538C25.0394 25.4766 29.1272 24.7652 31.0055 24.4711C33.4291 24.0911 33.6719 24.0754 33.6211 24.3366Z" fill="#F38189"/>
<path d="M33.6211 24.3366C33.6126 24.3785 33.5276 24.4495 33.4305 24.4796C32.7875 24.7045 23.8051 26.1624 23.5632 26.0796C23.516 26.0661 23.4818 25.9951 23.484 25.9277C23.4849 25.8292 23.6531 25.7649 24.1819 25.6538C25.0394 25.4766 29.1272 24.7652 31.0055 24.4711C33.4291 24.0911 33.6719 24.0754 33.6211 24.3366Z" fill="#F38189"/>
<path d="M33.6211 24.3366C33.6126 24.3785 33.5276 24.4495 33.4305 24.4796C32.7875 24.7045 23.8051 26.1624 23.5632 26.0796C23.516 26.0661 23.4818 25.9951 23.484 25.9277C23.4849 25.8292 23.6531 25.7649 24.1819 25.6538C25.0394 25.4766 29.1272 24.7652 31.0055 24.4711C33.4291 24.0911 33.6719 24.0754 33.6211 24.3366Z" fill="#037FA5"/>
<path d="M37.3781 29.0019C37.3476 29.4902 36.9708 30.9521 36.8583 30.988C36.6996 31.0312 36.6299 30.8581 36.7019 30.6063C36.7374 30.47 36.8493 29.9471 36.9523 29.4556C37.1088 28.6458 37.2131 28.4236 37.3534 28.5522C37.3804 28.577 37.3889 28.7735 37.3781 29.0019Z" fill="#F38189"/>
<path d="M37.3781 29.0019C37.3476 29.4902 36.9708 30.9521 36.8583 30.988C36.6996 31.0312 36.6299 30.8581 36.7019 30.6063C36.7374 30.47 36.8493 29.9471 36.9523 29.4556C37.1088 28.6458 37.2131 28.4236 37.3534 28.5522C37.3804 28.577 37.3889 28.7735 37.3781 29.0019Z" fill="#F38189"/>
<path d="M37.3781 29.0019C37.3476 29.4902 36.9708 30.9521 36.8583 30.988C36.6996 31.0312 36.6299 30.8581 36.7019 30.6063C36.7374 30.47 36.8493 29.9471 36.9523 29.4556C37.1088 28.6458 37.2131 28.4236 37.3534 28.5522C37.3804 28.577 37.3889 28.7735 37.3781 29.0019Z" fill="#037FA5"/>
<path d="M15.6573 18.0978C15.6874 18.1949 15.6528 18.2327 15.5453 18.2633C14.9977 18.4166 13.7224 17.8038 12.7462 16.9188C12.3469 16.5528 12.2471 16.4017 12.341 16.2992C12.4301 16.2021 12.5416 16.2646 13.2156 16.7534C13.8789 17.2322 14.5687 17.6064 15.1784 17.8078C15.4203 17.8905 15.615 17.9598 15.6204 17.9647C15.6204 17.9647 15.6389 18.0313 15.6573 18.0978Z" fill="#F38189"/>
<path d="M15.6573 18.0978C15.6874 18.1949 15.6528 18.2327 15.5453 18.2633C14.9977 18.4166 13.7224 17.8038 12.7462 16.9188C12.3469 16.5528 12.2471 16.4017 12.341 16.2992C12.4301 16.2021 12.5416 16.2646 13.2156 16.7534C13.8789 17.2322 14.5687 17.6064 15.1784 17.8078C15.4203 17.8905 15.615 17.9598 15.6204 17.9647C15.6204 17.9647 15.6389 18.0313 15.6573 18.0978Z" fill="#F38189"/>
<path d="M15.6573 18.0978C15.6874 18.1949 15.6528 18.2327 15.5453 18.2633C14.9977 18.4166 13.7224 17.8038 12.7462 16.9188C12.3469 16.5528 12.2471 16.4017 12.341 16.2992C12.4301 16.2021 12.5416 16.2646 13.2156 16.7534C13.8789 17.2322 14.5687 17.6064 15.1784 17.8078C15.4203 17.8905 15.615 17.9598 15.6204 17.9647C15.6204 17.9647 15.6389 18.0313 15.6573 18.0978Z" fill="#037FA5"/>
<path d="M18.8176 25.8405C18.8162 26.4052 16.6341 32.9348 16.4111 33.0481C16.2236 33.1443 16.2236 32.906 16.4219 32.2239C16.8751 30.6136 17.9911 26.9696 18.2128 26.3486C18.3882 25.854 18.4889 25.6683 18.5909 25.6327C18.7695 25.568 18.8234 25.6174 18.8176 25.8405Z" fill="#F38189"/>
<path d="M18.8176 25.8405C18.8162 26.4052 16.6341 32.9348 16.4111 33.0481C16.2236 33.1443 16.2236 32.906 16.4219 32.2239C16.8751 30.6136 17.9911 26.9696 18.2128 26.3486C18.3882 25.854 18.4889 25.6683 18.5909 25.6327C18.7695 25.568 18.8234 25.6174 18.8176 25.8405Z" fill="#F38189"/>
<path d="M18.8176 25.8405C18.8162 26.4052 16.6341 32.9348 16.4111 33.0481C16.2236 33.1443 16.2236 32.906 16.4219 32.2239C16.8751 30.6136 17.9911 26.9696 18.2128 26.3486C18.3882 25.854 18.4889 25.6683 18.5909 25.6327C18.7695 25.568 18.8234 25.6174 18.8176 25.8405Z" fill="#037FA5"/>
<path d="M19.2487 28.609C19.2402 29.0083 18.5954 30.86 18.4384 30.9445C18.3876 30.9675 18.3148 30.9603 18.2716 30.9207C18.1745 30.8317 18.8373 28.4404 18.9843 28.3666C19.1363 28.2875 19.255 28.3963 19.2487 28.609Z" fill="#F38189"/>
<path d="M19.2487 28.609C19.2402 29.0083 18.5954 30.86 18.4384 30.9445C18.3876 30.9675 18.3148 30.9603 18.2716 30.9207C18.1745 30.8317 18.8373 28.4404 18.9843 28.3666C19.1363 28.2875 19.255 28.3963 19.2487 28.609Z" fill="#F38189"/>
<path d="M19.2487 28.609C19.2402 29.0083 18.5954 30.86 18.4384 30.9445C18.3876 30.9675 18.3148 30.9603 18.2716 30.9207C18.1745 30.8317 18.8373 28.4404 18.9843 28.3666C19.1363 28.2875 19.255 28.3963 19.2487 28.609Z" fill="#037FA5"/>
<path d="M10.3712 26.757C10.4678 26.9549 10.355 27.0997 10.1454 27.0466C9.97771 27.0021 9.48263 26.5781 9.39719 26.4005C9.32929 26.2687 9.457 26.1077 9.63281 26.1001C9.7776 26.0938 10.2574 26.5237 10.3712 26.757Z" fill="#F38189"/>
<path d="M10.3712 26.757C10.4678 26.9549 10.355 27.0997 10.1454 27.0466C9.97771 27.0021 9.48263 26.5781 9.39719 26.4005C9.32929 26.2687 9.457 26.1077 9.63281 26.1001C9.7776 26.0938 10.2574 26.5237 10.3712 26.757Z" fill="#F38189"/>
<path d="M10.3712 26.757C10.4678 26.9549 10.355 27.0997 10.1454 27.0466C9.97771 27.0021 9.48263 26.5781 9.39719 26.4005C9.32929 26.2687 9.457 26.1077 9.63281 26.1001C9.7776 26.0938 10.2574 26.5237 10.3712 26.757Z" fill="#037FA5"/>
<path d="M11.0879 28.4666C11.2152 28.6527 11.194 28.8816 11.0492 28.8879C10.9872 28.8906 10.6131 28.6271 10.2052 28.3029C8.33688 26.7988 7.39079 26.011 7.36695 25.9395C7.32963 25.7961 7.49151 25.7061 7.65473 25.7664C8.15566 25.9674 10.7952 28.0493 11.0879 28.4666Z" fill="#F38189"/>
<path d="M11.0879 28.4666C11.2152 28.6527 11.194 28.8816 11.0492 28.8879C10.9872 28.8906 10.6131 28.6271 10.2052 28.3029C8.33688 26.7988 7.39079 26.011 7.36695 25.9395C7.32963 25.7961 7.49151 25.7061 7.65473 25.7664C8.15566 25.9674 10.7952 28.0493 11.0879 28.4666Z" fill="#F38189"/>
<path d="M11.0879 28.4666C11.2152 28.6527 11.194 28.8816 11.0492 28.8879C10.9872 28.8906 10.6131 28.6271 10.2052 28.3029C8.33688 26.7988 7.39079 26.011 7.36695 25.9395C7.32963 25.7961 7.49151 25.7061 7.65473 25.7664C8.15566 25.9674 10.7952 28.0493 11.0879 28.4666Z" fill="#037FA5"/>
<path d="M12.9199 31.5161C12.8965 31.5741 12.8259 31.6186 12.7585 31.6164C12.53 31.6056 9.16431 29.0268 6.99154 27.194C6.18979 26.5088 6.07063 26.3896 6.12998 26.3249C6.18439 26.2655 6.34312 26.3415 6.75996 26.6342C7.06977 26.8487 7.38499 27.0681 7.46458 27.1113C7.70425 27.2615 9.94312 28.9463 11.0641 29.825C12.4801 30.9343 12.9712 31.3844 12.9199 31.5161Z" fill="#F38189"/>
<path d="M12.9199 31.5161C12.8965 31.5741 12.8259 31.6186 12.7585 31.6164C12.53 31.6056 9.16431 29.0268 6.99154 27.194C6.18979 26.5088 6.07063 26.3896 6.12998 26.3249C6.18439 26.2655 6.34312 26.3415 6.75996 26.6342C7.06977 26.8487 7.38499 27.0681 7.46458 27.1113C7.70425 27.2615 9.94312 28.9463 11.0641 29.825C12.4801 30.9343 12.9712 31.3844 12.9199 31.5161Z" fill="#F38189"/>
<path d="M12.9199 31.5161C12.8965 31.5741 12.8259 31.6186 12.7585 31.6164C12.53 31.6056 9.16431 29.0268 6.99154 27.194C6.18979 26.5088 6.07063 26.3896 6.12998 26.3249C6.18439 26.2655 6.34312 26.3415 6.75996 26.6342C7.06977 26.8487 7.38499 27.0681 7.46458 27.1113C7.70425 27.2615 9.94312 28.9463 11.0641 29.825C12.4801 30.9343 12.9712 31.3844 12.9199 31.5161Z" fill="#037FA5"/>
</svg>
