<svg width="59" height="83" viewBox="0 0 59 83" fill="none" xmlns="http://www.w3.org/2000/svg">
<path d="M1.18225 57.068C1.07039 45.0298 7.8362 33.4337 21.5189 33.3065C25.8619 33.2662 30.2392 34.6381 34.1035 37.533L34.3133 37.4256L32.5254 8.3877L50.0156 7.31856L54.3362 79.746L38.0468 80.6985L37.3977 76.6564L37.1869 76.6583C33.7833 80.2322 28.9358 82.7019 22.7585 82.7593C10.0035 82.8778 1.30964 73.0489 1.16095 57.0471L1.18225 57.068ZM35.9205 58.3687C35.8745 53.4142 33.8845 45.7369 27.2013 45.799C21.1295 45.8554 18.8573 50.9368 18.9137 57.0086C18.9739 63.481 21.3524 69.8475 27.635 69.7892C33.9177 69.7308 35.9799 64.7567 35.9205 58.3687Z" fill="#F9BDC1"/>
<path d="M4.41662 51.071C4.30476 39.0328 11.0706 27.4366 24.7533 27.3095C29.0963 27.2691 33.4736 28.6411 37.3379 31.5359L37.5476 31.4286L35.7598 2.39072L53.25 1.32158L57.5706 73.749L41.2811 74.7016L40.632 70.6593L40.4213 70.6613C37.0177 74.2351 32.1701 76.7049 25.9929 76.7623C13.2378 76.8809 4.54402 67.0519 4.39533 51.0501L4.41662 51.071ZM39.1549 52.3717C39.1088 47.4173 37.1189 39.7399 30.4357 39.802C24.3639 39.8584 22.0917 44.9398 22.1481 51.0116C22.2083 57.484 24.5867 63.8506 30.8694 63.7922C37.152 63.7338 39.2142 58.7598 39.1549 52.3717Z" stroke="#F0515B" stroke-miterlimit="10"/>
</svg>
