<svg width="56" height="78" viewBox="0 0 56 78" fill="none" xmlns="http://www.w3.org/2000/svg">
<path d="M1.41662 51.071C1.30476 39.0328 8.07057 27.4366 21.7533 27.3095C26.0963 27.2691 30.4736 28.6411 34.3379 31.5359L34.5476 31.4286L32.7598 2.39071L50.25 1.32157L54.5706 73.749L38.2811 74.7016L37.632 70.6593L37.4213 70.6613C34.0177 74.2351 29.1701 76.7049 22.9929 76.7623C10.2378 76.8808 1.54402 67.0519 1.39533 51.0501L1.41662 51.071ZM36.1549 52.3717C36.1088 47.4173 34.1189 39.7399 27.4357 39.802C21.3639 39.8584 19.0917 44.9398 19.1481 51.0116C19.2083 57.484 21.5867 63.8506 27.8694 63.7922C34.152 63.7338 36.2142 58.7598 36.1549 52.3717Z" stroke="#F0515B" stroke-miterlimit="10"/>
</svg>
