<svg width="118" height="37" viewBox="0 0 118 37" fill="none" xmlns="http://www.w3.org/2000/svg">
<path d="M20.8934 32.9455L4.85481 35.9683L0.150065 11.2764L6.53149 10.0766L10.1752 29.2532L19.8709 27.424L20.8934 32.9455Z" fill="#FF8C8C"/>
<path d="M23.0966 31.665L20.8954 15.4553L26.9027 14.6314L29.104 30.8411L23.0966 31.665ZM22.6262 6.29488C24.4608 6.04054 26.1609 7.28827 26.4568 9.13595C26.7528 10.9836 25.4958 12.626 23.6481 12.9219C21.8004 13.2179 20.1226 11.9862 19.8298 10.1578C19.5754 8.3232 20.7785 6.5908 22.6262 6.29488Z" fill="#FF8C8C"/>
<path d="M49.5443 19.9279C50.315 24.7396 47.8481 28.6879 43.556 29.3753C41.9586 29.6311 40.2717 29.3288 38.781 28.4029C38.7425 28.409 38.7487 28.4476 38.7102 28.4537L38.8359 29.8549C37.0136 30.1862 35.1336 30.5268 33.3144 30.8774L28.7252 6.16691C30.6953 5.77242 32.6939 5.43258 34.6701 5.07659L36.5271 14.9456C36.5271 14.9456 36.5717 14.9779 36.6102 14.9718C37.644 13.6613 39.169 12.7064 40.9589 12.4197C45.2125 11.7384 48.759 14.9014 49.5636 19.9248L49.5443 19.9279ZM43.4816 20.8988C43.1487 18.8202 41.9343 16.784 39.8556 17.1169C37.9502 17.4221 37.2714 19.3469 37.6259 21.5603C37.9804 23.7737 39.2118 25.669 41.3289 25.3299C43.1381 25.0401 43.8769 23.2439 43.5009 20.8958L43.4816 20.8988Z" fill="#FF8C8C"/>
<path d="M62.6879 14.605C61.9226 14.5105 61.0996 14.4251 60.2913 14.5545C58.2511 14.8813 57.677 16.4736 57.976 18.3405C58.0469 18.7832 58.147 19.1619 59.3776 26.2293L53.4073 27.2842L50.5578 11.2178L56.124 10.2277C56.2996 10.8312 56.4652 11.4956 56.6023 12.1053C57.7261 10.2474 59.1264 9.25331 60.6854 9.00363C61.4552 8.88033 62.1759 8.94252 62.8703 9.08793L62.691 14.6243L62.6879 14.605Z" fill="#FF8C8C"/>
<path d="M71.1119 14.2036C72.2474 14.0218 73.4361 14.0485 74.5402 14.2863L74.497 14.0168C74.1634 12.5502 73.2209 11.5956 71.5272 11.8669C69.9682 12.1166 68.2909 13.3526 67.0161 14.2674L64.5927 10.8456C66.0691 9.46423 69.2554 7.78915 72.3734 7.28978C76.5307 6.62396 79.3719 8.34045 80.2579 12.6401L82.2542 22.2696L76.6388 23.4453L76.3607 22.3251C75.3469 23.514 73.9112 24.5336 72.0058 24.8388C69.1573 25.295 66.1468 24.0004 65.6012 20.5937C65.0186 16.9561 67.8592 14.7246 71.1119 14.2036ZM72.8453 17.2621C71.729 17.4409 70.9162 18.2818 71.095 19.3981C71.3153 20.5275 72.4348 20.8614 73.5126 20.6888C74.5904 20.5161 75.615 19.6415 75.4301 18.4867C75.2451 17.3319 73.9232 17.0895 72.8453 17.2621Z" fill="#FF8C8C"/>
<path d="M94.9308 9.7175C94.0092 9.50977 93.1539 9.46918 92.461 9.58015C90.7288 9.85757 89.7658 11.1172 90.0495 13.3814L91.0131 21.1233C88.9991 21.3669 87.0074 21.6266 84.968 21.8348L83.0038 5.62664L88.6193 4.9444C88.7179 5.5603 88.8643 6.22786 88.963 6.84376C90.1761 5.0505 91.6456 4.24259 92.9159 4.03915C93.9168 3.87886 94.7267 4.0058 95.3857 4.17662L94.9308 9.7175Z" fill="#FF8C8C"/>
<path d="M101.71 2.86758L106.581 10.4772L106.619 10.471L107.965 1.37226L113.408 0.105707L109.152 25.4235L103.388 26.7808L105.023 18.1294L95.3943 4.35287L101.694 2.88993L101.71 2.86758Z" fill="#FF8C8C"/>
</svg>
