<svg width="94" height="87" viewBox="0 0 94 87" fill="none" xmlns="http://www.w3.org/2000/svg">
<path d="M21.7706 0.995331C21.3961 1.17274 20.8441 1.54729 20.5484 1.82327C19.957 2.39494 18.9123 4.87875 18.6954 6.21922L18.5574 7.06687L17.2564 6.92888C16.5467 6.86974 15.2851 6.75146 14.4769 6.69233L12.9984 6.57405L12.545 7.75682C12.2099 8.6439 3.24058 30.1506 0.953897 35.5322L0.677917 36.1433L3.37857 39.4747C12.2099 50.3365 27.0339 69.5762 33.0069 77.9147C34.0517 79.3734 34.4065 79.7283 34.8796 79.8071C35.2147 79.8465 37.3437 80.2408 39.6107 80.6942C49.5854 82.6458 60.8808 84.3608 72.8268 85.7604C75.1529 86.0364 77.3016 86.2532 77.5973 86.2532C78.0901 86.2532 78.5829 85.4253 85.2064 73.4793C93.8406 57.9259 93.4069 58.7736 93.1704 58.3202C93.0718 58.123 92.6184 57.1571 92.165 56.1912C90.9823 53.6877 89.4052 50.8884 87.4734 47.9512C86.1921 45.9602 85.8372 45.2703 85.8372 44.7183C85.8372 43.2399 84.4967 41.4657 82.6635 40.5195C82.2692 40.3027 81.8947 40.0267 81.8355 39.869C81.7764 39.7113 80.4951 37.8386 78.9969 35.6702C77.479 33.5215 76.1977 31.629 76.0991 31.5107C76.0202 31.3728 76.2371 30.4068 76.5722 29.3423C77.2622 27.0754 77.3213 25.794 76.7496 24.631C75.7443 22.5217 72.4917 20.8264 68.352 20.2153L66.7947 19.9788L65.1191 17.9089C64.2123 16.7459 63.3843 15.6814 63.3055 15.5434C63.2069 15.366 63.3449 14.5774 63.6603 13.513C64.3108 11.4037 64.232 10.4378 63.3055 9.03815C61.551 6.39664 56.7608 4.81961 50.3542 4.78019C47.2987 4.74076 46.6285 4.89846 45.7808 5.90382C45.2091 6.55434 44.4601 8.11165 44.1644 9.23528C44.0067 9.78724 43.8095 10.2406 43.711 10.2406C42.9816 10.1026 38.8222 9.13672 38.7039 9.05786C38.6053 8.99873 38.6251 8.74246 38.7236 8.46648C39.5121 6.39664 37.6197 3.59742 34.5839 2.3358C32.2184 1.35016 29.636 0.896767 25.8117 0.778488C23.0322 0.699638 22.3423 0.739059 21.7706 0.995331ZM29.8529 2.74976C32.179 3.16373 33.894 3.7157 35.1753 4.4845C36.5355 5.31243 37.1466 6.19951 37.1466 7.32314V8.1905H35.5302C33.4209 8.1905 31.8241 7.91452 29.4783 7.18515C25.7723 6.00238 21.8495 3.75512 22.0072 2.90747C22.0466 2.73006 22.2831 2.51321 22.5591 2.43436C23.2885 2.21752 27.9407 2.41465 29.8529 2.74976ZM24.4121 6.71204C28.197 8.46648 32.3564 9.45212 35.4907 9.33385L37.2846 9.2747L37.0283 9.86609C36.8115 10.3786 36.6735 10.4772 35.8258 10.556C35.0373 10.6349 34.8796 10.7137 34.8796 11.0489C34.8796 11.3446 35.0373 11.4628 35.5302 11.5023C36.1412 11.5614 36.299 11.7979 36.0033 12.2513C35.8456 12.5273 32.6521 12.1528 30.6611 11.6402C29.3206 11.3051 28.8672 11.3446 28.8672 11.8177C28.8672 12.5076 31.0751 13.237 33.7954 13.4538C35.2936 13.5721 35.3724 13.5918 35.2542 13.9861C34.8993 15.1294 34.6431 15.1491 30.7399 14.4986C27.0339 13.8678 21.9283 11.8965 20.8047 10.694C20.0359 9.84637 20.0359 7.1063 20.8047 5.09559L20.9821 4.6422L21.948 5.33215C22.4803 5.70669 23.5842 6.33749 24.4121 6.71204ZM56.1695 7.00774C58.4956 7.50055 60.6245 8.46648 61.5905 9.45212C62.1819 10.0829 62.2607 10.2998 62.2804 11.2066V12.2316L60.2106 12.2119C58.7715 12.1922 57.6282 12.0542 56.4651 11.7585C52.9168 10.832 48.1858 8.58475 47.4564 7.46113C47.141 6.98802 47.141 6.94859 47.5155 6.67262C48.0675 6.23893 53.5477 6.45577 56.1695 7.00774ZM17.1972 7.81596L18.4194 8.0328V8.76217C18.4194 9.92522 18.794 10.9306 19.5628 11.7782C21.2384 13.6312 27.7239 15.9573 32.3958 16.391C33.8546 16.529 33.9926 16.6276 33.4997 17.1401C32.5732 18.0666 31.627 21.3192 31.627 23.5665C31.627 26.1094 32.4747 27.2528 35.2936 28.5933C38.5856 30.1506 43.1393 31.353 46.7073 31.5896C48.4618 31.7079 48.5603 31.6882 49.0137 31.2348C49.7037 30.5448 51.9312 23.803 51.9312 22.4231C51.9312 21.2798 51.4384 20.097 50.6104 19.2691L50.1176 18.7763L50.5907 18.9143C52.7 19.5451 55.7949 20.2547 57.2537 20.4322C59.0475 20.6687 59.2447 20.7673 58.7518 21.1812C58.3773 21.4966 57.5296 23.4482 57.1551 24.8478C56.9974 25.4786 56.8594 26.7205 56.8594 27.5879C56.8594 30.2688 57.6676 31.3333 60.802 32.7724C63.9363 34.2311 67.4846 35.1773 71.23 35.5913C74.049 35.9067 74.6009 35.611 75.0937 33.5609C75.1726 33.2652 75.3106 32.9892 75.3894 32.9301C75.488 32.8709 76.5525 34.2311 77.7747 35.9264C78.9969 37.6414 80.0614 39.1396 80.1599 39.2776C80.2979 39.4353 80.0417 39.4156 79.2926 39.2185C76.5131 38.4694 70.8555 38.1145 69.1799 38.5679C68.7462 38.6862 68.1351 39.0213 67.8394 39.2973C66.5778 40.4801 65.533 43.6144 65.533 46.2165C65.5527 48.858 66.2821 49.8239 69.377 51.263C72.5311 52.7414 76.0202 53.7074 79.608 54.1213C81.8749 54.3973 82.7423 54.279 83.1169 53.6679C83.2746 53.4314 83.8659 51.9135 84.4376 50.2773C85.0093 48.6609 85.4824 47.3007 85.5218 47.2613C85.6007 47.1824 87.9465 50.7307 88.9716 52.5049C90.9034 55.8363 91.9285 57.8865 91.5934 57.7879C91.4159 57.7288 89.8389 57.3345 88.1042 56.9008C81.5793 55.2844 76.2962 54.279 59.4418 51.4601L47.3381 49.4494L46.6482 48.4835C38.1125 36.6952 20.0556 13.7101 15.0683 8.30878L14.1812 7.34285L15.0683 7.48084C15.5611 7.55969 16.5073 7.69768 17.1972 7.81596ZM15.8568 10.8517C28.6701 26.7402 36.1018 36.3207 43.6124 46.591L46.3919 50.3759L46.1159 51.0264C45.9779 51.3615 43.9278 56.0926 41.582 61.5136C39.2164 66.9347 36.6735 72.8091 35.9047 74.5832L34.5248 77.7964L33.7166 76.6531C27.4282 67.7232 11.5791 47.5964 4.02909 38.9228L1.52557 36.0644L7.34084 21.9303C10.554 14.1438 13.235 7.81596 13.3138 7.83567C13.3927 7.8751 14.536 9.21557 15.8568 10.8517ZM49.4671 10.6743C53.4294 12.5273 56.6623 13.3553 60.1317 13.3947L62.5367 13.4144L62.1621 14.1438C61.8073 14.8337 61.7285 14.8929 60.8808 14.8929C60.25 14.8929 59.974 14.9914 59.8755 15.2083C59.7375 15.5828 60.1317 15.8785 60.7625 15.8785C61.1174 15.8785 61.2159 15.9771 61.1568 16.3122C61.0977 16.7064 60.9597 16.7656 60.1514 16.8247C59.6192 16.8641 58.2393 16.7064 57.0762 16.4896C54.6713 16.0165 53.9813 15.9771 53.7842 16.2925C53.4097 16.9036 55.3415 17.6132 58.1802 17.9089C59.9346 18.0863 60.388 18.1849 60.3091 18.4017C60.25 18.5397 60.2106 18.7566 60.2106 18.8748C60.2106 19.1114 57.9042 18.934 55.5781 18.5003C53.5082 18.1258 49.6445 16.8444 47.7915 15.8982C45.8991 14.952 45.426 14.3015 45.426 12.6456C45.426 11.5614 45.8597 9.19585 46.1356 8.74246C46.1948 8.6439 46.5693 8.86073 46.9636 9.19585C47.3578 9.55068 48.4815 10.2209 49.4671 10.6743ZM41.3454 10.97L43.6518 11.4234V12.3893C43.6518 13.8284 44.0067 14.9914 44.736 15.8391L45.3866 16.5882L44.1841 16.3516C42.7253 16.0362 39.0785 15.6814 37.462 15.6814C36.6341 15.6814 36.3384 15.6222 36.4172 15.4251C36.4567 15.3068 36.8903 14.1043 37.3437 12.7639C38.1125 10.5758 38.2308 10.3392 38.6053 10.4378C38.8419 10.4772 40.0641 10.7335 41.3454 10.97ZM63.7195 18.4609C64.2714 19.072 64.7445 19.6239 64.7445 19.6831C64.7445 19.7619 64.0349 19.8211 63.1478 19.8211C61.9453 19.8211 61.5708 19.7619 61.6299 19.5648C61.689 19.4465 61.8862 18.8551 62.0833 18.2835C62.2607 17.7118 62.4776 17.2584 62.5564 17.2978C62.6155 17.3372 63.1478 17.8498 63.7195 18.4609ZM44.1249 18.0469C48.3238 18.9537 50.6104 20.7081 50.3148 22.778C50.2556 23.2708 50.2359 23.2708 48.1858 23.2314C45.15 23.1919 41.4046 22.1275 37.9548 20.3139C35.6879 19.1114 34.6036 17.9483 35.4316 17.5738C36.023 17.2978 42.2128 17.6329 44.1249 18.0469ZM35.3527 20.6096C36.6932 21.5361 37.9745 22.1275 40.6949 23.054C43.3956 24.0002 45.702 24.4141 48.2449 24.4141C49.408 24.4141 50.3542 24.4536 50.3542 24.493C50.3542 24.7887 49.7037 25.7349 49.5657 25.6363C49.4868 25.5772 48.718 25.5181 47.8901 25.4983C46.7073 25.4786 46.3131 25.5575 46.0568 25.8137C45.5048 26.3854 46.1948 26.7205 47.9295 26.7205C49.3291 26.7205 49.3488 26.7205 49.1911 27.1542C49.0334 27.5682 48.9151 27.6076 47.9689 27.5288C47.3775 27.4893 46.0765 27.2134 45.0514 26.898C42.7845 26.208 42.3311 26.3657 43.5336 27.4302C44.3615 28.1596 45.6625 28.6327 47.3578 28.8298C47.9098 28.8889 48.3829 28.9678 48.3829 29.0072C48.3829 29.0269 48.2843 29.3029 48.1858 29.5789C47.9886 30.1111 47.9689 30.1111 46.6482 29.9929C41.9171 29.5198 35.8653 27.5485 34.1305 25.8926L33.342 25.1632L33.4603 23.1328C33.5392 21.3784 33.8546 19.8211 34.1108 19.8211C34.1503 19.8211 34.7219 20.1759 35.3527 20.6096ZM69.0813 22.0683C73.3787 22.9554 75.5866 24.493 75.5866 26.622V27.3119H73.6744C70.6386 27.3119 67.8394 26.5628 64.0546 24.7493C61.5116 23.5468 60.3683 22.6991 60.4471 22.1275C60.4866 21.8909 60.7034 21.6543 60.9991 21.5558C61.9256 21.2798 66.7158 21.5755 69.0813 22.0683ZM60.2894 24.4339C61.3342 25.2224 62.7732 25.932 65.2373 26.8388C68.4702 28.061 70.0867 28.3764 72.9648 28.3764C74.4038 28.3961 75.5866 28.4158 75.5866 28.4356C75.5866 28.4553 75.5077 28.6918 75.3894 28.9678C75.212 29.4606 75.1332 29.4803 73.7336 29.4803C72.6888 29.4803 72.2157 29.5592 72.0383 29.776C71.5849 30.3083 72.1368 30.6631 73.4379 30.6631C74.0884 30.6631 74.6009 30.7025 74.6009 30.7419C74.6009 31.2348 74.2855 31.4516 73.5364 31.4516C72.5311 31.4516 69.7713 30.8799 67.4255 30.19C65.4542 29.5986 64.8431 29.5592 64.6854 29.9534C64.5277 30.328 64.8037 30.5251 66.2821 31.1165C67.9577 31.8064 70.6584 32.457 72.3734 32.6147L73.773 32.7329L73.497 33.4032L73.221 34.0734L71.4863 33.9354C68.214 33.6989 63.9954 32.5161 60.9991 30.9982C58.9095 29.9534 58.5547 29.4212 58.5941 27.4893C58.6138 26.3263 59.1264 23.7636 59.3432 23.7636C59.3826 23.7636 59.8163 24.0593 60.2894 24.4339ZM76.2765 40.3421C81.2047 41.0123 84.2602 42.8456 84.2602 45.1126C84.2602 45.7828 84.2405 45.8025 83.3337 45.9011C82.1312 46.0391 79.6474 45.7434 77.7747 45.2309C74.7389 44.4226 70.3232 42.3528 69.3967 41.3277C68.9039 40.7955 69.0616 40.2632 69.7713 40.0858C70.4809 39.9281 74.3447 40.0661 76.2765 40.3421ZM69.0025 43.0033C70.205 43.8904 71.092 44.3438 73.5364 45.2703C77.0847 46.591 78.5238 46.8867 81.5595 46.9064C83.8857 46.9262 84.2602 46.9656 84.1813 47.2219C84.1419 47.3796 83.6097 48.6609 82.9986 50.0802L81.9144 52.6429L80.8696 52.5837C75.8034 52.288 68.5097 49.7648 67.5832 47.9709C67.3269 47.4781 67.2875 46.9853 67.3663 45.566C67.4649 44.0284 67.8197 42.2937 68.0366 42.2937C68.0563 42.2937 68.5097 42.6091 69.0025 43.0033ZM70.7569 54.5944C74.2264 55.2253 78.5238 56.0335 80.3176 56.408C83.2548 57.0191 91.5736 59.0298 91.7116 59.1481C91.7314 59.1678 90.9625 60.6068 90.0163 62.3219C89.0504 64.0369 85.8964 69.7536 83.0183 75.0169C80.1205 80.2802 77.6761 84.6959 77.5776 84.8339C77.3016 85.2873 62.5958 83.5328 51.3398 81.6995C46.6679 80.9505 35.7273 78.9595 35.609 78.8609C35.5696 78.8215 38.3097 72.4345 41.6805 64.6283L47.8309 50.4745L56.13 51.9726C60.7034 52.8006 67.2875 53.9833 70.7569 54.5944Z" fill="#F38189"/>
<path d="M21.7706 0.995331C21.3961 1.17274 20.8441 1.54729 20.5484 1.82327C19.957 2.39494 18.9123 4.87875 18.6954 6.21922L18.5574 7.06687L17.2564 6.92888C16.5467 6.86974 15.2851 6.75146 14.4769 6.69233L12.9984 6.57405L12.545 7.75682C12.2099 8.6439 3.24058 30.1506 0.953897 35.5322L0.677917 36.1433L3.37857 39.4747C12.2099 50.3365 27.0339 69.5762 33.0069 77.9147C34.0517 79.3734 34.4065 79.7283 34.8796 79.8071C35.2147 79.8465 37.3437 80.2408 39.6107 80.6942C49.5854 82.6458 60.8808 84.3608 72.8268 85.7604C75.1529 86.0364 77.3016 86.2532 77.5973 86.2532C78.0901 86.2532 78.5829 85.4253 85.2064 73.4793C93.8406 57.9259 93.4069 58.7736 93.1704 58.3202C93.0718 58.123 92.6184 57.1571 92.165 56.1912C90.9823 53.6877 89.4052 50.8884 87.4734 47.9512C86.1921 45.9602 85.8372 45.2703 85.8372 44.7183C85.8372 43.2399 84.4967 41.4657 82.6635 40.5195C82.2692 40.3027 81.8947 40.0267 81.8355 39.869C81.7764 39.7113 80.4951 37.8386 78.9969 35.6702C77.479 33.5215 76.1977 31.629 76.0991 31.5107C76.0202 31.3728 76.2371 30.4068 76.5722 29.3423C77.2622 27.0754 77.3213 25.794 76.7496 24.631C75.7443 22.5217 72.4917 20.8264 68.352 20.2153L66.7947 19.9788L65.1191 17.9089C64.2123 16.7459 63.3843 15.6814 63.3055 15.5434C63.2069 15.366 63.3449 14.5774 63.6603 13.513C64.3108 11.4037 64.232 10.4378 63.3055 9.03815C61.551 6.39664 56.7608 4.81961 50.3542 4.78019C47.2987 4.74076 46.6285 4.89846 45.7808 5.90382C45.2091 6.55434 44.4601 8.11165 44.1644 9.23528C44.0067 9.78724 43.8095 10.2406 43.711 10.2406C42.9816 10.1026 38.8222 9.13672 38.7039 9.05786C38.6053 8.99873 38.6251 8.74246 38.7236 8.46648C39.5121 6.39664 37.6197 3.59742 34.5839 2.3358C32.2184 1.35016 29.636 0.896767 25.8117 0.778488C23.0322 0.699638 22.3423 0.739059 21.7706 0.995331ZM29.8529 2.74976C32.179 3.16373 33.894 3.7157 35.1753 4.4845C36.5355 5.31243 37.1466 6.19951 37.1466 7.32314V8.1905H35.5302C33.4209 8.1905 31.8241 7.91452 29.4783 7.18515C25.7723 6.00238 21.8495 3.75512 22.0072 2.90747C22.0466 2.73006 22.2831 2.51321 22.5591 2.43436C23.2885 2.21752 27.9407 2.41465 29.8529 2.74976ZM24.4121 6.71204C28.197 8.46648 32.3564 9.45212 35.4907 9.33385L37.2846 9.2747L37.0283 9.86609C36.8115 10.3786 36.6735 10.4772 35.8258 10.556C35.0373 10.6349 34.8796 10.7137 34.8796 11.0489C34.8796 11.3446 35.0373 11.4628 35.5302 11.5023C36.1412 11.5614 36.299 11.7979 36.0033 12.2513C35.8456 12.5273 32.6521 12.1528 30.6611 11.6402C29.3206 11.3051 28.8672 11.3446 28.8672 11.8177C28.8672 12.5076 31.0751 13.237 33.7954 13.4538C35.2936 13.5721 35.3724 13.5918 35.2542 13.9861C34.8993 15.1294 34.6431 15.1491 30.7399 14.4986C27.0339 13.8678 21.9283 11.8965 20.8047 10.694C20.0359 9.84637 20.0359 7.1063 20.8047 5.09559L20.9821 4.6422L21.948 5.33215C22.4803 5.70669 23.5842 6.33749 24.4121 6.71204ZM56.1695 7.00774C58.4956 7.50055 60.6245 8.46648 61.5905 9.45212C62.1819 10.0829 62.2607 10.2998 62.2804 11.2066V12.2316L60.2106 12.2119C58.7715 12.1922 57.6282 12.0542 56.4651 11.7585C52.9168 10.832 48.1858 8.58475 47.4564 7.46113C47.141 6.98802 47.141 6.94859 47.5155 6.67262C48.0675 6.23893 53.5477 6.45577 56.1695 7.00774ZM17.1972 7.81596L18.4194 8.0328V8.76217C18.4194 9.92522 18.794 10.9306 19.5628 11.7782C21.2384 13.6312 27.7239 15.9573 32.3958 16.391C33.8546 16.529 33.9926 16.6276 33.4997 17.1401C32.5732 18.0666 31.627 21.3192 31.627 23.5665C31.627 26.1094 32.4747 27.2528 35.2936 28.5933C38.5856 30.1506 43.1393 31.353 46.7073 31.5896C48.4618 31.7079 48.5603 31.6882 49.0137 31.2348C49.7037 30.5448 51.9312 23.803 51.9312 22.4231C51.9312 21.2798 51.4384 20.097 50.6104 19.2691L50.1176 18.7763L50.5907 18.9143C52.7 19.5451 55.7949 20.2547 57.2537 20.4322C59.0475 20.6687 59.2447 20.7673 58.7518 21.1812C58.3773 21.4966 57.5296 23.4482 57.1551 24.8478C56.9974 25.4786 56.8594 26.7205 56.8594 27.5879C56.8594 30.2688 57.6676 31.3333 60.802 32.7724C63.9363 34.2311 67.4846 35.1773 71.23 35.5913C74.049 35.9067 74.6009 35.611 75.0937 33.5609C75.1726 33.2652 75.3106 32.9892 75.3894 32.9301C75.488 32.8709 76.5525 34.2311 77.7747 35.9264C78.9969 37.6414 80.0614 39.1396 80.1599 39.2776C80.2979 39.4353 80.0417 39.4156 79.2926 39.2185C76.5131 38.4694 70.8555 38.1145 69.1799 38.5679C68.7462 38.6862 68.1351 39.0213 67.8394 39.2973C66.5778 40.4801 65.533 43.6144 65.533 46.2165C65.5527 48.858 66.2821 49.8239 69.377 51.263C72.5311 52.7414 76.0202 53.7074 79.608 54.1213C81.8749 54.3973 82.7423 54.279 83.1169 53.6679C83.2746 53.4314 83.8659 51.9135 84.4376 50.2773C85.0093 48.6609 85.4824 47.3007 85.5218 47.2613C85.6007 47.1824 87.9465 50.7307 88.9716 52.5049C90.9034 55.8363 91.9285 57.8865 91.5934 57.7879C91.4159 57.7288 89.8389 57.3345 88.1042 56.9008C81.5793 55.2844 76.2962 54.279 59.4418 51.4601L47.3381 49.4494L46.6482 48.4835C38.1125 36.6952 20.0556 13.7101 15.0683 8.30878L14.1812 7.34285L15.0683 7.48084C15.5611 7.55969 16.5073 7.69768 17.1972 7.81596ZM15.8568 10.8517C28.6701 26.7402 36.1018 36.3207 43.6124 46.591L46.3919 50.3759L46.1159 51.0264C45.9779 51.3615 43.9278 56.0926 41.582 61.5136C39.2164 66.9347 36.6735 72.8091 35.9047 74.5832L34.5248 77.7964L33.7166 76.6531C27.4282 67.7232 11.5791 47.5964 4.02909 38.9228L1.52557 36.0644L7.34084 21.9303C10.554 14.1438 13.235 7.81596 13.3138 7.83567C13.3927 7.8751 14.536 9.21557 15.8568 10.8517ZM49.4671 10.6743C53.4294 12.5273 56.6623 13.3553 60.1317 13.3947L62.5367 13.4144L62.1621 14.1438C61.8073 14.8337 61.7285 14.8929 60.8808 14.8929C60.25 14.8929 59.974 14.9914 59.8755 15.2083C59.7375 15.5828 60.1317 15.8785 60.7625 15.8785C61.1174 15.8785 61.2159 15.9771 61.1568 16.3122C61.0977 16.7064 60.9597 16.7656 60.1514 16.8247C59.6192 16.8641 58.2393 16.7064 57.0762 16.4896C54.6713 16.0165 53.9813 15.9771 53.7842 16.2925C53.4097 16.9036 55.3415 17.6132 58.1802 17.9089C59.9346 18.0863 60.388 18.1849 60.3091 18.4017C60.25 18.5397 60.2106 18.7566 60.2106 18.8748C60.2106 19.1114 57.9042 18.934 55.5781 18.5003C53.5082 18.1258 49.6445 16.8444 47.7915 15.8982C45.8991 14.952 45.426 14.3015 45.426 12.6456C45.426 11.5614 45.8597 9.19585 46.1356 8.74246C46.1948 8.6439 46.5693 8.86073 46.9636 9.19585C47.3578 9.55068 48.4815 10.2209 49.4671 10.6743ZM41.3454 10.97L43.6518 11.4234V12.3893C43.6518 13.8284 44.0067 14.9914 44.736 15.8391L45.3866 16.5882L44.1841 16.3516C42.7253 16.0362 39.0785 15.6814 37.462 15.6814C36.6341 15.6814 36.3384 15.6222 36.4172 15.4251C36.4567 15.3068 36.8903 14.1043 37.3437 12.7639C38.1125 10.5758 38.2308 10.3392 38.6053 10.4378C38.8419 10.4772 40.0641 10.7335 41.3454 10.97ZM63.7195 18.4609C64.2714 19.072 64.7445 19.6239 64.7445 19.6831C64.7445 19.7619 64.0349 19.8211 63.1478 19.8211C61.9453 19.8211 61.5708 19.7619 61.6299 19.5648C61.689 19.4465 61.8862 18.8551 62.0833 18.2835C62.2607 17.7118 62.4776 17.2584 62.5564 17.2978C62.6155 17.3372 63.1478 17.8498 63.7195 18.4609ZM44.1249 18.0469C48.3238 18.9537 50.6104 20.7081 50.3148 22.778C50.2556 23.2708 50.2359 23.2708 48.1858 23.2314C45.15 23.1919 41.4046 22.1275 37.9548 20.3139C35.6879 19.1114 34.6036 17.9483 35.4316 17.5738C36.023 17.2978 42.2128 17.6329 44.1249 18.0469ZM35.3527 20.6096C36.6932 21.5361 37.9745 22.1275 40.6949 23.054C43.3956 24.0002 45.702 24.4141 48.2449 24.4141C49.408 24.4141 50.3542 24.4536 50.3542 24.493C50.3542 24.7887 49.7037 25.7349 49.5657 25.6363C49.4868 25.5772 48.718 25.5181 47.8901 25.4983C46.7073 25.4786 46.3131 25.5575 46.0568 25.8137C45.5048 26.3854 46.1948 26.7205 47.9295 26.7205C49.3291 26.7205 49.3488 26.7205 49.1911 27.1542C49.0334 27.5682 48.9151 27.6076 47.9689 27.5288C47.3775 27.4893 46.0765 27.2134 45.0514 26.898C42.7845 26.208 42.3311 26.3657 43.5336 27.4302C44.3615 28.1596 45.6625 28.6327 47.3578 28.8298C47.9098 28.8889 48.3829 28.9678 48.3829 29.0072C48.3829 29.0269 48.2843 29.3029 48.1858 29.5789C47.9886 30.1111 47.9689 30.1111 46.6482 29.9929C41.9171 29.5198 35.8653 27.5485 34.1305 25.8926L33.342 25.1632L33.4603 23.1328C33.5392 21.3784 33.8546 19.8211 34.1108 19.8211C34.1503 19.8211 34.7219 20.1759 35.3527 20.6096ZM69.0813 22.0683C73.3787 22.9554 75.5866 24.493 75.5866 26.622V27.3119H73.6744C70.6386 27.3119 67.8394 26.5628 64.0546 24.7493C61.5116 23.5468 60.3683 22.6991 60.4471 22.1275C60.4866 21.8909 60.7034 21.6543 60.9991 21.5558C61.9256 21.2798 66.7158 21.5755 69.0813 22.0683ZM60.2894 24.4339C61.3342 25.2224 62.7732 25.932 65.2373 26.8388C68.4702 28.061 70.0867 28.3764 72.9648 28.3764C74.4038 28.3961 75.5866 28.4158 75.5866 28.4356C75.5866 28.4553 75.5077 28.6918 75.3894 28.9678C75.212 29.4606 75.1332 29.4803 73.7336 29.4803C72.6888 29.4803 72.2157 29.5592 72.0383 29.776C71.5849 30.3083 72.1368 30.6631 73.4379 30.6631C74.0884 30.6631 74.6009 30.7025 74.6009 30.7419C74.6009 31.2348 74.2855 31.4516 73.5364 31.4516C72.5311 31.4516 69.7713 30.8799 67.4255 30.19C65.4542 29.5986 64.8431 29.5592 64.6854 29.9534C64.5277 30.328 64.8037 30.5251 66.2821 31.1165C67.9577 31.8064 70.6584 32.457 72.3734 32.6147L73.773 32.7329L73.497 33.4032L73.221 34.0734L71.4863 33.9354C68.214 33.6989 63.9954 32.5161 60.9991 30.9982C58.9095 29.9534 58.5547 29.4212 58.5941 27.4893C58.6138 26.3263 59.1264 23.7636 59.3432 23.7636C59.3826 23.7636 59.8163 24.0593 60.2894 24.4339ZM76.2765 40.3421C81.2047 41.0123 84.2602 42.8456 84.2602 45.1126C84.2602 45.7828 84.2405 45.8025 83.3337 45.9011C82.1312 46.0391 79.6474 45.7434 77.7747 45.2309C74.7389 44.4226 70.3232 42.3528 69.3967 41.3277C68.9039 40.7955 69.0616 40.2632 69.7713 40.0858C70.4809 39.9281 74.3447 40.0661 76.2765 40.3421ZM69.0025 43.0033C70.205 43.8904 71.092 44.3438 73.5364 45.2703C77.0847 46.591 78.5238 46.8867 81.5595 46.9064C83.8857 46.9262 84.2602 46.9656 84.1813 47.2219C84.1419 47.3796 83.6097 48.6609 82.9986 50.0802L81.9144 52.6429L80.8696 52.5837C75.8034 52.288 68.5097 49.7648 67.5832 47.9709C67.3269 47.4781 67.2875 46.9853 67.3663 45.566C67.4649 44.0284 67.8197 42.2937 68.0366 42.2937C68.0563 42.2937 68.5097 42.6091 69.0025 43.0033ZM70.7569 54.5944C74.2264 55.2253 78.5238 56.0335 80.3176 56.408C83.2548 57.0191 91.5736 59.0298 91.7116 59.1481C91.7314 59.1678 90.9625 60.6068 90.0163 62.3219C89.0504 64.0369 85.8964 69.7536 83.0183 75.0169C80.1205 80.2802 77.6761 84.6959 77.5776 84.8339C77.3016 85.2873 62.5958 83.5328 51.3398 81.6995C46.6679 80.9505 35.7273 78.9595 35.609 78.8609C35.5696 78.8215 38.3097 72.4345 41.6805 64.6283L47.8309 50.4745L56.13 51.9726C60.7034 52.8006 67.2875 53.9833 70.7569 54.5944Z" fill="#F38189"/>
<path d="M21.7706 0.995331C21.3961 1.17274 20.8441 1.54729 20.5484 1.82327C19.957 2.39494 18.9123 4.87875 18.6954 6.21922L18.5574 7.06687L17.2564 6.92888C16.5467 6.86974 15.2851 6.75146 14.4769 6.69233L12.9984 6.57405L12.545 7.75682C12.2099 8.6439 3.24058 30.1506 0.953897 35.5322L0.677917 36.1433L3.37857 39.4747C12.2099 50.3365 27.0339 69.5762 33.0069 77.9147C34.0517 79.3734 34.4065 79.7283 34.8796 79.8071C35.2147 79.8465 37.3437 80.2408 39.6107 80.6942C49.5854 82.6458 60.8808 84.3608 72.8268 85.7604C75.1529 86.0364 77.3016 86.2532 77.5973 86.2532C78.0901 86.2532 78.5829 85.4253 85.2064 73.4793C93.8406 57.9259 93.4069 58.7736 93.1704 58.3202C93.0718 58.123 92.6184 57.1571 92.165 56.1912C90.9823 53.6877 89.4052 50.8884 87.4734 47.9512C86.1921 45.9602 85.8372 45.2703 85.8372 44.7183C85.8372 43.2399 84.4967 41.4657 82.6635 40.5195C82.2692 40.3027 81.8947 40.0267 81.8355 39.869C81.7764 39.7113 80.4951 37.8386 78.9969 35.6702C77.479 33.5215 76.1977 31.629 76.0991 31.5107C76.0202 31.3728 76.2371 30.4068 76.5722 29.3423C77.2622 27.0754 77.3213 25.794 76.7496 24.631C75.7443 22.5217 72.4917 20.8264 68.352 20.2153L66.7947 19.9788L65.1191 17.9089C64.2123 16.7459 63.3843 15.6814 63.3055 15.5434C63.2069 15.366 63.3449 14.5774 63.6603 13.513C64.3108 11.4037 64.232 10.4378 63.3055 9.03815C61.551 6.39664 56.7608 4.81961 50.3542 4.78019C47.2987 4.74076 46.6285 4.89846 45.7808 5.90382C45.2091 6.55434 44.4601 8.11165 44.1644 9.23528C44.0067 9.78724 43.8095 10.2406 43.711 10.2406C42.9816 10.1026 38.8222 9.13672 38.7039 9.05786C38.6053 8.99873 38.6251 8.74246 38.7236 8.46648C39.5121 6.39664 37.6197 3.59742 34.5839 2.3358C32.2184 1.35016 29.636 0.896767 25.8117 0.778488C23.0322 0.699638 22.3423 0.739059 21.7706 0.995331ZM29.8529 2.74976C32.179 3.16373 33.894 3.7157 35.1753 4.4845C36.5355 5.31243 37.1466 6.19951 37.1466 7.32314V8.1905H35.5302C33.4209 8.1905 31.8241 7.91452 29.4783 7.18515C25.7723 6.00238 21.8495 3.75512 22.0072 2.90747C22.0466 2.73006 22.2831 2.51321 22.5591 2.43436C23.2885 2.21752 27.9407 2.41465 29.8529 2.74976ZM24.4121 6.71204C28.197 8.46648 32.3564 9.45212 35.4907 9.33385L37.2846 9.2747L37.0283 9.86609C36.8115 10.3786 36.6735 10.4772 35.8258 10.556C35.0373 10.6349 34.8796 10.7137 34.8796 11.0489C34.8796 11.3446 35.0373 11.4628 35.5302 11.5023C36.1412 11.5614 36.299 11.7979 36.0033 12.2513C35.8456 12.5273 32.6521 12.1528 30.6611 11.6402C29.3206 11.3051 28.8672 11.3446 28.8672 11.8177C28.8672 12.5076 31.0751 13.237 33.7954 13.4538C35.2936 13.5721 35.3724 13.5918 35.2542 13.9861C34.8993 15.1294 34.6431 15.1491 30.7399 14.4986C27.0339 13.8678 21.9283 11.8965 20.8047 10.694C20.0359 9.84637 20.0359 7.1063 20.8047 5.09559L20.9821 4.6422L21.948 5.33215C22.4803 5.70669 23.5842 6.33749 24.4121 6.71204ZM56.1695 7.00774C58.4956 7.50055 60.6245 8.46648 61.5905 9.45212C62.1819 10.0829 62.2607 10.2998 62.2804 11.2066V12.2316L60.2106 12.2119C58.7715 12.1922 57.6282 12.0542 56.4651 11.7585C52.9168 10.832 48.1858 8.58475 47.4564 7.46113C47.141 6.98802 47.141 6.94859 47.5155 6.67262C48.0675 6.23893 53.5477 6.45577 56.1695 7.00774ZM17.1972 7.81596L18.4194 8.0328V8.76217C18.4194 9.92522 18.794 10.9306 19.5628 11.7782C21.2384 13.6312 27.7239 15.9573 32.3958 16.391C33.8546 16.529 33.9926 16.6276 33.4997 17.1401C32.5732 18.0666 31.627 21.3192 31.627 23.5665C31.627 26.1094 32.4747 27.2528 35.2936 28.5933C38.5856 30.1506 43.1393 31.353 46.7073 31.5896C48.4618 31.7079 48.5603 31.6882 49.0137 31.2348C49.7037 30.5448 51.9312 23.803 51.9312 22.4231C51.9312 21.2798 51.4384 20.097 50.6104 19.2691L50.1176 18.7763L50.5907 18.9143C52.7 19.5451 55.7949 20.2547 57.2537 20.4322C59.0475 20.6687 59.2447 20.7673 58.7518 21.1812C58.3773 21.4966 57.5296 23.4482 57.1551 24.8478C56.9974 25.4786 56.8594 26.7205 56.8594 27.5879C56.8594 30.2688 57.6676 31.3333 60.802 32.7724C63.9363 34.2311 67.4846 35.1773 71.23 35.5913C74.049 35.9067 74.6009 35.611 75.0937 33.5609C75.1726 33.2652 75.3106 32.9892 75.3894 32.9301C75.488 32.8709 76.5525 34.2311 77.7747 35.9264C78.9969 37.6414 80.0614 39.1396 80.1599 39.2776C80.2979 39.4353 80.0417 39.4156 79.2926 39.2185C76.5131 38.4694 70.8555 38.1145 69.1799 38.5679C68.7462 38.6862 68.1351 39.0213 67.8394 39.2973C66.5778 40.4801 65.533 43.6144 65.533 46.2165C65.5527 48.858 66.2821 49.8239 69.377 51.263C72.5311 52.7414 76.0202 53.7074 79.608 54.1213C81.8749 54.3973 82.7423 54.279 83.1169 53.6679C83.2746 53.4314 83.8659 51.9135 84.4376 50.2773C85.0093 48.6609 85.4824 47.3007 85.5218 47.2613C85.6007 47.1824 87.9465 50.7307 88.9716 52.5049C90.9034 55.8363 91.9285 57.8865 91.5934 57.7879C91.4159 57.7288 89.8389 57.3345 88.1042 56.9008C81.5793 55.2844 76.2962 54.279 59.4418 51.4601L47.3381 49.4494L46.6482 48.4835C38.1125 36.6952 20.0556 13.7101 15.0683 8.30878L14.1812 7.34285L15.0683 7.48084C15.5611 7.55969 16.5073 7.69768 17.1972 7.81596ZM15.8568 10.8517C28.6701 26.7402 36.1018 36.3207 43.6124 46.591L46.3919 50.3759L46.1159 51.0264C45.9779 51.3615 43.9278 56.0926 41.582 61.5136C39.2164 66.9347 36.6735 72.8091 35.9047 74.5832L34.5248 77.7964L33.7166 76.6531C27.4282 67.7232 11.5791 47.5964 4.02909 38.9228L1.52557 36.0644L7.34084 21.9303C10.554 14.1438 13.235 7.81596 13.3138 7.83567C13.3927 7.8751 14.536 9.21557 15.8568 10.8517ZM49.4671 10.6743C53.4294 12.5273 56.6623 13.3553 60.1317 13.3947L62.5367 13.4144L62.1621 14.1438C61.8073 14.8337 61.7285 14.8929 60.8808 14.8929C60.25 14.8929 59.974 14.9914 59.8755 15.2083C59.7375 15.5828 60.1317 15.8785 60.7625 15.8785C61.1174 15.8785 61.2159 15.9771 61.1568 16.3122C61.0977 16.7064 60.9597 16.7656 60.1514 16.8247C59.6192 16.8641 58.2393 16.7064 57.0762 16.4896C54.6713 16.0165 53.9813 15.9771 53.7842 16.2925C53.4097 16.9036 55.3415 17.6132 58.1802 17.9089C59.9346 18.0863 60.388 18.1849 60.3091 18.4017C60.25 18.5397 60.2106 18.7566 60.2106 18.8748C60.2106 19.1114 57.9042 18.934 55.5781 18.5003C53.5082 18.1258 49.6445 16.8444 47.7915 15.8982C45.8991 14.952 45.426 14.3015 45.426 12.6456C45.426 11.5614 45.8597 9.19585 46.1356 8.74246C46.1948 8.6439 46.5693 8.86073 46.9636 9.19585C47.3578 9.55068 48.4815 10.2209 49.4671 10.6743ZM41.3454 10.97L43.6518 11.4234V12.3893C43.6518 13.8284 44.0067 14.9914 44.736 15.8391L45.3866 16.5882L44.1841 16.3516C42.7253 16.0362 39.0785 15.6814 37.462 15.6814C36.6341 15.6814 36.3384 15.6222 36.4172 15.4251C36.4567 15.3068 36.8903 14.1043 37.3437 12.7639C38.1125 10.5758 38.2308 10.3392 38.6053 10.4378C38.8419 10.4772 40.0641 10.7335 41.3454 10.97ZM63.7195 18.4609C64.2714 19.072 64.7445 19.6239 64.7445 19.6831C64.7445 19.7619 64.0349 19.8211 63.1478 19.8211C61.9453 19.8211 61.5708 19.7619 61.6299 19.5648C61.689 19.4465 61.8862 18.8551 62.0833 18.2835C62.2607 17.7118 62.4776 17.2584 62.5564 17.2978C62.6155 17.3372 63.1478 17.8498 63.7195 18.4609ZM44.1249 18.0469C48.3238 18.9537 50.6104 20.7081 50.3148 22.778C50.2556 23.2708 50.2359 23.2708 48.1858 23.2314C45.15 23.1919 41.4046 22.1275 37.9548 20.3139C35.6879 19.1114 34.6036 17.9483 35.4316 17.5738C36.023 17.2978 42.2128 17.6329 44.1249 18.0469ZM35.3527 20.6096C36.6932 21.5361 37.9745 22.1275 40.6949 23.054C43.3956 24.0002 45.702 24.4141 48.2449 24.4141C49.408 24.4141 50.3542 24.4536 50.3542 24.493C50.3542 24.7887 49.7037 25.7349 49.5657 25.6363C49.4868 25.5772 48.718 25.5181 47.8901 25.4983C46.7073 25.4786 46.3131 25.5575 46.0568 25.8137C45.5048 26.3854 46.1948 26.7205 47.9295 26.7205C49.3291 26.7205 49.3488 26.7205 49.1911 27.1542C49.0334 27.5682 48.9151 27.6076 47.9689 27.5288C47.3775 27.4893 46.0765 27.2134 45.0514 26.898C42.7845 26.208 42.3311 26.3657 43.5336 27.4302C44.3615 28.1596 45.6625 28.6327 47.3578 28.8298C47.9098 28.8889 48.3829 28.9678 48.3829 29.0072C48.3829 29.0269 48.2843 29.3029 48.1858 29.5789C47.9886 30.1111 47.9689 30.1111 46.6482 29.9929C41.9171 29.5198 35.8653 27.5485 34.1305 25.8926L33.342 25.1632L33.4603 23.1328C33.5392 21.3784 33.8546 19.8211 34.1108 19.8211C34.1503 19.8211 34.7219 20.1759 35.3527 20.6096ZM69.0813 22.0683C73.3787 22.9554 75.5866 24.493 75.5866 26.622V27.3119H73.6744C70.6386 27.3119 67.8394 26.5628 64.0546 24.7493C61.5116 23.5468 60.3683 22.6991 60.4471 22.1275C60.4866 21.8909 60.7034 21.6543 60.9991 21.5558C61.9256 21.2798 66.7158 21.5755 69.0813 22.0683ZM60.2894 24.4339C61.3342 25.2224 62.7732 25.932 65.2373 26.8388C68.4702 28.061 70.0867 28.3764 72.9648 28.3764C74.4038 28.3961 75.5866 28.4158 75.5866 28.4356C75.5866 28.4553 75.5077 28.6918 75.3894 28.9678C75.212 29.4606 75.1332 29.4803 73.7336 29.4803C72.6888 29.4803 72.2157 29.5592 72.0383 29.776C71.5849 30.3083 72.1368 30.6631 73.4379 30.6631C74.0884 30.6631 74.6009 30.7025 74.6009 30.7419C74.6009 31.2348 74.2855 31.4516 73.5364 31.4516C72.5311 31.4516 69.7713 30.8799 67.4255 30.19C65.4542 29.5986 64.8431 29.5592 64.6854 29.9534C64.5277 30.328 64.8037 30.5251 66.2821 31.1165C67.9577 31.8064 70.6584 32.457 72.3734 32.6147L73.773 32.7329L73.497 33.4032L73.221 34.0734L71.4863 33.9354C68.214 33.6989 63.9954 32.5161 60.9991 30.9982C58.9095 29.9534 58.5547 29.4212 58.5941 27.4893C58.6138 26.3263 59.1264 23.7636 59.3432 23.7636C59.3826 23.7636 59.8163 24.0593 60.2894 24.4339ZM76.2765 40.3421C81.2047 41.0123 84.2602 42.8456 84.2602 45.1126C84.2602 45.7828 84.2405 45.8025 83.3337 45.9011C82.1312 46.0391 79.6474 45.7434 77.7747 45.2309C74.7389 44.4226 70.3232 42.3528 69.3967 41.3277C68.9039 40.7955 69.0616 40.2632 69.7713 40.0858C70.4809 39.9281 74.3447 40.0661 76.2765 40.3421ZM69.0025 43.0033C70.205 43.8904 71.092 44.3438 73.5364 45.2703C77.0847 46.591 78.5238 46.8867 81.5595 46.9064C83.8857 46.9262 84.2602 46.9656 84.1813 47.2219C84.1419 47.3796 83.6097 48.6609 82.9986 50.0802L81.9144 52.6429L80.8696 52.5837C75.8034 52.288 68.5097 49.7648 67.5832 47.9709C67.3269 47.4781 67.2875 46.9853 67.3663 45.566C67.4649 44.0284 67.8197 42.2937 68.0366 42.2937C68.0563 42.2937 68.5097 42.6091 69.0025 43.0033ZM70.7569 54.5944C74.2264 55.2253 78.5238 56.0335 80.3176 56.408C83.2548 57.0191 91.5736 59.0298 91.7116 59.1481C91.7314 59.1678 90.9625 60.6068 90.0163 62.3219C89.0504 64.0369 85.8964 69.7536 83.0183 75.0169C80.1205 80.2802 77.6761 84.6959 77.5776 84.8339C77.3016 85.2873 62.5958 83.5328 51.3398 81.6995C46.6679 80.9505 35.7273 78.9595 35.609 78.8609C35.5696 78.8215 38.3097 72.4345 41.6805 64.6283L47.8309 50.4745L56.13 51.9726C60.7034 52.8006 67.2875 53.9833 70.7569 54.5944Z" fill="#F38189"/>
<path d="M46.1159 33.2061C45.1303 33.6595 44.736 34.1523 44.0461 35.6702C43.297 37.3655 42.9816 38.7848 42.9816 40.6181C42.9816 43.2005 43.7701 44.2847 46.7073 45.6646C49.9008 47.1627 53.5673 48.1681 57.5099 48.6018C59.7375 48.8383 60.3288 48.6806 60.7822 47.7147C61.4525 46.3151 63.3646 40.2041 63.3646 39.455C63.3646 37.0698 61.1173 34.9605 57.3522 33.8369C53.9813 32.8315 47.6929 32.4767 46.1159 33.2061ZM52.4831 34.6254C55.0655 34.9014 57.4508 35.4731 58.9489 36.1827C60.8414 37.0895 61.9847 38.6468 61.6496 39.9084C61.551 40.283 61.413 40.3224 59.8754 40.3224C56.9185 40.3224 53.8039 39.4748 50.0388 37.6612C47.8506 36.5967 46.2933 35.4336 46.451 34.9605C46.6481 34.4086 49.1714 34.2509 52.4831 34.6254ZM46.8256 37.7006C47.9492 38.4891 49.3291 39.1199 52.1874 40.1056C55.1444 41.1109 57.7662 41.584 60.0134 41.4657C60.9991 41.4263 61.7876 41.446 61.7876 41.5249C61.7876 41.6037 61.6299 41.8403 61.4525 42.0571C61.1568 42.412 60.7625 42.4908 58.8307 42.6288C56.8988 42.7668 56.5637 42.8456 56.5046 43.1413C56.4651 43.3385 56.6031 43.5553 56.8988 43.6539C57.2536 43.8116 57.0959 43.851 56.13 43.851C55.2824 43.8707 54.829 43.9693 54.5924 44.1861C54.2967 44.5015 54.2967 44.5409 54.5924 44.8366C54.8487 45.0929 55.3612 45.152 57.5296 45.1323L60.1514 45.1126L59.7572 46.0983L59.3432 47.0839L57.6676 46.9459C54.415 46.7094 50.1767 45.5266 47.2001 44.0087C44.9923 42.9048 44.736 42.5105 44.7557 40.4604C44.7754 39.0608 44.8543 38.5088 45.3471 37.0107C45.426 36.715 45.5048 36.7544 46.8256 37.7006Z" fill="#F38189"/>
<path d="M46.1159 33.2061C45.1303 33.6595 44.736 34.1523 44.0461 35.6702C43.297 37.3655 42.9816 38.7848 42.9816 40.6181C42.9816 43.2005 43.7701 44.2847 46.7073 45.6646C49.9008 47.1627 53.5673 48.1681 57.5099 48.6018C59.7375 48.8383 60.3288 48.6806 60.7822 47.7147C61.4525 46.3151 63.3646 40.2041 63.3646 39.455C63.3646 37.0698 61.1173 34.9605 57.3522 33.8369C53.9813 32.8315 47.6929 32.4767 46.1159 33.2061ZM52.4831 34.6254C55.0655 34.9014 57.4508 35.4731 58.9489 36.1827C60.8414 37.0895 61.9847 38.6468 61.6496 39.9084C61.551 40.283 61.413 40.3224 59.8754 40.3224C56.9185 40.3224 53.8039 39.4748 50.0388 37.6612C47.8506 36.5967 46.2933 35.4336 46.451 34.9605C46.6481 34.4086 49.1714 34.2509 52.4831 34.6254ZM46.8256 37.7006C47.9492 38.4891 49.3291 39.1199 52.1874 40.1056C55.1444 41.1109 57.7662 41.584 60.0134 41.4657C60.9991 41.4263 61.7876 41.446 61.7876 41.5249C61.7876 41.6037 61.6299 41.8403 61.4525 42.0571C61.1568 42.412 60.7625 42.4908 58.8307 42.6288C56.8988 42.7668 56.5637 42.8456 56.5046 43.1413C56.4651 43.3385 56.6031 43.5553 56.8988 43.6539C57.2536 43.8116 57.0959 43.851 56.13 43.851C55.2824 43.8707 54.829 43.9693 54.5924 44.1861C54.2967 44.5015 54.2967 44.5409 54.5924 44.8366C54.8487 45.0929 55.3612 45.152 57.5296 45.1323L60.1514 45.1126L59.7572 46.0983L59.3432 47.0839L57.6676 46.9459C54.415 46.7094 50.1767 45.5266 47.2001 44.0087C44.9923 42.9048 44.736 42.5105 44.7557 40.4604C44.7754 39.0608 44.8543 38.5088 45.3471 37.0107C45.426 36.715 45.5048 36.7544 46.8256 37.7006Z" fill="#F38189"/>
<path d="M46.1159 33.2061C45.1303 33.6595 44.736 34.1523 44.0461 35.6702C43.297 37.3655 42.9816 38.7848 42.9816 40.6181C42.9816 43.2005 43.7701 44.2847 46.7073 45.6646C49.9008 47.1627 53.5673 48.1681 57.5099 48.6018C59.7375 48.8383 60.3288 48.6806 60.7822 47.7147C61.4525 46.3151 63.3646 40.2041 63.3646 39.455C63.3646 37.0698 61.1173 34.9605 57.3522 33.8369C53.9813 32.8315 47.6929 32.4767 46.1159 33.2061ZM52.4831 34.6254C55.0655 34.9014 57.4508 35.4731 58.9489 36.1827C60.8414 37.0895 61.9847 38.6468 61.6496 39.9084C61.551 40.283 61.413 40.3224 59.8754 40.3224C56.9185 40.3224 53.8039 39.4748 50.0388 37.6612C47.8506 36.5967 46.2933 35.4336 46.451 34.9605C46.6481 34.4086 49.1714 34.2509 52.4831 34.6254ZM46.8256 37.7006C47.9492 38.4891 49.3291 39.1199 52.1874 40.1056C55.1444 41.1109 57.7662 41.584 60.0134 41.4657C60.9991 41.4263 61.7876 41.446 61.7876 41.5249C61.7876 41.6037 61.6299 41.8403 61.4525 42.0571C61.1568 42.412 60.7625 42.4908 58.8307 42.6288C56.8988 42.7668 56.5637 42.8456 56.5046 43.1413C56.4651 43.3385 56.6031 43.5553 56.8988 43.6539C57.2536 43.8116 57.0959 43.851 56.13 43.851C55.2824 43.8707 54.829 43.9693 54.5924 44.1861C54.2967 44.5015 54.2967 44.5409 54.5924 44.8366C54.8487 45.0929 55.3612 45.152 57.5296 45.1323L60.1514 45.1126L59.7572 46.0983L59.3432 47.0839L57.6676 46.9459C54.415 46.7094 50.1767 45.5266 47.2001 44.0087C44.9923 42.9048 44.736 42.5105 44.7557 40.4604C44.7754 39.0608 44.8543 38.5088 45.3471 37.0107C45.426 36.715 45.5048 36.7544 46.8256 37.7006Z" fill="#F38189"/>
<path d="M49.3685 40.8151C49.3685 41.1897 50.157 41.5051 51.0638 41.5051C51.9312 41.5051 51.9312 41.17 51.0441 40.7954C50.1373 40.4209 49.3685 40.4406 49.3685 40.8151Z" fill="#F38189"/>
<path d="M49.3685 40.8151C49.3685 41.1897 50.157 41.5051 51.0638 41.5051C51.9312 41.5051 51.9312 41.17 51.0441 40.7954C50.1373 40.4209 49.3685 40.4406 49.3685 40.8151Z" fill="#F38189"/>
<path d="M49.3685 40.8151C49.3685 41.1897 50.157 41.5051 51.0638 41.5051C51.9312 41.5051 51.9312 41.17 51.0441 40.7954C50.1373 40.4209 49.3685 40.4406 49.3685 40.8151Z" fill="#F38189"/>
<path d="M48.3829 42.1754C48.718 42.5894 50.2162 43.1216 50.7681 43.0428C51.1624 42.9639 51.0638 42.8654 50.0979 42.4317C48.8166 41.8206 47.9886 41.722 48.3829 42.1754Z" fill="#F38189"/>
<path d="M48.3829 42.1754C48.718 42.5894 50.2162 43.1216 50.7681 43.0428C51.1624 42.9639 51.0638 42.8654 50.0979 42.4317C48.8166 41.8206 47.9886 41.722 48.3829 42.1754Z" fill="#F38189"/>
<path d="M48.3829 42.1754C48.718 42.5894 50.2162 43.1216 50.7681 43.0428C51.1624 42.9639 51.0638 42.8654 50.0979 42.4317C48.8166 41.8206 47.9886 41.722 48.3829 42.1754Z" fill="#F38189"/>
<path d="M12.8998 19.4859C12.8998 19.7225 21.948 28.8889 22.8548 29.5592C23.3673 29.9534 23.7419 29.9534 23.7419 29.5986C23.7419 29.1649 19.4642 24.6112 16.389 21.7529C13.8855 19.4465 12.8998 18.796 12.8998 19.4859Z" fill="#F38189"/>
<path d="M12.8998 19.4859C12.8998 19.7225 21.948 28.8889 22.8548 29.5592C23.3673 29.9534 23.7419 29.9534 23.7419 29.5986C23.7419 29.1649 19.4642 24.6112 16.389 21.7529C13.8855 19.4465 12.8998 18.796 12.8998 19.4859Z" fill="#F38189"/>
<path d="M12.8998 19.4859C12.8998 19.7225 21.948 28.8889 22.8548 29.5592C23.3673 29.9534 23.7419 29.9534 23.7419 29.5986C23.7419 29.1649 19.4642 24.6112 16.389 21.7529C13.8855 19.4465 12.8998 18.796 12.8998 19.4859Z" fill="#F38189"/>
<path d="M7.73509 26.2672C7.57739 26.4643 6.92687 27.7654 6.29606 29.1847C5.66525 30.5843 4.85702 32.3584 4.48248 33.1272C3.79253 34.6057 3.65454 35.3942 4.10794 35.3942C4.58104 35.3942 5.2907 34.2903 6.6706 31.4517C8.07021 28.5933 8.85872 26.4643 8.66159 26.1292C8.48418 25.8335 8.07021 25.8926 7.73509 26.2672Z" fill="#F38189"/>
<path d="M7.73509 26.2672C7.57739 26.4643 6.92687 27.7654 6.29606 29.1847C5.66525 30.5843 4.85702 32.3584 4.48248 33.1272C3.79253 34.6057 3.65454 35.3942 4.10794 35.3942C4.58104 35.3942 5.2907 34.2903 6.6706 31.4517C8.07021 28.5933 8.85872 26.4643 8.66159 26.1292C8.48418 25.8335 8.07021 25.8926 7.73509 26.2672Z" fill="#F38189"/>
<path d="M7.73509 26.2672C7.57739 26.4643 6.92687 27.7654 6.29606 29.1847C5.66525 30.5843 4.85702 32.3584 4.48248 33.1272C3.79253 34.6057 3.65454 35.3942 4.10794 35.3942C4.58104 35.3942 5.2907 34.2903 6.6706 31.4517C8.07021 28.5933 8.85872 26.4643 8.66159 26.1292C8.48418 25.8335 8.07021 25.8926 7.73509 26.2672Z" fill="#F38189"/>
<path d="M24.8261 26.9177C24.767 27.0163 24.8064 27.312 24.9444 27.5485C25.8118 29.165 40.9906 48.4047 41.6214 48.6806C41.7397 48.7398 41.9368 48.6609 42.0551 48.5229C42.2325 48.3258 42.0157 47.8921 41.168 46.7094C39.7881 44.7972 32.9675 35.9462 29.774 31.9445C25.654 26.7797 25.2007 26.3066 24.8261 26.9177Z" fill="#F38189"/>
<path d="M24.8261 26.9177C24.767 27.0163 24.8064 27.312 24.9444 27.5485C25.8118 29.165 40.9906 48.4047 41.6214 48.6806C41.7397 48.7398 41.9368 48.6609 42.0551 48.5229C42.2325 48.3258 42.0157 47.8921 41.168 46.7094C39.7881 44.7972 32.9675 35.9462 29.774 31.9445C25.654 26.7797 25.2007 26.3066 24.8261 26.9177Z" fill="#F38189"/>
<path d="M24.8261 26.9177C24.767 27.0163 24.8064 27.312 24.9444 27.5485C25.8118 29.165 40.9906 48.4047 41.6214 48.6806C41.7397 48.7398 41.9368 48.6609 42.0551 48.5229C42.2325 48.3258 42.0157 47.8921 41.168 46.7094C39.7881 44.7972 32.9675 35.9462 29.774 31.9445C25.654 26.7797 25.2007 26.3066 24.8261 26.9177Z" fill="#F38189"/>
<path d="M8.87844 29.3423C8.0505 30.3674 6.13836 33.9551 6.29606 34.2311C6.53261 34.6056 6.98601 34.3888 7.30141 33.758C7.47883 33.4229 8.2082 32.181 8.89815 31.0179C10.0612 29.1255 10.2583 28.4947 9.7458 28.4947C9.64724 28.4947 9.27269 28.8692 8.87844 29.3423Z" fill="#F38189"/>
<path d="M8.87844 29.3423C8.0505 30.3674 6.13836 33.9551 6.29606 34.2311C6.53261 34.6056 6.98601 34.3888 7.30141 33.758C7.47883 33.4229 8.2082 32.181 8.89815 31.0179C10.0612 29.1255 10.2583 28.4947 9.7458 28.4947C9.64724 28.4947 9.27269 28.8692 8.87844 29.3423Z" fill="#F38189"/>
<path d="M8.87844 29.3423C8.0505 30.3674 6.13836 33.9551 6.29606 34.2311C6.53261 34.6056 6.98601 34.3888 7.30141 33.758C7.47883 33.4229 8.2082 32.181 8.89815 31.0179C10.0612 29.1255 10.2583 28.4947 9.7458 28.4947C9.64724 28.4947 9.27269 28.8692 8.87844 29.3423Z" fill="#F38189"/>
<path d="M71.8411 47.2218C71.6046 47.3598 71.6046 47.4978 71.7623 47.7541C72.5705 49.0551 76.2173 50.1591 79.7657 50.1788C81.2244 50.1788 81.6975 50.0605 81.6975 49.6859C81.6975 49.3311 81.3624 49.2523 79.1348 48.996C76.9467 48.7397 74.8966 48.2272 73.3196 47.5175C72.6888 47.2416 72.1762 47.0247 72.1565 47.0247C72.1565 47.0247 71.9988 47.1233 71.8411 47.2218Z" fill="#F38189"/>
<path d="M71.8411 47.2218C71.6046 47.3598 71.6046 47.4978 71.7623 47.7541C72.5705 49.0551 76.2173 50.1591 79.7657 50.1788C81.2244 50.1788 81.6975 50.0605 81.6975 49.6859C81.6975 49.3311 81.3624 49.2523 79.1348 48.996C76.9467 48.7397 74.8966 48.2272 73.3196 47.5175C72.6888 47.2416 72.1762 47.0247 72.1565 47.0247C72.1565 47.0247 71.9988 47.1233 71.8411 47.2218Z" fill="#F38189"/>
<path d="M71.8411 47.2218C71.6046 47.3598 71.6046 47.4978 71.7623 47.7541C72.5705 49.0551 76.2173 50.1591 79.7657 50.1788C81.2244 50.1788 81.6975 50.0605 81.6975 49.6859C81.6975 49.3311 81.3624 49.2523 79.1348 48.996C76.9467 48.7397 74.8966 48.2272 73.3196 47.5175C72.6888 47.2416 72.1762 47.0247 72.1565 47.0247C72.1565 47.0247 71.9988 47.1233 71.8411 47.2218Z" fill="#F38189"/>
<path d="M51.4778 56.8417C50.4527 57.9653 42.9027 74.8986 43.1393 75.5294C43.3364 76.0616 43.7701 75.5885 44.6178 73.8735C46.6482 69.8521 51.0638 60.5871 51.7538 58.9509C52.3057 57.6499 52.4437 57.0979 52.3057 56.8417C52.0692 56.3883 51.8721 56.3883 51.4778 56.8417Z" fill="#F38189"/>
<path d="M51.4778 56.8417C50.4527 57.9653 42.9027 74.8986 43.1393 75.5294C43.3364 76.0616 43.7701 75.5885 44.6178 73.8735C46.6482 69.8521 51.0638 60.5871 51.7538 58.9509C52.3057 57.6499 52.4437 57.0979 52.3057 56.8417C52.0692 56.3883 51.8721 56.3883 51.4778 56.8417Z" fill="#F38189"/>
<path d="M51.4778 56.8417C50.4527 57.9653 42.9027 74.8986 43.1393 75.5294C43.3364 76.0616 43.7701 75.5885 44.6178 73.8735C46.6482 69.8521 51.0638 60.5871 51.7538 58.9509C52.3057 57.6499 52.4437 57.0979 52.3057 56.8417C52.0692 56.3883 51.8721 56.3883 51.4778 56.8417Z" fill="#F38189"/>
<path d="M45.5837 61.5531C44.874 62.3613 42.7845 67.2106 42.9422 67.664C43.0013 67.802 43.159 67.9203 43.3167 67.9203C43.6716 67.9203 46.7073 61.967 46.5496 61.5531C46.3919 61.1194 45.9582 61.1194 45.5837 61.5531Z" fill="#F38189"/>
<path d="M45.5837 61.5531C44.874 62.3613 42.7845 67.2106 42.9422 67.664C43.0013 67.802 43.159 67.9203 43.3167 67.9203C43.6716 67.9203 46.7073 61.967 46.5496 61.5531C46.3919 61.1194 45.9582 61.1194 45.5837 61.5531Z" fill="#F38189"/>
<path d="M45.5837 61.5531C44.874 62.3613 42.7845 67.2106 42.9422 67.664C43.0013 67.802 43.159 67.9203 43.3167 67.9203C43.6716 67.9203 46.7073 61.967 46.5496 61.5531C46.3919 61.1194 45.9582 61.1194 45.5837 61.5531Z" fill="#F38189"/>
<path d="M66.5778 74.0312C66.0258 74.2481 65.9864 74.7409 66.4989 75.0169C66.9129 75.2337 68.6673 75.2928 69.1602 75.0957C69.5347 74.9577 69.5741 74.4058 69.239 74.0707C68.963 73.7947 67.2283 73.775 66.5778 74.0312Z" fill="#F38189"/>
<path d="M66.5778 74.0312C66.0258 74.2481 65.9864 74.7409 66.4989 75.0169C66.9129 75.2337 68.6673 75.2928 69.1602 75.0957C69.5347 74.9577 69.5741 74.4058 69.239 74.0707C68.963 73.7947 67.2283 73.775 66.5778 74.0312Z" fill="#F38189"/>
<path d="M66.5778 74.0312C66.0258 74.2481 65.9864 74.7409 66.4989 75.0169C66.9129 75.2337 68.6673 75.2928 69.1602 75.0957C69.5347 74.9577 69.5741 74.4058 69.239 74.0707C68.963 73.7947 67.2283 73.775 66.5778 74.0312Z" fill="#F38189"/>
<path d="M62.0439 76.1208C61.4525 76.2588 61.078 76.7516 61.3539 77.0276C61.4722 77.1459 62.6944 77.3036 64.094 77.4021C70.5401 77.8161 73.8519 77.9738 74.0293 77.8753C74.3644 77.6584 74.2067 77.1853 73.773 77.0079C72.4128 76.4954 63.3844 75.8251 62.0439 76.1208Z" fill="#F38189"/>
<path d="M62.0439 76.1208C61.4525 76.2588 61.078 76.7516 61.3539 77.0276C61.4722 77.1459 62.6944 77.3036 64.094 77.4021C70.5401 77.8161 73.8519 77.9738 74.0293 77.8753C74.3644 77.6584 74.2067 77.1853 73.773 77.0079C72.4128 76.4954 63.3844 75.8251 62.0439 76.1208Z" fill="#F38189"/>
<path d="M62.0439 76.1208C61.4525 76.2588 61.078 76.7516 61.3539 77.0276C61.4722 77.1459 62.6944 77.3036 64.094 77.4021C70.5401 77.8161 73.8519 77.9738 74.0293 77.8753C74.3644 77.6584 74.2067 77.1853 73.773 77.0079C72.4128 76.4954 63.3844 75.8251 62.0439 76.1208Z" fill="#F38189"/>
<path d="M52.8577 78.8412C52.7986 78.9989 52.8577 79.2157 52.9957 79.334C53.4688 79.7282 64.8431 80.7336 72.4917 81.049C75.3303 81.1476 75.7837 81.1278 75.7837 80.8913C75.7837 80.6744 75.3303 80.5365 73.9701 80.359C72.9648 80.2211 71.9397 80.0831 71.7032 80.0239C70.9541 79.8859 63.4435 79.1566 59.6192 78.8609C54.7896 78.4863 52.9957 78.4863 52.8577 78.8412Z" fill="#F38189"/>
<path d="M52.8577 78.8412C52.7986 78.9989 52.8577 79.2157 52.9957 79.334C53.4688 79.7282 64.8431 80.7336 72.4917 81.049C75.3303 81.1476 75.7837 81.1278 75.7837 80.8913C75.7837 80.6744 75.3303 80.5365 73.9701 80.359C72.9648 80.2211 71.9397 80.0831 71.7032 80.0239C70.9541 79.8859 63.4435 79.1566 59.6192 78.8609C54.7896 78.4863 52.9957 78.4863 52.8577 78.8412Z" fill="#F38189"/>
<path d="M52.8577 78.8412C52.7986 78.9989 52.8577 79.2157 52.9957 79.334C53.4688 79.7282 64.8431 80.7336 72.4917 81.049C75.3303 81.1476 75.7837 81.1278 75.7837 80.8913C75.7837 80.6744 75.3303 80.5365 73.9701 80.359C72.9648 80.2211 71.9397 80.0831 71.7032 80.0239C70.9541 79.8859 63.4435 79.1566 59.6192 78.8609C54.7896 78.4863 52.9957 78.4863 52.8577 78.8412Z" fill="#F38189"/>
</svg>
