<svg width="132" height="41" viewBox="0 0 132 41" fill="none" xmlns="http://www.w3.org/2000/svg">
<path d="M30.2922 11.2901C30.2198 14.6725 28.0286 18.0388 24.1495 19.1328C27.5595 20.7065 29.2285 23.8613 29.1612 27.0084C29.0938 30.1555 27.1974 33.4988 23.3664 35.094C21.9999 35.6827 20.4337 35.9729 18.6391 35.9345C18.2272 35.9257 17.7566 35.9157 16.1417 35.734L1.05204 33.9103L4.97693 0.419973L20.4497 2.22236C23.3559 2.57881 25.1366 3.26414 26.5286 4.23554C29.1393 6.02751 30.3476 8.70167 30.2916 11.3193L30.2922 11.2901ZM15.6936 29.1626C16.9586 29.1896 17.9064 28.9155 18.6833 28.3731C19.6398 27.6874 20.1933 26.581 20.2178 25.4339C20.2392 24.4339 19.8493 23.3957 19.0112 22.6716C18.3184 22.0388 17.3263 21.635 16.1226 21.4916L11.4256 20.9203L10.5552 28.5817L13.9892 29.0377L15.723 29.1632L15.6936 29.1626ZM17.3064 15.6907C18.1596 15.709 19.019 15.4332 19.6444 15.0935C20.748 14.4109 21.3923 13.1888 21.4181 11.9829C21.4414 10.8947 20.994 9.79628 19.9193 9.12592C19.3685 8.7316 18.5798 8.44984 17.1708 8.27256L13.0014 7.80079L12.138 15.1387L16.5421 15.6449C16.7762 15.7088 17.0115 15.7139 17.3352 15.7208L17.3064 15.6907Z" fill="#FDAA87"/>
<path d="M32.9761 13.7897L41.1366 13.4347L41.6559 26.3047C41.7057 28.1008 42.6182 29.4739 44.354 29.511C46.2957 29.5526 47.2905 28.4558 47.3283 26.691L47.3415 26.0733L46.8234 13.1444L54.984 12.7894L55.3946 23.8622C55.4577 25.0406 55.5001 25.8065 55.4945 26.0713C55.3724 31.7772 51.1348 35.8649 43.8387 35.7087C37.9548 35.5828 33.9503 32.9078 33.5048 26.2187L32.9774 13.731L32.9761 13.7897Z" fill="#FDAA87"/>
<path d="M58.7995 36.6763L60.2986 14.757L68.4398 15.3137L66.9405 37.2331L58.7995 36.6763ZM64.9258 3.46837C67.4252 3.58071 69.3535 5.62287 69.3 8.12289C69.2465 10.6229 67.1756 12.4912 64.6749 12.4377C62.1743 12.3842 60.2454 10.3715 60.2989 7.87153C60.4112 5.37277 62.4258 3.38542 64.9264 3.43893L64.9258 3.46837Z" fill="#FDAA87"/>
<path d="M70.8933 38.2004L73.9081 4.60222L81.9872 5.30475L79.0005 38.9625L70.8632 38.2292L70.8933 38.2004Z" fill="#FDAA87"/>
<path d="M83.9357 27.033C84.0553 21.4447 87.3772 16.131 93.7318 16.267C95.7618 16.3104 97.7778 17.0009 99.5134 18.4211L99.6029 18.3641L99.1858 4.84897L107.344 4.61155L108.329 38.3541L100.73 38.574L100.476 36.6855L100.388 36.6836C98.7643 38.2967 96.4751 39.3658 93.592 39.3042C87.6493 39.177 83.747 34.4736 83.9062 27.0323L83.9357 27.033ZM100.071 28.1433C100.12 25.8198 99.3139 22.2421 96.1954 22.1753C93.3711 22.1149 92.2323 24.4446 92.1719 27.2681C92.1077 30.2682 93.1326 33.262 96.0451 33.3243C98.9577 33.3866 100.007 31.114 100.071 28.1433Z" fill="#FDAA87"/>
<path d="M120.455 38.3783C117.248 38.3097 113.914 37.2966 111.338 35.2994L114.5 30.5707C116.352 32.0228 118.831 33.1057 120.802 33.1479C122.155 33.1769 123.225 32.729 123.245 31.7878C123.265 30.8466 122.33 30.5029 120.049 29.8362L118.586 29.4223C117.357 29.1018 116.422 28.7582 115.607 28.3582C113.332 27.3679 111.515 25.6222 111.576 22.7987C111.685 17.7104 116.833 15.0841 121.775 15.1898C125.541 15.2704 128.513 16.6582 130.189 18.1065L127.092 22.5716C125.528 21.3611 123.695 20.3804 121.547 20.3344C120.371 20.3092 119.187 20.6076 119.165 21.6371C119.207 22.4324 120.168 22.8943 121.104 23.1791C121.98 23.4921 122.918 23.6888 123.971 24.0055L125.317 24.3582C128.829 25.2867 131.375 27.3713 131.298 30.9302C131.201 35.4596 126.369 38.446 120.485 38.32L120.455 38.3783Z" fill="#FDAA87"/>
</svg>
