<svg width="168" height="85" viewBox="0 0 168 85" fill="none" xmlns="http://www.w3.org/2000/svg">
<path d="M40.6321 55.1031L45.9527 55.8582C45.3235 59.9951 42.0901 62.9248 38.3317 64.0734C32.8277 65.7262 27.1158 63.3314 25.3093 56.6261C23.7087 50.7242 26.6529 45.0056 32.6652 43.2188C39.1756 41.2439 44.041 45.0841 45.8216 51.5127L46.0482 52.4248L32.7913 56.3957C33.5062 58.3346 35.3916 59.5505 37.3888 58.9657C38.6724 58.5576 40.0327 57.5694 40.6628 55.1249L40.6321 55.1031ZM33.988 48.2192C32.5247 48.6647 31.5037 50.1747 31.7515 52.4647L37.9436 50.6406C36.8997 48.2341 35.4 47.7844 33.988 48.2192Z" fill="#FDAA87"/>
<path d="M72.1998 56.6318L65.4579 57.8085L60.4192 47.713L60.3679 47.7237L58.7416 58.9799L51.9997 60.1568L41.9538 40.9749L49.5276 39.6816L54.6129 50.4444L54.6642 50.4338L56.3722 38.4833L61.5378 37.578L66.8284 48.2981L66.8798 48.2875L68.2437 36.3523L75.6891 35.0857L72.2255 56.6264L72.1998 56.6318Z" fill="#FDAA87"/>
<path d="M156.787 29.7929C156.908 30.0435 157.041 30.4736 157.083 30.7444C157.159 31.2966 156.715 33.0634 156.299 33.873L156.036 34.3853L156.751 34.8509C157.135 35.1136 157.822 35.5734 158.256 35.8769L159.054 36.4267L158.82 37.2498C158.642 37.865 154.756 53.1314 153.805 56.9691L153.705 57.4116L151.026 58.0798C142.275 60.2474 127.192 64.4267 120.884 66.4254C119.781 66.7751 119.461 66.8184 119.19 66.6645C119.004 66.5466 117.768 65.8751 116.438 65.1781C110.605 62.0881 104.194 58.3231 97.5755 54.119C96.2855 53.3022 95.1088 52.5273 94.9586 52.4046C94.7082 52.2002 94.7828 51.5513 96.1074 42.3906C97.8266 30.4592 97.7141 31.0941 98.0123 30.9489C98.1398 30.8839 98.7493 30.5535 99.3588 30.223C100.942 29.3696 102.842 28.5211 104.977 27.7456C106.409 27.2083 106.86 26.9851 107.077 26.6888C107.657 25.8951 109.035 25.4987 110.338 25.7513C110.623 25.7984 110.922 25.8056 111.014 25.7455C111.106 25.6854 112.492 25.2115 114.104 24.6689C115.718 24.1451 117.112 23.6607 117.209 23.638C117.303 23.5967 117.572 22.9882 117.82 22.2777C118.359 20.7745 118.832 20.0621 119.579 19.6748C120.918 18.9595 123.236 19.3987 125.578 20.7879L126.462 21.3069L128.126 20.8908C129.043 20.6426 129.882 20.4146 129.976 20.3732C130.096 20.3188 130.335 19.8383 130.593 19.136C131.09 17.7338 131.51 17.248 132.53 16.8809C134.458 16.1906 137.51 17.3311 140.781 19.9676C142.348 21.2139 142.627 21.5766 142.663 22.468C142.698 23.0543 142.467 24.2011 142.176 24.927C142.04 25.2887 141.962 25.6139 142.012 25.6548C142.437 25.8833 144.929 27.0901 145.02 27.0969C145.093 27.106 145.184 26.9603 145.242 26.7712C145.654 25.3329 147.714 24.6152 149.752 25.1973C151.34 25.6494 152.83 26.4772 154.819 28.0002C156.262 29.1108 156.597 29.4182 156.787 29.7929ZM151.993 27.3821C150.648 26.6394 149.561 26.2242 148.608 26.1054C147.592 25.9857 146.933 26.2084 146.492 26.8116L146.152 27.2772L146.973 27.9478C148.044 28.8228 148.964 29.337 150.442 29.9185C152.789 30.8209 155.664 31.2418 155.916 30.7213C155.966 30.6097 155.931 30.3952 155.822 30.2384C155.536 29.8194 153.096 27.9954 151.993 27.3821ZM153.201 31.7661C150.59 31.1379 148.09 29.9416 146.544 28.5779L145.656 27.8021L145.554 28.2258C145.463 28.5909 145.494 28.7011 145.894 29.0951C146.264 29.4645 146.313 29.5722 146.181 29.7521C146.065 29.9109 145.939 29.9089 145.673 29.7257C145.339 29.5039 145.166 29.5655 145.138 29.9316C145.11 30.1451 146.879 31.2688 148.092 31.8196C148.905 32.1957 149.119 32.405 148.934 32.659C148.663 33.0293 147.255 32.505 145.788 31.493C144.98 30.935 144.933 30.9129 144.838 31.1736C144.569 31.9346 144.692 32.0515 146.93 33.3213C149.06 34.52 152.428 35.5797 153.471 35.4003C154.194 35.2642 155.27 33.7932 155.668 32.3948L155.756 32.0778L154.995 32.0475C154.577 32.0278 153.769 31.9085 153.201 31.7661ZM136.952 18.7511C135.577 18.0508 134.116 17.6861 133.238 17.8146C132.69 17.9079 132.565 17.9916 132.199 18.4702L131.797 19.0205L132.856 19.8686C133.595 20.4549 134.23 20.8552 134.937 21.1789C137.103 22.1534 140.389 22.9096 141.2 22.6089C141.546 22.4858 141.562 22.4646 141.48 22.1611C141.37 21.6993 138.501 19.5424 136.952 18.7511ZM156.433 35.3517L155.727 34.9611L155.441 35.3526C154.984 35.977 154.399 36.3614 153.676 36.4975C152.097 36.7972 147.89 35.3556 145.346 33.6504C144.551 33.1193 144.442 33.115 144.491 33.5946C144.598 34.4763 143.802 36.615 142.92 37.8214C141.921 39.1866 141.042 39.4487 139.084 38.999C136.8 38.4694 134.015 37.226 132.109 35.8728C131.172 35.2086 131.129 35.1571 131.077 34.7256C130.997 34.069 132.512 29.5257 133.054 28.7849C133.503 28.1711 134.217 27.7406 134.963 27.6396L135.407 27.5794L135.112 27.4572C133.793 26.9209 131.942 26.018 131.131 25.5082C130.127 24.891 129.988 24.8621 130.076 25.2888C130.143 25.6135 129.807 27.0128 129.448 27.9196C129.281 28.3236 128.863 29.0476 128.523 29.5132C127.47 30.9525 126.642 31.1886 124.485 30.661C122.32 30.1439 120.146 29.1799 118.081 27.8485C116.525 26.8484 116.36 26.4607 116.915 25.1557C116.991 24.9642 117.029 24.7588 117.012 24.6944C116.985 24.6218 115.911 24.9104 114.624 25.3135C113.33 25.7272 112.201 26.0899 112.097 26.1231C111.965 26.1505 112.103 26.2462 112.561 26.4511C114.267 27.202 117.28 29.3584 117.954 30.2969C118.127 30.5403 118.306 30.9737 118.348 31.2445C118.525 32.4028 117.825 34.5189 116.804 35.9158C115.757 37.3257 115.007 37.5417 112.87 37.0304C110.687 36.5157 108.536 35.5868 106.55 34.3208C105.29 33.5286 104.896 33.1053 104.946 32.6218C104.959 32.4294 105.254 31.3692 105.606 30.2537C105.95 29.1488 106.244 28.2223 106.239 28.1848C106.23 28.1098 103.645 29.0415 102.428 29.5688C100.139 30.5559 98.8134 31.2312 99.0224 31.3173C99.1357 31.3592 100.092 31.8017 101.143 32.2885C105.092 34.1274 108.171 35.7793 117.84 41.2576L124.778 45.1991L125.508 44.9667C134.471 42.1791 152.667 37.3302 157.321 36.4994L158.151 36.3488L157.646 36.0549C157.365 35.8928 156.83 35.5744 156.433 35.3517ZM155.922 37.5375C143.176 40.7518 135.64 42.8121 127.793 45.2101L124.895 46.089L124.78 46.5527C124.718 46.7898 123.903 50.1801 122.966 54.0635C122.04 57.955 121.026 62.1635 120.72 63.4348L120.16 65.7322L121.019 65.4537C127.719 63.2683 143.671 59.0381 150.912 57.5136L153.306 57.0177L155.9 47.0176C157.324 41.5045 158.446 36.9953 158.398 36.9732C158.343 36.9617 157.236 37.207 155.922 37.5375ZM138.918 23.4998C136.177 22.8509 134.21 21.9543 132.432 20.5362L131.202 19.5492L131.106 20.0961C131.016 20.6137 131.033 20.6782 131.463 21.0298C131.784 21.2915 131.885 21.4589 131.85 21.6162C131.773 21.8745 131.457 21.8697 131.136 21.608C130.956 21.4608 130.867 21.4728 130.766 21.6773C130.641 21.9134 130.688 22.0024 131.075 22.3695C131.33 22.6114 132.093 23.0992 132.769 23.4652C134.177 24.2089 134.543 24.4739 134.519 24.725C134.469 25.2085 133.209 24.788 131.651 23.7692C130.69 23.1367 130.421 23.0015 130.376 23.1506C130.352 23.2493 130.287 23.382 130.241 23.4455C130.148 23.5725 131.389 24.434 132.741 25.1661C133.94 25.8237 136.405 26.7386 137.718 26.9993C139.051 27.2763 139.547 27.1234 140.197 26.2344C140.622 25.6524 141.331 24.2026 141.368 23.8447C141.377 23.7672 141.102 23.7283 140.77 23.7446C140.43 23.7716 139.596 23.6653 138.918 23.4998ZM142.927 27.0276L141.578 26.3143L141.199 26.8328C140.634 27.6054 139.997 28.0825 139.294 28.235L138.669 28.3673L139.373 28.7391C140.238 29.1749 142.23 30.4973 143.051 31.1678C143.471 31.5113 143.645 31.6022 143.682 31.4636C143.709 31.3838 143.96 30.5583 144.256 29.6506C144.725 28.1571 144.757 27.981 144.528 27.8785C144.393 27.8016 143.671 27.4322 142.927 27.0276ZM128.621 21.7677C128.1 21.8668 127.643 21.9669 127.62 21.9986C127.589 22.0409 127.926 22.3671 128.377 22.7351C128.988 23.2339 129.201 23.3575 129.249 23.2271C129.265 23.1391 129.397 22.7399 129.521 22.3512C129.656 21.9707 129.723 21.6373 129.668 21.6258C129.622 21.6224 129.151 21.6768 128.621 21.7677ZM138.737 29.6738C136.248 28.4188 134.398 28.4121 133.736 29.6459C133.572 29.935 133.582 29.9432 134.639 30.7725C136.197 32.0106 138.517 32.9929 140.982 33.4503C142.606 33.7452 143.613 33.5705 143.339 33.026C143.147 32.6325 139.871 30.2448 138.737 29.6738ZM142.188 34.6885C141.143 34.6298 140.26 34.4157 138.514 33.7847C136.771 33.1723 135.437 32.4378 134.145 31.3829C133.554 30.9005 133.058 30.5291 133.042 30.5503C132.926 30.709 132.885 31.4868 132.994 31.4912C133.057 31.4921 133.471 31.7793 133.9 32.1122C134.508 32.5922 134.677 32.7981 134.707 33.042C134.763 33.5778 134.281 33.4715 133.4 32.7519C132.689 32.1713 132.679 32.1632 132.589 32.4614C132.506 32.7491 132.551 32.8193 133.062 33.1695C133.378 33.3936 134.148 33.7852 134.792 34.0411C136.215 34.6111 136.383 34.8838 135.354 34.9565C134.647 35.0046 133.801 34.7188 132.862 34.1214C132.559 33.9242 132.287 33.7703 132.272 33.7914C132.264 33.802 132.206 33.9911 132.147 34.1801C132.039 34.5476 132.049 34.5558 132.766 35.0402C135.355 36.7488 139.204 38.201 140.735 38.0316L141.422 37.9672L142.159 36.8281C142.807 35.8535 143.258 34.8866 143.128 34.7803C143.108 34.764 142.678 34.7173 142.188 34.6885ZM124.481 21.4801C121.949 20.1736 120.224 20.0832 119.388 21.2262L119.117 21.5966L120.089 22.3898C121.631 23.6491 123.347 24.4081 125.982 25.0046C127.746 25.4139 128.659 25.4331 128.844 25.0935C128.916 24.9502 128.899 24.7332 128.788 24.5577C128.425 24.0252 125.876 22.1968 124.481 21.4801ZM128.018 26.3971C127.178 26.387 126.168 26.1711 124.561 25.6357C122.439 24.9507 121.494 24.4495 120.031 23.2556C119.293 22.6692 118.684 22.1892 118.676 22.1998C118.669 22.2103 118.616 22.3701 118.568 22.5673C118.464 22.9054 118.497 22.9487 119.208 23.5293C119.738 23.9627 119.948 24.2013 119.953 24.3913C119.974 24.8651 119.554 24.8266 118.893 24.2869C118.563 24.0171 118.287 23.8256 118.272 23.8468C118.078 24.1114 118.153 24.3586 118.534 24.6694C119.045 25.0864 120.671 25.9243 122.134 26.5271C123.367 27.0273 123.693 27.2596 123.618 27.5367C123.552 27.8032 123.334 27.7946 122.351 27.4987C121.229 27.174 119.601 26.403 118.668 25.7762L117.911 25.2591L117.788 25.7334L117.665 26.2077L118.6 26.8532C120.356 28.0837 122.963 29.1987 125.081 29.6268C126.553 29.9327 126.942 29.7942 127.68 28.7407C128.127 28.1081 128.872 26.5198 128.762 26.4298C128.742 26.4135 128.406 26.3923 128.018 26.3971ZM113.652 28.3055C110.885 26.621 108.613 26.3376 107.723 27.5547C107.46 27.9145 107.463 27.9332 107.885 28.3623C108.441 28.9352 109.819 29.8068 110.972 30.3085C112.831 31.1339 115.887 31.8545 116.76 31.6885C117.219 31.6072 117.348 31.2561 117.057 30.8664C116.759 30.4874 114.742 28.9587 113.652 28.3055ZM116.303 32.7516C115.343 32.729 114.715 32.6044 113.109 32.0878C110.788 31.3249 109.941 30.8867 108.391 29.638C107.202 28.6836 106.996 28.5494 106.935 28.7197C106.894 28.8207 106.661 29.7294 106.414 30.7448L105.959 32.5703L106.513 32.972C109.203 34.9148 113.899 36.5859 115.074 36.0072C115.397 35.8489 115.611 35.6007 116.128 34.8061C116.681 33.9397 117.182 32.8613 117.072 32.7713C117.062 32.7631 116.708 32.7444 116.303 32.7516ZM110.861 38.2464C108.851 37.1458 106.351 35.7971 105.292 35.254C103.56 34.3636 98.5449 31.9922 98.4284 31.9985C98.4106 32.0009 98.2363 33.0923 98.0437 34.4055C97.8612 35.7269 97.2194 40.1043 96.6154 44.1237C96.0214 48.1514 95.5298 51.5359 95.5257 51.6509C95.4879 52.0087 103.647 57.1672 110.085 60.8523C112.753 62.3882 119.092 65.8578 119.191 65.8539C119.227 65.8491 120.342 61.2837 121.694 55.6946L124.125 45.5449L119.321 42.9065C116.673 41.4539 112.864 39.3576 110.861 38.2464Z" fill="#F38189"/>
<path d="M156.787 29.7929C156.908 30.0435 157.041 30.4736 157.083 30.7444C157.159 31.2966 156.715 33.0634 156.299 33.873L156.036 34.3853L156.751 34.8509C157.135 35.1136 157.822 35.5734 158.256 35.8769L159.054 36.4267L158.82 37.2498C158.642 37.865 154.756 53.1314 153.805 56.9691L153.705 57.4116L151.026 58.0798C142.275 60.2474 127.192 64.4267 120.884 66.4254C119.781 66.7751 119.461 66.8184 119.19 66.6645C119.004 66.5466 117.768 65.8751 116.438 65.1781C110.605 62.0881 104.194 58.3231 97.5755 54.119C96.2855 53.3022 95.1088 52.5273 94.9586 52.4046C94.7082 52.2002 94.7828 51.5513 96.1074 42.3906C97.8266 30.4592 97.7141 31.0941 98.0123 30.9489C98.1398 30.8839 98.7493 30.5535 99.3588 30.223C100.942 29.3696 102.842 28.5211 104.977 27.7456C106.409 27.2083 106.86 26.9851 107.077 26.6888C107.657 25.8951 109.035 25.4987 110.338 25.7513C110.623 25.7984 110.922 25.8056 111.014 25.7455C111.106 25.6854 112.492 25.2115 114.104 24.6689C115.718 24.1451 117.112 23.6607 117.209 23.638C117.303 23.5967 117.572 22.9882 117.82 22.2777C118.359 20.7745 118.832 20.0621 119.579 19.6748C120.918 18.9595 123.236 19.3987 125.578 20.7879L126.462 21.3069L128.126 20.8908C129.043 20.6426 129.882 20.4146 129.976 20.3732C130.096 20.3188 130.335 19.8383 130.593 19.136C131.09 17.7338 131.51 17.248 132.53 16.8809C134.458 16.1906 137.51 17.3311 140.781 19.9676C142.348 21.2139 142.627 21.5766 142.663 22.468C142.698 23.0543 142.467 24.2011 142.176 24.927C142.04 25.2887 141.962 25.6139 142.012 25.6548C142.437 25.8833 144.929 27.0901 145.02 27.0969C145.093 27.106 145.184 26.9603 145.242 26.7712C145.654 25.3329 147.714 24.6152 149.752 25.1973C151.34 25.6494 152.83 26.4772 154.819 28.0002C156.262 29.1108 156.597 29.4182 156.787 29.7929ZM151.993 27.3821C150.648 26.6394 149.561 26.2242 148.608 26.1054C147.592 25.9857 146.933 26.2084 146.492 26.8116L146.152 27.2772L146.973 27.9478C148.044 28.8228 148.964 29.337 150.442 29.9185C152.789 30.8209 155.664 31.2418 155.916 30.7213C155.966 30.6097 155.931 30.3952 155.822 30.2384C155.536 29.8194 153.096 27.9954 151.993 27.3821ZM153.201 31.7661C150.59 31.1379 148.09 29.9416 146.544 28.5779L145.656 27.8021L145.554 28.2258C145.463 28.5909 145.494 28.7011 145.894 29.0951C146.264 29.4645 146.313 29.5722 146.181 29.7521C146.065 29.9109 145.939 29.9089 145.673 29.7257C145.339 29.5039 145.166 29.5655 145.138 29.9316C145.11 30.1451 146.879 31.2688 148.092 31.8196C148.905 32.1957 149.119 32.405 148.934 32.659C148.663 33.0293 147.255 32.505 145.788 31.493C144.98 30.935 144.933 30.9129 144.838 31.1736C144.569 31.9346 144.692 32.0515 146.93 33.3213C149.06 34.52 152.428 35.5797 153.471 35.4003C154.194 35.2642 155.27 33.7932 155.668 32.3948L155.756 32.0778L154.995 32.0475C154.577 32.0278 153.769 31.9085 153.201 31.7661ZM136.952 18.7511C135.577 18.0508 134.116 17.6861 133.238 17.8146C132.69 17.9079 132.565 17.9916 132.199 18.4702L131.797 19.0205L132.856 19.8686C133.595 20.4549 134.23 20.8552 134.937 21.1789C137.103 22.1534 140.389 22.9096 141.2 22.6089C141.546 22.4858 141.562 22.4646 141.48 22.1611C141.37 21.6993 138.501 19.5424 136.952 18.7511ZM156.433 35.3517L155.727 34.9611L155.441 35.3526C154.984 35.977 154.399 36.3614 153.676 36.4975C152.097 36.7972 147.89 35.3556 145.346 33.6504C144.551 33.1193 144.442 33.115 144.491 33.5946C144.598 34.4763 143.802 36.615 142.92 37.8214C141.921 39.1866 141.042 39.4487 139.084 38.999C136.8 38.4694 134.015 37.226 132.109 35.8728C131.172 35.2086 131.129 35.1571 131.077 34.7256C130.997 34.069 132.512 29.5257 133.054 28.7849C133.503 28.1711 134.217 27.7406 134.963 27.6396L135.407 27.5794L135.112 27.4572C133.793 26.9209 131.942 26.018 131.131 25.5082C130.127 24.891 129.988 24.8621 130.076 25.2888C130.143 25.6135 129.807 27.0128 129.448 27.9196C129.281 28.3236 128.863 29.0476 128.523 29.5132C127.47 30.9525 126.642 31.1886 124.485 30.661C122.32 30.1439 120.146 29.1799 118.081 27.8485C116.525 26.8484 116.36 26.4607 116.915 25.1557C116.991 24.9642 117.029 24.7588 117.012 24.6944C116.985 24.6218 115.911 24.9104 114.624 25.3135C113.33 25.7272 112.201 26.0899 112.097 26.1231C111.965 26.1505 112.103 26.2462 112.561 26.4511C114.267 27.202 117.28 29.3584 117.954 30.2969C118.127 30.5403 118.306 30.9737 118.348 31.2445C118.525 32.4028 117.825 34.5189 116.804 35.9158C115.757 37.3257 115.007 37.5417 112.87 37.0304C110.687 36.5157 108.536 35.5868 106.55 34.3208C105.29 33.5286 104.896 33.1053 104.946 32.6218C104.959 32.4294 105.254 31.3692 105.606 30.2537C105.95 29.1488 106.244 28.2223 106.239 28.1848C106.23 28.1098 103.645 29.0415 102.428 29.5688C100.139 30.5559 98.8134 31.2312 99.0224 31.3173C99.1357 31.3592 100.092 31.8017 101.143 32.2885C105.092 34.1274 108.171 35.7793 117.84 41.2576L124.778 45.1991L125.508 44.9667C134.471 42.1791 152.667 37.3302 157.321 36.4994L158.151 36.3488L157.646 36.0549C157.365 35.8928 156.83 35.5744 156.433 35.3517ZM155.922 37.5375C143.176 40.7518 135.64 42.8121 127.793 45.2101L124.895 46.089L124.78 46.5527C124.718 46.7898 123.903 50.1801 122.966 54.0635C122.04 57.955 121.026 62.1635 120.72 63.4348L120.16 65.7322L121.019 65.4537C127.719 63.2683 143.671 59.0381 150.912 57.5136L153.306 57.0177L155.9 47.0176C157.324 41.5045 158.446 36.9953 158.398 36.9732C158.343 36.9617 157.236 37.207 155.922 37.5375ZM138.918 23.4998C136.177 22.8509 134.21 21.9543 132.432 20.5362L131.202 19.5492L131.106 20.0961C131.016 20.6137 131.033 20.6782 131.463 21.0298C131.784 21.2915 131.885 21.4589 131.85 21.6162C131.773 21.8745 131.457 21.8697 131.136 21.608C130.956 21.4608 130.867 21.4728 130.766 21.6773C130.641 21.9134 130.688 22.0024 131.075 22.3695C131.33 22.6114 132.093 23.0992 132.769 23.4652C134.177 24.2089 134.543 24.4739 134.519 24.725C134.469 25.2085 133.209 24.788 131.651 23.7692C130.69 23.1367 130.421 23.0015 130.376 23.1506C130.352 23.2493 130.287 23.382 130.241 23.4455C130.148 23.5725 131.389 24.434 132.741 25.1661C133.94 25.8237 136.405 26.7386 137.718 26.9993C139.051 27.2763 139.547 27.1234 140.197 26.2344C140.622 25.6524 141.331 24.2026 141.368 23.8447C141.377 23.7672 141.102 23.7283 140.77 23.7446C140.43 23.7716 139.596 23.6653 138.918 23.4998ZM142.927 27.0276L141.578 26.3143L141.199 26.8328C140.634 27.6054 139.997 28.0825 139.294 28.235L138.669 28.3673L139.373 28.7391C140.238 29.1749 142.23 30.4973 143.051 31.1678C143.471 31.5113 143.645 31.6022 143.682 31.4636C143.709 31.3838 143.96 30.5583 144.256 29.6506C144.725 28.1571 144.757 27.981 144.528 27.8785C144.393 27.8016 143.671 27.4322 142.927 27.0276ZM128.621 21.7677C128.1 21.8668 127.643 21.9669 127.62 21.9986C127.589 22.0409 127.926 22.3671 128.377 22.7351C128.988 23.2339 129.201 23.3575 129.249 23.2271C129.265 23.1391 129.397 22.7399 129.521 22.3512C129.656 21.9707 129.723 21.6373 129.668 21.6258C129.622 21.6224 129.151 21.6768 128.621 21.7677ZM138.737 29.6738C136.248 28.4188 134.398 28.4121 133.736 29.6459C133.572 29.935 133.582 29.9432 134.639 30.7725C136.197 32.0106 138.517 32.9929 140.982 33.4503C142.606 33.7452 143.613 33.5705 143.339 33.026C143.147 32.6325 139.871 30.2448 138.737 29.6738ZM142.188 34.6885C141.143 34.6298 140.26 34.4157 138.514 33.7847C136.771 33.1723 135.437 32.4378 134.145 31.3829C133.554 30.9005 133.058 30.5291 133.042 30.5503C132.926 30.709 132.885 31.4868 132.994 31.4912C133.057 31.4921 133.471 31.7793 133.9 32.1122C134.508 32.5922 134.677 32.7981 134.707 33.042C134.763 33.5778 134.281 33.4715 133.4 32.7519C132.689 32.1713 132.679 32.1632 132.589 32.4614C132.506 32.7491 132.551 32.8193 133.062 33.1695C133.378 33.3936 134.148 33.7852 134.792 34.0411C136.215 34.6111 136.383 34.8838 135.354 34.9565C134.647 35.0046 133.801 34.7188 132.862 34.1214C132.559 33.9242 132.287 33.7703 132.272 33.7914C132.264 33.802 132.206 33.9911 132.147 34.1801C132.039 34.5476 132.049 34.5558 132.766 35.0402C135.355 36.7488 139.204 38.201 140.735 38.0316L141.422 37.9672L142.159 36.8281C142.807 35.8535 143.258 34.8866 143.128 34.7803C143.108 34.764 142.678 34.7173 142.188 34.6885ZM124.481 21.4801C121.949 20.1736 120.224 20.0832 119.388 21.2262L119.117 21.5966L120.089 22.3898C121.631 23.6491 123.347 24.4081 125.982 25.0046C127.746 25.4139 128.659 25.4331 128.844 25.0935C128.916 24.9502 128.899 24.7332 128.788 24.5577C128.425 24.0252 125.876 22.1968 124.481 21.4801ZM128.018 26.3971C127.178 26.387 126.168 26.1711 124.561 25.6357C122.439 24.9507 121.494 24.4495 120.031 23.2556C119.293 22.6692 118.684 22.1892 118.676 22.1998C118.669 22.2103 118.616 22.3701 118.568 22.5673C118.464 22.9054 118.497 22.9487 119.208 23.5293C119.738 23.9627 119.948 24.2013 119.953 24.3913C119.974 24.8651 119.554 24.8266 118.893 24.2869C118.563 24.0171 118.287 23.8256 118.272 23.8468C118.078 24.1114 118.153 24.3586 118.534 24.6694C119.045 25.0864 120.671 25.9243 122.134 26.5271C123.367 27.0273 123.693 27.2596 123.618 27.5367C123.552 27.8032 123.334 27.7946 122.351 27.4987C121.229 27.174 119.601 26.403 118.668 25.7762L117.911 25.2591L117.788 25.7334L117.665 26.2077L118.6 26.8532C120.356 28.0837 122.963 29.1987 125.081 29.6268C126.553 29.9327 126.942 29.7942 127.68 28.7407C128.127 28.1081 128.872 26.5198 128.762 26.4298C128.742 26.4135 128.406 26.3923 128.018 26.3971ZM113.652 28.3055C110.885 26.621 108.613 26.3376 107.723 27.5547C107.46 27.9145 107.463 27.9332 107.885 28.3623C108.441 28.9352 109.819 29.8068 110.972 30.3085C112.831 31.1339 115.887 31.8545 116.76 31.6885C117.219 31.6072 117.348 31.2561 117.057 30.8664C116.759 30.4874 114.742 28.9587 113.652 28.3055ZM116.303 32.7516C115.343 32.729 114.715 32.6044 113.109 32.0878C110.788 31.3249 109.941 30.8867 108.391 29.638C107.202 28.6836 106.996 28.5494 106.935 28.7197C106.894 28.8207 106.661 29.7294 106.414 30.7448L105.959 32.5703L106.513 32.972C109.203 34.9148 113.899 36.5859 115.074 36.0072C115.397 35.8489 115.611 35.6007 116.128 34.8061C116.681 33.9397 117.182 32.8613 117.072 32.7713C117.062 32.7631 116.708 32.7444 116.303 32.7516ZM110.861 38.2464C108.851 37.1458 106.351 35.7971 105.292 35.254C103.56 34.3636 98.5449 31.9922 98.4284 31.9985C98.4106 32.0009 98.2363 33.0923 98.0437 34.4055C97.8612 35.7269 97.2194 40.1043 96.6154 44.1237C96.0214 48.1514 95.5298 51.5359 95.5257 51.6509C95.4879 52.0087 103.647 57.1672 110.085 60.8523C112.753 62.3882 119.092 65.8578 119.191 65.8539C119.227 65.8491 120.342 61.2837 121.694 55.6946L124.125 45.5449L119.321 42.9065C116.673 41.4539 112.864 39.3576 110.861 38.2464Z" fill="#F38189"/>
<path d="M156.787 29.7929C156.908 30.0435 157.041 30.4736 157.083 30.7444C157.159 31.2966 156.715 33.0634 156.299 33.873L156.036 34.3853L156.751 34.8509C157.135 35.1136 157.822 35.5734 158.256 35.8769L159.054 36.4267L158.82 37.2498C158.642 37.865 154.756 53.1314 153.805 56.9691L153.705 57.4116L151.026 58.0798C142.275 60.2474 127.192 64.4267 120.884 66.4254C119.781 66.7751 119.461 66.8184 119.19 66.6645C119.004 66.5466 117.768 65.8751 116.438 65.1781C110.605 62.0881 104.194 58.3231 97.5755 54.119C96.2855 53.3022 95.1088 52.5273 94.9586 52.4046C94.7082 52.2002 94.7828 51.5513 96.1074 42.3906C97.8266 30.4592 97.7141 31.0941 98.0123 30.9489C98.1398 30.8839 98.7493 30.5535 99.3588 30.223C100.942 29.3696 102.842 28.5211 104.977 27.7456C106.409 27.2083 106.86 26.9851 107.077 26.6888C107.657 25.8951 109.035 25.4987 110.338 25.7513C110.623 25.7984 110.922 25.8056 111.014 25.7455C111.106 25.6854 112.492 25.2115 114.104 24.6689C115.718 24.1451 117.112 23.6607 117.209 23.638C117.303 23.5967 117.572 22.9882 117.82 22.2777C118.359 20.7745 118.832 20.0621 119.579 19.6748C120.918 18.9595 123.236 19.3987 125.578 20.7879L126.462 21.3069L128.126 20.8908C129.043 20.6426 129.882 20.4146 129.976 20.3732C130.096 20.3188 130.335 19.8383 130.593 19.136C131.09 17.7338 131.51 17.248 132.53 16.8809C134.458 16.1906 137.51 17.3311 140.781 19.9676C142.348 21.2139 142.627 21.5766 142.663 22.468C142.698 23.0543 142.467 24.2011 142.176 24.927C142.04 25.2887 141.962 25.6139 142.012 25.6548C142.437 25.8833 144.929 27.0901 145.02 27.0969C145.093 27.106 145.184 26.9603 145.242 26.7712C145.654 25.3329 147.714 24.6152 149.752 25.1973C151.34 25.6494 152.83 26.4772 154.819 28.0002C156.262 29.1108 156.597 29.4182 156.787 29.7929ZM151.993 27.3821C150.648 26.6394 149.561 26.2242 148.608 26.1054C147.592 25.9857 146.933 26.2084 146.492 26.8116L146.152 27.2772L146.973 27.9478C148.044 28.8228 148.964 29.337 150.442 29.9185C152.789 30.8209 155.664 31.2418 155.916 30.7213C155.966 30.6097 155.931 30.3952 155.822 30.2384C155.536 29.8194 153.096 27.9954 151.993 27.3821ZM153.201 31.7661C150.59 31.1379 148.09 29.9416 146.544 28.5779L145.656 27.8021L145.554 28.2258C145.463 28.5909 145.494 28.7011 145.894 29.0951C146.264 29.4645 146.313 29.5722 146.181 29.7521C146.065 29.9109 145.939 29.9089 145.673 29.7257C145.339 29.5039 145.166 29.5655 145.138 29.9316C145.11 30.1451 146.879 31.2688 148.092 31.8196C148.905 32.1957 149.119 32.405 148.934 32.659C148.663 33.0293 147.255 32.505 145.788 31.493C144.98 30.935 144.933 30.9129 144.838 31.1736C144.569 31.9346 144.692 32.0515 146.93 33.3213C149.06 34.52 152.428 35.5797 153.471 35.4003C154.194 35.2642 155.27 33.7932 155.668 32.3948L155.756 32.0778L154.995 32.0475C154.577 32.0278 153.769 31.9085 153.201 31.7661ZM136.952 18.7511C135.577 18.0508 134.116 17.6861 133.238 17.8146C132.69 17.9079 132.565 17.9916 132.199 18.4702L131.797 19.0205L132.856 19.8686C133.595 20.4549 134.23 20.8552 134.937 21.1789C137.103 22.1534 140.389 22.9096 141.2 22.6089C141.546 22.4858 141.562 22.4646 141.48 22.1611C141.37 21.6993 138.501 19.5424 136.952 18.7511ZM156.433 35.3517L155.727 34.9611L155.441 35.3526C154.984 35.977 154.399 36.3614 153.676 36.4975C152.097 36.7972 147.89 35.3556 145.346 33.6504C144.551 33.1193 144.442 33.115 144.491 33.5946C144.598 34.4763 143.802 36.615 142.92 37.8214C141.921 39.1866 141.042 39.4487 139.084 38.999C136.8 38.4694 134.015 37.226 132.109 35.8728C131.172 35.2086 131.129 35.1571 131.077 34.7256C130.997 34.069 132.512 29.5257 133.054 28.7849C133.503 28.1711 134.217 27.7406 134.963 27.6396L135.407 27.5794L135.112 27.4572C133.793 26.9209 131.942 26.018 131.131 25.5082C130.127 24.891 129.988 24.8621 130.076 25.2888C130.143 25.6135 129.807 27.0128 129.448 27.9196C129.281 28.3236 128.863 29.0476 128.523 29.5132C127.47 30.9525 126.642 31.1886 124.485 30.661C122.32 30.1439 120.146 29.1799 118.081 27.8485C116.525 26.8484 116.36 26.4607 116.915 25.1557C116.991 24.9642 117.029 24.7588 117.012 24.6944C116.985 24.6218 115.911 24.9104 114.624 25.3135C113.33 25.7272 112.201 26.0899 112.097 26.1231C111.965 26.1505 112.103 26.2462 112.561 26.4511C114.267 27.202 117.28 29.3584 117.954 30.2969C118.127 30.5403 118.306 30.9737 118.348 31.2445C118.525 32.4028 117.825 34.5189 116.804 35.9158C115.757 37.3257 115.007 37.5417 112.87 37.0304C110.687 36.5157 108.536 35.5868 106.55 34.3208C105.29 33.5286 104.896 33.1053 104.946 32.6218C104.959 32.4294 105.254 31.3692 105.606 30.2537C105.95 29.1488 106.244 28.2223 106.239 28.1848C106.23 28.1098 103.645 29.0415 102.428 29.5688C100.139 30.5559 98.8134 31.2312 99.0224 31.3173C99.1357 31.3592 100.092 31.8017 101.143 32.2885C105.092 34.1274 108.171 35.7793 117.84 41.2576L124.778 45.1991L125.508 44.9667C134.471 42.1791 152.667 37.3302 157.321 36.4994L158.151 36.3488L157.646 36.0549C157.365 35.8928 156.83 35.5744 156.433 35.3517ZM155.922 37.5375C143.176 40.7518 135.64 42.8121 127.793 45.2101L124.895 46.089L124.78 46.5527C124.718 46.7898 123.903 50.1801 122.966 54.0635C122.04 57.955 121.026 62.1635 120.72 63.4348L120.16 65.7322L121.019 65.4537C127.719 63.2683 143.671 59.0381 150.912 57.5136L153.306 57.0177L155.9 47.0176C157.324 41.5045 158.446 36.9953 158.398 36.9732C158.343 36.9617 157.236 37.207 155.922 37.5375ZM138.918 23.4998C136.177 22.8509 134.21 21.9543 132.432 20.5362L131.202 19.5492L131.106 20.0961C131.016 20.6137 131.033 20.6782 131.463 21.0298C131.784 21.2915 131.885 21.4589 131.85 21.6162C131.773 21.8745 131.457 21.8697 131.136 21.608C130.956 21.4608 130.867 21.4728 130.766 21.6773C130.641 21.9134 130.688 22.0024 131.075 22.3695C131.33 22.6114 132.093 23.0992 132.769 23.4652C134.177 24.2089 134.543 24.4739 134.519 24.725C134.469 25.2085 133.209 24.788 131.651 23.7692C130.69 23.1367 130.421 23.0015 130.376 23.1506C130.352 23.2493 130.287 23.382 130.241 23.4455C130.148 23.5725 131.389 24.434 132.741 25.1661C133.94 25.8237 136.405 26.7386 137.718 26.9993C139.051 27.2763 139.547 27.1234 140.197 26.2344C140.622 25.6524 141.331 24.2026 141.368 23.8447C141.377 23.7672 141.102 23.7283 140.77 23.7446C140.43 23.7716 139.596 23.6653 138.918 23.4998ZM142.927 27.0276L141.578 26.3143L141.199 26.8328C140.634 27.6054 139.997 28.0825 139.294 28.235L138.669 28.3673L139.373 28.7391C140.238 29.1749 142.23 30.4973 143.051 31.1678C143.471 31.5113 143.645 31.6022 143.682 31.4636C143.709 31.3838 143.96 30.5583 144.256 29.6506C144.725 28.1571 144.757 27.981 144.528 27.8785C144.393 27.8016 143.671 27.4322 142.927 27.0276ZM128.621 21.7677C128.1 21.8668 127.643 21.9669 127.62 21.9986C127.589 22.0409 127.926 22.3671 128.377 22.7351C128.988 23.2339 129.201 23.3575 129.249 23.2271C129.265 23.1391 129.397 22.7399 129.521 22.3512C129.656 21.9707 129.723 21.6373 129.668 21.6258C129.622 21.6224 129.151 21.6768 128.621 21.7677ZM138.737 29.6738C136.248 28.4188 134.398 28.4121 133.736 29.6459C133.572 29.935 133.582 29.9432 134.639 30.7725C136.197 32.0106 138.517 32.9929 140.982 33.4503C142.606 33.7452 143.613 33.5705 143.339 33.026C143.147 32.6325 139.871 30.2448 138.737 29.6738ZM142.188 34.6885C141.143 34.6298 140.26 34.4157 138.514 33.7847C136.771 33.1723 135.437 32.4378 134.145 31.3829C133.554 30.9005 133.058 30.5291 133.042 30.5503C132.926 30.709 132.885 31.4868 132.994 31.4912C133.057 31.4921 133.471 31.7793 133.9 32.1122C134.508 32.5922 134.677 32.7981 134.707 33.042C134.763 33.5778 134.281 33.4715 133.4 32.7519C132.689 32.1713 132.679 32.1632 132.589 32.4614C132.506 32.7491 132.551 32.8193 133.062 33.1695C133.378 33.3936 134.148 33.7852 134.792 34.0411C136.215 34.6111 136.383 34.8838 135.354 34.9565C134.647 35.0046 133.801 34.7188 132.862 34.1214C132.559 33.9242 132.287 33.7703 132.272 33.7914C132.264 33.802 132.206 33.9911 132.147 34.1801C132.039 34.5476 132.049 34.5558 132.766 35.0402C135.355 36.7488 139.204 38.201 140.735 38.0316L141.422 37.9672L142.159 36.8281C142.807 35.8535 143.258 34.8866 143.128 34.7803C143.108 34.764 142.678 34.7173 142.188 34.6885ZM124.481 21.4801C121.949 20.1736 120.224 20.0832 119.388 21.2262L119.117 21.5966L120.089 22.3898C121.631 23.6491 123.347 24.4081 125.982 25.0046C127.746 25.4139 128.659 25.4331 128.844 25.0935C128.916 24.9502 128.899 24.7332 128.788 24.5577C128.425 24.0252 125.876 22.1968 124.481 21.4801ZM128.018 26.3971C127.178 26.387 126.168 26.1711 124.561 25.6357C122.439 24.9507 121.494 24.4495 120.031 23.2556C119.293 22.6692 118.684 22.1892 118.676 22.1998C118.669 22.2103 118.616 22.3701 118.568 22.5673C118.464 22.9054 118.497 22.9487 119.208 23.5293C119.738 23.9627 119.948 24.2013 119.953 24.3913C119.974 24.8651 119.554 24.8266 118.893 24.2869C118.563 24.0171 118.287 23.8256 118.272 23.8468C118.078 24.1114 118.153 24.3586 118.534 24.6694C119.045 25.0864 120.671 25.9243 122.134 26.5271C123.367 27.0273 123.693 27.2596 123.618 27.5367C123.552 27.8032 123.334 27.7946 122.351 27.4987C121.229 27.174 119.601 26.403 118.668 25.7762L117.911 25.2591L117.788 25.7334L117.665 26.2077L118.6 26.8532C120.356 28.0837 122.963 29.1987 125.081 29.6268C126.553 29.9327 126.942 29.7942 127.68 28.7407C128.127 28.1081 128.872 26.5198 128.762 26.4298C128.742 26.4135 128.406 26.3923 128.018 26.3971ZM113.652 28.3055C110.885 26.621 108.613 26.3376 107.723 27.5547C107.46 27.9145 107.463 27.9332 107.885 28.3623C108.441 28.9352 109.819 29.8068 110.972 30.3085C112.831 31.1339 115.887 31.8545 116.76 31.6885C117.219 31.6072 117.348 31.2561 117.057 30.8664C116.759 30.4874 114.742 28.9587 113.652 28.3055ZM116.303 32.7516C115.343 32.729 114.715 32.6044 113.109 32.0878C110.788 31.3249 109.941 30.8867 108.391 29.638C107.202 28.6836 106.996 28.5494 106.935 28.7197C106.894 28.8207 106.661 29.7294 106.414 30.7448L105.959 32.5703L106.513 32.972C109.203 34.9148 113.899 36.5859 115.074 36.0072C115.397 35.8489 115.611 35.6007 116.128 34.8061C116.681 33.9397 117.182 32.8613 117.072 32.7713C117.062 32.7631 116.708 32.7444 116.303 32.7516ZM110.861 38.2464C108.851 37.1458 106.351 35.7971 105.292 35.254C103.56 34.3636 98.5449 31.9922 98.4284 31.9985C98.4106 32.0009 98.2363 33.0923 98.0437 34.4055C97.8612 35.7269 97.2194 40.1043 96.6154 44.1237C96.0214 48.1514 95.5298 51.5359 95.5257 51.6509C95.4879 52.0087 103.647 57.1672 110.085 60.8523C112.753 62.3882 119.092 65.8578 119.191 65.8539C119.227 65.8491 120.342 61.2837 121.694 55.6946L124.125 45.5449L119.321 42.9065C116.673 41.4539 112.864 39.3576 110.861 38.2464Z" fill="#00B4A9"/>
<path d="M131.775 36.986C132.098 37.6383 132.105 38.0664 131.859 39.1675C131.574 40.3883 131.178 41.2811 130.458 42.2653C129.444 43.6516 128.618 43.9066 126.584 43.429C124.374 42.9085 122.116 41.9272 119.943 40.5246C118.719 39.7275 118.48 39.3975 118.629 38.6909C118.838 37.6615 120.266 33.5877 120.56 33.1855C121.496 31.905 123.466 31.7049 125.819 32.6636C127.926 33.5222 131.26 35.9403 131.775 36.986ZM127.983 35.1067C126.563 34.1836 125.127 33.501 124.087 33.2605C122.77 32.9623 121.578 33.3241 121.253 34.1404C121.156 34.3823 121.211 34.4607 121.992 35.0986C123.494 36.3252 125.409 37.1621 128.033 37.7504C129.563 38.0866 130.811 38.1083 130.916 37.7889C131.033 37.4108 129.813 36.2794 127.983 35.1067ZM129.65 39.1045C128.77 39.0617 127.821 38.8279 125.982 38.1713C124.086 37.4844 122.568 36.6508 121.473 35.6551C120.987 35.2251 120.579 34.9086 120.548 34.9509C120.517 34.9932 120.505 35.1856 120.51 35.3756C120.52 35.6888 120.69 35.8947 121.617 36.7701C122.544 37.6456 122.684 37.8269 122.598 38.0102C122.54 38.1324 122.385 38.1916 122.196 38.1218C121.954 38.0593 122.019 38.1459 122.509 38.5466C122.932 38.9088 123.124 39.1498 123.159 39.3643C123.185 39.6563 123.17 39.6775 122.903 39.7135C122.673 39.7448 122.389 39.5639 121.295 38.6538L119.971 37.5557L119.784 38.2483L119.608 38.9492L120.513 39.5702C122.258 40.7925 124.876 41.9157 126.984 42.3356C128.539 42.6588 128.824 42.5535 129.618 41.4447C130.158 40.6851 130.335 40.3561 130.672 39.3474C130.748 39.156 130.693 39.1444 129.65 39.1045Z" fill="#F38189"/>
<path d="M131.775 36.986C132.098 37.6383 132.105 38.0664 131.859 39.1675C131.574 40.3883 131.178 41.2811 130.458 42.2653C129.444 43.6516 128.618 43.9066 126.584 43.429C124.374 42.9085 122.116 41.9272 119.943 40.5246C118.719 39.7275 118.48 39.3975 118.629 38.6909C118.838 37.6615 120.266 33.5877 120.56 33.1855C121.496 31.905 123.466 31.7049 125.819 32.6636C127.926 33.5222 131.26 35.9403 131.775 36.986ZM127.983 35.1067C126.563 34.1836 125.127 33.501 124.087 33.2605C122.77 32.9623 121.578 33.3241 121.253 34.1404C121.156 34.3823 121.211 34.4607 121.992 35.0986C123.494 36.3252 125.409 37.1621 128.033 37.7504C129.563 38.0866 130.811 38.1083 130.916 37.7889C131.033 37.4108 129.813 36.2794 127.983 35.1067ZM129.65 39.1045C128.77 39.0617 127.821 38.8279 125.982 38.1713C124.086 37.4844 122.568 36.6508 121.473 35.6551C120.987 35.2251 120.579 34.9086 120.548 34.9509C120.517 34.9932 120.505 35.1856 120.51 35.3756C120.52 35.6888 120.69 35.8947 121.617 36.7701C122.544 37.6456 122.684 37.8269 122.598 38.0102C122.54 38.1324 122.385 38.1916 122.196 38.1218C121.954 38.0593 122.019 38.1459 122.509 38.5466C122.932 38.9088 123.124 39.1498 123.159 39.3643C123.185 39.6563 123.17 39.6775 122.903 39.7135C122.673 39.7448 122.389 39.5639 121.295 38.6538L119.971 37.5557L119.784 38.2483L119.608 38.9492L120.513 39.5702C122.258 40.7925 124.876 41.9157 126.984 42.3356C128.539 42.6588 128.824 42.5535 129.618 41.4447C130.158 40.6851 130.335 40.3561 130.672 39.3474C130.748 39.156 130.693 39.1444 129.65 39.1045Z" fill="#F38189"/>
<path d="M131.775 36.986C132.098 37.6383 132.105 38.0664 131.859 39.1675C131.574 40.3883 131.178 41.2811 130.458 42.2653C129.444 43.6516 128.618 43.9066 126.584 43.429C124.374 42.9085 122.116 41.9272 119.943 40.5246C118.719 39.7275 118.48 39.3975 118.629 38.6909C118.838 37.6615 120.266 33.5877 120.56 33.1855C121.496 31.905 123.466 31.7049 125.819 32.6636C127.926 33.5222 131.26 35.9403 131.775 36.986ZM127.983 35.1067C126.563 34.1836 125.127 33.501 124.087 33.2605C122.77 32.9623 121.578 33.3241 121.253 34.1404C121.156 34.3823 121.211 34.4607 121.992 35.0986C123.494 36.3252 125.409 37.1621 128.033 37.7504C129.563 38.0866 130.811 38.1083 130.916 37.7889C131.033 37.4108 129.813 36.2794 127.983 35.1067ZM129.65 39.1045C128.77 39.0617 127.821 38.8279 125.982 38.1713C124.086 37.4844 122.568 36.6508 121.473 35.6551C120.987 35.2251 120.579 34.9086 120.548 34.9509C120.517 34.9932 120.505 35.1856 120.51 35.3756C120.52 35.6888 120.69 35.8947 121.617 36.7701C122.544 37.6456 122.684 37.8269 122.598 38.0102C122.54 38.1324 122.385 38.1916 122.196 38.1218C121.954 38.0593 122.019 38.1459 122.509 38.5466C122.932 38.9088 123.124 39.1498 123.159 39.3643C123.185 39.6563 123.17 39.6775 122.903 39.7135C122.673 39.7448 122.389 39.5639 121.295 38.6538L119.971 37.5557L119.784 38.2483L119.608 38.9492L120.513 39.5702C122.258 40.7925 124.876 41.9157 126.984 42.3356C128.539 42.6588 128.824 42.5535 129.618 41.4447C130.158 40.6851 130.335 40.3561 130.672 39.3474C130.748 39.156 130.693 39.1444 129.65 39.1045Z" fill="#00B4A9"/>
<path d="M127.136 39.7216C126.989 39.9227 126.464 39.7649 126.004 39.3888C125.563 39.029 125.695 38.849 126.292 39.016C126.9 39.191 127.283 39.5205 127.136 39.7216Z" fill="#F38189"/>
<path d="M127.136 39.7216C126.989 39.9227 126.464 39.7649 126.004 39.3888C125.563 39.029 125.695 38.849 126.292 39.016C126.9 39.191 127.283 39.5205 127.136 39.7216Z" fill="#F38189"/>
<path d="M127.136 39.7216C126.989 39.9227 126.464 39.7649 126.004 39.3888C125.563 39.029 125.695 38.849 126.292 39.016C126.9 39.191 127.283 39.5205 127.136 39.7216Z" fill="#00B4A9"/>
<path d="M127.103 40.8607C126.77 40.944 125.8 40.6082 125.55 40.3369C125.381 40.131 125.47 40.119 126.131 40.2869C127.022 40.4904 127.481 40.7809 127.103 40.8607Z" fill="#F38189"/>
<path d="M127.103 40.8607C126.77 40.944 125.8 40.6082 125.55 40.3369C125.381 40.131 125.47 40.119 126.131 40.2869C127.022 40.4904 127.481 40.7809 127.103 40.8607Z" fill="#F38189"/>
<path d="M127.103 40.8607C126.77 40.944 125.8 40.6082 125.55 40.3369C125.381 40.131 125.47 40.119 126.131 40.2869C127.022 40.4904 127.481 40.7809 127.103 40.8607Z" fill="#00B4A9"/>
<path d="M154.035 43.3993C153.942 43.5263 145.748 44.6938 145.024 44.6775C144.609 44.6765 144.418 44.5212 144.558 44.3307C144.728 44.0978 148.689 43.4277 151.373 43.1689C153.55 42.9693 154.306 43.0289 154.035 43.3993Z" fill="#F38189"/>
<path d="M154.035 43.3993C153.942 43.5263 145.748 44.6938 145.024 44.6775C144.609 44.6765 144.418 44.5212 144.558 44.3307C144.728 44.0978 148.689 43.4277 151.373 43.1689C153.55 42.9693 154.306 43.0289 154.035 43.3993Z" fill="#F38189"/>
<path d="M154.035 43.3993C153.942 43.5263 145.748 44.6938 145.024 44.6775C144.609 44.6765 144.418 44.5212 144.558 44.3307C144.728 44.0978 148.689 43.4277 151.373 43.1689C153.55 42.9693 154.306 43.0289 154.035 43.3993Z" fill="#00B4A9"/>
<path d="M153.997 49.1823C154 49.3535 153.82 50.3218 153.583 51.3455C153.354 52.3585 153.068 53.6462 152.957 54.2143C152.727 55.2942 152.487 55.7748 152.257 55.5867C152.017 55.3904 152.089 54.5034 152.503 52.4071C152.914 50.292 153.349 48.822 153.581 48.7239C153.787 48.6387 153.974 48.8422 153.997 49.1823Z" fill="#F38189"/>
<path d="M153.997 49.1823C154 49.3535 153.82 50.3218 153.583 51.3455C153.354 52.3585 153.068 53.6462 152.957 54.2143C152.727 55.2942 152.487 55.7748 152.257 55.5867C152.017 55.3904 152.089 54.5034 152.503 52.4071C152.914 50.292 153.349 48.822 153.581 48.7239C153.787 48.6387 153.974 48.8422 153.997 49.1823Z" fill="#F38189"/>
<path d="M153.997 49.1823C154 49.3535 153.82 50.3218 153.583 51.3455C153.354 52.3585 153.068 53.6462 152.957 54.2143C152.727 55.2942 152.487 55.7748 152.257 55.5867C152.017 55.3904 152.089 54.5034 152.503 52.4071C152.914 50.292 153.349 48.822 153.581 48.7239C153.787 48.6387 153.974 48.8422 153.997 49.1823Z" fill="#00B4A9"/>
<path d="M145.059 42.4417C145.051 42.5191 144.914 42.6615 144.751 42.7313C143.676 43.2392 128.413 47.2714 127.984 47.1578C127.901 47.1405 127.831 47.0164 127.825 46.8933C127.813 46.7139 128.093 46.571 128.988 46.2876C130.44 45.8335 137.379 43.9113 140.572 43.0878C144.693 42.0242 145.109 41.9583 145.059 42.4417Z" fill="#F38189"/>
<path d="M145.059 42.4417C145.051 42.5191 144.914 42.6615 144.751 42.7313C143.676 43.2392 128.413 47.2714 127.984 47.1578C127.901 47.1405 127.831 47.0164 127.825 46.8933C127.813 46.7139 128.093 46.571 128.988 46.2876C130.44 45.8335 137.379 43.9113 140.572 43.0878C144.693 42.0242 145.109 41.9583 145.059 42.4417Z" fill="#F38189"/>
<path d="M145.059 42.4417C145.051 42.5191 144.914 42.6615 144.751 42.7313C143.676 43.2392 128.413 47.2714 127.984 47.1578C127.901 47.1405 127.831 47.0164 127.825 46.8933C127.813 46.7139 128.093 46.571 128.988 46.2876C130.44 45.8335 137.379 43.9113 140.572 43.0878C144.693 42.0242 145.109 41.9583 145.059 42.4417Z" fill="#00B4A9"/>
<path d="M152.209 50.3589C152.227 51.2526 151.79 53.9719 151.602 54.0546C151.335 54.1575 151.189 53.8531 151.277 53.3836C151.318 53.1301 151.435 52.1608 151.541 51.2502C151.693 49.7518 151.841 49.3314 152.101 49.544C152.151 49.5849 152.194 49.9413 152.209 50.3589Z" fill="#F38189"/>
<path d="M152.209 50.3589C152.227 51.2526 151.79 53.9719 151.602 54.0546C151.335 54.1575 151.189 53.8531 151.277 53.3836C151.318 53.1301 151.435 52.1608 151.541 51.2502C151.693 49.7518 151.841 49.3314 152.101 49.544C152.151 49.5849 152.194 49.9413 152.209 50.3589Z" fill="#F38189"/>
<path d="M152.209 50.3589C152.227 51.2526 151.79 53.9719 151.602 54.0546C151.335 54.1575 151.189 53.8531 151.277 53.3836C151.318 53.1301 151.435 52.1608 151.541 51.2502C151.693 49.7518 151.841 49.3314 152.101 49.544C152.151 49.5849 152.194 49.9413 152.209 50.3589Z" fill="#00B4A9"/>
<path d="M113.205 33.8388C113.271 34.011 113.216 34.0851 113.036 34.1572C112.114 34.5204 109.828 33.6002 108.018 32.1389C107.277 31.5338 107.083 31.274 107.23 31.0729C107.369 30.8824 107.571 30.9791 108.803 31.7656C110.015 32.5357 111.258 33.111 112.337 33.3842C112.766 33.4977 113.112 33.5939 113.122 33.6021C113.122 33.6021 113.163 33.7205 113.205 33.8388Z" fill="#F38189"/>
<path d="M113.205 33.8388C113.271 34.011 113.216 34.0851 113.036 34.1572C112.114 34.5204 109.828 33.6002 108.018 32.1389C107.277 31.5338 107.083 31.274 107.23 31.0729C107.369 30.8824 107.571 30.9791 108.803 31.7656C110.015 32.5357 111.258 33.111 112.337 33.3842C112.766 33.4977 113.112 33.5939 113.122 33.6021C113.122 33.6021 113.163 33.7205 113.205 33.8388Z" fill="#F38189"/>
<path d="M113.205 33.8388C113.271 34.011 113.216 34.0851 113.036 34.1572C112.114 34.5204 109.828 33.6002 108.018 32.1389C107.277 31.5338 107.083 31.274 107.23 31.0729C107.369 30.8824 107.571 30.9791 108.803 31.7656C110.015 32.5357 111.258 33.111 112.337 33.3842C112.766 33.4977 113.112 33.5939 113.122 33.6021C113.122 33.6021 113.163 33.7205 113.205 33.8388Z" fill="#00B4A9"/>
<path d="M119.773 47.4504C119.853 48.4788 117.041 60.7012 116.673 60.9418C116.364 61.1457 116.33 60.7118 116.572 59.4395C117.119 56.4384 118.513 49.6328 118.805 48.4682C119.035 47.5408 119.182 47.1872 119.353 47.1069C119.651 46.9616 119.751 47.0434 119.773 47.4504Z" fill="#F38189"/>
<path d="M119.773 47.4504C119.853 48.4788 117.041 60.7012 116.673 60.9418C116.364 61.1457 116.33 60.7118 116.572 59.4395C117.119 56.4384 118.513 49.6328 118.805 48.4682C119.035 47.5408 119.182 47.1872 119.353 47.1069C119.651 46.9616 119.751 47.0434 119.773 47.4504Z" fill="#F38189"/>
<path d="M119.773 47.4504C119.853 48.4788 117.041 60.7012 116.673 60.9418C116.364 61.1457 116.33 60.7118 116.572 59.4395C117.119 56.4384 118.513 49.6328 118.805 48.4682C119.035 47.5408 119.182 47.1872 119.353 47.1069C119.651 46.9616 119.751 47.0434 119.773 47.4504Z" fill="#00B4A9"/>
<path d="M120.918 52.4247C120.961 53.1529 120.119 56.6231 119.861 56.801C119.777 56.8506 119.65 56.8487 119.57 56.7832C119.39 56.6361 120.185 52.1808 120.427 52.024C120.678 51.8566 120.898 52.0365 120.918 52.4247Z" fill="#F38189"/>
<path d="M120.918 52.4247C120.961 53.1529 120.119 56.6231 119.861 56.801C119.777 56.8506 119.65 56.8487 119.57 56.7832C119.39 56.6361 120.185 52.1808 120.427 52.024C120.678 51.8566 120.898 52.0365 120.918 52.4247Z" fill="#F38189"/>
<path d="M120.918 52.4247C120.961 53.1529 120.119 56.6231 119.861 56.801C119.777 56.8506 119.65 56.8487 119.57 56.7832C119.39 56.6361 120.185 52.1808 120.427 52.024C120.678 51.8566 120.898 52.0365 120.918 52.4247Z" fill="#00B4A9"/>
<path d="M105.354 50.4146C105.55 50.7599 105.376 51.0409 105.008 50.9764C104.712 50.9211 103.798 50.2251 103.625 49.9148C103.489 49.6854 103.685 49.3727 103.987 49.3318C104.235 49.2981 105.124 50.0071 105.354 50.4146Z" fill="#F38189"/>
<path d="M105.354 50.4146C105.55 50.7599 105.376 51.0409 105.008 50.9764C104.712 50.9211 103.798 50.2251 103.625 49.9148C103.489 49.6854 103.685 49.3727 103.987 49.3318C104.235 49.2981 105.124 50.0071 105.354 50.4146Z" fill="#F38189"/>
<path d="M105.354 50.4146C105.55 50.7599 105.376 51.0409 105.008 50.9764C104.712 50.9211 103.798 50.2251 103.625 49.9148C103.489 49.6854 103.685 49.3727 103.987 49.3318C104.235 49.2981 105.124 50.0071 105.354 50.4146Z" fill="#00B4A9"/>
<path d="M106.837 53.4172C107.084 53.7366 107.08 54.1565 106.832 54.1902C106.725 54.2046 106.043 53.7823 105.293 53.2546C101.856 50.8028 100.111 49.5137 100.06 49.3872C99.9748 49.1317 100.241 48.9432 100.531 49.0278C101.423 49.3169 106.273 52.7024 106.837 53.4172Z" fill="#F38189"/>
<path d="M106.837 53.4172C107.084 53.7366 107.08 54.1565 106.832 54.1902C106.725 54.2046 106.043 53.7823 105.293 53.2546C101.856 50.8028 100.111 49.5137 100.06 49.3872C99.9748 49.1317 100.241 48.9432 100.531 49.0278C101.423 49.3169 106.273 52.7024 106.837 53.4172Z" fill="#F38189"/>
<path d="M106.837 53.4172C107.084 53.7366 107.08 54.1565 106.832 54.1902C106.725 54.2046 106.043 53.7823 105.293 53.2546C101.856 50.8028 100.111 49.5137 100.06 49.3872C99.9748 49.1317 100.241 48.9432 100.531 49.0278C101.423 49.3169 106.273 52.7024 106.837 53.4172Z" fill="#00B4A9"/>
<path d="M110.436 58.6882C110.404 58.7974 110.289 58.8892 110.173 58.8955C109.778 58.9109 103.605 54.7323 99.5952 51.7288C98.1144 50.6041 97.8919 50.4055 97.9847 50.2785C98.0698 50.1621 98.3543 50.2761 99.115 50.7451C99.6799 51.088 100.255 51.4392 100.398 51.5056C100.833 51.7422 104.935 54.4662 106.994 55.8939C109.594 57.6963 110.505 58.4404 110.436 58.6882Z" fill="#F38189"/>
<path d="M110.436 58.6882C110.404 58.7974 110.289 58.8892 110.173 58.8955C109.778 58.9109 103.605 54.7323 99.5952 51.7288C98.1144 50.6041 97.8919 50.4055 97.9847 50.2785C98.0698 50.1621 98.3543 50.2761 99.115 50.7451C99.6799 51.088 100.255 51.4392 100.398 51.5056C100.833 51.7422 104.935 54.4662 106.994 55.8939C109.594 57.6963 110.505 58.4404 110.436 58.6882Z" fill="#F38189"/>
<path d="M110.436 58.6882C110.404 58.7974 110.289 58.8892 110.173 58.8955C109.778 58.9109 103.605 54.7323 99.5952 51.7288C98.1144 50.6041 97.8919 50.4055 97.9847 50.2785C98.0698 50.1621 98.3543 50.2761 99.115 50.7451C99.6799 51.088 100.255 51.4392 100.398 51.5056C100.833 51.7422 104.935 54.4662 106.994 55.8939C109.594 57.6963 110.505 58.4404 110.436 58.6882Z" fill="#00B4A9"/>
<path d="M15.9329 56.5102C15.5568 54.8843 14.4376 53.8146 12.6377 54.216C10.9206 54.7227 10.2595 56.0844 10.6512 57.939L13.409 70.0095L5.87548 71.7139L1.24006 51.435L8.23491 49.8377L8.87215 51.6459L8.91982 51.6318C10.0071 49.7815 12.2116 48.3793 14.6695 47.8355C18.9778 46.7977 22.1045 48.96 23.1228 53.3777L26.24 67.1051L18.7064 68.8094L15.9091 56.5172L15.9329 56.5102Z" fill="#FDAA87"/>
</svg>
