<svg width="52" height="50" viewBox="0 0 52 50" fill="none" xmlns="http://www.w3.org/2000/svg">
<g filter="url(#filter0_i_85_839)">
<path d="M42.8848 11.9919C43.0057 12.1254 43.1651 12.3676 43.2379 12.5276C43.3802 12.8555 43.3866 14.0265 43.2508 14.6008L43.1652 14.9641L43.7105 15.1251C44.0053 15.2194 44.5315 15.3817 44.8659 15.4924L45.4792 15.6908L45.4645 16.2411C45.4515 16.653 45.476 26.7799 45.4991 29.321L45.5083 29.6123L43.8699 30.5008C38.5175 33.3931 29.3656 38.6527 25.5806 41.0073C24.9185 41.4193 24.717 41.5027 24.5139 41.4557C24.3728 41.4158 23.4524 41.22 22.4668 41.025C18.1372 40.1497 13.3167 38.9597 8.2875 37.5349C7.30763 37.2588 6.40884 36.9886 6.29012 36.9394C6.09224 36.8574 6.03206 36.443 5.35942 30.545C4.47941 22.8641 4.51256 23.2765 4.68294 23.1338C4.75531 23.0711 5.09799 22.7587 5.44069 22.4462C6.33195 21.6377 7.4307 20.7761 8.69486 19.9181C9.54047 19.3318 9.79769 19.1137 9.88948 18.8921C10.1354 18.2985 10.9687 17.8091 11.8621 17.7341C12.0565 17.7126 12.2528 17.6641 12.3027 17.6106C12.3527 17.5571 13.1786 17.0183 14.1408 16.3968C15.1076 15.7865 15.9368 15.2398 15.9961 15.2087C16.0507 15.1664 16.1243 14.7425 16.1667 14.2594C16.2668 13.2344 16.4561 12.7101 16.8791 12.3382C17.6335 11.6585 19.2215 11.5187 20.9852 11.9619L21.6499 12.1259L22.6669 11.5735C23.2244 11.2573 23.7339 10.9676 23.7885 10.9253C23.8576 10.8705 23.9333 10.5309 23.9837 10.0511C24.0733 9.09597 24.2656 8.72125 24.8704 8.31338C26.0141 7.54456 28.1998 7.70804 30.7787 8.75773C32.0121 9.25007 32.2549 9.42486 32.4281 9.96949C32.5494 10.3258 32.5912 11.0756 32.523 11.576C32.4946 11.8238 32.4983 12.0386 32.5379 12.055C32.8537 12.1209 34.6844 12.4249 34.745 12.4129C34.7944 12.4055 34.8291 12.2993 34.8354 12.1721C34.8631 11.2099 36.0885 10.4007 37.5172 10.3991C38.6309 10.3968 39.7432 10.6442 41.2983 11.2327C42.4275 11.6633 42.6979 11.7939 42.8848 11.9919ZM39.3479 11.3521C38.3451 11.1315 37.5647 11.0679 36.9224 11.1635C36.2385 11.2697 35.8456 11.5242 35.6588 11.9754L35.5145 12.3236L36.1635 12.5925C37.0104 12.9433 37.6975 13.098 38.7606 13.1953C40.4454 13.3368 42.3942 13.0869 42.4719 12.7203C42.4855 12.6425 42.4266 12.5161 42.3289 12.4385C42.0721 12.2302 40.1714 11.5356 39.3479 11.3521ZM40.8735 13.8479C39.062 13.9229 37.228 13.6269 35.9892 13.0581L35.2788 12.736L35.2833 13.0161C35.2852 13.2579 35.3242 13.3204 35.6514 13.4931C35.9549 13.6559 36.0051 13.7138 35.9494 13.8483C35.9002 13.967 35.8172 13.9883 35.6128 13.9222C35.3576 13.8443 35.2549 13.913 35.2982 14.1443C35.3156 14.2813 36.6601 14.662 37.5448 14.7874C38.1388 14.8758 38.3142 14.967 38.2356 15.1569C38.1208 15.434 37.113 15.3596 35.9847 14.9943C35.3635 14.7926 35.3286 14.7874 35.3105 14.9654C35.2628 15.4834 35.3624 15.534 37.0378 15.9219C38.6307 16.285 41.0085 16.3426 41.6597 16.0467C42.1093 15.8342 42.565 14.734 42.5907 13.7989L42.5949 13.5873L42.0923 13.7037C41.8163 13.7655 41.2682 13.8352 40.8735 13.8479ZM28.0733 8.68496C27.0574 8.49597 26.0419 8.52972 25.4901 8.76482C25.1478 8.91975 25.0801 8.9937 24.9213 9.35451L24.7508 9.76609L25.5852 10.1024C26.1663 10.3338 26.6483 10.4686 27.1644 10.5433C28.7432 10.7614 31.0166 10.646 31.4963 10.3161C31.7016 10.1786 31.7082 10.1628 31.6037 9.98967C31.4542 9.72374 29.2178 8.89938 28.0733 8.68496ZM43.5868 15.4911L43.06 15.3749L42.9387 15.6677C42.7452 16.1347 42.4276 16.4761 41.978 16.6886C40.997 17.1539 38.0061 17.0092 36.0582 16.4064C35.4495 16.2192 35.3777 16.2358 35.4903 16.5235C35.7083 17.0496 35.5472 18.513 35.1735 19.4153C34.7505 20.4363 34.22 20.7544 32.8653 20.8238C31.2845 20.9016 29.2561 20.627 27.7842 20.1286C27.0601 19.8843 27.0238 19.86 26.9171 19.6025C26.7549 19.2108 26.9817 16.1334 27.2112 15.5793C27.4014 15.1203 27.7959 14.7273 28.2661 14.5326L28.5459 14.4167L28.333 14.3934C27.3812 14.2959 26.0205 14.0661 25.4053 13.8947C24.6457 13.6914 24.5502 13.6982 24.6792 13.9463C24.7771 14.1353 24.7929 15.0598 24.7105 15.6841C24.6689 15.9636 24.5178 16.4852 24.3735 16.8334C23.9276 17.9099 23.4261 18.2029 21.9283 18.2594C20.4272 18.3238 18.8451 18.1136 17.2724 17.6569C16.0881 17.3147 15.9157 17.1042 16.0588 16.199C16.0763 16.0672 16.0668 15.9334 16.045 15.8966C16.0152 15.8565 15.3616 16.2255 14.5889 16.703C13.813 17.1883 13.1364 17.6128 13.0739 17.6518C12.9922 17.6922 13.0984 17.7269 13.432 17.7723C14.6725 17.9338 17.0032 18.7323 17.6005 19.193C17.755 19.3126 17.9446 19.5488 18.0174 19.7088C18.3273 20.3935 18.2255 21.8258 17.7927 22.8705C17.3455 23.9279 16.892 24.1944 15.41 24.2575C13.8977 24.3265 12.3361 24.134 10.8268 23.7036C9.87064 23.4374 9.54205 23.2456 9.4933 22.938C9.46932 22.8167 9.48432 22.1089 9.5269 21.3569C9.56621 20.6128 9.60247 19.988 9.59319 19.9656C9.57465 19.9208 8.04263 20.9554 7.33599 21.4973C6.00626 22.5136 5.25371 23.1663 5.40466 23.1824C5.48573 23.1882 6.1845 23.2922 6.95314 23.4065C9.84183 23.8427 12.1302 24.3177 19.3664 25.989L24.5606 27.1946L24.9982 26.9216C30.386 23.608 41.4588 17.3823 44.3596 16.043L44.8764 15.8027L44.4973 15.7106C44.2863 15.6603 43.8834 15.5583 43.5868 15.4911ZM43.6201 16.9329C35.8329 21.1814 31.2556 23.792 26.5319 26.6666L24.7864 27.724L24.789 28.0311C24.7887 28.1886 24.825 30.4292 24.8653 32.9959C24.9135 35.566 24.9575 38.3476 24.9711 39.1878L24.9908 40.7074L25.5055 40.3827C29.5155 37.8431 39.2265 32.3979 43.7005 30.1709L45.181 29.4396L45.1968 22.7975C45.2017 19.1366 45.1777 16.1501 45.1427 16.1449C45.1045 16.1476 44.4225 16.4956 43.6201 16.9329ZM30.1546 11.2718C28.2555 11.3569 26.8197 11.1516 25.4201 10.5904L24.4512 10.1984L24.4803 10.5535C24.508 10.8895 24.5299 10.9264 24.8702 11.0674C25.1235 11.1723 25.2179 11.2578 25.2214 11.3612C25.2145 11.5346 25.0071 11.5877 24.7538 11.4828C24.6113 11.4238 24.5553 11.447 24.5233 11.5914C24.4815 11.7595 24.5271 11.8062 24.8418 11.9644C25.0489 12.0687 25.6292 12.2349 26.1322 12.3412C27.1765 12.5513 27.4601 12.6502 27.4868 12.8096C27.5356 13.1173 26.6419 13.0809 25.4529 12.7275C24.719 12.507 24.5206 12.4711 24.5162 12.5713C24.517 12.6366 24.4967 12.7302 24.4771 12.7777C24.4377 12.8727 25.3933 13.185 26.3994 13.3977C27.2927 13.5916 29.0572 13.7197 29.9585 13.648C30.8757 13.5828 31.1739 13.4003 31.4493 12.7354C31.6296 12.3001 31.8489 11.2782 31.8135 11.0502C31.8061 11.0008 31.6197 11.0256 31.4057 11.0946C31.1884 11.1715 30.6257 11.2537 30.1546 11.2718ZM33.3664 12.7413L32.3649 12.5398L32.2043 12.9276C31.9649 13.5054 31.629 13.9134 31.1952 14.1324L30.8094 14.325L31.3316 14.43C31.9697 14.546 33.493 15.01 34.142 15.2788C34.4745 15.4165 34.603 15.442 34.6042 15.3497C34.608 15.2957 34.6339 14.7407 34.6748 14.1271C34.73 13.1207 34.7218 13.006 34.5551 12.9833C34.4535 12.9598 33.9202 12.8594 33.3664 12.7413ZM23.137 12.0279C22.8138 12.1814 22.532 12.3244 22.5222 12.3481C22.5091 12.3798 22.7842 12.5216 23.1404 12.6691C23.6232 12.8691 23.7834 12.9076 23.7924 12.8186C23.7884 12.7613 23.8076 12.4911 23.8235 12.2288C23.8473 11.9697 23.8357 11.7516 23.7975 11.7543C23.7672 11.7603 23.4682 11.8776 23.137 12.0279ZM31.0734 15.1205C29.2367 14.7863 28.0267 15.1104 27.8012 15.9906C27.743 16.1984 27.7509 16.2016 28.5806 16.5268C29.8061 17.0158 31.487 17.2113 33.1737 17.0569C34.2839 16.9511 34.9127 16.6645 34.6425 16.3764C34.451 16.1672 31.91 15.2723 31.0734 15.1205ZM34.1693 17.6084C33.477 17.7575 32.8642 17.7818 31.6178 17.7014C30.3761 17.6321 29.3812 17.4148 28.3602 16.9918C27.8932 16.7984 27.5067 16.6569 27.5002 16.6727C27.451 16.7914 27.5548 17.2795 27.6266 17.2629C27.6681 17.2523 27.9866 17.3564 28.3223 17.4862C28.8005 17.675 28.9457 17.7722 29.006 17.9177C29.1325 18.239 28.7998 18.2588 28.1032 17.9703C27.5413 17.7376 27.5334 17.7343 27.5245 17.9346C27.519 18.1271 27.56 18.1626 27.953 18.2883C28.197 18.3708 28.7653 18.4764 29.2293 18.5202C30.2543 18.6202 30.4101 18.759 29.7502 18.9864C29.2965 19.1415 28.6954 19.1151 27.982 18.9123C27.7505 18.8443 27.5474 18.7972 27.5409 18.8131C27.5376 18.821 27.5313 18.9482 27.525 19.0754C27.5156 19.3219 27.5235 19.3252 28.0735 19.4973C30.0517 20.0942 32.8095 20.3092 33.7814 19.9329L34.2193 19.7712L34.5095 18.9362C34.7696 18.2187 34.902 17.541 34.7991 17.4983C34.7833 17.4918 34.4947 17.5392 34.1693 17.6084ZM20.3842 12.5846C18.5112 12.226 17.369 12.4762 17.0149 13.331L16.9002 13.608L17.6679 13.9261C18.8868 14.4309 20.1354 14.5957 21.9566 14.497C23.1777 14.4371 23.7777 14.2869 23.8411 14.0443C23.8646 13.9428 23.8169 13.8117 23.7146 13.723C23.3885 13.4581 21.416 12.7801 20.3842 12.5846ZM23.5209 14.9966C22.9702 15.1394 22.2744 15.185 21.1342 15.1393C19.6329 15.0924 18.9314 14.9502 17.7758 14.4715C17.1948 14.2401 16.7166 14.0513 16.7133 14.0592C16.71 14.0671 16.7023 14.1752 16.7039 14.3057C16.6932 14.5331 16.7216 14.5541 17.2836 14.7869C17.703 14.9606 17.8799 15.071 17.9151 15.1875C18.0086 15.4767 17.728 15.5273 17.2056 15.3109C16.9444 15.2028 16.732 15.1333 16.7255 15.1492C16.6435 15.347 16.7341 15.4866 17.0349 15.6111C17.4385 15.7784 18.6417 16.0078 19.6983 16.1209C20.5882 16.2113 20.8401 16.2971 20.8378 16.4817C20.8389 16.6583 20.6953 16.6915 20.0033 16.6831C19.2158 16.6814 18.0232 16.4935 17.3084 16.2716L16.7268 16.0863L16.7261 16.4013L16.7255 16.7163L17.4449 16.9494C18.7981 17.3987 20.6887 17.6254 22.1442 17.5142C23.1569 17.4423 23.3879 17.2876 23.6934 16.5053C23.8789 16.0351 24.0993 14.9209 24.0122 14.8848C23.9964 14.8783 23.7731 14.9249 23.5209 14.9966ZM14.4561 18.7251C12.3659 18.1746 10.8341 18.4025 10.4571 19.3127C10.3456 19.5818 10.3503 19.593 10.698 19.7834C11.1578 20.0388 12.2043 20.3332 13.0415 20.4388C14.3948 20.6192 16.512 20.5225 17.0545 20.265C17.3409 20.1333 17.3661 19.8934 17.1106 19.7041C16.8519 19.5228 15.2776 18.9356 14.4561 18.7251ZM16.9341 21.0034C16.3037 21.1596 15.8722 21.1941 14.7366 21.1595C13.0923 21.0997 12.4653 20.9791 11.2431 20.4821C10.3059 20.1032 10.1489 20.0567 10.138 20.1727C10.1276 20.2426 10.1282 20.8456 10.1375 21.5171L10.1466 22.7264L10.5759 22.8764C12.6592 23.6002 16.0074 23.8002 16.6778 23.234C16.8626 23.0787 16.9604 22.8874 17.1648 22.3044C17.381 21.6707 17.527 20.9151 17.4399 20.8791C17.432 20.8758 17.1975 20.927 16.9341 21.0034ZM14.3019 25.3656C12.8039 25.0418 10.9441 24.6516 10.1615 24.5037C8.88055 24.2605 5.20603 23.6843 5.13095 23.7089C5.11976 23.7135 5.18911 24.4192 5.2838 25.2651C5.3864 26.1144 5.70203 28.9343 5.98225 31.5263C6.27039 34.1215 6.51746 36.301 6.53408 36.3728C6.56949 36.6007 12.7658 38.3421 17.5902 39.478C19.5906 39.9542 24.3145 40.9744 24.3784 40.9545C24.4008 40.9452 24.3629 37.9251 24.3077 34.2301L24.1922 27.5243L20.6108 26.7455C18.6369 26.3174 15.7966 25.6972 14.3019 25.3656Z" fill="#F38189"/>
<path d="M42.8848 11.9919C43.0057 12.1254 43.1651 12.3676 43.2379 12.5276C43.3802 12.8555 43.3866 14.0265 43.2508 14.6008L43.1652 14.9641L43.7105 15.1251C44.0053 15.2194 44.5315 15.3817 44.8659 15.4924L45.4792 15.6908L45.4645 16.2411C45.4515 16.653 45.476 26.7799 45.4991 29.321L45.5083 29.6123L43.8699 30.5008C38.5175 33.3931 29.3656 38.6527 25.5806 41.0073C24.9185 41.4193 24.717 41.5027 24.5139 41.4557C24.3728 41.4158 23.4524 41.22 22.4668 41.025C18.1372 40.1497 13.3167 38.9597 8.2875 37.5349C7.30763 37.2588 6.40884 36.9886 6.29012 36.9394C6.09224 36.8574 6.03206 36.443 5.35942 30.545C4.47941 22.8641 4.51256 23.2765 4.68294 23.1338C4.75531 23.0711 5.09799 22.7587 5.44069 22.4462C6.33195 21.6377 7.4307 20.7761 8.69486 19.9181C9.54047 19.3318 9.79769 19.1137 9.88948 18.8921C10.1354 18.2985 10.9687 17.8091 11.8621 17.7341C12.0565 17.7126 12.2528 17.6641 12.3027 17.6106C12.3527 17.5571 13.1786 17.0183 14.1408 16.3968C15.1076 15.7865 15.9368 15.2398 15.9961 15.2087C16.0507 15.1664 16.1243 14.7425 16.1667 14.2594C16.2668 13.2344 16.4561 12.7101 16.8791 12.3382C17.6335 11.6585 19.2215 11.5187 20.9852 11.9619L21.6499 12.1259L22.6669 11.5735C23.2244 11.2573 23.7339 10.9676 23.7885 10.9253C23.8576 10.8705 23.9333 10.5309 23.9837 10.0511C24.0733 9.09597 24.2656 8.72125 24.8704 8.31338C26.0141 7.54456 28.1998 7.70804 30.7787 8.75773C32.0121 9.25007 32.2549 9.42486 32.4281 9.96949C32.5494 10.3258 32.5912 11.0756 32.523 11.576C32.4946 11.8238 32.4983 12.0386 32.5379 12.055C32.8537 12.1209 34.6844 12.4249 34.745 12.4129C34.7944 12.4055 34.8291 12.2993 34.8354 12.1721C34.8631 11.2099 36.0885 10.4007 37.5172 10.3991C38.6309 10.3968 39.7432 10.6442 41.2983 11.2327C42.4275 11.6633 42.6979 11.7939 42.8848 11.9919ZM39.3479 11.3521C38.3451 11.1315 37.5647 11.0679 36.9224 11.1635C36.2385 11.2697 35.8456 11.5242 35.6588 11.9754L35.5145 12.3236L36.1635 12.5925C37.0104 12.9433 37.6975 13.098 38.7606 13.1953C40.4454 13.3368 42.3942 13.0869 42.4719 12.7203C42.4855 12.6425 42.4266 12.5161 42.3289 12.4385C42.0721 12.2302 40.1714 11.5356 39.3479 11.3521ZM40.8735 13.8479C39.062 13.9229 37.228 13.6269 35.9892 13.0581L35.2788 12.736L35.2833 13.0161C35.2852 13.2579 35.3242 13.3204 35.6514 13.4931C35.9549 13.6559 36.0051 13.7138 35.9494 13.8483C35.9002 13.967 35.8172 13.9883 35.6128 13.9222C35.3576 13.8443 35.2549 13.913 35.2982 14.1443C35.3156 14.2813 36.6601 14.662 37.5448 14.7874C38.1388 14.8758 38.3142 14.967 38.2356 15.1569C38.1208 15.434 37.113 15.3596 35.9847 14.9943C35.3635 14.7926 35.3286 14.7874 35.3105 14.9654C35.2628 15.4834 35.3624 15.534 37.0378 15.9219C38.6307 16.285 41.0085 16.3426 41.6597 16.0467C42.1093 15.8342 42.565 14.734 42.5907 13.7989L42.5949 13.5873L42.0923 13.7037C41.8163 13.7655 41.2682 13.8352 40.8735 13.8479ZM28.0733 8.68496C27.0574 8.49597 26.0419 8.52972 25.4901 8.76482C25.1478 8.91975 25.0801 8.9937 24.9213 9.35451L24.7508 9.76609L25.5852 10.1024C26.1663 10.3338 26.6483 10.4686 27.1644 10.5433C28.7432 10.7614 31.0166 10.646 31.4963 10.3161C31.7016 10.1786 31.7082 10.1628 31.6037 9.98967C31.4542 9.72374 29.2178 8.89938 28.0733 8.68496ZM43.5868 15.4911L43.06 15.3749L42.9387 15.6677C42.7452 16.1347 42.4276 16.4761 41.978 16.6886C40.997 17.1539 38.0061 17.0092 36.0582 16.4064C35.4495 16.2192 35.3777 16.2358 35.4903 16.5235C35.7083 17.0496 35.5472 18.513 35.1735 19.4153C34.7505 20.4363 34.22 20.7544 32.8653 20.8238C31.2845 20.9016 29.2561 20.627 27.7842 20.1286C27.0601 19.8843 27.0238 19.86 26.9171 19.6025C26.7549 19.2108 26.9817 16.1334 27.2112 15.5793C27.4014 15.1203 27.7959 14.7273 28.2661 14.5326L28.5459 14.4167L28.333 14.3934C27.3812 14.2959 26.0205 14.0661 25.4053 13.8947C24.6457 13.6914 24.5502 13.6982 24.6792 13.9463C24.7771 14.1353 24.7929 15.0598 24.7105 15.6841C24.6689 15.9636 24.5178 16.4852 24.3735 16.8334C23.9276 17.9099 23.4261 18.2029 21.9283 18.2594C20.4272 18.3238 18.8451 18.1136 17.2724 17.6569C16.0881 17.3147 15.9157 17.1042 16.0588 16.199C16.0763 16.0672 16.0668 15.9334 16.045 15.8966C16.0152 15.8565 15.3616 16.2255 14.5889 16.703C13.813 17.1883 13.1364 17.6128 13.0739 17.6518C12.9922 17.6922 13.0984 17.7269 13.432 17.7723C14.6725 17.9338 17.0032 18.7323 17.6005 19.193C17.755 19.3126 17.9446 19.5488 18.0174 19.7088C18.3273 20.3935 18.2255 21.8258 17.7927 22.8705C17.3455 23.9279 16.892 24.1944 15.41 24.2575C13.8977 24.3265 12.3361 24.134 10.8268 23.7036C9.87064 23.4374 9.54205 23.2456 9.4933 22.938C9.46932 22.8167 9.48432 22.1089 9.5269 21.3569C9.56621 20.6128 9.60247 19.988 9.59319 19.9656C9.57465 19.9208 8.04263 20.9554 7.33599 21.4973C6.00626 22.5136 5.25371 23.1663 5.40466 23.1824C5.48573 23.1882 6.1845 23.2922 6.95314 23.4065C9.84183 23.8427 12.1302 24.3177 19.3664 25.989L24.5606 27.1946L24.9982 26.9216C30.386 23.608 41.4588 17.3823 44.3596 16.043L44.8764 15.8027L44.4973 15.7106C44.2863 15.6603 43.8834 15.5583 43.5868 15.4911ZM43.6201 16.9329C35.8329 21.1814 31.2556 23.792 26.5319 26.6666L24.7864 27.724L24.789 28.0311C24.7887 28.1886 24.825 30.4292 24.8653 32.9959C24.9135 35.566 24.9575 38.3476 24.9711 39.1878L24.9908 40.7074L25.5055 40.3827C29.5155 37.8431 39.2265 32.3979 43.7005 30.1709L45.181 29.4396L45.1968 22.7975C45.2017 19.1366 45.1777 16.1501 45.1427 16.1449C45.1045 16.1476 44.4225 16.4956 43.6201 16.9329ZM30.1546 11.2718C28.2555 11.3569 26.8197 11.1516 25.4201 10.5904L24.4512 10.1984L24.4803 10.5535C24.508 10.8895 24.5299 10.9264 24.8702 11.0674C25.1235 11.1723 25.2179 11.2578 25.2214 11.3612C25.2145 11.5346 25.0071 11.5877 24.7538 11.4828C24.6113 11.4238 24.5553 11.447 24.5233 11.5914C24.4815 11.7595 24.5271 11.8062 24.8418 11.9644C25.0489 12.0687 25.6292 12.2349 26.1322 12.3412C27.1765 12.5513 27.4601 12.6502 27.4868 12.8096C27.5356 13.1173 26.6419 13.0809 25.4529 12.7275C24.719 12.507 24.5206 12.4711 24.5162 12.5713C24.517 12.6366 24.4967 12.7302 24.4771 12.7777C24.4377 12.8727 25.3933 13.185 26.3994 13.3977C27.2927 13.5916 29.0572 13.7197 29.9585 13.648C30.8757 13.5828 31.1739 13.4003 31.4493 12.7354C31.6296 12.3001 31.8489 11.2782 31.8135 11.0502C31.8061 11.0008 31.6197 11.0256 31.4057 11.0946C31.1884 11.1715 30.6257 11.2537 30.1546 11.2718ZM33.3664 12.7413L32.3649 12.5398L32.2043 12.9276C31.9649 13.5054 31.629 13.9134 31.1952 14.1324L30.8094 14.325L31.3316 14.43C31.9697 14.546 33.493 15.01 34.142 15.2788C34.4745 15.4165 34.603 15.442 34.6042 15.3497C34.608 15.2957 34.6339 14.7407 34.6748 14.1271C34.73 13.1207 34.7218 13.006 34.5551 12.9833C34.4535 12.9598 33.9202 12.8594 33.3664 12.7413ZM23.137 12.0279C22.8138 12.1814 22.532 12.3244 22.5222 12.3481C22.5091 12.3798 22.7842 12.5216 23.1404 12.6691C23.6232 12.8691 23.7834 12.9076 23.7924 12.8186C23.7884 12.7613 23.8076 12.4911 23.8235 12.2288C23.8473 11.9697 23.8357 11.7516 23.7975 11.7543C23.7672 11.7603 23.4682 11.8776 23.137 12.0279ZM31.0734 15.1205C29.2367 14.7863 28.0267 15.1104 27.8012 15.9906C27.743 16.1984 27.7509 16.2016 28.5806 16.5268C29.8061 17.0158 31.487 17.2113 33.1737 17.0569C34.2839 16.9511 34.9127 16.6645 34.6425 16.3764C34.451 16.1672 31.91 15.2723 31.0734 15.1205ZM34.1693 17.6084C33.477 17.7575 32.8642 17.7818 31.6178 17.7014C30.3761 17.6321 29.3812 17.4148 28.3602 16.9918C27.8932 16.7984 27.5067 16.6569 27.5002 16.6727C27.451 16.7914 27.5548 17.2795 27.6266 17.2629C27.6681 17.2523 27.9866 17.3564 28.3223 17.4862C28.8005 17.675 28.9457 17.7722 29.006 17.9177C29.1325 18.239 28.7998 18.2588 28.1032 17.9703C27.5413 17.7376 27.5334 17.7343 27.5245 17.9346C27.519 18.1271 27.56 18.1626 27.953 18.2883C28.197 18.3708 28.7653 18.4764 29.2293 18.5202C30.2543 18.6202 30.4101 18.759 29.7502 18.9864C29.2965 19.1415 28.6954 19.1151 27.982 18.9123C27.7505 18.8443 27.5474 18.7972 27.5409 18.8131C27.5376 18.821 27.5313 18.9482 27.525 19.0754C27.5156 19.3219 27.5235 19.3252 28.0735 19.4973C30.0517 20.0942 32.8095 20.3092 33.7814 19.9329L34.2193 19.7712L34.5095 18.9362C34.7696 18.2187 34.902 17.541 34.7991 17.4983C34.7833 17.4918 34.4947 17.5392 34.1693 17.6084ZM20.3842 12.5846C18.5112 12.226 17.369 12.4762 17.0149 13.331L16.9002 13.608L17.6679 13.9261C18.8868 14.4309 20.1354 14.5957 21.9566 14.497C23.1777 14.4371 23.7777 14.2869 23.8411 14.0443C23.8646 13.9428 23.8169 13.8117 23.7146 13.723C23.3885 13.4581 21.416 12.7801 20.3842 12.5846ZM23.5209 14.9966C22.9702 15.1394 22.2744 15.185 21.1342 15.1393C19.6329 15.0924 18.9314 14.9502 17.7758 14.4715C17.1948 14.2401 16.7166 14.0513 16.7133 14.0592C16.71 14.0671 16.7023 14.1752 16.7039 14.3057C16.6932 14.5331 16.7216 14.5541 17.2836 14.7869C17.703 14.9606 17.8799 15.071 17.9151 15.1875C18.0086 15.4767 17.728 15.5273 17.2056 15.3109C16.9444 15.2028 16.732 15.1333 16.7255 15.1492C16.6435 15.347 16.7341 15.4866 17.0349 15.6111C17.4385 15.7784 18.6417 16.0078 19.6983 16.1209C20.5882 16.2113 20.8401 16.2971 20.8378 16.4817C20.8389 16.6583 20.6953 16.6915 20.0033 16.6831C19.2158 16.6814 18.0232 16.4935 17.3084 16.2716L16.7268 16.0863L16.7261 16.4013L16.7255 16.7163L17.4449 16.9494C18.7981 17.3987 20.6887 17.6254 22.1442 17.5142C23.1569 17.4423 23.3879 17.2876 23.6934 16.5053C23.8789 16.0351 24.0993 14.9209 24.0122 14.8848C23.9964 14.8783 23.7731 14.9249 23.5209 14.9966ZM14.4561 18.7251C12.3659 18.1746 10.8341 18.4025 10.4571 19.3127C10.3456 19.5818 10.3503 19.593 10.698 19.7834C11.1578 20.0388 12.2043 20.3332 13.0415 20.4388C14.3948 20.6192 16.512 20.5225 17.0545 20.265C17.3409 20.1333 17.3661 19.8934 17.1106 19.7041C16.8519 19.5228 15.2776 18.9356 14.4561 18.7251ZM16.9341 21.0034C16.3037 21.1596 15.8722 21.1941 14.7366 21.1595C13.0923 21.0997 12.4653 20.9791 11.2431 20.4821C10.3059 20.1032 10.1489 20.0567 10.138 20.1727C10.1276 20.2426 10.1282 20.8456 10.1375 21.5171L10.1466 22.7264L10.5759 22.8764C12.6592 23.6002 16.0074 23.8002 16.6778 23.234C16.8626 23.0787 16.9604 22.8874 17.1648 22.3044C17.381 21.6707 17.527 20.9151 17.4399 20.8791C17.432 20.8758 17.1975 20.927 16.9341 21.0034ZM14.3019 25.3656C12.8039 25.0418 10.9441 24.6516 10.1615 24.5037C8.88055 24.2605 5.20603 23.6843 5.13095 23.7089C5.11976 23.7135 5.18911 24.4192 5.2838 25.2651C5.3864 26.1144 5.70203 28.9343 5.98225 31.5263C6.27039 34.1215 6.51746 36.301 6.53408 36.3728C6.56949 36.6007 12.7658 38.3421 17.5902 39.478C19.5906 39.9542 24.3145 40.9744 24.3784 40.9545C24.4008 40.9452 24.3629 37.9251 24.3077 34.2301L24.1922 27.5243L20.6108 26.7455C18.6369 26.3174 15.7966 25.6972 14.3019 25.3656Z" fill="#F38189"/>
<path d="M42.8848 11.9919C43.0057 12.1254 43.1651 12.3676 43.2379 12.5276C43.3802 12.8555 43.3866 14.0265 43.2508 14.6008L43.1652 14.9641L43.7105 15.1251C44.0053 15.2194 44.5315 15.3817 44.8659 15.4924L45.4792 15.6908L45.4645 16.2411C45.4515 16.653 45.476 26.7799 45.4991 29.321L45.5083 29.6123L43.8699 30.5008C38.5175 33.3931 29.3656 38.6527 25.5806 41.0073C24.9185 41.4193 24.717 41.5027 24.5139 41.4557C24.3728 41.4158 23.4524 41.22 22.4668 41.025C18.1372 40.1497 13.3167 38.9597 8.2875 37.5349C7.30763 37.2588 6.40884 36.9886 6.29012 36.9394C6.09224 36.8574 6.03206 36.443 5.35942 30.545C4.47941 22.8641 4.51256 23.2765 4.68294 23.1338C4.75531 23.0711 5.09799 22.7587 5.44069 22.4462C6.33195 21.6377 7.4307 20.7761 8.69486 19.9181C9.54047 19.3318 9.79769 19.1137 9.88948 18.8921C10.1354 18.2985 10.9687 17.8091 11.8621 17.7341C12.0565 17.7126 12.2528 17.6641 12.3027 17.6106C12.3527 17.5571 13.1786 17.0183 14.1408 16.3968C15.1076 15.7865 15.9368 15.2398 15.9961 15.2087C16.0507 15.1664 16.1243 14.7425 16.1667 14.2594C16.2668 13.2344 16.4561 12.7101 16.8791 12.3382C17.6335 11.6585 19.2215 11.5187 20.9852 11.9619L21.6499 12.1259L22.6669 11.5735C23.2244 11.2573 23.7339 10.9676 23.7885 10.9253C23.8576 10.8705 23.9333 10.5309 23.9837 10.0511C24.0733 9.09597 24.2656 8.72125 24.8704 8.31338C26.0141 7.54456 28.1998 7.70804 30.7787 8.75773C32.0121 9.25007 32.2549 9.42486 32.4281 9.96949C32.5494 10.3258 32.5912 11.0756 32.523 11.576C32.4946 11.8238 32.4983 12.0386 32.5379 12.055C32.8537 12.1209 34.6844 12.4249 34.745 12.4129C34.7944 12.4055 34.8291 12.2993 34.8354 12.1721C34.8631 11.2099 36.0885 10.4007 37.5172 10.3991C38.6309 10.3968 39.7432 10.6442 41.2983 11.2327C42.4275 11.6633 42.6979 11.7939 42.8848 11.9919ZM39.3479 11.3521C38.3451 11.1315 37.5647 11.0679 36.9224 11.1635C36.2385 11.2697 35.8456 11.5242 35.6588 11.9754L35.5145 12.3236L36.1635 12.5925C37.0104 12.9433 37.6975 13.098 38.7606 13.1953C40.4454 13.3368 42.3942 13.0869 42.4719 12.7203C42.4855 12.6425 42.4266 12.5161 42.3289 12.4385C42.0721 12.2302 40.1714 11.5356 39.3479 11.3521ZM40.8735 13.8479C39.062 13.9229 37.228 13.6269 35.9892 13.0581L35.2788 12.736L35.2833 13.0161C35.2852 13.2579 35.3242 13.3204 35.6514 13.4931C35.9549 13.6559 36.0051 13.7138 35.9494 13.8483C35.9002 13.967 35.8172 13.9883 35.6128 13.9222C35.3576 13.8443 35.2549 13.913 35.2982 14.1443C35.3156 14.2813 36.6601 14.662 37.5448 14.7874C38.1388 14.8758 38.3142 14.967 38.2356 15.1569C38.1208 15.434 37.113 15.3596 35.9847 14.9943C35.3635 14.7926 35.3286 14.7874 35.3105 14.9654C35.2628 15.4834 35.3624 15.534 37.0378 15.9219C38.6307 16.285 41.0085 16.3426 41.6597 16.0467C42.1093 15.8342 42.565 14.734 42.5907 13.7989L42.5949 13.5873L42.0923 13.7037C41.8163 13.7655 41.2682 13.8352 40.8735 13.8479ZM28.0733 8.68496C27.0574 8.49597 26.0419 8.52972 25.4901 8.76482C25.1478 8.91975 25.0801 8.9937 24.9213 9.35451L24.7508 9.76609L25.5852 10.1024C26.1663 10.3338 26.6483 10.4686 27.1644 10.5433C28.7432 10.7614 31.0166 10.646 31.4963 10.3161C31.7016 10.1786 31.7082 10.1628 31.6037 9.98967C31.4542 9.72374 29.2178 8.89938 28.0733 8.68496ZM43.5868 15.4911L43.06 15.3749L42.9387 15.6677C42.7452 16.1347 42.4276 16.4761 41.978 16.6886C40.997 17.1539 38.0061 17.0092 36.0582 16.4064C35.4495 16.2192 35.3777 16.2358 35.4903 16.5235C35.7083 17.0496 35.5472 18.513 35.1735 19.4153C34.7505 20.4363 34.22 20.7544 32.8653 20.8238C31.2845 20.9016 29.2561 20.627 27.7842 20.1286C27.0601 19.8843 27.0238 19.86 26.9171 19.6025C26.7549 19.2108 26.9817 16.1334 27.2112 15.5793C27.4014 15.1203 27.7959 14.7273 28.2661 14.5326L28.5459 14.4167L28.333 14.3934C27.3812 14.2959 26.0205 14.0661 25.4053 13.8947C24.6457 13.6914 24.5502 13.6982 24.6792 13.9463C24.7771 14.1353 24.7929 15.0598 24.7105 15.6841C24.6689 15.9636 24.5178 16.4852 24.3735 16.8334C23.9276 17.9099 23.4261 18.2029 21.9283 18.2594C20.4272 18.3238 18.8451 18.1136 17.2724 17.6569C16.0881 17.3147 15.9157 17.1042 16.0588 16.199C16.0763 16.0672 16.0668 15.9334 16.045 15.8966C16.0152 15.8565 15.3616 16.2255 14.5889 16.703C13.813 17.1883 13.1364 17.6128 13.0739 17.6518C12.9922 17.6922 13.0984 17.7269 13.432 17.7723C14.6725 17.9338 17.0032 18.7323 17.6005 19.193C17.755 19.3126 17.9446 19.5488 18.0174 19.7088C18.3273 20.3935 18.2255 21.8258 17.7927 22.8705C17.3455 23.9279 16.892 24.1944 15.41 24.2575C13.8977 24.3265 12.3361 24.134 10.8268 23.7036C9.87064 23.4374 9.54205 23.2456 9.4933 22.938C9.46932 22.8167 9.48432 22.1089 9.5269 21.3569C9.56621 20.6128 9.60247 19.988 9.59319 19.9656C9.57465 19.9208 8.04263 20.9554 7.33599 21.4973C6.00626 22.5136 5.25371 23.1663 5.40466 23.1824C5.48573 23.1882 6.1845 23.2922 6.95314 23.4065C9.84183 23.8427 12.1302 24.3177 19.3664 25.989L24.5606 27.1946L24.9982 26.9216C30.386 23.608 41.4588 17.3823 44.3596 16.043L44.8764 15.8027L44.4973 15.7106C44.2863 15.6603 43.8834 15.5583 43.5868 15.4911ZM43.6201 16.9329C35.8329 21.1814 31.2556 23.792 26.5319 26.6666L24.7864 27.724L24.789 28.0311C24.7887 28.1886 24.825 30.4292 24.8653 32.9959C24.9135 35.566 24.9575 38.3476 24.9711 39.1878L24.9908 40.7074L25.5055 40.3827C29.5155 37.8431 39.2265 32.3979 43.7005 30.1709L45.181 29.4396L45.1968 22.7975C45.2017 19.1366 45.1777 16.1501 45.1427 16.1449C45.1045 16.1476 44.4225 16.4956 43.6201 16.9329ZM30.1546 11.2718C28.2555 11.3569 26.8197 11.1516 25.4201 10.5904L24.4512 10.1984L24.4803 10.5535C24.508 10.8895 24.5299 10.9264 24.8702 11.0674C25.1235 11.1723 25.2179 11.2578 25.2214 11.3612C25.2145 11.5346 25.0071 11.5877 24.7538 11.4828C24.6113 11.4238 24.5553 11.447 24.5233 11.5914C24.4815 11.7595 24.5271 11.8062 24.8418 11.9644C25.0489 12.0687 25.6292 12.2349 26.1322 12.3412C27.1765 12.5513 27.4601 12.6502 27.4868 12.8096C27.5356 13.1173 26.6419 13.0809 25.4529 12.7275C24.719 12.507 24.5206 12.4711 24.5162 12.5713C24.517 12.6366 24.4967 12.7302 24.4771 12.7777C24.4377 12.8727 25.3933 13.185 26.3994 13.3977C27.2927 13.5916 29.0572 13.7197 29.9585 13.648C30.8757 13.5828 31.1739 13.4003 31.4493 12.7354C31.6296 12.3001 31.8489 11.2782 31.8135 11.0502C31.8061 11.0008 31.6197 11.0256 31.4057 11.0946C31.1884 11.1715 30.6257 11.2537 30.1546 11.2718ZM33.3664 12.7413L32.3649 12.5398L32.2043 12.9276C31.9649 13.5054 31.629 13.9134 31.1952 14.1324L30.8094 14.325L31.3316 14.43C31.9697 14.546 33.493 15.01 34.142 15.2788C34.4745 15.4165 34.603 15.442 34.6042 15.3497C34.608 15.2957 34.6339 14.7407 34.6748 14.1271C34.73 13.1207 34.7218 13.006 34.5551 12.9833C34.4535 12.9598 33.9202 12.8594 33.3664 12.7413ZM23.137 12.0279C22.8138 12.1814 22.532 12.3244 22.5222 12.3481C22.5091 12.3798 22.7842 12.5216 23.1404 12.6691C23.6232 12.8691 23.7834 12.9076 23.7924 12.8186C23.7884 12.7613 23.8076 12.4911 23.8235 12.2288C23.8473 11.9697 23.8357 11.7516 23.7975 11.7543C23.7672 11.7603 23.4682 11.8776 23.137 12.0279ZM31.0734 15.1205C29.2367 14.7863 28.0267 15.1104 27.8012 15.9906C27.743 16.1984 27.7509 16.2016 28.5806 16.5268C29.8061 17.0158 31.487 17.2113 33.1737 17.0569C34.2839 16.9511 34.9127 16.6645 34.6425 16.3764C34.451 16.1672 31.91 15.2723 31.0734 15.1205ZM34.1693 17.6084C33.477 17.7575 32.8642 17.7818 31.6178 17.7014C30.3761 17.6321 29.3812 17.4148 28.3602 16.9918C27.8932 16.7984 27.5067 16.6569 27.5002 16.6727C27.451 16.7914 27.5548 17.2795 27.6266 17.2629C27.6681 17.2523 27.9866 17.3564 28.3223 17.4862C28.8005 17.675 28.9457 17.7722 29.006 17.9177C29.1325 18.239 28.7998 18.2588 28.1032 17.9703C27.5413 17.7376 27.5334 17.7343 27.5245 17.9346C27.519 18.1271 27.56 18.1626 27.953 18.2883C28.197 18.3708 28.7653 18.4764 29.2293 18.5202C30.2543 18.6202 30.4101 18.759 29.7502 18.9864C29.2965 19.1415 28.6954 19.1151 27.982 18.9123C27.7505 18.8443 27.5474 18.7972 27.5409 18.8131C27.5376 18.821 27.5313 18.9482 27.525 19.0754C27.5156 19.3219 27.5235 19.3252 28.0735 19.4973C30.0517 20.0942 32.8095 20.3092 33.7814 19.9329L34.2193 19.7712L34.5095 18.9362C34.7696 18.2187 34.902 17.541 34.7991 17.4983C34.7833 17.4918 34.4947 17.5392 34.1693 17.6084ZM20.3842 12.5846C18.5112 12.226 17.369 12.4762 17.0149 13.331L16.9002 13.608L17.6679 13.9261C18.8868 14.4309 20.1354 14.5957 21.9566 14.497C23.1777 14.4371 23.7777 14.2869 23.8411 14.0443C23.8646 13.9428 23.8169 13.8117 23.7146 13.723C23.3885 13.4581 21.416 12.7801 20.3842 12.5846ZM23.5209 14.9966C22.9702 15.1394 22.2744 15.185 21.1342 15.1393C19.6329 15.0924 18.9314 14.9502 17.7758 14.4715C17.1948 14.2401 16.7166 14.0513 16.7133 14.0592C16.71 14.0671 16.7023 14.1752 16.7039 14.3057C16.6932 14.5331 16.7216 14.5541 17.2836 14.7869C17.703 14.9606 17.8799 15.071 17.9151 15.1875C18.0086 15.4767 17.728 15.5273 17.2056 15.3109C16.9444 15.2028 16.732 15.1333 16.7255 15.1492C16.6435 15.347 16.7341 15.4866 17.0349 15.6111C17.4385 15.7784 18.6417 16.0078 19.6983 16.1209C20.5882 16.2113 20.8401 16.2971 20.8378 16.4817C20.8389 16.6583 20.6953 16.6915 20.0033 16.6831C19.2158 16.6814 18.0232 16.4935 17.3084 16.2716L16.7268 16.0863L16.7261 16.4013L16.7255 16.7163L17.4449 16.9494C18.7981 17.3987 20.6887 17.6254 22.1442 17.5142C23.1569 17.4423 23.3879 17.2876 23.6934 16.5053C23.8789 16.0351 24.0993 14.9209 24.0122 14.8848C23.9964 14.8783 23.7731 14.9249 23.5209 14.9966ZM14.4561 18.7251C12.3659 18.1746 10.8341 18.4025 10.4571 19.3127C10.3456 19.5818 10.3503 19.593 10.698 19.7834C11.1578 20.0388 12.2043 20.3332 13.0415 20.4388C14.3948 20.6192 16.512 20.5225 17.0545 20.265C17.3409 20.1333 17.3661 19.8934 17.1106 19.7041C16.8519 19.5228 15.2776 18.9356 14.4561 18.7251ZM16.9341 21.0034C16.3037 21.1596 15.8722 21.1941 14.7366 21.1595C13.0923 21.0997 12.4653 20.9791 11.2431 20.4821C10.3059 20.1032 10.1489 20.0567 10.138 20.1727C10.1276 20.2426 10.1282 20.8456 10.1375 21.5171L10.1466 22.7264L10.5759 22.8764C12.6592 23.6002 16.0074 23.8002 16.6778 23.234C16.8626 23.0787 16.9604 22.8874 17.1648 22.3044C17.381 21.6707 17.527 20.9151 17.4399 20.8791C17.432 20.8758 17.1975 20.927 16.9341 21.0034ZM14.3019 25.3656C12.8039 25.0418 10.9441 24.6516 10.1615 24.5037C8.88055 24.2605 5.20603 23.6843 5.13095 23.7089C5.11976 23.7135 5.18911 24.4192 5.2838 25.2651C5.3864 26.1144 5.70203 28.9343 5.98225 31.5263C6.27039 34.1215 6.51746 36.301 6.53408 36.3728C6.56949 36.6007 12.7658 38.3421 17.5902 39.478C19.5906 39.9542 24.3145 40.9744 24.3784 40.9545C24.4008 40.9452 24.3629 37.9251 24.3077 34.2301L24.1922 27.5243L20.6108 26.7455C18.6369 26.3174 15.7966 25.6972 14.3019 25.3656Z" fill="#F38189"/>
<path d="M27.7527 20.876C28.0731 21.222 28.1494 21.4854 28.174 22.2096C28.1928 23.0149 28.0834 23.6372 27.7785 24.3733C27.349 25.4102 26.8521 25.7143 25.4433 25.7799C23.9119 25.8503 22.2725 25.6442 20.6174 25.1626C19.6836 24.8871 19.4724 24.7254 19.451 24.2622C19.4147 23.5888 19.6633 20.8171 19.7879 20.5163C20.1846 19.5586 21.4377 19.0855 23.1363 19.2605C24.657 19.4175 27.2409 20.3208 27.7527 20.876ZM24.9602 20.3869C23.8774 20.0682 22.8246 19.9011 22.105 19.9368C21.1944 19.9862 20.4763 20.4213 20.4011 20.9836C20.3783 21.1504 20.4272 21.1892 21.0446 21.4449C22.2318 21.9367 23.6233 22.1143 25.4367 22.0123C26.4923 21.9488 27.311 21.7409 27.3264 21.5247C27.3391 21.2703 26.3522 20.7873 24.9602 20.3869ZM26.7203 22.5626C26.138 22.6923 25.4791 22.7161 24.1675 22.6364C22.813 22.5483 21.6816 22.3022 20.799 21.881C20.4098 21.7012 20.0899 21.578 20.0768 21.6097C20.0637 21.6413 20.0877 21.7625 20.1229 21.8791C20.1826 22.0708 20.3277 22.168 21.0805 22.5447C21.8332 22.9214 21.9546 23.0088 21.9292 23.1374C21.9122 23.2231 21.8208 23.2872 21.6856 23.2776C21.517 23.2819 21.5737 23.3239 21.9615 23.4846C22.2986 23.6335 22.4643 23.7485 22.5232 23.8749C22.5894 24.0507 22.5829 24.0665 22.415 24.1361C22.2695 24.1963 22.0538 24.1348 21.1865 23.7663L20.1371 23.3223L20.1314 23.7836L20.1337 24.2482L20.8295 24.4715C22.1748 24.9175 24.0732 25.1475 25.5208 25.0331C26.5909 24.957 26.7593 24.8413 27.0924 24.0149C27.3172 23.4497 27.3774 23.2149 27.4287 22.5314C27.4462 22.3996 27.408 22.4023 26.7203 22.5626Z" fill="#F38189"/>
<path d="M27.7527 20.876C28.0731 21.222 28.1494 21.4854 28.174 22.2096C28.1928 23.0149 28.0834 23.6372 27.7785 24.3733C27.349 25.4102 26.8521 25.7143 25.4433 25.7799C23.9119 25.8503 22.2725 25.6442 20.6174 25.1626C19.6836 24.8871 19.4724 24.7254 19.451 24.2622C19.4147 23.5888 19.6633 20.8171 19.7879 20.5163C20.1846 19.5586 21.4377 19.0855 23.1363 19.2605C24.657 19.4175 27.2409 20.3208 27.7527 20.876ZM24.9602 20.3869C23.8774 20.0682 22.8246 19.9011 22.105 19.9368C21.1944 19.9862 20.4763 20.4213 20.4011 20.9836C20.3783 21.1504 20.4272 21.1892 21.0446 21.4449C22.2318 21.9367 23.6233 22.1143 25.4367 22.0123C26.4923 21.9488 27.311 21.7409 27.3264 21.5247C27.3391 21.2703 26.3522 20.7873 24.9602 20.3869ZM26.7203 22.5626C26.138 22.6923 25.4791 22.7161 24.1675 22.6364C22.813 22.5483 21.6816 22.3022 20.799 21.881C20.4098 21.7012 20.0899 21.578 20.0768 21.6097C20.0637 21.6413 20.0877 21.7625 20.1229 21.8791C20.1826 22.0708 20.3277 22.168 21.0805 22.5447C21.8332 22.9214 21.9546 23.0088 21.9292 23.1374C21.9122 23.2231 21.8208 23.2872 21.6856 23.2776C21.517 23.2819 21.5737 23.3239 21.9615 23.4846C22.2986 23.6335 22.4643 23.7485 22.5232 23.8749C22.5894 24.0507 22.5829 24.0665 22.415 24.1361C22.2695 24.1963 22.0538 24.1348 21.1865 23.7663L20.1371 23.3223L20.1314 23.7836L20.1337 24.2482L20.8295 24.4715C22.1748 24.9175 24.0732 25.1475 25.5208 25.0331C26.5909 24.957 26.7593 24.8413 27.0924 24.0149C27.3172 23.4497 27.3774 23.2149 27.4287 22.5314C27.4462 22.3996 27.408 22.4023 26.7203 22.5626Z" fill="#F38189"/>
<path d="M27.7527 20.876C28.0731 21.222 28.1494 21.4854 28.174 22.2096C28.1928 23.0149 28.0834 23.6372 27.7785 24.3733C27.349 25.4102 26.8521 25.7143 25.4433 25.7799C23.9119 25.8503 22.2725 25.6442 20.6174 25.1626C19.6836 24.8871 19.4724 24.7254 19.451 24.2622C19.4147 23.5888 19.6633 20.8171 19.7879 20.5163C20.1846 19.5586 21.4377 19.0855 23.1363 19.2605C24.657 19.4175 27.2409 20.3208 27.7527 20.876ZM24.9602 20.3869C23.8774 20.0682 22.8246 19.9011 22.105 19.9368C21.1944 19.9862 20.4763 20.4213 20.4011 20.9836C20.3783 21.1504 20.4272 21.1892 21.0446 21.4449C22.2318 21.9367 23.6233 22.1143 25.4367 22.0123C26.4923 21.9488 27.311 21.7409 27.3264 21.5247C27.3391 21.2703 26.3522 20.7873 24.9602 20.3869ZM26.7203 22.5626C26.138 22.6923 25.4791 22.7161 24.1675 22.6364C22.813 22.5483 21.6816 22.3022 20.799 21.881C20.4098 21.7012 20.0899 21.578 20.0768 21.6097C20.0637 21.6413 20.0877 21.7625 20.1229 21.8791C20.1826 22.0708 20.3277 22.168 21.0805 22.5447C21.8332 22.9214 21.9546 23.0088 21.9292 23.1374C21.9122 23.2231 21.8208 23.2872 21.6856 23.2776C21.517 23.2819 21.5737 23.3239 21.9615 23.4846C22.2986 23.6335 22.4643 23.7485 22.5232 23.8749C22.5894 24.0507 22.5829 24.0665 22.415 24.1361C22.2695 24.1963 22.0538 24.1348 21.1865 23.7663L20.1371 23.3223L20.1314 23.7836L20.1337 24.2482L20.8295 24.4715C22.1748 24.9175 24.0732 25.1475 25.5208 25.0331C26.5909 24.957 26.7593 24.8413 27.0924 24.0149C27.3172 23.4497 27.3774 23.2149 27.4287 22.5314C27.4462 22.3996 27.408 22.4023 26.7203 22.5626Z" fill="#F38189"/>
<path d="M25.1813 23.3902C25.119 23.5405 24.7499 23.536 24.3858 23.3852C24.0376 23.241 24.0933 23.1064 24.5118 23.1036C24.9381 23.104 25.2436 23.2398 25.1813 23.3902Z" fill="#F38189"/>
<path d="M25.1813 23.3902C25.119 23.5405 24.7499 23.536 24.3858 23.3852C24.0376 23.241 24.0933 23.1064 24.5118 23.1036C24.9381 23.104 25.2436 23.2398 25.1813 23.3902Z" fill="#F38189"/>
<path d="M25.1813 23.3902C25.119 23.5405 24.7499 23.536 24.3858 23.3852C24.0376 23.241 24.0933 23.1064 24.5118 23.1036C24.9381 23.104 25.2436 23.2398 25.1813 23.3902Z" fill="#F38189"/>
<path d="M25.3508 24.1003C25.1474 24.2107 24.4573 24.1753 24.2488 24.0518C24.1036 23.9546 24.1596 23.9314 24.6196 23.9179C25.2357 23.8857 25.5845 23.9838 25.3508 24.1003Z" fill="#F38189"/>
<path d="M25.3508 24.1003C25.1474 24.2107 24.4573 24.1753 24.2488 24.0518C24.1036 23.9546 24.1596 23.9314 24.6196 23.9179C25.2357 23.8857 25.5845 23.9838 25.3508 24.1003Z" fill="#F38189"/>
<path d="M25.3508 24.1003C25.1474 24.2107 24.4573 24.1753 24.2488 24.0518C24.1036 23.9546 24.1596 23.9314 24.6196 23.9179C25.2357 23.8857 25.5845 23.9838 25.3508 24.1003Z" fill="#F38189"/>
<path d="M43.3713 20.8914C43.3319 20.9864 38.1745 23.162 37.6989 23.2803C37.4275 23.3534 37.2772 23.2911 37.3362 23.1486C37.4083 22.9745 39.8832 21.8576 41.5933 21.2213C42.9821 20.7116 43.486 20.6144 43.3713 20.8914Z" fill="#F38189"/>
<path d="M43.3713 20.8914C43.3319 20.9864 38.1745 23.162 37.6989 23.2803C37.4275 23.3534 37.2772 23.2911 37.3362 23.1486C37.4083 22.9745 39.8832 21.8576 41.5933 21.2213C42.9821 20.7116 43.486 20.6144 43.3713 20.8914Z" fill="#F38189"/>
<path d="M43.3713 20.8914C43.3319 20.9864 38.1745 23.162 37.6989 23.2803C37.4275 23.3534 37.2772 23.2911 37.3362 23.1486C37.4083 22.9745 39.8832 21.8576 41.5933 21.2213C42.9821 20.7116 43.486 20.6144 43.3713 20.8914Z" fill="#F38189"/>
<path d="M44.3172 24.4732C44.3477 24.5786 44.3925 25.2091 44.4098 25.8839C44.4303 26.5508 44.4597 27.3976 44.4823 27.7685C44.5134 28.4769 44.4377 28.8165 44.2556 28.7411C44.0656 28.6624 43.9643 28.1011 43.8824 26.7319C43.7958 25.3514 43.8333 24.3655 43.9681 24.2637C44.0886 24.1745 44.2449 24.2671 44.3172 24.4732Z" fill="#F38189"/>
<path d="M44.3172 24.4732C44.3477 24.5786 44.3925 25.2091 44.4098 25.8839C44.4303 26.5508 44.4597 27.3976 44.4823 27.7685C44.5134 28.4769 44.4377 28.8165 44.2556 28.7411C44.0656 28.6624 43.9643 28.1011 43.8824 26.7319C43.7958 25.3514 43.8333 24.3655 43.9681 24.2637C44.0886 24.1745 44.2449 24.2671 44.3172 24.4732Z" fill="#F38189"/>
<path d="M44.3172 24.4732C44.3477 24.5786 44.3925 25.2091 44.4098 25.8839C44.4303 26.5508 44.4597 27.3976 44.4823 27.7685C44.5134 28.4769 44.4377 28.8165 44.2556 28.7411C44.0656 28.6624 43.9643 28.1011 43.8824 26.7319C43.7958 25.3514 43.8333 24.3655 43.9681 24.2637C44.0886 24.1745 44.2449 24.2671 44.3172 24.4732Z" fill="#F38189"/>
<path d="M37.3467 21.8919C37.3541 21.9413 37.2891 22.0534 37.1943 22.1255C36.5772 22.6303 27.2829 27.8308 26.9837 27.8367C26.9264 27.8408 26.8603 27.7763 26.8358 27.7013C26.7973 27.5926 26.9565 27.4545 27.4936 27.1206C28.3656 26.5824 32.5763 24.1629 34.524 23.0873C37.0372 21.6988 37.298 21.5842 37.3467 21.8919Z" fill="#F38189"/>
<path d="M37.3467 21.8919C37.3541 21.9413 37.2891 22.0534 37.1943 22.1255C36.5772 22.6303 27.2829 27.8308 26.9837 27.8367C26.9264 27.8408 26.8603 27.7763 26.8358 27.7013C26.7973 27.5926 26.9565 27.4545 27.4936 27.1206C28.3656 26.5824 32.5763 24.1629 34.524 23.0873C37.0372 21.6988 37.298 21.5842 37.3467 21.8919Z" fill="#F38189"/>
<path d="M37.3467 21.8919C37.3541 21.9413 37.2891 22.0534 37.1943 22.1255C36.5772 22.6303 27.2829 27.8308 26.9837 27.8367C26.9264 27.8408 26.8603 27.7763 26.8358 27.7013C26.7973 27.5926 26.9565 27.4545 27.4936 27.1206C28.3656 26.5824 32.5763 24.1629 34.524 23.0873C37.0372 21.6988 37.298 21.5842 37.3467 21.8919Z" fill="#F38189"/>
<path d="M43.3467 25.5177C43.5086 26.067 43.6797 27.8255 43.5705 27.9101C43.4132 28.0211 43.2672 27.8587 43.2455 27.5529C43.23 27.3889 43.1437 26.7689 43.0601 26.1872C42.9078 25.2339 42.9336 24.9479 43.1394 25.0331C43.179 25.0495 43.2671 25.2622 43.3467 25.5177Z" fill="#F38189"/>
<path d="M43.3467 25.5177C43.5086 26.067 43.6797 27.8255 43.5705 27.9101C43.4132 28.0211 43.2672 27.8587 43.2455 27.5529C43.23 27.3889 43.1437 26.7689 43.0601 26.1872C42.9078 25.2339 42.9336 24.9479 43.1394 25.0331C43.179 25.0495 43.2671 25.2622 43.3467 25.5177Z" fill="#F38189"/>
<path d="M43.3467 25.5177C43.5086 26.067 43.6797 27.8255 43.5705 27.9101C43.4132 28.0211 43.2672 27.8587 43.2455 27.5529C43.23 27.3889 43.1437 26.7689 43.0601 26.1872C42.9078 25.2339 42.9336 24.9479 43.1394 25.0331C43.179 25.0495 43.2671 25.2622 43.3467 25.5177Z" fill="#F38189"/>
<path d="M15.0927 22.225C15.1647 22.3198 15.1418 22.3752 15.0358 22.4518C14.4949 22.8398 12.8471 22.6765 11.4191 22.0943C10.8334 21.8517 10.6631 21.7255 10.7254 21.5751C10.7844 21.4327 10.9321 21.4567 11.8691 21.7243C12.7903 21.9853 13.6987 22.1205 14.4499 22.0979C14.7491 22.092 14.9909 22.0901 14.9988 22.0934C14.9988 22.0934 15.0458 22.1592 15.0927 22.225Z" fill="#F38189"/>
<path d="M15.0927 22.225C15.1647 22.3198 15.1418 22.3752 15.0358 22.4518C14.4949 22.8398 12.8471 22.6765 11.4191 22.0943C10.8334 21.8517 10.6631 21.7255 10.7254 21.5751C10.7844 21.4327 10.9321 21.4567 11.8691 21.7243C12.7903 21.9853 13.6987 22.1205 14.4499 22.0979C14.7491 22.092 14.9909 22.0901 14.9988 22.0934C14.9988 22.0934 15.0458 22.1592 15.0927 22.225Z" fill="#F38189"/>
<path d="M15.0927 22.225C15.1647 22.3198 15.1418 22.3752 15.0358 22.4518C14.4949 22.8398 12.8471 22.6765 11.4191 22.0943C10.8334 21.8517 10.6631 21.7255 10.7254 21.5751C10.7844 21.4327 10.9321 21.4567 11.8691 21.7243C12.7903 21.9853 13.6987 22.1205 14.4499 22.0979C14.7491 22.092 14.9909 22.0901 14.9988 22.0934C14.9988 22.0934 15.0458 22.1592 15.0927 22.225Z" fill="#F38189"/>
<path d="M21.6689 29.4742C21.8936 30.0959 22.1088 38.1505 21.9089 38.3644C21.7413 38.5453 21.6458 38.2832 21.5907 37.4537C21.4443 35.5013 21.2122 31.0469 21.2073 30.2752C21.2021 29.661 21.2385 29.4165 21.3365 29.3365C21.5069 29.1938 21.586 29.2266 21.6689 29.4742Z" fill="#F38189"/>
<path d="M21.6689 29.4742C21.8936 30.0959 22.1088 38.1505 21.9089 38.3644C21.7413 38.5453 21.6458 38.2832 21.5907 37.4537C21.4443 35.5013 21.2122 31.0469 21.2073 30.2752C21.2021 29.661 21.2385 29.4165 21.3365 29.3365C21.5069 29.1938 21.586 29.2266 21.6689 29.4742Z" fill="#F38189"/>
<path d="M21.6689 29.4742C21.8936 30.0959 22.1088 38.1505 21.9089 38.3644C21.7413 38.5453 21.6458 38.2832 21.5907 37.4537C21.4443 35.5013 21.2122 31.0469 21.2073 30.2752C21.2021 29.661 21.2385 29.4165 21.3365 29.3365C21.5069 29.1938 21.586 29.2266 21.6689 29.4742Z" fill="#F38189"/>
<path d="M23.2519 32.3462C23.4025 32.7887 23.4349 35.0833 23.2962 35.2391C23.2495 35.2847 23.1665 35.306 23.1032 35.2797C22.9607 35.2207 22.7319 32.3255 22.8641 32.1855C22.9996 32.0376 23.1737 32.1098 23.2519 32.3462Z" fill="#F38189"/>
<path d="M23.2519 32.3462C23.4025 32.7887 23.4349 35.0833 23.2962 35.2391C23.2495 35.2847 23.1665 35.306 23.1032 35.2797C22.9607 35.2207 22.7319 32.3255 22.8641 32.1855C22.9996 32.0376 23.1737 32.1098 23.2519 32.3462Z" fill="#F38189"/>
<path d="M23.2519 32.3462C23.4025 32.7887 23.4349 35.0833 23.2962 35.2391C23.2495 35.2847 23.1665 35.306 23.1032 35.2797C22.9607 35.2207 22.7319 32.3255 22.8641 32.1855C22.9996 32.0376 23.1737 32.1098 23.2519 32.3462Z" fill="#F38189"/>
<path d="M12.7472 33.8647C12.9328 34.0436 12.8667 34.248 12.615 34.2736C12.4127 34.2918 11.6984 34.0238 11.5333 33.8627C11.4059 33.745 11.4819 33.5168 11.6722 33.438C11.8289 33.3731 12.5287 33.6537 12.7472 33.8647Z" fill="#F38189"/>
<path d="M12.7472 33.8647C12.9328 34.0436 12.8667 34.248 12.615 34.2736C12.4127 34.2918 11.6984 34.0238 11.5333 33.8627C11.4059 33.745 11.4819 33.5168 11.6722 33.438C11.8289 33.3731 12.5287 33.6537 12.7472 33.8647Z" fill="#F38189"/>
<path d="M12.7472 33.8647C12.9328 34.0436 12.8667 34.248 12.615 34.2736C12.4127 34.2918 11.6984 34.0238 11.5333 33.8627C11.4059 33.745 11.4819 33.5168 11.6722 33.438C11.8289 33.3731 12.5287 33.6537 12.7472 33.8647Z" fill="#F38189"/>
<path d="M14.2201 35.4578C14.4346 35.6116 14.503 35.8717 14.3463 35.9366C14.2792 35.9645 13.7622 35.8245 13.1839 35.6313C10.5268 34.7254 9.17089 34.238 9.11604 34.1689C9.01755 34.0261 9.15956 33.8624 9.36319 33.8633C9.99457 33.8837 13.7311 35.1161 14.2201 35.4578Z" fill="#F38189"/>
<path d="M14.2201 35.4578C14.4346 35.6116 14.503 35.8717 14.3463 35.9366C14.2792 35.9645 13.7622 35.8245 13.1839 35.6313C10.5268 34.7254 9.17089 34.238 9.11604 34.1689C9.01755 34.0261 9.15956 33.8624 9.36319 33.8633C9.99457 33.8837 13.7311 35.1161 14.2201 35.4578Z" fill="#F38189"/>
<path d="M14.2201 35.4578C14.4346 35.6116 14.503 35.8717 14.3463 35.9366C14.2792 35.9645 13.7622 35.8245 13.1839 35.6313C10.5268 34.7254 9.17089 34.238 9.11604 34.1689C9.01755 34.0261 9.15956 33.8624 9.36319 33.8633C9.99457 33.8837 13.7311 35.1161 14.2201 35.4578Z" fill="#F38189"/>
<path d="M17.4561 38.0778C17.4536 38.151 17.3938 38.2282 17.3187 38.2528C17.0632 38.3324 12.329 36.8443 9.20556 35.6989C8.04942 35.2664 7.87065 35.1831 7.90999 35.0881C7.94606 35.001 8.15105 35.021 8.72669 35.176C9.1533 35.2878 9.58783 35.4029 9.69265 35.4185C10.0164 35.4877 13.1533 36.4439 14.7379 36.9612C16.7394 37.6141 17.4597 37.9124 17.4561 38.0778Z" fill="#F38189"/>
<path d="M17.4561 38.0778C17.4536 38.151 17.3938 38.2282 17.3187 38.2528C17.0632 38.3324 12.329 36.8443 9.20556 35.6989C8.04942 35.2664 7.87065 35.1831 7.90999 35.0881C7.94606 35.001 8.15105 35.021 8.72669 35.176C9.1533 35.2878 9.58783 35.4029 9.69265 35.4185C10.0164 35.4877 13.1533 36.4439 14.7379 36.9612C16.7394 37.6141 17.4597 37.9124 17.4561 38.0778Z" fill="#F38189"/>
<path d="M17.4561 38.0778C17.4536 38.151 17.3938 38.2282 17.3187 38.2528C17.0632 38.3324 12.329 36.8443 9.20556 35.6989C8.04942 35.2664 7.87065 35.1831 7.90999 35.0881C7.94606 35.001 8.15105 35.021 8.72669 35.176C9.1533 35.2878 9.58783 35.4029 9.69265 35.4185C10.0164 35.4877 13.1533 36.4439 14.7379 36.9612C16.7394 37.6141 17.4597 37.9124 17.4561 38.0778Z" fill="#F38189"/>
</g>
<defs>
<filter id="filter0_i_85_839" x="4.58694" y="7.83459" width="40.9213" height="37.6329" filterUnits="userSpaceOnUse" color-interpolation-filters="sRGB">
<feFlood flood-opacity="0" result="BackgroundImageFix"/>
<feBlend mode="normal" in="SourceGraphic" in2="BackgroundImageFix" result="shape"/>
<feColorMatrix in="SourceAlpha" type="matrix" values="0 0 0 0 0 0 0 0 0 0 0 0 0 0 0 0 0 0 127 0" result="hardAlpha"/>
<feOffset dy="4"/>
<feGaussianBlur stdDeviation="2"/>
<feComposite in2="hardAlpha" operator="arithmetic" k2="-1" k3="1"/>
<feColorMatrix type="matrix" values="0 0 0 0 0 0 0 0 0 0 0 0 0 0 0 0 0 0 0.25 0"/>
<feBlend mode="normal" in2="shape" result="effect1_innerShadow_85_839"/>
</filter>
</defs>
</svg>
