<svg width="118" height="42" viewBox="0 0 118 42" fill="none" xmlns="http://www.w3.org/2000/svg">
<path d="M0 41.6032L1.58535 3.64517L10.7866 4.10808L9.20127 42L0 41.5702V41.6032Z" fill="#F0515B" fill-opacity="0.82"/>
<path d="M25.0859 13.0686C27.3862 13.2339 29.6243 14.292 31.3651 16.1766L31.4584 16.1105L32.6085 0.966949L41.157 1.69437L38.3282 39.5532L30.3082 38.8589V36.6766L30.215 36.6105C28.1633 38.3629 25.7387 39.0573 23.3451 38.8258C17.8119 38.3629 13.1802 33.6347 13.833 25.0049C14.4858 16.375 19.7392 12.5065 25.0859 13.0024V13.0686ZM30.8678 26.5589C31.1786 22.7895 29.873 20.1444 27.1997 19.8799C24.5263 19.6815 22.8166 22.0621 22.568 25.7984C22.2571 29.5678 23.5627 32.2129 26.236 32.4774C28.9094 32.6758 30.5569 30.2952 30.8678 26.5589Z" fill="#F0515B" fill-opacity="0.82"/>
<path d="M55.8604 31.8492C57.2903 31.8492 58.9378 31.221 60.4299 29.1048L65.9942 32.4444C63.7871 36.3129 59.7771 38.0984 55.705 38.0984C49.0838 38.0984 42.8045 33.4032 42.8045 25.2363C42.8045 17.929 47.716 12.0435 55.0832 12.0435C62.4505 12.0435 67.735 17.2347 67.735 25.5008C67.735 26.1952 67.6728 26.8895 67.5485 28.675L51.2908 26.8234C51.353 29.6339 53.0938 31.8492 55.8604 31.8492ZM55.6739 18.3919C54.0263 18.3919 52.441 19.5492 51.8504 22.029L59.4663 22.8887C59.2798 19.7806 57.8188 18.3919 55.6739 18.3919Z" fill="#F0515B" fill-opacity="0.82"/>
<path d="M84.0548 25.1702L83.9926 24.7403C83.8372 23.2194 83.402 22.2936 82.687 21.7315C82.0032 21.2024 81.1017 21.004 79.9515 21.1032C78.304 21.2686 76.128 22.0952 73.3925 23.8476L70.5016 18.2927C74.0764 15.8129 77.7756 14.6557 81.0395 14.2589C85.0184 13.8952 88.4067 15.0524 90.3962 17.5984C90.9868 18.4581 91.5464 19.3839 91.8261 20.6734C92.0748 21.3677 92.2302 22.5911 92.3235 23.6492L93.6291 38.4621L85.5158 39.2557L85.2671 37.5032C83.5263 39.3548 81.3815 40.3137 79.2055 40.5121C74.9779 40.9419 70.8435 38.6605 70.4083 33.271C70.0042 28.8734 73.0817 25.0048 78.5216 24.4758C80.3556 24.3105 82.314 24.5419 84.0548 25.1702ZM81.1639 29.3363C79.5785 29.5016 78.2418 30.5597 78.3662 32.246C78.5216 33.9984 80.0137 34.7258 81.5369 34.5605C83.1222 34.3952 84.7076 33.3371 84.5832 31.5847C84.4278 29.8984 82.687 29.204 81.1639 29.3032V29.3363Z" fill="#F0515B" fill-opacity="0.82"/>
<path d="M107.617 40.1484C103.297 40.1484 98.4162 38.2307 95.3388 34.6927L99.4731 30.0307C101.058 31.8161 104.136 34.1968 106.436 34.1968C107.617 34.1968 108.332 33.5686 108.332 32.7089C108.332 32.1137 107.928 31.5847 107.276 31.221C106.592 30.7911 105.846 30.4936 105.348 30.229L103.949 29.5347C102.706 28.9395 101.742 28.3774 101.027 27.8484C98.8203 26.3274 97.7013 24.6742 97.7013 22.2274C97.7013 17.2677 101.68 14.1266 106.903 14.1266C111.69 14.1266 116.011 16.5734 118 19.2186L114.021 23.6161C112.529 21.8637 109.887 19.8468 107.742 19.8468C106.654 19.8468 105.908 20.3758 105.908 21.2355C105.908 22.029 106.809 22.6242 107.649 23.0871C108.488 23.55 109.452 23.9798 110.54 24.575L111.845 25.2694C113.337 26.0629 115.264 27.3194 116.228 29.1379C116.725 30.0307 117.036 30.9895 117.036 32.246C117.036 37.0734 112.715 40.1153 107.68 40.1153L107.617 40.1484Z" fill="#F0515B" fill-opacity="0.82"/>
</svg>
