<svg width="61" height="78" viewBox="0 0 61 78" fill="none" xmlns="http://www.w3.org/2000/svg">
<path d="M24.0195 6.83024C29.7965 6.83024 35.2571 9.36029 39.4106 14.0198H39.7058L40.507 9.67655L56.6992 11.3L52.5457 51.7806C51.6391 60.5935 48.4976 66.9608 44.2387 70.9034C39.3895 75.3521 32.706 77.7767 25.5165 77.7767C16.0077 77.7767 7.59538 74.1292 0.616699 65.6325C8.71281 57.8316 10.02 56.3135 10.02 56.3135C13.3512 60.6567 18.4113 64.8102 24.399 64.8102C30.8717 64.8102 34.224 59.961 34.8144 52.9612L34.5191 52.8558C30.9771 55.175 27.1399 56.3979 23.2816 56.3979C11.2428 56.3979 2.53532 46.7837 2.53532 33.3324C2.53532 20.6822 9.21881 6.8092 23.9984 6.8092L24.0195 6.83024ZM36.9649 30.5072C36.9649 24.5405 34.224 20.0919 29.0796 20.0919C22.9021 20.0919 20.2667 27.3868 20.2667 33.4589C20.2667 39.531 23.0075 44.085 28.2574 44.085C34.5403 44.085 36.9649 36.7058 36.9649 30.5283V30.5072Z" fill="#F9BDC1"/>
<path d="M27.3091 0.863756C33.086 0.863756 38.5466 3.3938 42.7001 8.05328H42.9953L43.7965 3.71006L59.9887 5.33347L55.8352 45.8141C54.9286 54.627 51.7872 60.9943 47.5283 64.9369C42.6791 69.3856 35.9955 71.8101 28.806 71.8101C19.2973 71.8101 10.8849 68.1627 3.90625 59.666C12.0024 51.8651 13.3095 50.347 13.3095 50.347C16.6407 54.6903 21.7008 58.8437 27.6886 58.8437C34.1613 58.8437 37.5136 53.9945 38.1039 46.9947L37.8088 46.8893C34.2667 49.2085 30.4295 50.4314 26.5712 50.4314C14.5324 50.4314 5.82487 40.8172 5.82487 27.3659C5.82487 14.7157 12.5084 0.842651 27.288 0.842651L27.3091 0.863756ZM40.2544 24.5407C40.2544 18.574 37.5136 14.1254 32.3692 14.1254C26.1916 14.1254 23.5562 21.4203 23.5562 27.4924C23.5562 33.5645 26.2971 38.1186 31.5469 38.1186C37.8298 38.1186 40.2544 30.7392 40.2544 24.5617V24.5407Z" stroke="#F0515B" stroke-miterlimit="10"/>
</svg>
