<svg width="58" height="73" viewBox="0 0 58 73" fill="none" xmlns="http://www.w3.org/2000/svg">
<path d="M24.3091 0.863756C30.086 0.863756 35.5466 3.3938 39.7001 8.05328H39.9953L40.7965 3.71006L56.9887 5.33347L52.8352 45.8141C51.9286 54.627 48.7872 60.9943 44.5283 64.9369C39.6791 69.3856 32.9955 71.8101 25.806 71.8101C16.2973 71.8101 7.88493 68.1627 0.90625 59.666C9.00236 51.8651 10.3095 50.347 10.3095 50.347C13.6407 54.6903 18.7008 58.8437 24.6886 58.8437C31.1613 58.8437 34.5136 53.9945 35.1039 46.9947L34.8088 46.8893C31.2667 49.2085 27.4295 50.4314 23.5712 50.4314C11.5324 50.4314 2.82487 40.8172 2.82487 27.3659C2.82487 14.7157 9.50836 0.842651 24.288 0.842651L24.3091 0.863756ZM37.2544 24.5407C37.2544 18.574 34.5136 14.1254 29.3692 14.1254C23.1916 14.1254 20.5562 21.4203 20.5562 27.4924C20.5562 33.5645 23.2971 38.1186 28.5469 38.1186C34.8298 38.1186 37.2544 30.7392 37.2544 24.5617V24.5407Z" stroke="#F0515B" stroke-miterlimit="10"/>
</svg>
