<svg width="55" height="55" viewBox="0 0 55 55" fill="none" xmlns="http://www.w3.org/2000/svg">
<path d="M47.941 21.0759C48.0089 21.2427 48.0758 21.5248 48.0895 21.7001C48.111 22.0569 47.7163 23.1594 47.3922 23.6526L47.1874 23.9646L47.6448 24.3025C47.8895 24.492 48.3284 24.8246 48.6047 25.043L49.1131 25.4392L48.911 25.9513C48.7579 26.3339 45.3156 35.8579 44.4678 38.2535L44.3768 38.5303L42.5333 38.8045C36.5143 39.6908 26.1151 41.5013 21.7529 42.4187C20.9898 42.5792 20.7719 42.5887 20.5972 42.475C20.4782 42.3892 19.6804 41.8903 18.821 41.3699C15.0523 39.0659 10.93 36.2983 6.6919 33.2385C5.86564 32.6439 5.11359 32.0823 5.01886 31.9955C4.86098 31.8508 4.94623 31.4408 6.33237 25.6686C8.13372 18.1503 8.02373 18.5492 8.23266 18.4734C8.32213 18.4392 8.75104 18.2629 9.17995 18.0866C10.2941 17.6319 11.6213 17.1982 13.1028 16.8245C14.098 16.563 14.4142 16.4461 14.5763 16.2693C15.0105 15.7957 15.9609 15.6209 16.8261 15.8562C17.0161 15.9025 17.2172 15.924 17.2824 15.8909C17.3477 15.8577 18.3081 15.6341 19.4249 15.3793C20.5421 15.1367 21.5084 14.9067 21.5747 14.8978C21.6405 14.8767 21.8547 14.5036 22.0599 14.0641C22.5046 13.1353 22.8619 12.7074 23.3866 12.5027C24.3281 12.1222 25.868 12.5342 27.3737 13.5541L27.9421 13.9357L29.0867 13.7646C29.7188 13.6583 30.2966 13.5604 30.3624 13.5394C30.4461 13.5115 30.6334 13.2183 30.845 12.7847C31.256 11.9179 31.5649 11.6316 32.2727 11.4553C33.6105 11.1243 35.6083 12.0257 37.6723 13.8945C38.6628 14.7792 38.8312 15.0265 38.8075 15.5975C38.7996 15.9738 38.5823 16.6927 38.347 17.1395C38.2355 17.3626 38.1655 17.5658 38.1971 17.5947C38.4712 17.7647 40.0874 18.6767 40.1485 18.6862C40.1974 18.6962 40.2664 18.6083 40.3158 18.4909C40.6711 17.5963 42.0994 17.2552 43.4424 17.7426C44.4897 18.1215 45.4502 18.7346 46.7101 19.8197C47.6237 20.6107 47.8331 20.8259 47.941 21.0759ZM44.8365 19.2645C43.9698 18.714 43.2582 18.3872 42.622 18.2573C41.9431 18.1231 41.4868 18.2278 41.1568 18.5878L40.9021 18.8656L41.42 19.3403C42.0957 19.9598 42.6883 20.3402 43.654 20.7955C45.1886 21.5049 47.1053 21.9369 47.3037 21.619C47.3432 21.5506 47.3311 21.4117 47.2658 21.3054C47.0958 21.0217 45.5475 19.7187 44.8365 19.2645ZM45.416 22.1316C43.6882 21.5822 42.0662 20.6765 41.0968 19.7182L40.5395 19.1725L40.4479 19.4372C40.3669 19.6651 40.3822 19.7372 40.6306 20.0113C40.86 20.2682 40.8874 20.3397 40.789 20.4471C40.7021 20.5418 40.6169 20.5334 40.4474 20.4013C40.2343 20.2408 40.1143 20.2703 40.0759 20.5024C40.0454 20.6371 41.1784 21.4549 41.9668 21.8754C42.4947 22.1617 42.6283 22.3075 42.4894 22.459C42.2868 22.6801 41.3653 22.2654 40.4301 21.536C39.9154 21.1339 39.8843 21.1171 39.8064 21.2781C39.5844 21.7486 39.6607 21.8302 41.1021 22.768C42.4747 23.6542 44.6892 24.522 45.4023 24.4667C45.8976 24.4209 46.7022 23.5431 47.0464 22.6732L47.1227 22.4758L46.6106 22.4132C46.3301 22.3769 45.7912 22.2548 45.416 22.1316ZM35.1551 12.9004C34.2652 12.3752 33.2995 12.0594 32.7006 12.0916C32.3259 12.12 32.237 12.1663 31.9643 12.451L31.6633 12.7794L32.3322 13.3809C32.799 13.7972 33.2058 14.0888 33.6653 14.3356C35.0741 15.0808 37.2497 15.7502 37.8134 15.6044C38.0534 15.5454 38.0649 15.5328 38.026 15.3344C37.9765 15.0334 36.1572 13.4935 35.1551 12.9004ZM47.4032 24.6041L46.948 24.3146L46.7338 24.5483C46.3923 24.9209 45.977 25.133 45.4818 25.1788C44.4008 25.2804 41.64 24.121 40.0159 22.888C39.5081 22.5038 39.4349 22.4948 39.4423 22.8038C39.467 23.3727 38.815 24.6926 38.155 25.4125C37.4083 26.2272 36.801 26.3446 35.5042 25.9462C33.9922 25.4783 32.1803 24.5263 30.9677 23.5543C30.3709 23.077 30.3451 23.0417 30.333 22.7633C30.3146 22.3397 31.5808 19.5257 31.986 19.0836C32.3218 18.7173 32.827 18.4831 33.3354 18.461L33.638 18.4479L33.4459 18.3531C32.5849 17.9358 31.385 17.2543 30.8655 16.8828C30.2214 16.4318 30.1293 16.4054 30.1656 16.6828C30.193 16.8938 29.8914 17.768 29.6004 18.3263C29.4657 18.5747 29.1452 19.0131 28.8905 19.291C28.1032 20.1499 27.5316 20.2536 26.1049 19.7942C24.6724 19.3411 23.2578 18.6022 21.9363 17.6349C20.9406 16.9081 20.8506 16.6513 21.2947 15.8498C21.3563 15.7319 21.3931 15.603 21.3852 15.5609C21.371 15.513 20.6306 15.6361 19.7412 15.8203C18.846 16.0109 18.065 16.1782 17.9929 16.1935C17.9024 16.2035 17.9903 16.2724 18.2881 16.4293C19.3986 17.0055 21.3153 18.5533 21.7189 19.1906C21.8231 19.3558 21.9205 19.6426 21.9342 19.8179C21.991 20.5673 21.4053 21.8783 20.6412 22.7119C19.8591 23.5523 19.3418 23.6476 17.9277 23.1998C16.4831 22.7472 15.0816 22.032 13.8107 21.111C13.0033 20.5337 12.7602 20.2411 12.8197 19.9353C12.8386 19.8133 13.0949 19.1533 13.3922 18.4613C13.6838 17.7755 13.9317 17.2008 13.9306 17.1766C13.9285 17.1282 12.135 17.5761 11.2856 17.8434C9.68833 18.3434 8.75788 18.6992 8.89419 18.766C8.96839 18.7992 9.5894 19.136 10.2725 19.5065C12.8376 20.9047 14.8253 22.1341 21.0528 26.1805L25.5208 29.0908L26.0255 28.9839C32.2219 27.714 44.7566 25.6529 47.9406 25.3871L48.5084 25.3382L48.1837 25.1219C48.0027 25.0024 47.659 24.7688 47.4032 24.6041ZM46.9412 25.9703C38.1703 27.2976 32.976 28.1845 27.5538 29.2692L25.5519 29.6655L25.4493 29.9549C25.3951 30.1028 24.6625 32.2205 23.8221 34.6461C22.988 37.0775 22.0776 39.7063 21.8029 40.5004L21.3013 41.935L21.896 41.8061C26.533 40.7919 37.521 38.9983 42.4869 38.4367L44.1284 38.2561L46.416 32.0203C47.6732 28.5822 48.6726 25.7676 48.6416 25.7508C48.6047 25.7403 47.8448 25.834 46.9412 25.9703ZM36.2256 16.0433C34.4121 15.4734 33.1332 14.7892 32.0101 13.783L31.2339 13.0831L31.1397 13.4267C31.0508 13.752 31.0586 13.7941 31.3302 14.043C31.5323 14.2282 31.5918 14.3409 31.5597 14.4393C31.4939 14.5998 31.2807 14.5787 31.0787 14.3935C30.965 14.2893 30.9045 14.2919 30.825 14.4166C30.7282 14.5603 30.755 14.6198 30.9966 14.8761C31.1555 15.045 31.6439 15.3997 32.0802 15.6718C32.9896 16.2265 33.2222 16.4165 33.1927 16.5754C33.1332 16.8812 32.3059 16.5412 31.3097 15.8023C30.6955 15.3439 30.5213 15.2424 30.4829 15.335C30.4613 15.3966 30.4103 15.4776 30.3756 15.5155C30.3061 15.5913 31.0971 16.2118 31.9697 16.7559C32.7428 17.2438 34.3568 17.9679 35.2284 18.2089C36.1125 18.4615 36.4551 18.3921 36.9414 17.8616C37.2598 17.5142 37.8155 16.629 37.8602 16.4027C37.8702 16.3538 37.6866 16.3133 37.4618 16.3048C37.2313 16.3027 36.6745 16.1875 36.2256 16.0433ZM38.7407 18.5231L37.8687 17.991L37.585 18.3005C37.1624 18.7615 36.7072 19.0299 36.2246 19.0873L35.7962 19.1362L36.2509 19.4136C36.8109 19.7409 38.0834 20.6982 38.6013 21.1729C38.8665 21.416 38.9786 21.4839 39.0112 21.3976C39.0333 21.3481 39.2475 20.8355 39.4959 20.2729C39.8922 19.3461 39.9238 19.2356 39.7748 19.1572C39.6875 19.1004 39.2207 18.8236 38.7407 18.5231ZM29.373 14.3525C29.0167 14.3861 28.7031 14.424 28.6857 14.443C28.6625 14.4682 28.8725 14.6956 29.1567 14.9561C29.5419 15.3092 29.6793 15.4003 29.7182 15.3197C29.734 15.2645 29.8445 15.0171 29.9493 14.7761C30.0603 14.5409 30.124 14.3319 30.0872 14.3214C30.0566 14.3167 29.7356 14.3246 29.373 14.3525ZM35.772 19.974C34.1606 19.0315 32.9128 18.922 32.3997 19.672C32.2739 19.8472 32.2802 19.853 32.9486 20.4425C33.9327 21.3213 35.4452 22.0802 37.083 22.5122C38.1624 22.7927 38.8513 22.7385 38.696 22.3754C38.5876 22.1133 36.5062 20.4029 35.772 19.974ZM37.8298 23.3711C37.1283 23.2743 36.5441 23.0875 35.4005 22.5854C34.2574 22.0955 33.397 21.5508 32.5823 20.804C32.2097 20.4625 31.895 20.1972 31.8834 20.2099C31.7966 20.3046 31.7271 20.7988 31.8002 20.8077C31.8429 20.8119 32.1065 21.0187 32.3776 21.2556C32.7623 21.5966 32.8654 21.7376 32.8723 21.895C32.8812 22.2402 32.5618 22.1449 32.006 21.6355C31.5576 21.2245 31.5513 21.2187 31.4745 21.404C31.4034 21.5829 31.4298 21.6303 31.756 21.8829C31.9571 22.0439 32.4549 22.3376 32.876 22.5375C33.8048 22.9822 33.9038 23.1659 33.2059 23.1538C32.7265 23.1443 32.1708 22.9138 31.5698 22.4791C31.3756 22.336 31.2008 22.2223 31.1893 22.235C31.1835 22.2413 31.134 22.3586 31.0845 22.476C30.9914 22.7044 30.9977 22.7102 31.4556 23.0602C33.1102 24.2979 35.6279 25.4436 36.6699 25.4225L37.1367 25.4204L37.6951 24.7352C38.185 24.15 38.5413 23.5585 38.4592 23.4832C38.4466 23.4716 38.1592 23.4174 37.8298 23.3711ZM26.5959 13.9336C24.9586 12.9558 23.7998 12.8 23.1745 13.4821L22.9719 13.7031L23.5845 14.2646C24.5571 15.1561 25.6738 15.7382 27.419 16.2686C28.5868 16.6302 29.202 16.6944 29.3446 16.4881C29.4014 16.4007 29.4014 16.2613 29.3357 16.1428C29.1199 15.7823 27.4984 14.4704 26.5959 13.9336ZM28.7178 17.2733C28.1516 17.2191 27.4821 17.0238 26.4264 16.5907C25.0318 16.0329 24.4213 15.6593 23.4993 14.8141C23.0325 14.3978 22.6478 14.0568 22.642 14.0631C22.6362 14.0694 22.592 14.1683 22.5488 14.2915C22.4609 14.5015 22.4804 14.5309 22.9288 14.942C23.2635 15.2488 23.3919 15.413 23.3851 15.5345C23.374 15.8382 23.093 15.7898 22.6762 15.4077C22.4678 15.2167 22.292 15.0788 22.2804 15.0914C22.1357 15.2493 22.1731 15.4114 22.4131 15.6314C22.7351 15.9266 23.7872 16.5539 24.7413 17.0218C25.5465 17.4112 25.7539 17.578 25.6886 17.7506C25.6291 17.9169 25.4828 17.8991 24.8355 17.6543C24.0961 17.3833 23.0399 16.7986 22.4441 16.3455L21.961 15.9724L21.8526 16.2682L21.7442 16.5639L22.3404 17.0292C23.4583 17.9143 25.1571 18.7743 26.5628 19.1679C27.539 19.4468 27.809 19.3805 28.3637 18.75C28.6989 18.3716 29.2873 17.4001 29.2178 17.3364C29.2052 17.3249 28.9794 17.2922 28.7178 17.2733ZM18.9244 17.6749C17.1488 16.4424 15.6315 16.1325 14.9658 16.8587C14.769 17.0735 14.7695 17.0856 15.031 17.3834C15.3758 17.7808 16.2583 18.4154 17.0088 18.8012C18.2187 19.4338 20.2412 20.0674 20.839 20.011C21.1532 19.9853 21.259 19.7684 21.0837 19.5032C20.9027 19.2443 19.6244 18.1538 18.9244 17.6749ZM20.4733 20.6636C19.8275 20.5947 19.4102 20.4794 18.355 20.0584C16.8304 19.4396 16.2825 19.1117 15.3042 18.2265C14.5532 17.5497 14.4216 17.4524 14.3716 17.5576C14.3379 17.6197 14.1322 18.1865 13.9111 18.8207L13.5059 19.9601L13.858 20.2479C15.5679 21.641 18.6455 22.9745 19.4692 22.6719C19.696 22.5893 19.8533 22.443 20.2449 21.9651C20.6648 21.4436 21.0606 20.7836 20.9911 20.7199C20.9848 20.7141 20.7469 20.682 20.4733 20.6636ZM16.5073 23.8618C15.2106 23.0451 13.5965 22.042 12.9118 21.6352C11.7913 20.9684 8.5358 19.1697 8.45686 19.167C8.44476 19.1676 8.26846 19.8544 8.06796 20.6817C7.87378 21.5147 7.20544 24.2724 6.58183 26.8038C5.96454 29.341 5.45092 31.4734 5.44198 31.5466C5.39725 31.7729 10.6237 35.5294 14.7681 38.2475C16.4849 39.3795 20.5745 41.9545 20.6414 41.9577C20.6656 41.9566 21.6634 39.1058 22.8759 35.615L25.0619 29.2745L21.9632 27.3173C20.2549 26.2395 17.7983 24.6849 16.5073 23.8618Z" fill="#F38189"/>
<path d="M47.941 21.0759C48.0089 21.2427 48.0758 21.5248 48.0895 21.7001C48.111 22.0569 47.7163 23.1594 47.3922 23.6526L47.1874 23.9646L47.6448 24.3025C47.8895 24.492 48.3284 24.8246 48.6047 25.043L49.1131 25.4392L48.911 25.9513C48.7579 26.3339 45.3156 35.8579 44.4678 38.2535L44.3768 38.5303L42.5333 38.8045C36.5143 39.6908 26.1151 41.5013 21.7529 42.4187C20.9898 42.5792 20.7719 42.5887 20.5972 42.475C20.4782 42.3892 19.6804 41.8903 18.821 41.3699C15.0523 39.0659 10.93 36.2983 6.6919 33.2385C5.86564 32.6439 5.11359 32.0823 5.01886 31.9955C4.86098 31.8508 4.94623 31.4408 6.33237 25.6686C8.13372 18.1503 8.02373 18.5492 8.23266 18.4734C8.32213 18.4392 8.75104 18.2629 9.17995 18.0866C10.2941 17.6319 11.6213 17.1982 13.1028 16.8245C14.098 16.563 14.4142 16.4461 14.5763 16.2693C15.0105 15.7957 15.9609 15.6209 16.8261 15.8562C17.0161 15.9025 17.2172 15.924 17.2824 15.8909C17.3477 15.8577 18.3081 15.6341 19.4249 15.3793C20.5421 15.1367 21.5084 14.9067 21.5747 14.8978C21.6405 14.8767 21.8547 14.5036 22.0599 14.0641C22.5046 13.1353 22.8619 12.7074 23.3866 12.5027C24.3281 12.1222 25.868 12.5342 27.3737 13.5541L27.9421 13.9357L29.0867 13.7646C29.7188 13.6583 30.2966 13.5604 30.3624 13.5394C30.4461 13.5115 30.6334 13.2183 30.845 12.7847C31.256 11.9179 31.5649 11.6316 32.2727 11.4553C33.6105 11.1243 35.6083 12.0257 37.6723 13.8945C38.6628 14.7792 38.8312 15.0265 38.8075 15.5975C38.7996 15.9738 38.5823 16.6927 38.347 17.1395C38.2355 17.3626 38.1655 17.5658 38.1971 17.5947C38.4712 17.7647 40.0874 18.6767 40.1485 18.6862C40.1974 18.6962 40.2664 18.6083 40.3158 18.4909C40.6711 17.5963 42.0994 17.2552 43.4424 17.7426C44.4897 18.1215 45.4502 18.7346 46.7101 19.8197C47.6237 20.6107 47.8331 20.8259 47.941 21.0759ZM44.8365 19.2645C43.9698 18.714 43.2582 18.3872 42.622 18.2573C41.9431 18.1231 41.4868 18.2278 41.1568 18.5878L40.9021 18.8656L41.42 19.3403C42.0957 19.9598 42.6883 20.3402 43.654 20.7955C45.1886 21.5049 47.1053 21.9369 47.3037 21.619C47.3432 21.5506 47.3311 21.4117 47.2658 21.3054C47.0958 21.0217 45.5475 19.7187 44.8365 19.2645ZM45.416 22.1316C43.6882 21.5822 42.0662 20.6765 41.0968 19.7182L40.5395 19.1725L40.4479 19.4372C40.3669 19.6651 40.3822 19.7372 40.6306 20.0113C40.86 20.2682 40.8874 20.3397 40.789 20.4471C40.7021 20.5418 40.6169 20.5334 40.4474 20.4013C40.2343 20.2408 40.1143 20.2703 40.0759 20.5024C40.0454 20.6371 41.1784 21.4549 41.9668 21.8754C42.4947 22.1617 42.6283 22.3075 42.4894 22.459C42.2868 22.6801 41.3653 22.2654 40.4301 21.536C39.9154 21.1339 39.8843 21.1171 39.8064 21.2781C39.5844 21.7486 39.6607 21.8302 41.1021 22.768C42.4747 23.6542 44.6892 24.522 45.4023 24.4667C45.8976 24.4209 46.7022 23.5431 47.0464 22.6732L47.1227 22.4758L46.6106 22.4132C46.3301 22.3769 45.7912 22.2548 45.416 22.1316ZM35.1551 12.9004C34.2652 12.3752 33.2995 12.0594 32.7006 12.0916C32.3259 12.12 32.237 12.1663 31.9643 12.451L31.6633 12.7794L32.3322 13.3809C32.799 13.7972 33.2058 14.0888 33.6653 14.3356C35.0741 15.0808 37.2497 15.7502 37.8134 15.6044C38.0534 15.5454 38.0649 15.5328 38.026 15.3344C37.9765 15.0334 36.1572 13.4935 35.1551 12.9004ZM47.4032 24.6041L46.948 24.3146L46.7338 24.5483C46.3923 24.9209 45.977 25.133 45.4818 25.1788C44.4008 25.2804 41.64 24.121 40.0159 22.888C39.5081 22.5038 39.4349 22.4948 39.4423 22.8038C39.467 23.3727 38.815 24.6926 38.155 25.4125C37.4083 26.2272 36.801 26.3446 35.5042 25.9462C33.9922 25.4783 32.1803 24.5263 30.9677 23.5543C30.3709 23.077 30.3451 23.0417 30.333 22.7633C30.3146 22.3397 31.5808 19.5257 31.986 19.0836C32.3218 18.7173 32.827 18.4831 33.3354 18.461L33.638 18.4479L33.4459 18.3531C32.5849 17.9358 31.385 17.2543 30.8655 16.8828C30.2214 16.4318 30.1293 16.4054 30.1656 16.6828C30.193 16.8938 29.8914 17.768 29.6004 18.3263C29.4657 18.5747 29.1452 19.0131 28.8905 19.291C28.1032 20.1499 27.5316 20.2536 26.1049 19.7942C24.6724 19.3411 23.2578 18.6022 21.9363 17.6349C20.9406 16.9081 20.8506 16.6513 21.2947 15.8498C21.3563 15.7319 21.3931 15.603 21.3852 15.5609C21.371 15.513 20.6306 15.6361 19.7412 15.8203C18.846 16.0109 18.065 16.1782 17.9929 16.1935C17.9024 16.2035 17.9903 16.2724 18.2881 16.4293C19.3986 17.0055 21.3153 18.5533 21.7189 19.1906C21.8231 19.3558 21.9205 19.6426 21.9342 19.8179C21.991 20.5673 21.4053 21.8783 20.6412 22.7119C19.8591 23.5523 19.3418 23.6476 17.9277 23.1998C16.4831 22.7472 15.0816 22.032 13.8107 21.111C13.0033 20.5337 12.7602 20.2411 12.8197 19.9353C12.8386 19.8133 13.0949 19.1533 13.3922 18.4613C13.6838 17.7755 13.9317 17.2008 13.9306 17.1766C13.9285 17.1282 12.135 17.5761 11.2856 17.8434C9.68833 18.3434 8.75788 18.6992 8.89419 18.766C8.96839 18.7992 9.5894 19.136 10.2725 19.5065C12.8376 20.9047 14.8253 22.1341 21.0528 26.1805L25.5208 29.0908L26.0255 28.9839C32.2219 27.714 44.7566 25.6529 47.9406 25.3871L48.5084 25.3382L48.1837 25.1219C48.0027 25.0024 47.659 24.7688 47.4032 24.6041ZM46.9412 25.9703C38.1703 27.2976 32.976 28.1845 27.5538 29.2692L25.5519 29.6655L25.4493 29.9549C25.3951 30.1028 24.6625 32.2205 23.8221 34.6461C22.988 37.0775 22.0776 39.7063 21.8029 40.5004L21.3013 41.935L21.896 41.8061C26.533 40.7919 37.521 38.9983 42.4869 38.4367L44.1284 38.2561L46.416 32.0203C47.6732 28.5822 48.6726 25.7676 48.6416 25.7508C48.6047 25.7403 47.8448 25.834 46.9412 25.9703ZM36.2256 16.0433C34.4121 15.4734 33.1332 14.7892 32.0101 13.783L31.2339 13.0831L31.1397 13.4267C31.0508 13.752 31.0586 13.7941 31.3302 14.043C31.5323 14.2282 31.5918 14.3409 31.5597 14.4393C31.4939 14.5998 31.2807 14.5787 31.0787 14.3935C30.965 14.2893 30.9045 14.2919 30.825 14.4166C30.7282 14.5603 30.755 14.6198 30.9966 14.8761C31.1555 15.045 31.6439 15.3997 32.0802 15.6718C32.9896 16.2265 33.2222 16.4165 33.1927 16.5754C33.1332 16.8812 32.3059 16.5412 31.3097 15.8023C30.6955 15.3439 30.5213 15.2424 30.4829 15.335C30.4613 15.3966 30.4103 15.4776 30.3756 15.5155C30.3061 15.5913 31.0971 16.2118 31.9697 16.7559C32.7428 17.2438 34.3568 17.9679 35.2284 18.2089C36.1125 18.4615 36.4551 18.3921 36.9414 17.8616C37.2598 17.5142 37.8155 16.629 37.8602 16.4027C37.8702 16.3538 37.6866 16.3133 37.4618 16.3048C37.2313 16.3027 36.6745 16.1875 36.2256 16.0433ZM38.7407 18.5231L37.8687 17.991L37.585 18.3005C37.1624 18.7615 36.7072 19.0299 36.2246 19.0873L35.7962 19.1362L36.2509 19.4136C36.8109 19.7409 38.0834 20.6982 38.6013 21.1729C38.8665 21.416 38.9786 21.4839 39.0112 21.3976C39.0333 21.3481 39.2475 20.8355 39.4959 20.2729C39.8922 19.3461 39.9238 19.2356 39.7748 19.1572C39.6875 19.1004 39.2207 18.8236 38.7407 18.5231ZM29.373 14.3525C29.0167 14.3861 28.7031 14.424 28.6857 14.443C28.6625 14.4682 28.8725 14.6956 29.1567 14.9561C29.5419 15.3092 29.6793 15.4003 29.7182 15.3197C29.734 15.2645 29.8445 15.0171 29.9493 14.7761C30.0603 14.5409 30.124 14.3319 30.0872 14.3214C30.0566 14.3167 29.7356 14.3246 29.373 14.3525ZM35.772 19.974C34.1606 19.0315 32.9128 18.922 32.3997 19.672C32.2739 19.8472 32.2802 19.853 32.9486 20.4425C33.9327 21.3213 35.4452 22.0802 37.083 22.5122C38.1624 22.7927 38.8513 22.7385 38.696 22.3754C38.5876 22.1133 36.5062 20.4029 35.772 19.974ZM37.8298 23.3711C37.1283 23.2743 36.5441 23.0875 35.4005 22.5854C34.2574 22.0955 33.397 21.5508 32.5823 20.804C32.2097 20.4625 31.895 20.1972 31.8834 20.2099C31.7966 20.3046 31.7271 20.7988 31.8002 20.8077C31.8429 20.8119 32.1065 21.0187 32.3776 21.2556C32.7623 21.5966 32.8654 21.7376 32.8723 21.895C32.8812 22.2402 32.5618 22.1449 32.006 21.6355C31.5576 21.2245 31.5513 21.2187 31.4745 21.404C31.4034 21.5829 31.4298 21.6303 31.756 21.8829C31.9571 22.0439 32.4549 22.3376 32.876 22.5375C33.8048 22.9822 33.9038 23.1659 33.2059 23.1538C32.7265 23.1443 32.1708 22.9138 31.5698 22.4791C31.3756 22.336 31.2008 22.2223 31.1893 22.235C31.1835 22.2413 31.134 22.3586 31.0845 22.476C30.9914 22.7044 30.9977 22.7102 31.4556 23.0602C33.1102 24.2979 35.6279 25.4436 36.6699 25.4225L37.1367 25.4204L37.6951 24.7352C38.185 24.15 38.5413 23.5585 38.4592 23.4832C38.4466 23.4716 38.1592 23.4174 37.8298 23.3711ZM26.5959 13.9336C24.9586 12.9558 23.7998 12.8 23.1745 13.4821L22.9719 13.7031L23.5845 14.2646C24.5571 15.1561 25.6738 15.7382 27.419 16.2686C28.5868 16.6302 29.202 16.6944 29.3446 16.4881C29.4014 16.4007 29.4014 16.2613 29.3357 16.1428C29.1199 15.7823 27.4984 14.4704 26.5959 13.9336ZM28.7178 17.2733C28.1516 17.2191 27.4821 17.0238 26.4264 16.5907C25.0318 16.0329 24.4213 15.6593 23.4993 14.8141C23.0325 14.3978 22.6478 14.0568 22.642 14.0631C22.6362 14.0694 22.592 14.1683 22.5488 14.2915C22.4609 14.5015 22.4804 14.5309 22.9288 14.942C23.2635 15.2488 23.3919 15.413 23.3851 15.5345C23.374 15.8382 23.093 15.7898 22.6762 15.4077C22.4678 15.2167 22.292 15.0788 22.2804 15.0914C22.1357 15.2493 22.1731 15.4114 22.4131 15.6314C22.7351 15.9266 23.7872 16.5539 24.7413 17.0218C25.5465 17.4112 25.7539 17.578 25.6886 17.7506C25.6291 17.9169 25.4828 17.8991 24.8355 17.6543C24.0961 17.3833 23.0399 16.7986 22.4441 16.3455L21.961 15.9724L21.8526 16.2682L21.7442 16.5639L22.3404 17.0292C23.4583 17.9143 25.1571 18.7743 26.5628 19.1679C27.539 19.4468 27.809 19.3805 28.3637 18.75C28.6989 18.3716 29.2873 17.4001 29.2178 17.3364C29.2052 17.3249 28.9794 17.2922 28.7178 17.2733ZM18.9244 17.6749C17.1488 16.4424 15.6315 16.1325 14.9658 16.8587C14.769 17.0735 14.7695 17.0856 15.031 17.3834C15.3758 17.7808 16.2583 18.4154 17.0088 18.8012C18.2187 19.4338 20.2412 20.0674 20.839 20.011C21.1532 19.9853 21.259 19.7684 21.0837 19.5032C20.9027 19.2443 19.6244 18.1538 18.9244 17.6749ZM20.4733 20.6636C19.8275 20.5947 19.4102 20.4794 18.355 20.0584C16.8304 19.4396 16.2825 19.1117 15.3042 18.2265C14.5532 17.5497 14.4216 17.4524 14.3716 17.5576C14.3379 17.6197 14.1322 18.1865 13.9111 18.8207L13.5059 19.9601L13.858 20.2479C15.5679 21.641 18.6455 22.9745 19.4692 22.6719C19.696 22.5893 19.8533 22.443 20.2449 21.9651C20.6648 21.4436 21.0606 20.7836 20.9911 20.7199C20.9848 20.7141 20.7469 20.682 20.4733 20.6636ZM16.5073 23.8618C15.2106 23.0451 13.5965 22.042 12.9118 21.6352C11.7913 20.9684 8.5358 19.1697 8.45686 19.167C8.44476 19.1676 8.26846 19.8544 8.06796 20.6817C7.87378 21.5147 7.20544 24.2724 6.58183 26.8038C5.96454 29.341 5.45092 31.4734 5.44198 31.5466C5.39725 31.7729 10.6237 35.5294 14.7681 38.2475C16.4849 39.3795 20.5745 41.9545 20.6414 41.9577C20.6656 41.9566 21.6634 39.1058 22.8759 35.615L25.0619 29.2745L21.9632 27.3173C20.2549 26.2395 17.7983 24.6849 16.5073 23.8618Z" fill="#F38189"/>
<path d="M47.941 21.0759C48.0089 21.2427 48.0758 21.5248 48.0895 21.7001C48.111 22.0569 47.7163 23.1594 47.3922 23.6526L47.1874 23.9646L47.6448 24.3025C47.8895 24.492 48.3284 24.8246 48.6047 25.043L49.1131 25.4392L48.911 25.9513C48.7579 26.3339 45.3156 35.8579 44.4678 38.2535L44.3768 38.5303L42.5333 38.8045C36.5143 39.6908 26.1151 41.5013 21.7529 42.4187C20.9898 42.5792 20.7719 42.5887 20.5972 42.475C20.4782 42.3892 19.6804 41.8903 18.821 41.3699C15.0523 39.0659 10.93 36.2983 6.6919 33.2385C5.86564 32.6439 5.11359 32.0823 5.01886 31.9955C4.86098 31.8508 4.94623 31.4408 6.33237 25.6686C8.13372 18.1503 8.02373 18.5492 8.23266 18.4734C8.32213 18.4392 8.75104 18.2629 9.17995 18.0866C10.2941 17.6319 11.6213 17.1982 13.1028 16.8245C14.098 16.563 14.4142 16.4461 14.5763 16.2693C15.0105 15.7957 15.9609 15.6209 16.8261 15.8562C17.0161 15.9025 17.2172 15.924 17.2824 15.8909C17.3477 15.8577 18.3081 15.6341 19.4249 15.3793C20.5421 15.1367 21.5084 14.9067 21.5747 14.8978C21.6405 14.8767 21.8547 14.5036 22.0599 14.0641C22.5046 13.1353 22.8619 12.7074 23.3866 12.5027C24.3281 12.1222 25.868 12.5342 27.3737 13.5541L27.9421 13.9357L29.0867 13.7646C29.7188 13.6583 30.2966 13.5604 30.3624 13.5394C30.4461 13.5115 30.6334 13.2183 30.845 12.7847C31.256 11.9179 31.5649 11.6316 32.2727 11.4553C33.6105 11.1243 35.6083 12.0257 37.6723 13.8945C38.6628 14.7792 38.8312 15.0265 38.8075 15.5975C38.7996 15.9738 38.5823 16.6927 38.347 17.1395C38.2355 17.3626 38.1655 17.5658 38.1971 17.5947C38.4712 17.7647 40.0874 18.6767 40.1485 18.6862C40.1974 18.6962 40.2664 18.6083 40.3158 18.4909C40.6711 17.5963 42.0994 17.2552 43.4424 17.7426C44.4897 18.1215 45.4502 18.7346 46.7101 19.8197C47.6237 20.6107 47.8331 20.8259 47.941 21.0759ZM44.8365 19.2645C43.9698 18.714 43.2582 18.3872 42.622 18.2573C41.9431 18.1231 41.4868 18.2278 41.1568 18.5878L40.9021 18.8656L41.42 19.3403C42.0957 19.9598 42.6883 20.3402 43.654 20.7955C45.1886 21.5049 47.1053 21.9369 47.3037 21.619C47.3432 21.5506 47.3311 21.4117 47.2658 21.3054C47.0958 21.0217 45.5475 19.7187 44.8365 19.2645ZM45.416 22.1316C43.6882 21.5822 42.0662 20.6765 41.0968 19.7182L40.5395 19.1725L40.4479 19.4372C40.3669 19.6651 40.3822 19.7372 40.6306 20.0113C40.86 20.2682 40.8874 20.3397 40.789 20.4471C40.7021 20.5418 40.6169 20.5334 40.4474 20.4013C40.2343 20.2408 40.1143 20.2703 40.0759 20.5024C40.0454 20.6371 41.1784 21.4549 41.9668 21.8754C42.4947 22.1617 42.6283 22.3075 42.4894 22.459C42.2868 22.6801 41.3653 22.2654 40.4301 21.536C39.9154 21.1339 39.8843 21.1171 39.8064 21.2781C39.5844 21.7486 39.6607 21.8302 41.1021 22.768C42.4747 23.6542 44.6892 24.522 45.4023 24.4667C45.8976 24.4209 46.7022 23.5431 47.0464 22.6732L47.1227 22.4758L46.6106 22.4132C46.3301 22.3769 45.7912 22.2548 45.416 22.1316ZM35.1551 12.9004C34.2652 12.3752 33.2995 12.0594 32.7006 12.0916C32.3259 12.12 32.237 12.1663 31.9643 12.451L31.6633 12.7794L32.3322 13.3809C32.799 13.7972 33.2058 14.0888 33.6653 14.3356C35.0741 15.0808 37.2497 15.7502 37.8134 15.6044C38.0534 15.5454 38.0649 15.5328 38.026 15.3344C37.9765 15.0334 36.1572 13.4935 35.1551 12.9004ZM47.4032 24.6041L46.948 24.3146L46.7338 24.5483C46.3923 24.9209 45.977 25.133 45.4818 25.1788C44.4008 25.2804 41.64 24.121 40.0159 22.888C39.5081 22.5038 39.4349 22.4948 39.4423 22.8038C39.467 23.3727 38.815 24.6926 38.155 25.4125C37.4083 26.2272 36.801 26.3446 35.5042 25.9462C33.9922 25.4783 32.1803 24.5263 30.9677 23.5543C30.3709 23.077 30.3451 23.0417 30.333 22.7633C30.3146 22.3397 31.5808 19.5257 31.986 19.0836C32.3218 18.7173 32.827 18.4831 33.3354 18.461L33.638 18.4479L33.4459 18.3531C32.5849 17.9358 31.385 17.2543 30.8655 16.8828C30.2214 16.4318 30.1293 16.4054 30.1656 16.6828C30.193 16.8938 29.8914 17.768 29.6004 18.3263C29.4657 18.5747 29.1452 19.0131 28.8905 19.291C28.1032 20.1499 27.5316 20.2536 26.1049 19.7942C24.6724 19.3411 23.2578 18.6022 21.9363 17.6349C20.9406 16.9081 20.8506 16.6513 21.2947 15.8498C21.3563 15.7319 21.3931 15.603 21.3852 15.5609C21.371 15.513 20.6306 15.6361 19.7412 15.8203C18.846 16.0109 18.065 16.1782 17.9929 16.1935C17.9024 16.2035 17.9903 16.2724 18.2881 16.4293C19.3986 17.0055 21.3153 18.5533 21.7189 19.1906C21.8231 19.3558 21.9205 19.6426 21.9342 19.8179C21.991 20.5673 21.4053 21.8783 20.6412 22.7119C19.8591 23.5523 19.3418 23.6476 17.9277 23.1998C16.4831 22.7472 15.0816 22.032 13.8107 21.111C13.0033 20.5337 12.7602 20.2411 12.8197 19.9353C12.8386 19.8133 13.0949 19.1533 13.3922 18.4613C13.6838 17.7755 13.9317 17.2008 13.9306 17.1766C13.9285 17.1282 12.135 17.5761 11.2856 17.8434C9.68833 18.3434 8.75788 18.6992 8.89419 18.766C8.96839 18.7992 9.5894 19.136 10.2725 19.5065C12.8376 20.9047 14.8253 22.1341 21.0528 26.1805L25.5208 29.0908L26.0255 28.9839C32.2219 27.714 44.7566 25.6529 47.9406 25.3871L48.5084 25.3382L48.1837 25.1219C48.0027 25.0024 47.659 24.7688 47.4032 24.6041ZM46.9412 25.9703C38.1703 27.2976 32.976 28.1845 27.5538 29.2692L25.5519 29.6655L25.4493 29.9549C25.3951 30.1028 24.6625 32.2205 23.8221 34.6461C22.988 37.0775 22.0776 39.7063 21.8029 40.5004L21.3013 41.935L21.896 41.8061C26.533 40.7919 37.521 38.9983 42.4869 38.4367L44.1284 38.2561L46.416 32.0203C47.6732 28.5822 48.6726 25.7676 48.6416 25.7508C48.6047 25.7403 47.8448 25.834 46.9412 25.9703ZM36.2256 16.0433C34.4121 15.4734 33.1332 14.7892 32.0101 13.783L31.2339 13.0831L31.1397 13.4267C31.0508 13.752 31.0586 13.7941 31.3302 14.043C31.5323 14.2282 31.5918 14.3409 31.5597 14.4393C31.4939 14.5998 31.2807 14.5787 31.0787 14.3935C30.965 14.2893 30.9045 14.2919 30.825 14.4166C30.7282 14.5603 30.755 14.6198 30.9966 14.8761C31.1555 15.045 31.6439 15.3997 32.0802 15.6718C32.9896 16.2265 33.2222 16.4165 33.1927 16.5754C33.1332 16.8812 32.3059 16.5412 31.3097 15.8023C30.6955 15.3439 30.5213 15.2424 30.4829 15.335C30.4613 15.3966 30.4103 15.4776 30.3756 15.5155C30.3061 15.5913 31.0971 16.2118 31.9697 16.7559C32.7428 17.2438 34.3568 17.9679 35.2284 18.2089C36.1125 18.4615 36.4551 18.3921 36.9414 17.8616C37.2598 17.5142 37.8155 16.629 37.8602 16.4027C37.8702 16.3538 37.6866 16.3133 37.4618 16.3048C37.2313 16.3027 36.6745 16.1875 36.2256 16.0433ZM38.7407 18.5231L37.8687 17.991L37.585 18.3005C37.1624 18.7615 36.7072 19.0299 36.2246 19.0873L35.7962 19.1362L36.2509 19.4136C36.8109 19.7409 38.0834 20.6982 38.6013 21.1729C38.8665 21.416 38.9786 21.4839 39.0112 21.3976C39.0333 21.3481 39.2475 20.8355 39.4959 20.2729C39.8922 19.3461 39.9238 19.2356 39.7748 19.1572C39.6875 19.1004 39.2207 18.8236 38.7407 18.5231ZM29.373 14.3525C29.0167 14.3861 28.7031 14.424 28.6857 14.443C28.6625 14.4682 28.8725 14.6956 29.1567 14.9561C29.5419 15.3092 29.6793 15.4003 29.7182 15.3197C29.734 15.2645 29.8445 15.0171 29.9493 14.7761C30.0603 14.5409 30.124 14.3319 30.0872 14.3214C30.0566 14.3167 29.7356 14.3246 29.373 14.3525ZM35.772 19.974C34.1606 19.0315 32.9128 18.922 32.3997 19.672C32.2739 19.8472 32.2802 19.853 32.9486 20.4425C33.9327 21.3213 35.4452 22.0802 37.083 22.5122C38.1624 22.7927 38.8513 22.7385 38.696 22.3754C38.5876 22.1133 36.5062 20.4029 35.772 19.974ZM37.8298 23.3711C37.1283 23.2743 36.5441 23.0875 35.4005 22.5854C34.2574 22.0955 33.397 21.5508 32.5823 20.804C32.2097 20.4625 31.895 20.1972 31.8834 20.2099C31.7966 20.3046 31.7271 20.7988 31.8002 20.8077C31.8429 20.8119 32.1065 21.0187 32.3776 21.2556C32.7623 21.5966 32.8654 21.7376 32.8723 21.895C32.8812 22.2402 32.5618 22.1449 32.006 21.6355C31.5576 21.2245 31.5513 21.2187 31.4745 21.404C31.4034 21.5829 31.4298 21.6303 31.756 21.8829C31.9571 22.0439 32.4549 22.3376 32.876 22.5375C33.8048 22.9822 33.9038 23.1659 33.2059 23.1538C32.7265 23.1443 32.1708 22.9138 31.5698 22.4791C31.3756 22.336 31.2008 22.2223 31.1893 22.235C31.1835 22.2413 31.134 22.3586 31.0845 22.476C30.9914 22.7044 30.9977 22.7102 31.4556 23.0602C33.1102 24.2979 35.6279 25.4436 36.6699 25.4225L37.1367 25.4204L37.6951 24.7352C38.185 24.15 38.5413 23.5585 38.4592 23.4832C38.4466 23.4716 38.1592 23.4174 37.8298 23.3711ZM26.5959 13.9336C24.9586 12.9558 23.7998 12.8 23.1745 13.4821L22.9719 13.7031L23.5845 14.2646C24.5571 15.1561 25.6738 15.7382 27.419 16.2686C28.5868 16.6302 29.202 16.6944 29.3446 16.4881C29.4014 16.4007 29.4014 16.2613 29.3357 16.1428C29.1199 15.7823 27.4984 14.4704 26.5959 13.9336ZM28.7178 17.2733C28.1516 17.2191 27.4821 17.0238 26.4264 16.5907C25.0318 16.0329 24.4213 15.6593 23.4993 14.8141C23.0325 14.3978 22.6478 14.0568 22.642 14.0631C22.6362 14.0694 22.592 14.1683 22.5488 14.2915C22.4609 14.5015 22.4804 14.5309 22.9288 14.942C23.2635 15.2488 23.3919 15.413 23.3851 15.5345C23.374 15.8382 23.093 15.7898 22.6762 15.4077C22.4678 15.2167 22.292 15.0788 22.2804 15.0914C22.1357 15.2493 22.1731 15.4114 22.4131 15.6314C22.7351 15.9266 23.7872 16.5539 24.7413 17.0218C25.5465 17.4112 25.7539 17.578 25.6886 17.7506C25.6291 17.9169 25.4828 17.8991 24.8355 17.6543C24.0961 17.3833 23.0399 16.7986 22.4441 16.3455L21.961 15.9724L21.8526 16.2682L21.7442 16.5639L22.3404 17.0292C23.4583 17.9143 25.1571 18.7743 26.5628 19.1679C27.539 19.4468 27.809 19.3805 28.3637 18.75C28.6989 18.3716 29.2873 17.4001 29.2178 17.3364C29.2052 17.3249 28.9794 17.2922 28.7178 17.2733ZM18.9244 17.6749C17.1488 16.4424 15.6315 16.1325 14.9658 16.8587C14.769 17.0735 14.7695 17.0856 15.031 17.3834C15.3758 17.7808 16.2583 18.4154 17.0088 18.8012C18.2187 19.4338 20.2412 20.0674 20.839 20.011C21.1532 19.9853 21.259 19.7684 21.0837 19.5032C20.9027 19.2443 19.6244 18.1538 18.9244 17.6749ZM20.4733 20.6636C19.8275 20.5947 19.4102 20.4794 18.355 20.0584C16.8304 19.4396 16.2825 19.1117 15.3042 18.2265C14.5532 17.5497 14.4216 17.4524 14.3716 17.5576C14.3379 17.6197 14.1322 18.1865 13.9111 18.8207L13.5059 19.9601L13.858 20.2479C15.5679 21.641 18.6455 22.9745 19.4692 22.6719C19.696 22.5893 19.8533 22.443 20.2449 21.9651C20.6648 21.4436 21.0606 20.7836 20.9911 20.7199C20.9848 20.7141 20.7469 20.682 20.4733 20.6636ZM16.5073 23.8618C15.2106 23.0451 13.5965 22.042 12.9118 21.6352C11.7913 20.9684 8.5358 19.1697 8.45686 19.167C8.44476 19.1676 8.26846 19.8544 8.06796 20.6817C7.87378 21.5147 7.20544 24.2724 6.58183 26.8038C5.96454 29.341 5.45092 31.4734 5.44198 31.5466C5.39725 31.7729 10.6237 35.5294 14.7681 38.2475C16.4849 39.3795 20.5745 41.9545 20.6414 41.9577C20.6656 41.9566 21.6634 39.1058 22.8759 35.615L25.0619 29.2745L21.9632 27.3173C20.2549 26.2395 17.7983 24.6849 16.5073 23.8618Z" fill="#037FA5"/>
<path d="M30.6824 24.2458C30.8651 24.6805 30.8466 24.9542 30.6219 25.6431C30.3641 26.4062 30.0483 26.9535 29.5099 27.5408C28.7516 28.3682 28.1806 28.4839 26.8344 28.0635C25.3713 27.6056 23.9014 26.851 22.511 25.8321C21.7279 25.2537 21.5848 25.0296 21.7232 24.587C21.9195 23.9417 23.1014 21.4225 23.3214 21.1825C24.0219 20.4183 25.3612 20.4025 26.8974 21.1482C28.2726 21.8161 30.3914 23.5491 30.6824 24.2458ZM28.2258 22.8307C27.3174 22.1608 26.3854 21.6435 25.697 21.4309C24.8245 21.1656 24.0008 21.3288 23.7377 21.8314C23.6593 21.9803 23.6919 22.0335 24.1845 22.485C25.1318 23.3533 26.3786 23.9964 28.1174 24.5211C29.131 24.8226 29.9714 24.9074 30.0599 24.7095C30.1588 24.4748 29.3967 23.6833 28.2258 22.8307ZM29.1352 25.4773C28.5437 25.4 27.9164 25.1968 26.7112 24.6732C25.4686 24.127 24.4898 23.5086 23.8046 22.8108C23.5004 22.5087 23.242 22.2834 23.2188 22.3087C23.1957 22.334 23.1767 22.4561 23.1699 22.5776C23.1604 22.7781 23.2635 22.9192 23.8419 23.5307C24.4203 24.1422 24.5045 24.2659 24.4366 24.378C24.3914 24.4527 24.2835 24.4817 24.1598 24.4264C23.9998 24.3727 24.0388 24.4317 24.3482 24.7153C24.614 24.9706 24.7303 25.1353 24.7424 25.2742C24.7445 25.4621 24.7329 25.4748 24.5514 25.4826C24.394 25.4895 24.2124 25.3579 23.5235 24.7148L22.6894 23.9386L22.5263 24.3701L22.3694 24.8075L22.9468 25.2553C24.0583 26.1347 25.7634 27.0004 27.1628 27.3883C28.1943 27.683 28.3921 27.6319 28.9879 26.9693C29.3926 26.5151 29.5294 26.3152 29.8115 25.6905C29.873 25.5726 29.8362 25.5621 29.1352 25.4773Z" fill="#F38189"/>
<path d="M30.6824 24.2458C30.8651 24.6805 30.8466 24.9542 30.6219 25.6431C30.3641 26.4062 30.0483 26.9535 29.5099 27.5408C28.7516 28.3682 28.1806 28.4839 26.8344 28.0635C25.3713 27.6056 23.9014 26.851 22.511 25.8321C21.7279 25.2537 21.5848 25.0296 21.7232 24.587C21.9195 23.9417 23.1014 21.4225 23.3214 21.1825C24.0219 20.4183 25.3612 20.4025 26.8974 21.1482C28.2726 21.8161 30.3914 23.5491 30.6824 24.2458ZM28.2258 22.8307C27.3174 22.1608 26.3854 21.6435 25.697 21.4309C24.8245 21.1656 24.0008 21.3288 23.7377 21.8314C23.6593 21.9803 23.6919 22.0335 24.1845 22.485C25.1318 23.3533 26.3786 23.9964 28.1174 24.5211C29.131 24.8226 29.9714 24.9074 30.0599 24.7095C30.1588 24.4748 29.3967 23.6833 28.2258 22.8307ZM29.1352 25.4773C28.5437 25.4 27.9164 25.1968 26.7112 24.6732C25.4686 24.127 24.4898 23.5086 23.8046 22.8108C23.5004 22.5087 23.242 22.2834 23.2188 22.3087C23.1957 22.334 23.1767 22.4561 23.1699 22.5776C23.1604 22.7781 23.2635 22.9192 23.8419 23.5307C24.4203 24.1422 24.5045 24.2659 24.4366 24.378C24.3914 24.4527 24.2835 24.4817 24.1598 24.4264C23.9998 24.3727 24.0388 24.4317 24.3482 24.7153C24.614 24.9706 24.7303 25.1353 24.7424 25.2742C24.7445 25.4621 24.7329 25.4748 24.5514 25.4826C24.394 25.4895 24.2124 25.3579 23.5235 24.7148L22.6894 23.9386L22.5263 24.3701L22.3694 24.8075L22.9468 25.2553C24.0583 26.1347 25.7634 27.0004 27.1628 27.3883C28.1943 27.683 28.3921 27.6319 28.9879 26.9693C29.3926 26.5151 29.5294 26.3152 29.8115 25.6905C29.873 25.5726 29.8362 25.5621 29.1352 25.4773Z" fill="#F38189"/>
<path d="M30.6824 24.2458C30.8651 24.6805 30.8466 24.9542 30.6219 25.6431C30.3641 26.4062 30.0483 26.9535 29.5099 27.5408C28.7516 28.3682 28.1806 28.4839 26.8344 28.0635C25.3713 27.6056 23.9014 26.851 22.511 25.8321C21.7279 25.2537 21.5848 25.0296 21.7232 24.587C21.9195 23.9417 23.1014 21.4225 23.3214 21.1825C24.0219 20.4183 25.3612 20.4025 26.8974 21.1482C28.2726 21.8161 30.3914 23.5491 30.6824 24.2458ZM28.2258 22.8307C27.3174 22.1608 26.3854 21.6435 25.697 21.4309C24.8245 21.1656 24.0008 21.3288 23.7377 21.8314C23.6593 21.9803 23.6919 22.0335 24.1845 22.485C25.1318 23.3533 26.3786 23.9964 28.1174 24.5211C29.131 24.8226 29.9714 24.9074 30.0599 24.7095C30.1588 24.4748 29.3967 23.6833 28.2258 22.8307ZM29.1352 25.4773C28.5437 25.4 27.9164 25.1968 26.7112 24.6732C25.4686 24.127 24.4898 23.5086 23.8046 22.8108C23.5004 22.5087 23.242 22.2834 23.2188 22.3087C23.1957 22.334 23.1767 22.4561 23.1699 22.5776C23.1604 22.7781 23.2635 22.9192 23.8419 23.5307C24.4203 24.1422 24.5045 24.2659 24.4366 24.378C24.3914 24.4527 24.2835 24.4817 24.1598 24.4264C23.9998 24.3727 24.0388 24.4317 24.3482 24.7153C24.614 24.9706 24.7303 25.1353 24.7424 25.2742C24.7445 25.4621 24.7329 25.4748 24.5514 25.4826C24.394 25.4895 24.2124 25.3579 23.5235 24.7148L22.6894 23.9386L22.5263 24.3701L22.3694 24.8075L22.9468 25.2553C24.0583 26.1347 25.7634 27.0004 27.1628 27.3883C28.1943 27.683 28.3921 27.6319 28.9879 26.9693C29.3926 26.5151 29.5294 26.3152 29.8115 25.6905C29.873 25.5726 29.8362 25.5621 29.1352 25.4773Z" fill="#037FA5"/>
<path d="M27.4059 25.7283C27.2959 25.8483 26.9507 25.7178 26.6602 25.4515C26.3823 25.1968 26.4807 25.0894 26.8749 25.23C27.2754 25.3763 27.5159 25.6083 27.4059 25.7283Z" fill="#F38189"/>
<path d="M27.4059 25.7283C27.2959 25.8483 26.9507 25.7178 26.6602 25.4515C26.3823 25.1968 26.4807 25.0894 26.8749 25.23C27.2754 25.3763 27.5159 25.6083 27.4059 25.7283Z" fill="#F38189"/>
<path d="M27.4059 25.7283C27.2959 25.8483 26.9507 25.7178 26.6602 25.4515C26.3823 25.1968 26.4807 25.0894 26.8749 25.23C27.2754 25.3763 27.5159 25.6083 27.4059 25.7283Z" fill="#037FA5"/>
<path d="M27.3222 26.4536C27.0933 26.4878 26.457 26.2183 26.3033 26.031C26.2002 25.8899 26.2607 25.8873 26.6975 26.032C27.2875 26.2125 27.5817 26.4241 27.3222 26.4536Z" fill="#F38189"/>
<path d="M27.3222 26.4536C27.0933 26.4878 26.457 26.2183 26.3033 26.031C26.2002 25.8899 26.2607 25.8873 26.6975 26.032C27.2875 26.2125 27.5817 26.4241 27.3222 26.4536Z" fill="#F38189"/>
<path d="M27.3222 26.4536C27.0933 26.4878 26.457 26.2183 26.3033 26.031C26.2002 25.8899 26.2607 25.8873 26.6975 26.032C27.2875 26.2125 27.5817 26.4241 27.3222 26.4536Z" fill="#037FA5"/>
<path d="M45.3529 29.6047C45.2834 29.6805 39.6928 29.96 39.2055 29.9084C38.9255 29.8842 38.8055 29.7742 38.9097 29.6605C39.0371 29.5216 41.7447 29.3189 43.5693 29.3063C45.0487 29.3026 45.5555 29.3836 45.3529 29.6047Z" fill="#F38189"/>
<path d="M45.3529 29.6047C45.2834 29.6805 39.6928 29.96 39.2055 29.9084C38.9255 29.8842 38.8055 29.7742 38.9097 29.6605C39.0371 29.5216 41.7447 29.3189 43.5693 29.3063C45.0487 29.3026 45.5555 29.3836 45.3529 29.6047Z" fill="#F38189"/>
<path d="M45.3529 29.6047C45.2834 29.6805 39.6928 29.96 39.2055 29.9084C38.9255 29.8842 38.8055 29.7742 38.9097 29.6605C39.0371 29.5216 41.7447 29.3189 43.5693 29.3063C45.0487 29.3026 45.5555 29.3836 45.3529 29.6047Z" fill="#037FA5"/>
<path d="M45.0161 33.2939C45.0087 33.4034 44.8351 34.0112 44.6204 34.6511C44.4114 35.2848 44.1494 36.0905 44.0436 36.4468C43.8304 37.1231 43.6431 37.4162 43.4978 37.2831C43.3463 37.1441 43.4431 36.5821 43.8346 35.2674C44.2256 33.9407 44.5982 33.0271 44.7598 32.9776C44.9035 32.935 45.0187 33.0755 45.0161 33.2939Z" fill="#F38189"/>
<path d="M45.0161 33.2939C45.0087 33.4034 44.8351 34.0112 44.6204 34.6511C44.4114 35.2848 44.1494 36.0905 44.0436 36.4468C43.8304 37.1231 43.6431 37.4162 43.4978 37.2831C43.3463 37.1441 43.4431 36.5821 43.8346 35.2674C44.2256 33.9407 44.5982 33.0271 44.7598 32.9776C44.9035 32.935 45.0187 33.0755 45.0161 33.2939Z" fill="#F38189"/>
<path d="M45.0161 33.2939C45.0087 33.4034 44.8351 34.0112 44.6204 34.6511C44.4114 35.2848 44.1494 36.0905 44.0436 36.4468C43.8304 37.1231 43.6431 37.4162 43.4978 37.2831C43.3463 37.1441 43.4431 36.5821 43.8346 35.2674C44.2256 33.9407 44.5982 33.0271 44.7598 32.9776C44.9035 32.935 45.0187 33.0755 45.0161 33.2939Z" fill="#037FA5"/>
<path d="M39.3497 28.4833C39.3397 28.5322 39.2402 28.6154 39.1265 28.6506C38.374 28.9138 27.8611 30.6201 27.578 30.5232C27.5227 30.5074 27.4827 30.4243 27.4854 30.3453C27.4864 30.2301 27.6833 30.1548 28.3021 30.0248C29.3057 29.8175 34.0901 28.9849 36.2883 28.6406C39.1249 28.1959 39.4091 28.1775 39.3497 28.4833Z" fill="#F38189"/>
<path d="M39.3497 28.4833C39.3397 28.5322 39.2402 28.6154 39.1265 28.6506C38.374 28.9138 27.8611 30.6201 27.578 30.5232C27.5227 30.5074 27.4827 30.4243 27.4854 30.3453C27.4864 30.2301 27.6833 30.1548 28.3021 30.0248C29.3057 29.8175 34.0901 28.9849 36.2883 28.6406C39.1249 28.1959 39.4091 28.1775 39.3497 28.4833Z" fill="#F38189"/>
<path d="M39.3497 28.4833C39.3397 28.5322 39.2402 28.6154 39.1265 28.6506C38.374 28.9138 27.8611 30.6201 27.578 30.5232C27.5227 30.5074 27.4827 30.4243 27.4854 30.3453C27.4864 30.2301 27.6833 30.1548 28.3021 30.0248C29.3057 29.8175 34.0901 28.9849 36.2883 28.6406C39.1249 28.1959 39.4091 28.1775 39.3497 28.4833Z" fill="#037FA5"/>
<path d="M43.7467 33.9433C43.7109 34.5148 43.2699 36.2257 43.1384 36.2678C42.9526 36.3184 42.871 36.1157 42.9552 35.821C42.9968 35.6616 43.1278 35.0495 43.2483 34.4743C43.4315 33.5265 43.5536 33.2665 43.7178 33.417C43.7493 33.446 43.7593 33.6759 43.7467 33.9433Z" fill="#F38189"/>
<path d="M43.7467 33.9433C43.7109 34.5148 43.2699 36.2257 43.1384 36.2678C42.9526 36.3184 42.871 36.1157 42.9552 35.821C42.9968 35.6616 43.1278 35.0495 43.2483 34.4743C43.4315 33.5265 43.5536 33.2665 43.7178 33.417C43.7493 33.446 43.7593 33.6759 43.7467 33.9433Z" fill="#F38189"/>
<path d="M43.7467 33.9433C43.7109 34.5148 43.2699 36.2257 43.1384 36.2678C42.9526 36.3184 42.871 36.1157 42.9552 35.821C42.9968 35.6616 43.1278 35.0495 43.2483 34.4743C43.4315 33.5265 43.5536 33.2665 43.7178 33.417C43.7493 33.446 43.7593 33.6759 43.7467 33.9433Z" fill="#037FA5"/>
<path d="M18.325 21.1815C18.3603 21.2951 18.3198 21.3393 18.194 21.3751C17.553 21.5546 16.0605 20.8373 14.9179 19.8016C14.4506 19.3732 14.3337 19.1964 14.4437 19.0764C14.5479 18.9627 14.6784 19.0359 15.4673 19.6079C16.2436 20.1684 17.0509 20.6063 17.7645 20.842C18.0477 20.9388 18.2755 21.0199 18.2819 21.0257C18.2819 21.0257 18.3034 21.1036 18.325 21.1815Z" fill="#F38189"/>
<path d="M18.325 21.1815C18.3603 21.2951 18.3198 21.3393 18.194 21.3751C17.553 21.5546 16.0605 20.8373 14.9179 19.8016C14.4506 19.3732 14.3337 19.1964 14.4437 19.0764C14.5479 18.9627 14.6784 19.0359 15.4673 19.6079C16.2436 20.1684 17.0509 20.6063 17.7645 20.842C18.0477 20.9388 18.2755 21.0199 18.2819 21.0257C18.2819 21.0257 18.3034 21.1036 18.325 21.1815Z" fill="#F38189"/>
<path d="M18.325 21.1815C18.3603 21.2951 18.3198 21.3393 18.194 21.3751C17.553 21.5546 16.0605 20.8373 14.9179 19.8016C14.4506 19.3732 14.3337 19.1964 14.4437 19.0764C14.5479 18.9627 14.6784 19.0359 15.4673 19.6079C16.2436 20.1684 17.0509 20.6063 17.7645 20.842C18.0477 20.9388 18.2755 21.0199 18.2819 21.0257C18.2819 21.0257 18.3034 21.1036 18.325 21.1815Z" fill="#037FA5"/>
<path d="M22.0237 30.2433C22.0222 30.9043 19.4682 38.5463 19.2072 38.679C18.9878 38.7916 18.9878 38.5127 19.2198 37.7143C19.7503 35.8297 21.0565 31.5648 21.3159 30.838C21.5211 30.2591 21.639 30.0417 21.7585 30.0002C21.9674 29.9244 22.0306 29.9823 22.0237 30.2433Z" fill="#F38189"/>
<path d="M22.0237 30.2433C22.0222 30.9043 19.4682 38.5463 19.2072 38.679C18.9878 38.7916 18.9878 38.5127 19.2198 37.7143C19.7503 35.8297 21.0565 31.5648 21.3159 30.838C21.5211 30.2591 21.639 30.0417 21.7585 30.0002C21.9674 29.9244 22.0306 29.9823 22.0237 30.2433Z" fill="#F38189"/>
<path d="M22.0237 30.2433C22.0222 30.9043 19.4682 38.5463 19.2072 38.679C18.9878 38.7916 18.9878 38.5127 19.2198 37.7143C19.7503 35.8297 21.0565 31.5648 21.3159 30.838C21.5211 30.2591 21.639 30.0417 21.7585 30.0002C21.9674 29.9244 22.0306 29.9823 22.0237 30.2433Z" fill="#037FA5"/>
<path d="M22.5285 33.4836C22.5185 33.9509 21.7638 36.1181 21.5802 36.217C21.5207 36.2439 21.4354 36.2355 21.3849 36.1892C21.2713 36.085 22.0469 33.2862 22.219 33.1999C22.3969 33.1073 22.5359 33.2346 22.5285 33.4836Z" fill="#F38189"/>
<path d="M22.5285 33.4836C22.5185 33.9509 21.7638 36.1181 21.5802 36.217C21.5207 36.2439 21.4354 36.2355 21.3849 36.1892C21.2713 36.085 22.0469 33.2862 22.219 33.1999C22.3969 33.1073 22.5359 33.2346 22.5285 33.4836Z" fill="#F38189"/>
<path d="M22.5285 33.4836C22.5185 33.9509 21.7638 36.1181 21.5802 36.217C21.5207 36.2439 21.4354 36.2355 21.3849 36.1892C21.2713 36.085 22.0469 33.2862 22.219 33.1999C22.3969 33.1073 22.5359 33.2346 22.5285 33.4836Z" fill="#037FA5"/>
<path d="M12.1383 31.316C12.2514 31.5475 12.1193 31.717 11.8741 31.6549C11.6778 31.6028 11.0984 31.1065 10.9984 30.8986C10.9189 30.7444 11.0684 30.556 11.2741 30.5471C11.4436 30.5397 12.0051 31.0428 12.1383 31.316Z" fill="#F38189"/>
<path d="M12.1383 31.316C12.2514 31.5475 12.1193 31.717 11.8741 31.6549C11.6778 31.6028 11.0984 31.1065 10.9984 30.8986C10.9189 30.7444 11.0684 30.556 11.2741 30.5471C11.4436 30.5397 12.0051 31.0428 12.1383 31.316Z" fill="#F38189"/>
<path d="M12.1383 31.316C12.2514 31.5475 12.1193 31.717 11.8741 31.6549C11.6778 31.6028 11.0984 31.1065 10.9984 30.8986C10.9189 30.7444 11.0684 30.556 11.2741 30.5471C11.4436 30.5397 12.0051 31.0428 12.1383 31.316Z" fill="#037FA5"/>
<path d="M12.9771 33.3168C13.1261 33.5347 13.1013 33.8026 12.9319 33.81C12.8592 33.8131 12.4214 33.5047 11.9441 33.1253C9.75737 31.3649 8.65008 30.4429 8.62219 30.3592C8.5785 30.1914 8.76796 30.0861 8.959 30.1566C9.54527 30.3919 12.6345 32.8285 12.9771 33.3168Z" fill="#F38189"/>
<path d="M12.9771 33.3168C13.1261 33.5347 13.1013 33.8026 12.9319 33.81C12.8592 33.8131 12.4214 33.5047 11.9441 33.1253C9.75737 31.3649 8.65008 30.4429 8.62219 30.3592C8.5785 30.1914 8.76796 30.0861 8.959 30.1566C9.54527 30.3919 12.6345 32.8285 12.9771 33.3168Z" fill="#F38189"/>
<path d="M12.9771 33.3168C13.1261 33.5347 13.1013 33.8026 12.9319 33.81C12.8592 33.8131 12.4214 33.5047 11.9441 33.1253C9.75737 31.3649 8.65008 30.4429 8.62219 30.3592C8.5785 30.1914 8.76796 30.0861 8.959 30.1566C9.54527 30.3919 12.6345 32.8285 12.9771 33.3168Z" fill="#037FA5"/>
<path d="M15.1212 36.886C15.0938 36.9539 15.0112 37.006 14.9323 37.0033C14.6649 36.9907 10.7257 33.9726 8.18276 31.8275C7.2444 31.0255 7.10494 30.886 7.17441 30.8102C7.23808 30.7408 7.42386 30.8297 7.91172 31.1723C8.27432 31.4233 8.64324 31.6802 8.73639 31.7307C9.0169 31.9064 11.6372 33.8784 12.9492 34.9067C14.6065 36.205 15.1812 36.7318 15.1212 36.886Z" fill="#F38189"/>
<path d="M15.1212 36.886C15.0938 36.9539 15.0112 37.006 14.9323 37.0033C14.6649 36.9907 10.7257 33.9726 8.18276 31.8275C7.2444 31.0255 7.10494 30.886 7.17441 30.8102C7.23808 30.7408 7.42386 30.8297 7.91172 31.1723C8.27432 31.4233 8.64324 31.6802 8.73639 31.7307C9.0169 31.9064 11.6372 33.8784 12.9492 34.9067C14.6065 36.205 15.1812 36.7318 15.1212 36.886Z" fill="#F38189"/>
<path d="M15.1212 36.886C15.0938 36.9539 15.0112 37.006 14.9323 37.0033C14.6649 36.9907 10.7257 33.9726 8.18276 31.8275C7.2444 31.0255 7.10494 30.886 7.17441 30.8102C7.23808 30.7408 7.42386 30.8297 7.91172 31.1723C8.27432 31.4233 8.64324 31.6802 8.73639 31.7307C9.0169 31.9064 11.6372 33.8784 12.9492 34.9067C14.6065 36.205 15.1812 36.7318 15.1212 36.886Z" fill="#037FA5"/>
</svg>
