<svg width="51" height="53" viewBox="0 0 51 53" fill="none" xmlns="http://www.w3.org/2000/svg">
<path d="M31.3774 21.3368C31.2495 18.9132 30.7331 17.8006 29.9235 16.9015C28.9002 15.6881 27.165 15.0084 25.3519 15.0252C23.3279 15.0441 21.206 15.865 20.0213 17.7103C19.1261 18.9416 19.144 20.8601 19.1504 21.5558L19.1598 22.5678L20.7275 50.5957L3.23626 51.5594L0.563258 4.4181L16.8536 3.54986L17.5053 7.88721L17.7995 7.77908C20.9069 4.10258 26.2384 1.52291 31.9097 1.47022C36.7587 1.42516 40.5208 2.40221 43.3667 4.61073C46.3197 7.00801 48.1878 10.6383 48.5421 17.0026L50.3563 48.8655L32.9494 49.8285L31.377 21.2946L31.3774 21.3368Z" stroke="#F0515B" stroke-miterlimit="10"/>
</svg>
