<svg width="54" height="58" viewBox="0 0 54 58" fill="none" xmlns="http://www.w3.org/2000/svg">
<path d="M31.1445 27.3337C31.0166 24.9101 30.5002 23.7974 29.6906 22.8983C28.6673 21.6849 26.932 21.0052 25.1189 21.0221C23.0949 21.0409 20.9731 21.8618 19.7884 23.7072C18.8932 24.9384 18.911 26.8569 18.9175 27.5527L18.9269 28.5647L20.4946 56.5925L3.00335 57.5563L0.330348 10.415L16.6207 9.54675L17.2724 13.8841L17.5666 13.7759C20.674 10.0994 26.0055 7.51974 31.6768 7.46705C36.5258 7.42199 40.2879 8.39911 43.1338 10.6076C46.0868 13.0049 47.9549 16.6352 48.3092 22.9994L50.1234 54.8624L32.7165 55.8253L31.1441 27.2914L31.1445 27.3337Z" fill="#F9BDC1"/>
<path d="M34.3774 21.3368C34.2495 18.9132 33.7331 17.8006 32.9235 16.9015C31.9002 15.6881 30.165 15.0084 28.3519 15.0252C26.3279 15.0441 24.206 15.865 23.0213 17.7103C22.1261 18.9416 22.144 20.8601 22.1504 21.5558L22.1598 22.5678L23.7275 50.5957L6.23626 51.5594L3.56326 4.4181L19.8536 3.54986L20.5053 7.88722L20.7995 7.77909C23.9069 4.10259 29.2384 1.52292 34.9097 1.47022C39.7587 1.42516 43.5208 2.40221 46.3667 4.61073C49.3197 7.00801 51.1878 10.6383 51.5421 17.0026L53.3563 48.8655L35.9494 49.8285L34.377 21.2946L34.3774 21.3368Z" stroke="#F0515B" stroke-miterlimit="10"/>
</svg>
