<svg width="321" height="321" viewBox="0 0 321 321" fill="none" xmlns="http://www.w3.org/2000/svg">
<g filter="url(#filter0_d_86_74)">
<circle cx="160.5" cy="156.5" r="155.794" fill="#FC4A01" fill-opacity="0.32" shape-rendering="crispEdges"/>
</g>
<path d="M100.312 66.7365C99.5128 67.1152 98.3349 67.9145 97.7038 68.5035C96.4417 69.7235 94.212 75.0244 93.7492 77.8852L93.4547 79.6942L90.678 79.3997C89.1635 79.2735 86.471 79.0211 84.7461 78.8949L81.5908 78.6425L80.6232 81.1667C79.908 83.0599 60.7659 128.959 55.8857 140.444L55.2968 141.748L61.0604 148.858C79.908 172.039 111.545 213.1 124.292 230.896C126.522 234.009 127.279 234.766 128.289 234.934C129.004 235.018 133.548 235.86 138.386 236.828C159.674 240.993 183.78 244.653 209.275 247.64C214.239 248.229 218.825 248.691 219.456 248.691C220.508 248.691 221.559 246.924 235.695 221.43C254.122 188.236 253.196 190.045 252.692 189.078C252.481 188.657 251.514 186.595 250.546 184.534C248.022 179.191 244.656 173.217 240.533 166.948C237.799 162.699 237.041 161.227 237.041 160.049C237.041 156.894 234.18 153.107 230.268 151.088C229.427 150.625 228.627 150.036 228.501 149.7C228.375 149.363 225.64 145.366 222.443 140.739C219.203 136.153 216.469 132.114 216.258 131.862C216.09 131.567 216.553 129.506 217.268 127.234C218.741 122.396 218.867 119.661 217.647 117.179C215.501 112.678 208.56 109.059 199.725 107.755L196.401 107.25L192.825 102.833C190.89 100.351 189.123 98.079 188.955 97.7845C188.744 97.4059 189.039 95.7231 189.712 93.4513C191.1 88.9497 190.932 86.8883 188.955 83.9013C185.21 78.2638 174.987 74.8982 161.314 74.8141C154.793 74.7299 153.363 75.0665 151.554 77.2121C150.334 78.6004 148.735 81.924 148.104 84.322C147.768 85.5 147.347 86.4676 147.137 86.4676C145.58 86.1731 136.703 84.1116 136.451 83.9434C136.24 83.8171 136.282 83.2702 136.493 82.6812C138.176 78.2638 134.137 72.2898 127.658 69.5973C122.61 67.4938 117.098 66.5262 108.937 66.2737C103.005 66.1055 101.532 66.1896 100.312 66.7365ZM117.561 70.4808C122.525 71.3643 126.186 72.5423 128.92 74.183C131.823 75.95 133.127 77.8431 133.127 80.2412V82.0923H129.677C125.176 82.0923 121.768 81.5033 116.762 79.9467C108.852 77.4224 100.48 72.6264 100.817 70.8174C100.901 70.4387 101.406 69.976 101.995 69.8077C103.552 69.3449 113.48 69.7656 117.561 70.4808ZM105.95 78.937C114.027 82.6812 122.904 84.7848 129.593 84.5323L133.422 84.4061L132.875 85.6682C132.412 86.7621 132.117 86.9724 130.308 87.1407C128.626 87.309 128.289 87.4773 128.289 88.1925C128.289 88.8235 128.626 89.076 129.677 89.1601C130.982 89.2863 131.318 89.7912 130.687 90.7588C130.351 91.3478 123.535 90.5484 119.286 89.4546C116.425 88.7394 115.458 88.8235 115.458 89.8332C115.458 91.3057 120.169 92.8623 125.975 93.3251C129.173 93.5775 129.341 93.6196 129.088 94.461C128.331 96.9011 127.784 96.9431 119.454 95.5548C111.545 94.2086 100.649 90.0015 98.2507 87.4352C96.61 85.6262 96.61 79.7784 98.2507 75.4872L98.6294 74.5196L100.691 75.992C101.827 76.7914 104.183 78.1376 105.95 78.937ZM173.725 79.568C178.69 80.6198 183.233 82.6812 185.295 84.7848C186.557 86.131 186.725 86.5938 186.767 88.529V90.7167L182.35 90.6746C179.278 90.6326 176.838 90.3381 174.356 89.707C166.784 87.7297 156.687 82.9337 155.13 80.5356C154.457 79.526 154.457 79.4418 155.256 78.8528C156.434 77.9273 168.13 78.3901 173.725 79.568ZM90.5518 81.2929L93.1602 81.7557V83.3123C93.1602 85.7945 93.9595 87.9401 95.6003 89.7491C99.1763 93.7037 113.017 98.668 122.988 99.5936C126.101 99.8881 126.396 100.098 125.344 101.192C123.367 103.17 121.347 110.111 121.347 114.907C121.347 120.334 123.156 122.774 129.173 125.635C136.198 128.959 145.917 131.525 153.531 132.03C157.276 132.282 157.486 132.24 158.454 131.273C159.926 129.8 164.68 115.412 164.68 112.467C164.68 110.027 163.628 107.503 161.861 105.736L160.81 104.684L161.819 104.979C166.321 106.325 172.926 107.839 176.039 108.218C179.867 108.723 180.288 108.933 179.236 109.817C178.437 110.49 176.628 114.655 175.829 117.642C175.492 118.988 175.198 121.639 175.198 123.49C175.198 129.211 176.923 131.483 183.612 134.554C190.301 137.667 197.874 139.687 205.867 140.57C211.883 141.243 213.061 140.612 214.113 136.237C214.281 135.606 214.576 135.017 214.744 134.891C214.954 134.765 217.226 137.667 219.834 141.285C222.443 144.946 224.715 148.143 224.925 148.437C225.219 148.774 224.673 148.732 223.074 148.311C217.142 146.713 205.068 145.955 201.492 146.923C200.566 147.175 199.262 147.891 198.631 148.479C195.938 151.004 193.709 157.693 193.709 163.246C193.751 168.884 195.307 170.945 201.912 174.016C208.644 177.172 216.09 179.233 223.747 180.117C228.585 180.705 230.436 180.453 231.236 179.149C231.572 178.644 232.834 175.405 234.054 171.913C235.274 168.463 236.284 165.56 236.368 165.476C236.536 165.308 241.543 172.88 243.73 176.667C247.853 183.777 250.041 188.152 249.326 187.942C248.947 187.815 245.582 186.974 241.879 186.048C227.954 182.599 216.679 180.453 180.709 174.437L154.878 170.146L153.405 168.084C135.189 142.926 96.652 93.872 86.0082 82.3447L84.115 80.2832L86.0082 80.5777C87.06 80.746 89.0794 81.0405 90.5518 81.2929ZM87.691 87.7718C115.037 121.681 130.897 142.127 146.926 164.046L152.858 172.123L152.269 173.511C151.975 174.227 147.599 184.324 142.593 195.893C137.545 207.462 132.117 219.999 130.477 223.786L127.532 230.643L125.807 228.203C112.386 209.145 78.5617 166.191 62.4487 147.68L57.1058 141.58L69.5166 111.415C76.3741 94.7975 82.0957 81.2929 82.2639 81.335C82.4322 81.4191 84.8723 84.2799 87.691 87.7718ZM159.421 87.3931C167.877 91.3478 174.777 93.1147 182.181 93.1989L187.314 93.2409L186.515 94.7975C185.757 96.27 185.589 96.3962 183.78 96.3962C182.434 96.3962 181.845 96.6066 181.634 97.0693C181.34 97.8687 182.181 98.4997 183.528 98.4997C184.285 98.4997 184.495 98.7101 184.369 99.4253C184.243 100.267 183.948 100.393 182.223 100.519C181.088 100.603 178.143 100.267 175.66 99.8039C170.528 98.7942 169.055 98.7101 168.635 99.3832C167.835 100.687 171.958 102.202 178.016 102.833C181.761 103.212 182.728 103.422 182.56 103.885C182.434 104.179 182.35 104.642 182.35 104.894C182.35 105.399 177.427 105.021 172.463 104.095C168.046 103.296 159.8 100.561 155.845 98.5418C151.806 96.5224 150.797 95.1341 150.797 91.6002C150.797 89.2863 151.722 84.2378 152.311 83.2702C152.438 83.0599 153.237 83.5227 154.078 84.2378C154.92 84.9951 157.318 86.4255 159.421 87.3931ZM142.088 88.0242L147.01 88.9918V91.0533C147.01 94.1244 147.768 96.6066 149.324 98.4156L150.713 100.014L148.146 99.5094C145.033 98.8363 137.25 98.079 133.8 98.079C132.033 98.079 131.402 97.9528 131.571 97.5321C131.655 97.2797 132.58 94.7134 133.548 91.8526C135.189 87.1828 135.441 86.6779 136.24 86.8883C136.745 86.9724 139.354 87.5193 142.088 88.0242ZM189.838 104.011C191.016 105.315 192.026 106.493 192.026 106.619C192.026 106.788 190.511 106.914 188.618 106.914C186.052 106.914 185.253 106.788 185.379 106.367C185.505 106.115 185.926 104.852 186.346 103.632C186.725 102.412 187.188 101.445 187.356 101.529C187.482 101.613 188.618 102.707 189.838 104.011ZM148.02 103.128C156.981 105.063 161.861 108.807 161.23 113.224C161.104 114.276 161.062 114.276 156.687 114.192C150.208 114.108 142.214 111.836 134.852 107.966C130.014 105.399 127.7 102.917 129.467 102.118C130.729 101.529 143.939 102.244 148.02 103.128ZM129.299 108.597C132.16 110.574 134.894 111.836 140.7 113.813C146.464 115.833 151.386 116.716 156.813 116.716C159.295 116.716 161.314 116.8 161.314 116.885C161.314 117.516 159.926 119.535 159.632 119.325C159.463 119.198 157.823 119.072 156.056 119.03C153.531 118.988 152.69 119.156 152.143 119.703C150.965 120.923 152.438 121.639 156.14 121.639C159.127 121.639 159.169 121.639 158.832 122.564C158.496 123.448 158.243 123.532 156.224 123.363C154.962 123.279 152.185 122.69 149.997 122.017C145.159 120.545 144.192 120.881 146.758 123.153C148.525 124.71 151.302 125.719 154.92 126.14C156.098 126.266 157.107 126.435 157.107 126.519C157.107 126.561 156.897 127.15 156.687 127.739C156.266 128.875 156.224 128.875 153.405 128.622C143.308 127.613 130.393 123.405 126.69 119.872L125.008 118.315L125.26 113.982C125.428 110.237 126.101 106.914 126.648 106.914C126.732 106.914 127.952 107.671 129.299 108.597ZM201.281 111.71C210.453 113.603 215.165 116.885 215.165 121.428V122.901H211.084C204.605 122.901 198.631 121.302 190.553 117.431C185.126 114.865 182.686 113.056 182.854 111.836C182.939 111.331 183.401 110.826 184.032 110.616C186.01 110.027 196.233 110.658 201.281 111.71ZM182.518 116.758C184.748 118.441 187.819 119.956 193.078 121.891C199.977 124.499 203.427 125.172 209.569 125.172C212.64 125.215 215.165 125.257 215.165 125.299C215.165 125.341 214.996 125.846 214.744 126.435C214.365 127.486 214.197 127.528 211.21 127.528C208.98 127.528 207.971 127.697 207.592 128.159C206.624 129.295 207.802 130.053 210.579 130.053C211.967 130.053 213.061 130.137 213.061 130.221C213.061 131.273 212.388 131.735 210.789 131.735C208.644 131.735 202.754 130.515 197.747 129.043C193.54 127.781 192.236 127.697 191.9 128.538C191.563 129.337 192.152 129.758 195.307 131.02C198.883 132.493 204.647 133.881 208.307 134.218L211.294 134.47L210.705 135.9L210.116 137.331L206.414 137.036C199.43 136.531 190.427 134.007 184.032 130.768C179.573 128.538 178.816 127.402 178.9 123.279C178.942 120.797 180.036 115.328 180.499 115.328C180.583 115.328 181.508 115.959 182.518 116.758ZM216.637 150.709C227.155 152.14 233.676 156.052 233.676 160.89C233.676 162.321 233.634 162.363 231.698 162.573C229.132 162.868 223.831 162.237 219.834 161.143C213.356 159.418 203.932 155 201.954 152.813C200.903 151.677 201.239 150.541 202.754 150.162C204.268 149.826 212.514 150.12 216.637 150.709ZM201.113 156.389C203.679 158.282 205.573 159.25 210.789 161.227C218.362 164.046 221.433 164.677 227.912 164.719C232.876 164.761 233.676 164.845 233.507 165.392C233.423 165.728 232.287 168.463 230.983 171.492L228.669 176.961L226.44 176.835C215.627 176.204 200.061 170.819 198.084 166.991C197.537 165.939 197.453 164.887 197.621 161.858C197.832 158.576 198.589 154.874 199.052 154.874C199.094 154.874 200.061 155.547 201.113 156.389ZM204.857 181.126C212.262 182.472 221.433 184.197 225.262 184.997C231.53 186.301 249.284 190.592 249.578 190.844C249.62 190.887 247.98 193.958 245.96 197.618C243.899 201.278 237.167 213.478 231.025 224.711C224.841 235.944 219.624 245.368 219.414 245.662C218.825 246.63 187.44 242.886 163.418 238.973C153.447 237.374 130.098 233.125 129.846 232.915C129.762 232.831 135.609 219.2 142.803 202.54L155.929 172.333L173.641 175.531C183.401 177.298 197.453 179.822 204.857 181.126Z" fill="white"/>
<path d="M152.269 135.48C150.166 136.447 149.324 137.499 147.852 140.739C146.253 144.357 145.58 147.386 145.58 151.298C145.58 156.809 147.263 159.123 153.531 162.068C160.347 165.266 168.172 167.411 176.586 168.337C181.34 168.842 182.602 168.505 183.57 166.444C185 163.457 189.081 150.415 189.081 148.816C189.081 143.726 184.285 139.224 176.249 136.826C169.055 134.68 155.635 133.923 152.269 135.48ZM165.858 138.509C171.369 139.098 176.46 140.318 179.657 141.832C183.696 143.768 186.136 147.091 185.421 149.784C185.21 150.583 184.916 150.667 181.634 150.667C175.324 150.667 168.677 148.858 160.641 144.988C155.971 142.716 152.648 140.234 152.984 139.224C153.405 138.046 158.79 137.709 165.858 138.509ZM153.784 145.072C156.182 146.755 159.127 148.101 165.227 150.204C171.538 152.35 177.133 153.36 181.929 153.107C184.032 153.023 185.715 153.065 185.715 153.233C185.715 153.402 185.379 153.907 185 154.369C184.369 155.127 183.528 155.295 179.405 155.589C175.282 155.884 174.567 156.052 174.44 156.683C174.356 157.104 174.651 157.567 175.282 157.777C176.039 158.114 175.702 158.198 173.641 158.198C171.832 158.24 170.864 158.45 170.36 158.913C169.728 159.586 169.728 159.67 170.36 160.301C170.906 160.848 172 160.974 176.628 160.932L182.223 160.89L181.382 162.994L180.499 165.097L176.923 164.803C169.981 164.298 160.936 161.774 154.583 158.534C149.871 156.178 149.324 155.337 149.366 150.962C149.408 147.975 149.577 146.797 150.628 143.599C150.797 142.968 150.965 143.052 153.784 145.072Z" fill="white"/>
<path d="M159.211 151.719C159.211 152.518 160.894 153.191 162.829 153.191C164.68 153.191 164.68 152.476 162.787 151.677C160.852 150.877 159.211 150.919 159.211 151.719Z" fill="white"/>
<path d="M157.107 154.622C157.823 155.505 161.02 156.641 162.198 156.473C163.039 156.305 162.829 156.094 160.767 155.169C158.033 153.865 156.266 153.654 157.107 154.622Z" fill="white"/>
<path d="M81.3804 106.199C81.3804 106.703 100.691 126.266 102.626 127.697C103.72 128.538 104.519 128.538 104.519 127.781C104.519 126.855 95.3899 117.137 88.8269 111.037C83.484 106.114 81.3804 104.726 81.3804 106.199Z" fill="white"/>
<path d="M70.358 120.671C70.0214 121.092 68.6331 123.868 67.2868 126.897C65.9406 129.884 64.2157 133.671 63.4163 135.312C61.9439 138.467 61.6494 140.15 62.617 140.15C63.6267 140.15 65.1412 137.794 68.0862 131.736C71.0732 125.635 72.756 121.092 72.3353 120.377C71.9566 119.745 71.0732 119.872 70.358 120.671Z" fill="white"/>
<path d="M106.833 122.059C106.707 122.27 106.791 122.901 107.086 123.406C108.937 126.855 141.331 167.916 142.677 168.505C142.93 168.631 143.35 168.463 143.603 168.169C143.981 167.748 143.519 166.822 141.71 164.298C138.765 160.217 124.208 141.328 117.393 132.787C108.6 121.765 107.632 120.755 106.833 122.059Z" fill="white"/>
<path d="M72.7981 127.234C71.0311 129.422 66.9503 137.078 67.2868 137.667C67.7917 138.467 68.7593 138.004 69.4324 136.658C69.8111 135.943 71.3677 133.292 72.8401 130.81C75.3223 126.771 75.743 125.425 74.6492 125.425C74.4388 125.425 73.6395 126.224 72.7981 127.234Z" fill="white"/>
<path d="M207.171 165.392C206.666 165.686 206.666 165.981 207.003 166.528C208.728 169.304 216.511 171.66 224.084 171.702C227.197 171.702 228.206 171.45 228.206 170.651C228.206 169.893 227.491 169.725 222.737 169.178C218.067 168.631 213.692 167.537 210.327 166.023C208.98 165.434 207.886 164.971 207.844 164.971C207.844 164.971 207.508 165.181 207.171 165.392Z" fill="white"/>
<path d="M163.712 185.922C161.525 188.32 145.412 224.459 145.917 225.805C146.337 226.941 147.263 225.931 149.072 222.271C153.405 213.689 162.829 193.916 164.301 190.424C165.479 187.647 165.774 186.469 165.479 185.922C164.975 184.955 164.554 184.955 163.712 185.922Z" fill="white"/>
<path d="M151.133 195.977C149.619 197.702 145.159 208.051 145.496 209.019C145.622 209.313 145.959 209.566 146.295 209.566C147.053 209.566 153.531 196.861 153.195 195.977C152.858 195.052 151.933 195.052 151.133 195.977Z" fill="white"/>
<path d="M195.938 222.608C194.76 223.07 194.676 224.122 195.77 224.711C196.654 225.174 200.398 225.3 201.45 224.879C202.249 224.585 202.333 223.407 201.618 222.692C201.029 222.103 197.327 222.061 195.938 222.608Z" fill="white"/>
<path d="M186.262 227.067C185 227.362 184.201 228.413 184.79 229.002C185.042 229.255 187.65 229.591 190.637 229.802C204.395 230.685 211.462 231.022 211.841 230.811C212.556 230.349 212.22 229.339 211.294 228.96C208.391 227.866 189.123 226.436 186.262 227.067Z" fill="white"/>
<path d="M166.657 232.873C166.531 233.209 166.657 233.672 166.952 233.924C167.962 234.766 192.236 236.912 208.56 237.585C214.618 237.795 215.585 237.753 215.585 237.248C215.585 236.785 214.618 236.491 211.715 236.112C209.569 235.818 207.382 235.523 206.877 235.397C205.278 235.102 189.249 233.546 181.087 232.915C170.78 232.115 166.952 232.115 166.657 232.873Z" fill="white"/>
<defs>
<filter id="filter0_d_86_74" x="0.705444" y="0.705566" width="319.589" height="319.589" filterUnits="userSpaceOnUse" color-interpolation-filters="sRGB">
<feFlood flood-opacity="0" result="BackgroundImageFix"/>
<feColorMatrix in="SourceAlpha" type="matrix" values="0 0 0 0 0 0 0 0 0 0 0 0 0 0 0 0 0 0 127 0" result="hardAlpha"/>
<feOffset dy="4"/>
<feGaussianBlur stdDeviation="2"/>
<feComposite in2="hardAlpha" operator="out"/>
<feColorMatrix type="matrix" values="0 0 0 0 0 0 0 0 0 0 0 0 0 0 0 0 0 0 0.25 0"/>
<feBlend mode="normal" in2="BackgroundImageFix" result="effect1_dropShadow_86_74"/>
<feBlend mode="normal" in="SourceGraphic" in2="effect1_dropShadow_86_74" result="shape"/>
</filter>
</defs>
</svg>
