<svg width="55" height="53" viewBox="0 0 55 53" fill="none" xmlns="http://www.w3.org/2000/svg">
<path d="M10.0094 9.41629C9.85532 9.54891 9.64296 9.79783 9.53899 9.96682C9.33361 10.3141 9.16243 11.6248 9.23418 12.287L9.27914 12.7058L8.64582 12.8098C8.30248 12.8741 7.69037 12.9822 7.30041 13.0593L6.58575 13.1956L6.5251 13.814C6.48195 14.2771 5.03624 25.6157 4.65448 28.4585L4.60341 28.7834L6.31397 30.0079C11.9034 33.9969 21.4167 41.1693 25.3262 44.3366C26.01 44.8907 26.224 45.0124 26.458 44.9881C26.6216 44.9632 27.6799 44.8729 28.811 44.7925C33.7827 44.4185 39.3482 43.7609 45.1804 42.8695C46.3165 42.6975 47.361 42.5207 47.5008 42.4822C47.7339 42.4182 47.8594 41.9625 49.4388 35.451C51.5001 26.9718 51.4052 27.4291 51.2344 27.2454C51.1621 27.165 50.8221 26.7671 50.482 26.3692C49.597 25.3388 48.4871 24.2199 47.1915 23.0819C46.3265 22.3068 46.069 22.0266 45.9972 21.7656C45.805 21.0663 44.9402 20.4014 43.9501 20.1923C43.7354 20.141 43.5224 20.0592 43.4739 19.9923C43.4254 19.9254 42.5758 19.2062 41.5853 18.3754C40.5879 17.5565 39.7358 16.828 39.6738 16.7849C39.6186 16.7299 39.5955 16.2448 39.6156 15.6978C39.6472 14.5358 39.5085 13.9221 39.0869 13.4463C38.3371 12.5794 36.5782 12.2005 34.5408 12.4498L33.7734 12.5404L32.7118 11.7793C32.1316 11.3471 31.6016 10.9513 31.5464 10.8963C31.4767 10.8252 31.4394 10.4343 31.4502 9.88977C31.4836 8.80754 31.3207 8.36093 30.7005 7.81942C29.5271 6.79817 27.0564 6.67516 24.021 7.4896C22.5707 7.86827 22.2742 8.03002 22.004 8.61575C21.8182 8.99777 21.6664 9.83176 21.6727 10.4017C21.6699 10.6832 21.6356 10.9233 21.589 10.9361C21.2261 10.9657 19.1331 11.0497 19.0669 11.0278C19.0126 11.0126 18.9886 10.8889 18.9994 10.7455C19.1032 9.66399 17.8441 8.5861 16.2442 8.38413C14.9971 8.22554 13.7168 8.3469 11.8926 8.78824C10.5677 9.11238 10.2465 9.22075 10.0094 9.41629ZM14.0603 9.19513C15.2143 9.08846 16.0973 9.12651 16.8033 9.32352C17.5543 9.53825 17.9587 9.87836 18.1048 10.4098L18.2176 10.8201L17.453 11.0303C16.4554 11.3045 15.6643 11.3816 14.4599 11.3417C12.5532 11.2642 10.4056 10.7114 10.3699 10.2899C10.3655 10.2009 10.4492 10.0676 10.5695 9.99439C10.8863 9.79699 13.1123 9.28528 14.0603 9.19513ZM12.0022 11.7767C14.0205 12.1144 16.1159 12.0397 17.583 11.5762L18.4238 11.3149L18.3795 11.628C18.3436 11.8986 18.2912 11.9631 17.9005 12.1107C17.5378 12.2505 17.4734 12.3083 17.517 12.4668C17.5555 12.6066 17.6454 12.6421 17.8837 12.5966C18.1804 12.5452 18.2857 12.6365 18.2048 12.8894C18.1661 13.0405 16.607 13.2786 15.5986 13.2951C14.921 13.3109 14.7117 13.3885 14.7732 13.6122C14.863 13.9386 16.0021 13.9965 17.3169 13.7453C18.0409 13.6064 18.0808 13.6055 18.0761 13.8073C18.057 14.3943 17.9383 14.4369 16.0076 14.6368C14.1727 14.8203 11.5015 14.5518 10.8137 14.1292C10.3399 13.8282 9.98355 12.5322 10.0857 11.4812L10.1107 11.2437L10.6573 11.4445C10.9577 11.5524 11.5619 11.7072 12.0022 11.7767ZM27.0612 7.787C28.2255 7.71762 29.3581 7.89764 29.9431 8.23823C30.3049 8.45969 30.3703 8.552 30.4976 8.97833L30.6309 9.46316L29.6493 9.72299C28.9661 9.90079 28.4074 9.9842 27.8188 9.99558C26.0201 10.0188 23.4902 9.57106 22.9991 9.13445C22.7884 8.95169 22.7832 8.93304 22.9245 8.75381C23.1292 8.47691 25.7494 7.86686 27.0612 7.787ZM8.7332 13.237L9.33947 13.1807L9.43432 13.5256C9.58556 14.0757 9.89344 14.5025 10.3673 14.8035C11.4008 15.462 14.7708 15.7189 17.0369 15.3165C17.7448 15.1921 17.8229 15.2208 17.6564 15.5273C17.3387 16.086 17.3141 17.7474 17.6063 18.8103C17.937 20.0131 18.4866 20.4437 19.9942 20.7111C21.7538 21.0196 24.0639 20.9962 25.7823 20.6442C26.6275 20.472 26.6716 20.4498 26.827 20.1764C27.0637 19.7604 27.2406 16.282 27.0611 15.6293C26.9125 15.0885 26.5256 14.5932 26.0263 14.3093L25.7291 14.1402L25.9709 14.144C27.0505 14.1681 28.6066 14.1013 29.3197 13.9955C30.1989 13.8741 30.3049 13.8951 30.1257 14.155C29.9895 14.3529 29.8424 15.3862 29.8472 16.0969C29.8547 16.4157 29.9509 17.0211 30.0637 17.4313C30.4123 18.6993 30.933 19.0977 32.6026 19.3708C34.2748 19.6532 36.0761 19.6393 37.9014 19.3481C39.2758 19.1307 39.4984 18.9191 39.4649 17.8853C39.4637 17.7352 39.4931 17.5867 39.5227 17.5485C39.5616 17.5077 40.242 18.0126 41.0405 18.6556C41.8416 19.3078 42.5399 19.878 42.6045 19.9304C42.6902 19.9871 42.5665 20.0111 42.1865 20.0152C40.7745 20.0224 38.0524 20.5902 37.3188 21.0226C37.1291 21.1349 36.8836 21.3729 36.7797 21.5419C36.3367 22.2653 36.2502 23.8837 36.5885 25.1144C36.9413 26.3612 37.4119 26.7233 39.0629 27.0014C40.7469 27.2906 42.5228 27.2937 44.2736 27.023C45.3817 26.8588 45.7766 26.69 45.8743 26.3523C45.9181 26.2199 46.0004 25.4251 46.0581 24.5769C46.1183 23.738 46.1652 23.0331 46.1787 23.0093C46.2057 22.9618 47.7767 24.335 48.4922 25.0409C49.8391 26.3654 50.5906 27.2018 50.4192 27.1987C50.3276 27.1938 49.5305 27.2124 48.6536 27.2329C45.3572 27.3168 42.7277 27.5282 34.3893 28.3866L28.4031 29.0095L27.9511 28.6423C22.381 24.1766 10.8516 15.6531 7.79032 13.747L7.24514 13.4054L7.68266 13.3554C7.926 13.3286 8.39149 13.2708 8.7332 13.237ZM8.49394 14.8472C16.6205 20.696 21.3813 24.261 26.2692 28.142L28.076 29.5707L28.0301 29.9143C28.0084 30.0908 27.6539 32.5951 27.2493 35.4641C26.8354 38.3358 26.3965 41.4449 26.2635 42.384L26.0287 44.0833L25.4978 43.6476C21.3623 40.2416 11.2488 32.783 6.54988 29.6623L4.99408 28.6359L5.90667 21.1945C6.41392 17.0938 6.85912 13.7523 6.89898 13.7513C6.9414 13.7597 7.65649 14.2451 8.49394 14.8472ZM24.3679 10.3928C26.483 10.754 28.1197 10.7252 29.7658 10.2927L30.9059 9.98927L30.8236 10.3829C30.7455 10.7554 30.7159 10.7936 30.3149 10.9039C30.0166 10.9859 29.8989 11.0684 29.8804 11.1838C29.8639 11.3789 30.0888 11.4675 30.3872 11.3854C30.555 11.3393 30.6144 11.3731 30.63 11.5393C30.6533 11.7335 30.5958 11.7794 30.2212 11.9124C29.9746 12.0003 29.3014 12.1051 28.7231 12.1538C27.5241 12.2428 27.1926 12.3139 27.1404 12.4887C27.0427 12.8264 28.0487 12.9109 29.4298 12.6816C30.2827 12.5374 30.5099 12.525 30.5008 12.6378C30.4908 12.7108 30.5004 12.8185 30.5157 12.8744C30.5465 12.9863 29.4325 13.2023 28.2759 13.2997C27.2482 13.3917 25.2542 13.288 24.2547 13.0814C23.2366 12.88 22.9282 12.6338 22.7129 11.8506C22.5719 11.3378 22.4694 10.1626 22.541 9.91224C22.5561 9.85793 22.7615 9.91179 22.9915 10.019C23.2242 10.1356 23.8428 10.3065 24.3679 10.3928ZM20.565 11.5887L21.7148 11.5033L21.8404 11.9601C22.0275 12.6408 22.3466 13.1447 22.8018 13.4508L23.2069 13.7205L22.6074 13.765C21.8764 13.8055 20.1054 14.1119 19.3408 14.3221C18.9492 14.4297 18.8017 14.4402 18.8133 14.3367C18.8166 14.2757 18.8654 13.6505 18.9055 12.9575C18.9846 11.8226 19.0098 11.6954 19.1998 11.6933C19.3168 11.6812 19.9282 11.6435 20.565 11.5887ZM32.1215 12.2224C32.4621 12.4396 32.7576 12.6392 32.7653 12.6671C32.7756 12.7044 32.4476 12.8247 32.028 12.94C31.4593 13.0964 31.2744 13.1171 31.2768 13.0162C31.2894 12.9526 31.3057 12.6472 31.3246 12.3512C31.3342 12.0577 31.3778 11.8151 31.4202 11.8235C31.4533 11.8344 31.7717 12.0077 32.1215 12.2224ZM22.7999 14.5745C24.9037 14.4574 26.2134 14.9899 26.3427 16.0073C26.3789 16.2481 26.3695 16.2507 25.3947 16.4986C23.9537 16.8747 22.0438 16.8583 20.1763 16.4491C18.9477 16.1751 18.2837 15.766 18.6266 15.4812C18.8704 15.2738 21.8416 14.6274 22.7999 14.5745ZM18.984 16.9273C19.7385 17.1912 20.4215 17.3043 21.8286 17.3888C23.229 17.4852 24.3737 17.381 25.5765 17.0504C26.1266 16.8991 26.5793 16.7947 26.5844 16.8134C26.6228 16.9532 26.4382 17.4854 26.3601 17.4567C26.3151 17.439 25.9438 17.511 25.5497 17.6093C24.9877 17.7538 24.8114 17.8424 24.7236 17.9969C24.5368 18.339 24.9067 18.4078 25.7272 18.1823C26.3892 18.0003 26.3985 17.9977 26.3803 18.2233C26.3596 18.4396 26.3088 18.4737 25.851 18.5594C25.5661 18.6177 24.9149 18.6563 24.389 18.6404C23.2271 18.6089 23.0331 18.7424 23.7403 19.0895C24.2268 19.3269 24.9036 19.3815 25.7311 19.2542C25.9999 19.2104 26.2339 19.1862 26.239 19.2049C26.2416 19.2142 26.2309 19.3575 26.2201 19.5009C26.1961 19.7783 26.1868 19.7808 25.5467 19.8966C23.2475 20.2881 20.1287 20.1426 19.0929 19.585L18.6251 19.3426L18.417 18.3668C18.2262 17.5268 18.1729 16.7492 18.2941 16.7158C18.3127 16.7107 18.6293 16.8042 18.984 16.9273ZM35.1267 13.2314C37.2746 13.0921 38.5188 13.5323 38.7957 14.5393L38.8854 14.8656L37.981 15.1142C36.5451 15.509 35.1237 15.5187 33.0977 15.1531C31.7386 14.915 31.0876 14.6627 31.0506 14.3821C31.0385 14.2651 31.1103 14.125 31.2373 14.0399C31.6396 13.7889 33.9438 13.3059 35.1267 13.2314ZM31.2759 15.4935C31.8726 15.7306 32.6455 15.8791 33.9289 15.9876C35.6169 16.1453 36.4225 16.0843 37.7838 15.71C38.467 15.5322 39.0289 15.3877 39.0315 15.397C39.0341 15.4064 39.0275 15.5285 39.0075 15.6744C38.9877 15.9306 38.9529 15.9502 38.2909 16.1322C37.7968 16.268 37.5833 16.3668 37.5275 16.4925C37.3823 16.8032 37.6895 16.8992 38.3049 16.73C38.6126 16.6455 38.8601 16.5975 38.8652 16.6161C38.9293 16.8492 38.8083 16.9928 38.454 17.0902C37.9785 17.2209 36.5988 17.3094 35.3996 17.2881C34.3903 17.2647 34.0962 17.3255 34.0728 17.5325C34.0469 17.7302 34.2031 17.7875 34.9793 17.875C35.8615 17.9834 37.2235 17.9399 38.0552 17.7915L38.7325 17.6655L38.6892 18.0184L38.6458 18.3713L37.8073 18.5316C36.2288 18.8452 34.0797 18.8343 32.4651 18.506C31.341 18.2836 31.1039 18.078 30.8714 17.1591C30.7295 16.6065 30.6386 15.3277 30.7412 15.2995C30.7598 15.2944 31.0034 15.3779 31.2759 15.4935ZM40.9061 20.9389C43.3242 20.6151 45.0078 21.0849 45.3026 22.1571C45.3897 22.4741 45.383 22.486 44.9669 22.6505C44.4161 22.8722 43.2028 23.0553 42.2504 23.0564C40.7095 23.0689 38.3518 22.6641 37.7803 22.2997C37.478 22.112 37.4833 21.8398 37.7959 21.6636C38.1111 21.4967 39.9565 21.0596 40.9061 20.9389ZM37.8117 23.1435C38.4958 23.4067 38.9743 23.5058 40.2509 23.6261C42.101 23.7894 42.82 23.7422 44.2585 23.3567C45.3612 23.0636 45.5435 23.0335 45.5396 23.165C45.5414 23.2447 45.4563 23.92 45.3518 24.6707L45.1722 26.0238L44.6704 26.1317C42.2357 26.6506 38.4578 26.4056 37.7863 25.6776C37.601 25.4779 37.5183 25.2499 37.371 24.5683C37.2177 23.8283 37.16 22.9616 37.2625 22.9334C37.2719 22.9309 37.5273 23.0211 37.8117 23.1435ZM40.1487 28.3977C41.8718 28.2449 44.0094 28.0684 44.9066 28.0123C46.3753 27.9194 50.5714 27.7887 50.6521 27.8267C50.6639 27.8334 50.4874 28.614 50.2629 29.5483C50.0291 30.485 49.2806 33.5991 48.6038 36.4628C47.9176 39.329 47.3356 41.7354 47.307 41.8135C47.2354 42.0638 40.0517 43.1463 34.4894 43.7428C32.1823 43.996 26.7487 44.477 26.6799 44.4458C26.6562 44.4322 27.1216 41.055 27.7009 36.9245L28.7694 29.4302L32.8896 29.0597C35.1604 28.8566 38.4283 28.5598 40.1487 28.3977Z" fill="#F38189"/>
<path d="M10.0094 9.41629C9.85532 9.54891 9.64296 9.79783 9.53899 9.96682C9.33361 10.3141 9.16243 11.6248 9.23418 12.287L9.27914 12.7058L8.64582 12.8098C8.30248 12.8741 7.69037 12.9822 7.30041 13.0593L6.58575 13.1956L6.5251 13.814C6.48195 14.2771 5.03624 25.6157 4.65448 28.4585L4.60341 28.7834L6.31397 30.0079C11.9034 33.9969 21.4167 41.1693 25.3262 44.3366C26.01 44.8907 26.224 45.0124 26.458 44.9881C26.6216 44.9632 27.6799 44.8729 28.811 44.7925C33.7827 44.4185 39.3482 43.7609 45.1804 42.8695C46.3165 42.6975 47.361 42.5207 47.5008 42.4822C47.7339 42.4182 47.8594 41.9625 49.4388 35.451C51.5001 26.9718 51.4052 27.4291 51.2344 27.2454C51.1621 27.165 50.8221 26.7671 50.482 26.3692C49.597 25.3388 48.4871 24.2199 47.1915 23.0819C46.3265 22.3068 46.069 22.0266 45.9972 21.7656C45.805 21.0663 44.9402 20.4014 43.9501 20.1923C43.7354 20.141 43.5224 20.0592 43.4739 19.9923C43.4254 19.9254 42.5758 19.2062 41.5853 18.3754C40.5879 17.5565 39.7358 16.828 39.6738 16.7849C39.6186 16.7299 39.5955 16.2448 39.6156 15.6978C39.6472 14.5358 39.5085 13.9221 39.0869 13.4463C38.3371 12.5794 36.5782 12.2005 34.5408 12.4498L33.7734 12.5404L32.7118 11.7793C32.1316 11.3471 31.6016 10.9513 31.5464 10.8963C31.4767 10.8252 31.4394 10.4343 31.4502 9.88977C31.4836 8.80754 31.3207 8.36093 30.7005 7.81942C29.5271 6.79817 27.0564 6.67516 24.021 7.4896C22.5707 7.86827 22.2742 8.03002 22.004 8.61575C21.8182 8.99777 21.6664 9.83176 21.6727 10.4017C21.6699 10.6832 21.6356 10.9233 21.589 10.9361C21.2261 10.9657 19.1331 11.0497 19.0669 11.0278C19.0126 11.0126 18.9886 10.8889 18.9994 10.7455C19.1032 9.66399 17.8441 8.5861 16.2442 8.38413C14.9971 8.22554 13.7168 8.3469 11.8926 8.78824C10.5677 9.11238 10.2465 9.22075 10.0094 9.41629ZM14.0603 9.19513C15.2143 9.08846 16.0973 9.12651 16.8033 9.32352C17.5543 9.53825 17.9587 9.87836 18.1048 10.4098L18.2176 10.8201L17.453 11.0303C16.4554 11.3045 15.6643 11.3816 14.4599 11.3417C12.5532 11.2642 10.4056 10.7114 10.3699 10.2899C10.3655 10.2009 10.4492 10.0676 10.5695 9.99439C10.8863 9.79699 13.1123 9.28528 14.0603 9.19513ZM12.0022 11.7767C14.0205 12.1144 16.1159 12.0397 17.583 11.5762L18.4238 11.3149L18.3795 11.628C18.3436 11.8986 18.2912 11.9631 17.9005 12.1107C17.5378 12.2505 17.4734 12.3083 17.517 12.4668C17.5555 12.6066 17.6454 12.6421 17.8837 12.5966C18.1804 12.5452 18.2857 12.6365 18.2048 12.8894C18.1661 13.0405 16.607 13.2786 15.5986 13.2951C14.921 13.3109 14.7117 13.3885 14.7732 13.6122C14.863 13.9386 16.0021 13.9965 17.3169 13.7453C18.0409 13.6064 18.0808 13.6055 18.0761 13.8073C18.057 14.3943 17.9383 14.4369 16.0076 14.6368C14.1727 14.8203 11.5015 14.5518 10.8137 14.1292C10.3399 13.8282 9.98355 12.5322 10.0857 11.4812L10.1107 11.2437L10.6573 11.4445C10.9577 11.5524 11.5619 11.7072 12.0022 11.7767ZM27.0612 7.787C28.2255 7.71762 29.3581 7.89764 29.9431 8.23823C30.3049 8.45969 30.3703 8.552 30.4976 8.97833L30.6309 9.46316L29.6493 9.72299C28.9661 9.90079 28.4074 9.9842 27.8188 9.99558C26.0201 10.0188 23.4902 9.57106 22.9991 9.13445C22.7884 8.95169 22.7832 8.93304 22.9245 8.75381C23.1292 8.47691 25.7494 7.86686 27.0612 7.787ZM8.7332 13.237L9.33947 13.1807L9.43432 13.5256C9.58556 14.0757 9.89344 14.5025 10.3673 14.8035C11.4008 15.462 14.7708 15.7189 17.0369 15.3165C17.7448 15.1921 17.8229 15.2208 17.6564 15.5273C17.3387 16.086 17.3141 17.7474 17.6063 18.8103C17.937 20.0131 18.4866 20.4437 19.9942 20.7111C21.7538 21.0196 24.0639 20.9962 25.7823 20.6442C26.6275 20.472 26.6716 20.4498 26.827 20.1764C27.0637 19.7604 27.2406 16.282 27.0611 15.6293C26.9125 15.0885 26.5256 14.5932 26.0263 14.3093L25.7291 14.1402L25.9709 14.144C27.0505 14.1681 28.6066 14.1013 29.3197 13.9955C30.1989 13.8741 30.3049 13.8951 30.1257 14.155C29.9895 14.3529 29.8424 15.3862 29.8472 16.0969C29.8547 16.4157 29.9509 17.0211 30.0637 17.4313C30.4123 18.6993 30.933 19.0977 32.6026 19.3708C34.2748 19.6532 36.0761 19.6393 37.9014 19.3481C39.2758 19.1307 39.4984 18.9191 39.4649 17.8853C39.4637 17.7352 39.4931 17.5867 39.5227 17.5485C39.5616 17.5077 40.242 18.0126 41.0405 18.6556C41.8416 19.3078 42.5399 19.878 42.6045 19.9304C42.6902 19.9871 42.5665 20.0111 42.1865 20.0152C40.7745 20.0224 38.0524 20.5902 37.3188 21.0226C37.1291 21.1349 36.8836 21.3729 36.7797 21.5419C36.3367 22.2653 36.2502 23.8837 36.5885 25.1144C36.9413 26.3612 37.4119 26.7233 39.0629 27.0014C40.7469 27.2906 42.5228 27.2937 44.2736 27.023C45.3817 26.8588 45.7766 26.69 45.8743 26.3523C45.9181 26.2199 46.0004 25.4251 46.0581 24.5769C46.1183 23.738 46.1652 23.0331 46.1787 23.0093C46.2057 22.9618 47.7767 24.335 48.4922 25.0409C49.8391 26.3654 50.5906 27.2018 50.4192 27.1987C50.3276 27.1938 49.5305 27.2124 48.6536 27.2329C45.3572 27.3168 42.7277 27.5282 34.3893 28.3866L28.4031 29.0095L27.9511 28.6423C22.381 24.1766 10.8516 15.6531 7.79032 13.747L7.24514 13.4054L7.68266 13.3554C7.926 13.3286 8.39149 13.2708 8.7332 13.237ZM8.49394 14.8472C16.6205 20.696 21.3813 24.261 26.2692 28.142L28.076 29.5707L28.0301 29.9143C28.0084 30.0908 27.6539 32.5951 27.2493 35.4641C26.8354 38.3358 26.3965 41.4449 26.2635 42.384L26.0287 44.0833L25.4978 43.6476C21.3623 40.2416 11.2488 32.783 6.54988 29.6623L4.99408 28.6359L5.90667 21.1945C6.41392 17.0938 6.85912 13.7523 6.89898 13.7513C6.9414 13.7597 7.65649 14.2451 8.49394 14.8472ZM24.3679 10.3928C26.483 10.754 28.1197 10.7252 29.7658 10.2927L30.9059 9.98927L30.8236 10.3829C30.7455 10.7554 30.7159 10.7936 30.3149 10.9039C30.0166 10.9859 29.8989 11.0684 29.8804 11.1838C29.8639 11.3789 30.0888 11.4675 30.3872 11.3854C30.555 11.3393 30.6144 11.3731 30.63 11.5393C30.6533 11.7335 30.5958 11.7794 30.2212 11.9124C29.9746 12.0003 29.3014 12.1051 28.7231 12.1538C27.5241 12.2428 27.1926 12.3139 27.1404 12.4887C27.0427 12.8264 28.0487 12.9109 29.4298 12.6816C30.2827 12.5374 30.5099 12.525 30.5008 12.6378C30.4908 12.7108 30.5004 12.8185 30.5157 12.8744C30.5465 12.9863 29.4325 13.2023 28.2759 13.2997C27.2482 13.3917 25.2542 13.288 24.2547 13.0814C23.2366 12.88 22.9282 12.6338 22.7129 11.8506C22.5719 11.3378 22.4694 10.1626 22.541 9.91224C22.5561 9.85793 22.7615 9.91179 22.9915 10.019C23.2242 10.1356 23.8428 10.3065 24.3679 10.3928ZM20.565 11.5887L21.7148 11.5033L21.8404 11.9601C22.0275 12.6408 22.3466 13.1447 22.8018 13.4508L23.2069 13.7205L22.6074 13.765C21.8764 13.8055 20.1054 14.1119 19.3408 14.3221C18.9492 14.4297 18.8017 14.4402 18.8133 14.3367C18.8166 14.2757 18.8654 13.6505 18.9055 12.9575C18.9846 11.8226 19.0098 11.6954 19.1998 11.6933C19.3168 11.6812 19.9282 11.6435 20.565 11.5887ZM32.1215 12.2224C32.4621 12.4396 32.7576 12.6392 32.7653 12.6671C32.7756 12.7044 32.4476 12.8247 32.028 12.94C31.4593 13.0964 31.2744 13.1171 31.2768 13.0162C31.2894 12.9526 31.3057 12.6472 31.3246 12.3512C31.3342 12.0577 31.3778 11.8151 31.4202 11.8235C31.4533 11.8344 31.7717 12.0077 32.1215 12.2224ZM22.7999 14.5745C24.9037 14.4574 26.2134 14.9899 26.3427 16.0073C26.3789 16.2481 26.3695 16.2507 25.3947 16.4986C23.9537 16.8747 22.0438 16.8583 20.1763 16.4491C18.9477 16.1751 18.2837 15.766 18.6266 15.4812C18.8704 15.2738 21.8416 14.6274 22.7999 14.5745ZM18.984 16.9273C19.7385 17.1912 20.4215 17.3043 21.8286 17.3888C23.229 17.4852 24.3737 17.381 25.5765 17.0504C26.1266 16.8991 26.5793 16.7947 26.5844 16.8134C26.6228 16.9532 26.4382 17.4854 26.3601 17.4567C26.3151 17.439 25.9438 17.511 25.5497 17.6093C24.9877 17.7538 24.8114 17.8424 24.7236 17.9969C24.5368 18.339 24.9067 18.4078 25.7272 18.1823C26.3892 18.0003 26.3985 17.9977 26.3803 18.2233C26.3596 18.4396 26.3088 18.4737 25.851 18.5594C25.5661 18.6177 24.9149 18.6563 24.389 18.6404C23.2271 18.6089 23.0331 18.7424 23.7403 19.0895C24.2268 19.3269 24.9036 19.3815 25.7311 19.2542C25.9999 19.2104 26.2339 19.1862 26.239 19.2049C26.2416 19.2142 26.2309 19.3575 26.2201 19.5009C26.1961 19.7783 26.1868 19.7808 25.5467 19.8966C23.2475 20.2881 20.1287 20.1426 19.0929 19.585L18.6251 19.3426L18.417 18.3668C18.2262 17.5268 18.1729 16.7492 18.2941 16.7158C18.3127 16.7107 18.6293 16.8042 18.984 16.9273ZM35.1267 13.2314C37.2746 13.0921 38.5188 13.5323 38.7957 14.5393L38.8854 14.8656L37.981 15.1142C36.5451 15.509 35.1237 15.5187 33.0977 15.1531C31.7386 14.915 31.0876 14.6627 31.0506 14.3821C31.0385 14.2651 31.1103 14.125 31.2373 14.0399C31.6396 13.7889 33.9438 13.3059 35.1267 13.2314ZM31.2759 15.4935C31.8726 15.7306 32.6455 15.8791 33.9289 15.9876C35.6169 16.1453 36.4225 16.0843 37.7838 15.71C38.467 15.5322 39.0289 15.3877 39.0315 15.397C39.0341 15.4064 39.0275 15.5285 39.0075 15.6744C38.9877 15.9306 38.9529 15.9502 38.2909 16.1322C37.7968 16.268 37.5833 16.3668 37.5275 16.4925C37.3823 16.8032 37.6895 16.8992 38.3049 16.73C38.6126 16.6455 38.8601 16.5975 38.8652 16.6161C38.9293 16.8492 38.8083 16.9928 38.454 17.0902C37.9785 17.2209 36.5988 17.3094 35.3996 17.2881C34.3903 17.2647 34.0962 17.3255 34.0728 17.5325C34.0469 17.7302 34.2031 17.7875 34.9793 17.875C35.8615 17.9834 37.2235 17.9399 38.0552 17.7915L38.7325 17.6655L38.6892 18.0184L38.6458 18.3713L37.8073 18.5316C36.2288 18.8452 34.0797 18.8343 32.4651 18.506C31.341 18.2836 31.1039 18.078 30.8714 17.1591C30.7295 16.6065 30.6386 15.3277 30.7412 15.2995C30.7598 15.2944 31.0034 15.3779 31.2759 15.4935ZM40.9061 20.9389C43.3242 20.6151 45.0078 21.0849 45.3026 22.1571C45.3897 22.4741 45.383 22.486 44.9669 22.6505C44.4161 22.8722 43.2028 23.0553 42.2504 23.0564C40.7095 23.0689 38.3518 22.6641 37.7803 22.2997C37.478 22.112 37.4833 21.8398 37.7959 21.6636C38.1111 21.4967 39.9565 21.0596 40.9061 20.9389ZM37.8117 23.1435C38.4958 23.4067 38.9743 23.5058 40.2509 23.6261C42.101 23.7894 42.82 23.7422 44.2585 23.3567C45.3612 23.0636 45.5435 23.0335 45.5396 23.165C45.5414 23.2447 45.4563 23.92 45.3518 24.6707L45.1722 26.0238L44.6704 26.1317C42.2357 26.6506 38.4578 26.4056 37.7863 25.6776C37.601 25.4779 37.5183 25.2499 37.371 24.5683C37.2177 23.8283 37.16 22.9616 37.2625 22.9334C37.2719 22.9309 37.5273 23.0211 37.8117 23.1435ZM40.1487 28.3977C41.8718 28.2449 44.0094 28.0684 44.9066 28.0123C46.3753 27.9194 50.5714 27.7887 50.6521 27.8267C50.6639 27.8334 50.4874 28.614 50.2629 29.5483C50.0291 30.485 49.2806 33.5991 48.6038 36.4628C47.9176 39.329 47.3356 41.7354 47.307 41.8135C47.2354 42.0638 40.0517 43.1463 34.4894 43.7428C32.1823 43.996 26.7487 44.477 26.6799 44.4458C26.6562 44.4322 27.1216 41.055 27.7009 36.9245L28.7694 29.4302L32.8896 29.0597C35.1604 28.8566 38.4283 28.5598 40.1487 28.3977Z" fill="#F38189"/>
<path d="M10.0094 9.41629C9.85532 9.54891 9.64296 9.79783 9.53899 9.96682C9.33361 10.3141 9.16243 11.6248 9.23418 12.287L9.27914 12.7058L8.64582 12.8098C8.30248 12.8741 7.69037 12.9822 7.30041 13.0593L6.58575 13.1956L6.5251 13.814C6.48195 14.2771 5.03624 25.6157 4.65448 28.4585L4.60341 28.7834L6.31397 30.0079C11.9034 33.9969 21.4167 41.1693 25.3262 44.3366C26.01 44.8907 26.224 45.0124 26.458 44.9881C26.6216 44.9632 27.6799 44.8729 28.811 44.7925C33.7827 44.4185 39.3482 43.7609 45.1804 42.8695C46.3165 42.6975 47.361 42.5207 47.5008 42.4822C47.7339 42.4182 47.8594 41.9625 49.4388 35.451C51.5001 26.9718 51.4052 27.4291 51.2344 27.2454C51.1621 27.165 50.8221 26.7671 50.482 26.3692C49.597 25.3388 48.4871 24.2199 47.1915 23.0819C46.3265 22.3068 46.069 22.0266 45.9972 21.7656C45.805 21.0663 44.9402 20.4014 43.9501 20.1923C43.7354 20.141 43.5224 20.0592 43.4739 19.9923C43.4254 19.9254 42.5758 19.2062 41.5853 18.3754C40.5879 17.5565 39.7358 16.828 39.6738 16.7849C39.6186 16.7299 39.5955 16.2448 39.6156 15.6978C39.6472 14.5358 39.5085 13.9221 39.0869 13.4463C38.3371 12.5794 36.5782 12.2005 34.5408 12.4498L33.7734 12.5404L32.7118 11.7793C32.1316 11.3471 31.6016 10.9513 31.5464 10.8963C31.4767 10.8252 31.4394 10.4343 31.4502 9.88977C31.4836 8.80754 31.3207 8.36093 30.7005 7.81942C29.5271 6.79817 27.0564 6.67516 24.021 7.4896C22.5707 7.86827 22.2742 8.03002 22.004 8.61575C21.8182 8.99777 21.6664 9.83176 21.6727 10.4017C21.6699 10.6832 21.6356 10.9233 21.589 10.9361C21.2261 10.9657 19.1331 11.0497 19.0669 11.0278C19.0126 11.0126 18.9886 10.8889 18.9994 10.7455C19.1032 9.66399 17.8441 8.5861 16.2442 8.38413C14.9971 8.22554 13.7168 8.3469 11.8926 8.78824C10.5677 9.11238 10.2465 9.22075 10.0094 9.41629ZM14.0603 9.19513C15.2143 9.08846 16.0973 9.12651 16.8033 9.32352C17.5543 9.53825 17.9587 9.87836 18.1048 10.4098L18.2176 10.8201L17.453 11.0303C16.4554 11.3045 15.6643 11.3816 14.4599 11.3417C12.5532 11.2642 10.4056 10.7114 10.3699 10.2899C10.3655 10.2009 10.4492 10.0676 10.5695 9.99439C10.8863 9.79699 13.1123 9.28528 14.0603 9.19513ZM12.0022 11.7767C14.0205 12.1144 16.1159 12.0397 17.583 11.5762L18.4238 11.3149L18.3795 11.628C18.3436 11.8986 18.2912 11.9631 17.9005 12.1107C17.5378 12.2505 17.4734 12.3083 17.517 12.4668C17.5555 12.6066 17.6454 12.6421 17.8837 12.5966C18.1804 12.5452 18.2857 12.6365 18.2048 12.8894C18.1661 13.0405 16.607 13.2786 15.5986 13.2951C14.921 13.3109 14.7117 13.3885 14.7732 13.6122C14.863 13.9386 16.0021 13.9965 17.3169 13.7453C18.0409 13.6064 18.0808 13.6055 18.0761 13.8073C18.057 14.3943 17.9383 14.4369 16.0076 14.6368C14.1727 14.8203 11.5015 14.5518 10.8137 14.1292C10.3399 13.8282 9.98355 12.5322 10.0857 11.4812L10.1107 11.2437L10.6573 11.4445C10.9577 11.5524 11.5619 11.7072 12.0022 11.7767ZM27.0612 7.787C28.2255 7.71762 29.3581 7.89764 29.9431 8.23823C30.3049 8.45969 30.3703 8.552 30.4976 8.97833L30.6309 9.46316L29.6493 9.72299C28.9661 9.90079 28.4074 9.9842 27.8188 9.99558C26.0201 10.0188 23.4902 9.57106 22.9991 9.13445C22.7884 8.95169 22.7832 8.93304 22.9245 8.75381C23.1292 8.47691 25.7494 7.86686 27.0612 7.787ZM8.7332 13.237L9.33947 13.1807L9.43432 13.5256C9.58556 14.0757 9.89344 14.5025 10.3673 14.8035C11.4008 15.462 14.7708 15.7189 17.0369 15.3165C17.7448 15.1921 17.8229 15.2208 17.6564 15.5273C17.3387 16.086 17.3141 17.7474 17.6063 18.8103C17.937 20.0131 18.4866 20.4437 19.9942 20.7111C21.7538 21.0196 24.0639 20.9962 25.7823 20.6442C26.6275 20.472 26.6716 20.4498 26.827 20.1764C27.0637 19.7604 27.2406 16.282 27.0611 15.6293C26.9125 15.0885 26.5256 14.5932 26.0263 14.3093L25.7291 14.1402L25.9709 14.144C27.0505 14.1681 28.6066 14.1013 29.3197 13.9955C30.1989 13.8741 30.3049 13.8951 30.1257 14.155C29.9895 14.3529 29.8424 15.3862 29.8472 16.0969C29.8547 16.4157 29.9509 17.0211 30.0637 17.4313C30.4123 18.6993 30.933 19.0977 32.6026 19.3708C34.2748 19.6532 36.0761 19.6393 37.9014 19.3481C39.2758 19.1307 39.4984 18.9191 39.4649 17.8853C39.4637 17.7352 39.4931 17.5867 39.5227 17.5485C39.5616 17.5077 40.242 18.0126 41.0405 18.6556C41.8416 19.3078 42.5399 19.878 42.6045 19.9304C42.6902 19.9871 42.5665 20.0111 42.1865 20.0152C40.7745 20.0224 38.0524 20.5902 37.3188 21.0226C37.1291 21.1349 36.8836 21.3729 36.7797 21.5419C36.3367 22.2653 36.2502 23.8837 36.5885 25.1144C36.9413 26.3612 37.4119 26.7233 39.0629 27.0014C40.7469 27.2906 42.5228 27.2937 44.2736 27.023C45.3817 26.8588 45.7766 26.69 45.8743 26.3523C45.9181 26.2199 46.0004 25.4251 46.0581 24.5769C46.1183 23.738 46.1652 23.0331 46.1787 23.0093C46.2057 22.9618 47.7767 24.335 48.4922 25.0409C49.8391 26.3654 50.5906 27.2018 50.4192 27.1987C50.3276 27.1938 49.5305 27.2124 48.6536 27.2329C45.3572 27.3168 42.7277 27.5282 34.3893 28.3866L28.4031 29.0095L27.9511 28.6423C22.381 24.1766 10.8516 15.6531 7.79032 13.747L7.24514 13.4054L7.68266 13.3554C7.926 13.3286 8.39149 13.2708 8.7332 13.237ZM8.49394 14.8472C16.6205 20.696 21.3813 24.261 26.2692 28.142L28.076 29.5707L28.0301 29.9143C28.0084 30.0908 27.6539 32.5951 27.2493 35.4641C26.8354 38.3358 26.3965 41.4449 26.2635 42.384L26.0287 44.0833L25.4978 43.6476C21.3623 40.2416 11.2488 32.783 6.54988 29.6623L4.99408 28.6359L5.90667 21.1945C6.41392 17.0938 6.85912 13.7523 6.89898 13.7513C6.9414 13.7597 7.65649 14.2451 8.49394 14.8472ZM24.3679 10.3928C26.483 10.754 28.1197 10.7252 29.7658 10.2927L30.9059 9.98927L30.8236 10.3829C30.7455 10.7554 30.7159 10.7936 30.3149 10.9039C30.0166 10.9859 29.8989 11.0684 29.8804 11.1838C29.8639 11.3789 30.0888 11.4675 30.3872 11.3854C30.555 11.3393 30.6144 11.3731 30.63 11.5393C30.6533 11.7335 30.5958 11.7794 30.2212 11.9124C29.9746 12.0003 29.3014 12.1051 28.7231 12.1538C27.5241 12.2428 27.1926 12.3139 27.1404 12.4887C27.0427 12.8264 28.0487 12.9109 29.4298 12.6816C30.2827 12.5374 30.5099 12.525 30.5008 12.6378C30.4908 12.7108 30.5004 12.8185 30.5157 12.8744C30.5465 12.9863 29.4325 13.2023 28.2759 13.2997C27.2482 13.3917 25.2542 13.288 24.2547 13.0814C23.2366 12.88 22.9282 12.6338 22.7129 11.8506C22.5719 11.3378 22.4694 10.1626 22.541 9.91224C22.5561 9.85793 22.7615 9.91179 22.9915 10.019C23.2242 10.1356 23.8428 10.3065 24.3679 10.3928ZM20.565 11.5887L21.7148 11.5033L21.8404 11.9601C22.0275 12.6408 22.3466 13.1447 22.8018 13.4508L23.2069 13.7205L22.6074 13.765C21.8764 13.8055 20.1054 14.1119 19.3408 14.3221C18.9492 14.4297 18.8017 14.4402 18.8133 14.3367C18.8166 14.2757 18.8654 13.6505 18.9055 12.9575C18.9846 11.8226 19.0098 11.6954 19.1998 11.6933C19.3168 11.6812 19.9282 11.6435 20.565 11.5887ZM32.1215 12.2224C32.4621 12.4396 32.7576 12.6392 32.7653 12.6671C32.7756 12.7044 32.4476 12.8247 32.028 12.94C31.4593 13.0964 31.2744 13.1171 31.2768 13.0162C31.2894 12.9526 31.3057 12.6472 31.3246 12.3512C31.3342 12.0577 31.3778 11.8151 31.4202 11.8235C31.4533 11.8344 31.7717 12.0077 32.1215 12.2224ZM22.7999 14.5745C24.9037 14.4574 26.2134 14.9899 26.3427 16.0073C26.3789 16.2481 26.3695 16.2507 25.3947 16.4986C23.9537 16.8747 22.0438 16.8583 20.1763 16.4491C18.9477 16.1751 18.2837 15.766 18.6266 15.4812C18.8704 15.2738 21.8416 14.6274 22.7999 14.5745ZM18.984 16.9273C19.7385 17.1912 20.4215 17.3043 21.8286 17.3888C23.229 17.4852 24.3737 17.381 25.5765 17.0504C26.1266 16.8991 26.5793 16.7947 26.5844 16.8134C26.6228 16.9532 26.4382 17.4854 26.3601 17.4567C26.3151 17.439 25.9438 17.511 25.5497 17.6093C24.9877 17.7538 24.8114 17.8424 24.7236 17.9969C24.5368 18.339 24.9067 18.4078 25.7272 18.1823C26.3892 18.0003 26.3985 17.9977 26.3803 18.2233C26.3596 18.4396 26.3088 18.4737 25.851 18.5594C25.5661 18.6177 24.9149 18.6563 24.389 18.6404C23.2271 18.6089 23.0331 18.7424 23.7403 19.0895C24.2268 19.3269 24.9036 19.3815 25.7311 19.2542C25.9999 19.2104 26.2339 19.1862 26.239 19.2049C26.2416 19.2142 26.2309 19.3575 26.2201 19.5009C26.1961 19.7783 26.1868 19.7808 25.5467 19.8966C23.2475 20.2881 20.1287 20.1426 19.0929 19.585L18.6251 19.3426L18.417 18.3668C18.2262 17.5268 18.1729 16.7492 18.2941 16.7158C18.3127 16.7107 18.6293 16.8042 18.984 16.9273ZM35.1267 13.2314C37.2746 13.0921 38.5188 13.5323 38.7957 14.5393L38.8854 14.8656L37.981 15.1142C36.5451 15.509 35.1237 15.5187 33.0977 15.1531C31.7386 14.915 31.0876 14.6627 31.0506 14.3821C31.0385 14.2651 31.1103 14.125 31.2373 14.0399C31.6396 13.7889 33.9438 13.3059 35.1267 13.2314ZM31.2759 15.4935C31.8726 15.7306 32.6455 15.8791 33.9289 15.9876C35.6169 16.1453 36.4225 16.0843 37.7838 15.71C38.467 15.5322 39.0289 15.3877 39.0315 15.397C39.0341 15.4064 39.0275 15.5285 39.0075 15.6744C38.9877 15.9306 38.9529 15.9502 38.2909 16.1322C37.7968 16.268 37.5833 16.3668 37.5275 16.4925C37.3823 16.8032 37.6895 16.8992 38.3049 16.73C38.6126 16.6455 38.8601 16.5975 38.8652 16.6161C38.9293 16.8492 38.8083 16.9928 38.454 17.0902C37.9785 17.2209 36.5988 17.3094 35.3996 17.2881C34.3903 17.2647 34.0962 17.3255 34.0728 17.5325C34.0469 17.7302 34.2031 17.7875 34.9793 17.875C35.8615 17.9834 37.2235 17.9399 38.0552 17.7915L38.7325 17.6655L38.6892 18.0184L38.6458 18.3713L37.8073 18.5316C36.2288 18.8452 34.0797 18.8343 32.4651 18.506C31.341 18.2836 31.1039 18.078 30.8714 17.1591C30.7295 16.6065 30.6386 15.3277 30.7412 15.2995C30.7598 15.2944 31.0034 15.3779 31.2759 15.4935ZM40.9061 20.9389C43.3242 20.6151 45.0078 21.0849 45.3026 22.1571C45.3897 22.4741 45.383 22.486 44.9669 22.6505C44.4161 22.8722 43.2028 23.0553 42.2504 23.0564C40.7095 23.0689 38.3518 22.6641 37.7803 22.2997C37.478 22.112 37.4833 21.8398 37.7959 21.6636C38.1111 21.4967 39.9565 21.0596 40.9061 20.9389ZM37.8117 23.1435C38.4958 23.4067 38.9743 23.5058 40.2509 23.6261C42.101 23.7894 42.82 23.7422 44.2585 23.3567C45.3612 23.0636 45.5435 23.0335 45.5396 23.165C45.5414 23.2447 45.4563 23.92 45.3518 24.6707L45.1722 26.0238L44.6704 26.1317C42.2357 26.6506 38.4578 26.4056 37.7863 25.6776C37.601 25.4779 37.5183 25.2499 37.371 24.5683C37.2177 23.8283 37.16 22.9616 37.2625 22.9334C37.2719 22.9309 37.5273 23.0211 37.8117 23.1435ZM40.1487 28.3977C41.8718 28.2449 44.0094 28.0684 44.9066 28.0123C46.3753 27.9194 50.5714 27.7887 50.6521 27.8267C50.6639 27.8334 50.4874 28.614 50.2629 29.5483C50.0291 30.485 49.2806 33.5991 48.6038 36.4628C47.9176 39.329 47.3356 41.7354 47.307 41.8135C47.2354 42.0638 40.0517 43.1463 34.4894 43.7428C32.1823 43.996 26.7487 44.477 26.6799 44.4458C26.6562 44.4322 27.1216 41.055 27.7009 36.9245L28.7694 29.4302L32.8896 29.0597C35.1604 28.8566 38.4283 28.5598 40.1487 28.3977Z" fill="#FDAA87"/>
<path d="M25.7128 21.4857C25.3056 21.8283 25.1832 22.1126 25.0543 22.9203C24.9204 23.8195 24.9558 24.5319 25.1942 25.399C25.53 26.6204 26.0439 27.0307 27.6126 27.3014C29.3179 27.5947 31.1828 27.5935 33.104 27.2859C34.1883 27.1081 34.4475 26.9567 34.5364 26.4408C34.6714 25.6917 34.7811 22.5527 34.6837 22.1984C34.3736 21.0702 33.0364 20.3648 31.1094 20.3229C29.3843 20.2857 26.3639 20.9356 25.7128 21.4857ZM28.909 21.329C30.1663 21.1237 31.3688 21.084 32.1697 21.2248C33.1827 21.4076 33.926 21.9955 33.9315 22.6358C33.9336 22.8258 33.8735 22.8624 33.1462 23.0623C31.7477 23.4468 30.1643 23.4509 28.1476 23.0827C26.9742 22.8638 26.0864 22.5162 26.0995 22.2719C26.121 21.9852 27.2939 21.5825 28.909 21.329ZM26.6329 23.5192C27.2669 23.746 28.0016 23.865 29.4817 23.9595C31.011 24.0505 32.3126 23.9333 33.3602 23.5852C33.8212 23.4383 34.1967 23.3451 34.207 23.3824C34.2172 23.4197 34.1734 23.5521 34.1177 23.6778C34.024 23.884 33.8478 23.9726 32.952 24.2891C32.0562 24.6055 31.9079 24.6864 31.9184 24.834C31.9254 24.9323 32.0189 25.0169 32.1715 25.0251C32.3599 25.0536 32.2904 25.0927 31.8335 25.2183C31.4352 25.3379 31.2335 25.4434 31.1499 25.5768C31.051 25.7644 31.0561 25.783 31.2345 25.8844C31.389 25.9723 31.6391 25.9337 32.6621 25.6424L33.8996 25.2921L33.8413 25.8096L33.7737 26.3296L32.9632 26.4822C31.3941 26.7933 29.2356 26.785 27.6304 26.4541C26.4426 26.2191 26.2701 26.0659 26.0128 25.0937C25.8401 24.4291 25.8057 24.1578 25.8439 23.3851C25.8428 23.235 25.8852 23.2434 26.6329 23.5192Z" fill="#F38189"/>
<path d="M25.7128 21.4857C25.3056 21.8283 25.1832 22.1126 25.0543 22.9203C24.9204 23.8195 24.9558 24.5319 25.1942 25.399C25.53 26.6204 26.0439 27.0307 27.6126 27.3014C29.3179 27.5947 31.1828 27.5935 33.104 27.2859C34.1883 27.1081 34.4475 26.9567 34.5364 26.4408C34.6714 25.6917 34.7811 22.5527 34.6837 22.1984C34.3736 21.0702 33.0364 20.3648 31.1094 20.3229C29.3843 20.2857 26.3639 20.9356 25.7128 21.4857ZM28.909 21.329C30.1663 21.1237 31.3688 21.084 32.1697 21.2248C33.1827 21.4076 33.926 21.9955 33.9315 22.6358C33.9336 22.8258 33.8735 22.8624 33.1462 23.0623C31.7477 23.4468 30.1643 23.4509 28.1476 23.0827C26.9742 22.8638 26.0864 22.5162 26.0995 22.2719C26.121 21.9852 27.2939 21.5825 28.909 21.329ZM26.6329 23.5192C27.2669 23.746 28.0016 23.865 29.4817 23.9595C31.011 24.0505 32.3126 23.9333 33.3602 23.5852C33.8212 23.4383 34.1967 23.3451 34.207 23.3824C34.2172 23.4197 34.1734 23.5521 34.1177 23.6778C34.024 23.884 33.8478 23.9726 32.952 24.2891C32.0562 24.6055 31.9079 24.6864 31.9184 24.834C31.9254 24.9323 32.0189 25.0169 32.1715 25.0251C32.3599 25.0536 32.2904 25.0927 31.8335 25.2183C31.4352 25.3379 31.2335 25.4434 31.1499 25.5768C31.051 25.7644 31.0561 25.783 31.2345 25.8844C31.389 25.9723 31.6391 25.9337 32.6621 25.6424L33.8996 25.2921L33.8413 25.8096L33.7737 26.3296L32.9632 26.4822C31.3941 26.7933 29.2356 26.785 27.6304 26.4541C26.4426 26.2191 26.2701 26.0659 26.0128 25.0937C25.8401 24.4291 25.8057 24.1578 25.8439 23.3851C25.8428 23.235 25.8852 23.2434 26.6329 23.5192Z" fill="#F38189"/>
<path d="M25.7128 21.4857C25.3056 21.8283 25.1832 22.1126 25.0543 22.9203C24.9204 23.8195 24.9558 24.5319 25.1942 25.399C25.53 26.6204 26.0439 27.0307 27.6126 27.3014C29.3179 27.5947 31.1828 27.5935 33.104 27.2859C34.1883 27.1081 34.4475 26.9567 34.5364 26.4408C34.6714 25.6917 34.7811 22.5527 34.6837 22.1984C34.3736 21.0702 33.0364 20.3648 31.1094 20.3229C29.3843 20.2857 26.3639 20.9356 25.7128 21.4857ZM28.909 21.329C30.1663 21.1237 31.3688 21.084 32.1697 21.2248C33.1827 21.4076 33.926 21.9955 33.9315 22.6358C33.9336 22.8258 33.8735 22.8624 33.1462 23.0623C31.7477 23.4468 30.1643 23.4509 28.1476 23.0827C26.9742 22.8638 26.0864 22.5162 26.0995 22.2719C26.121 21.9852 27.2939 21.5825 28.909 21.329ZM26.6329 23.5192C27.2669 23.746 28.0016 23.865 29.4817 23.9595C31.011 24.0505 32.3126 23.9333 33.3602 23.5852C33.8212 23.4383 34.1967 23.3451 34.207 23.3824C34.2172 23.4197 34.1734 23.5521 34.1177 23.6778C34.024 23.884 33.8478 23.9726 32.952 24.2891C32.0562 24.6055 31.9079 24.6864 31.9184 24.834C31.9254 24.9323 32.0189 25.0169 32.1715 25.0251C32.3599 25.0536 32.2904 25.0927 31.8335 25.2183C31.4352 25.3379 31.2335 25.4434 31.1499 25.5768C31.051 25.7644 31.0561 25.783 31.2345 25.8844C31.389 25.9723 31.6391 25.9337 32.6621 25.6424L33.8996 25.2921L33.8413 25.8096L33.7737 26.3296L32.9632 26.4822C31.3941 26.7933 29.2356 26.785 27.6304 26.4541C26.4426 26.2191 26.2701 26.0659 26.0128 25.0937C25.8401 24.4291 25.8057 24.1578 25.8439 23.3851C25.8428 23.235 25.8852 23.2434 26.6329 23.5192Z" fill="#FDAA87"/>
<path d="M28.2407 24.6616C28.2894 24.8388 28.7033 24.8854 29.1322 24.7675C29.5425 24.6547 29.4989 24.4962 29.0306 24.4344C28.553 24.3752 28.192 24.4845 28.2407 24.6616Z" fill="#F38189"/>
<path d="M28.2407 24.6616C28.2894 24.8388 28.7033 24.8854 29.1322 24.7675C29.5425 24.6547 29.4989 24.4962 29.0306 24.4344C28.553 24.3752 28.192 24.4845 28.2407 24.6616Z" fill="#F38189"/>
<path d="M28.2407 24.6616C28.2894 24.8388 28.7033 24.8854 29.1322 24.7675C29.5425 24.6547 29.4989 24.4962 29.0306 24.4344C28.553 24.3752 28.192 24.4845 28.2407 24.6616Z" fill="#FDAA87"/>
<path d="M27.9514 25.4332C28.1637 25.5854 28.9415 25.6423 29.1924 25.5333C29.3686 25.4447 29.3091 25.4109 28.7959 25.3314C28.1104 25.209 27.706 25.27 27.9514 25.4332Z" fill="#F38189"/>
<path d="M27.9514 25.4332C28.1637 25.5854 28.9415 25.6423 29.1924 25.5333C29.3686 25.4447 29.3091 25.4109 28.7959 25.3314C28.1104 25.209 27.706 25.27 27.9514 25.4332Z" fill="#F38189"/>
<path d="M27.9514 25.4332C28.1637 25.5854 28.9415 25.6423 29.1924 25.5333C29.3686 25.4447 29.3091 25.4109 28.7959 25.3314C28.1104 25.209 27.706 25.27 27.9514 25.4332Z" fill="#FDAA87"/>
<path d="M8.21815 19.3155C8.24891 19.4274 13.7205 22.5864 14.2365 22.7855C14.5302 22.9053 14.7074 22.8566 14.6612 22.6888C14.6048 22.4837 11.9894 20.8861 10.1632 19.934C8.67921 19.1687 8.12843 18.9892 8.21815 19.3155Z" fill="#F38189"/>
<path d="M8.21815 19.3155C8.24891 19.4274 13.7205 22.5864 14.2365 22.7855C14.5302 22.9053 14.7074 22.8566 14.6612 22.6888C14.6048 22.4837 11.9894 20.8861 10.1632 19.934C8.67921 19.1687 8.12843 18.9892 8.21815 19.3155Z" fill="#F38189"/>
<path d="M8.21815 19.3155C8.24891 19.4274 13.7205 22.5864 14.2365 22.7855C14.5302 22.9053 14.7074 22.8566 14.6612 22.6888C14.6048 22.4837 11.9894 20.8861 10.1632 19.934C8.67921 19.1687 8.12843 18.9892 8.21815 19.3155Z" fill="#FDAA87"/>
<path d="M6.65715 23.1945C6.60819 23.3083 6.46969 24.0082 6.35589 24.7616C6.23953 25.5056 6.08795 26.4498 6.01077 26.8622C5.87669 27.6512 5.91396 28.0421 6.12841 27.9831C6.35218 27.9216 6.54429 27.3072 6.82783 25.7851C7.11813 24.2512 7.21424 23.1417 7.07743 23.0088C6.95506 22.892 6.76695 22.9738 6.65715 23.1945Z" fill="#F38189"/>
<path d="M6.65715 23.1945C6.60819 23.3083 6.46969 24.0082 6.35589 24.7616C6.23953 25.5056 6.08795 26.4498 6.01077 26.8622C5.87669 27.6512 5.91396 28.0421 6.12841 27.9831C6.35218 27.9216 6.54429 27.3072 6.82783 25.7851C7.11813 24.2512 7.21424 23.1417 7.07743 23.0088C6.95506 22.892 6.76695 22.9738 6.65715 23.1945Z" fill="#F38189"/>
<path d="M6.65715 23.1945C6.60819 23.3083 6.46969 24.0082 6.35589 24.7616C6.23953 25.5056 6.08795 26.4498 6.01077 26.8622C5.87669 27.6512 5.91396 28.0421 6.12841 27.9831C6.35218 27.9216 6.54429 27.3072 6.82783 25.7851C7.11813 24.2512 7.21424 23.1417 7.07743 23.0088C6.95506 22.892 6.76695 22.9738 6.65715 23.1945Z" fill="#FDAA87"/>
<path d="M14.8255 21.2798C14.8103 21.3341 14.8674 21.4688 14.9634 21.5628C15.5839 22.2145 25.265 29.3408 25.5993 29.3893C25.6629 29.4019 25.7459 29.3389 25.7839 29.2583C25.8421 29.142 25.6832 28.965 25.1285 28.5158C24.2272 27.7909 19.8502 24.4914 17.8194 23.0139C15.1991 21.1069 14.9231 20.942 14.8255 21.2798Z" fill="#F38189"/>
<path d="M14.8255 21.2798C14.8103 21.3341 14.8674 21.4688 14.9634 21.5628C15.5839 22.2145 25.265 29.3408 25.5993 29.3893C25.6629 29.4019 25.7459 29.3389 25.7839 29.2583C25.8421 29.142 25.6832 28.965 25.1285 28.5158C24.2272 27.7909 19.8502 24.4914 17.8194 23.0139C15.1991 21.1069 14.9231 20.942 14.8255 21.2798Z" fill="#F38189"/>
<path d="M14.8255 21.2798C14.8103 21.3341 14.8674 21.4688 14.9634 21.5628C15.5839 22.2145 25.265 29.3408 25.5993 29.3893C25.6629 29.4019 25.7459 29.3389 25.7839 29.2583C25.8421 29.142 25.6832 28.965 25.1285 28.5158C24.2272 27.7909 19.8502 24.4914 17.8194 23.0139C15.1991 21.1069 14.9231 20.942 14.8255 21.2798Z" fill="#FDAA87"/>
<path d="M7.59774 24.5003C7.33944 25.0928 6.90156 27.0384 7.01204 27.1484C7.17263 27.2948 7.35888 27.1333 7.42603 26.7939C7.46637 26.6124 7.64986 25.9301 7.82495 25.2903C8.12897 24.244 8.14019 23.92 7.89777 23.9866C7.85115 23.9994 7.7227 24.2253 7.59774 24.5003Z" fill="#F38189"/>
<path d="M7.59774 24.5003C7.33944 25.0928 6.90156 27.0384 7.01204 27.1484C7.17263 27.2948 7.35888 27.1333 7.42603 26.7939C7.46637 26.6124 7.64986 25.9301 7.82495 25.2903C8.12897 24.244 8.14019 23.92 7.89777 23.9866C7.85115 23.9994 7.7227 24.2253 7.59774 24.5003Z" fill="#F38189"/>
<path d="M7.59774 24.5003C7.33944 25.0928 6.90156 27.0384 7.01204 27.1484C7.17263 27.2948 7.35888 27.1333 7.42603 26.7939C7.46637 26.6124 7.64986 25.9301 7.82495 25.2903C8.12897 24.244 8.14019 23.92 7.89777 23.9866C7.85115 23.9994 7.7227 24.2253 7.59774 24.5003Z" fill="#FDAA87"/>
<path d="M39.7029 24.7697C39.6089 24.8657 39.6269 24.931 39.7348 25.0317C40.2863 25.5419 42.1547 25.5898 43.8355 25.1378C44.5255 24.9481 44.7339 24.8306 44.6852 24.6535C44.6391 24.4856 44.4703 24.4919 43.3834 24.6604C42.3151 24.8237 41.2788 24.8479 40.4406 24.7173C40.1064 24.6688 39.8358 24.6329 39.8264 24.6354C39.8264 24.6354 39.7647 24.7025 39.7029 24.7697Z" fill="#F38189"/>
<path d="M39.7029 24.7697C39.6089 24.8657 39.6269 24.931 39.7348 25.0317C40.2863 25.5419 42.1547 25.5898 43.8355 25.1378C44.5255 24.9481 44.7339 24.8306 44.6852 24.6535C44.6391 24.4856 44.4703 24.4919 43.3834 24.6604C42.3151 24.8237 41.2788 24.8479 40.4406 24.7173C40.1064 24.6688 39.8358 24.6329 39.8264 24.6354C39.8264 24.6354 39.7647 24.7025 39.7029 24.7697Z" fill="#F38189"/>
<path d="M39.7029 24.7697C39.6089 24.8657 39.6269 24.931 39.7348 25.0317C40.2863 25.5419 42.1547 25.5898 43.8355 25.1378C44.5255 24.9481 44.7339 24.8306 44.6852 24.6535C44.6391 24.4856 44.4703 24.4919 43.3834 24.6604C42.3151 24.8237 41.2788 24.8479 40.4406 24.7173C40.1064 24.6688 39.8358 24.6329 39.8264 24.6354C39.8264 24.6354 39.7647 24.7025 39.7029 24.7697Z" fill="#FDAA87"/>
<path d="M31.3224 31.9676C30.9836 32.6324 29.6146 41.6232 29.8085 41.8908C29.9709 42.117 30.1145 41.8368 30.2924 40.9154C30.7299 38.7493 31.6136 33.793 31.7272 32.9294C31.8191 32.2422 31.8126 31.9632 31.714 31.8599C31.5431 31.6763 31.4499 31.7019 31.3224 31.9676Z" fill="#F38189"/>
<path d="M31.3224 31.9676C30.9836 32.6324 29.6146 41.6232 29.8085 41.8908C29.9709 42.117 30.1145 41.8368 30.2924 40.9154C30.7299 38.7493 31.6136 33.793 31.7272 32.9294C31.8191 32.2422 31.8126 31.9632 31.714 31.8599C31.5431 31.6763 31.4499 31.7019 31.3224 31.9676Z" fill="#F38189"/>
<path d="M31.3224 31.9676C30.9836 32.6324 29.6146 41.6232 29.8085 41.8908C29.9709 42.117 30.1145 41.8368 30.2924 40.9154C30.7299 38.7493 31.6136 33.793 31.7272 32.9294C31.8191 32.2422 31.8126 31.9632 31.714 31.8599C31.5431 31.6763 31.4499 31.7019 31.3224 31.9676Z" fill="#FDAA87"/>
<path d="M29.1472 34.9624C28.9166 35.437 28.5589 38.0024 28.6924 38.1963C28.7383 38.2539 28.8283 38.2893 28.9029 38.2688C29.0707 38.2227 29.7325 35.0121 29.604 34.8368C29.473 34.6522 29.2679 34.7086 29.1472 34.9624Z" fill="#F38189"/>
<path d="M29.1472 34.9624C28.9166 35.437 28.5589 38.0024 28.6924 38.1963C28.7383 38.2539 28.8283 38.2893 28.9029 38.2688C29.0707 38.2227 29.7325 35.0121 29.604 34.8368C29.473 34.6522 29.2679 34.7086 29.1472 34.9624Z" fill="#F38189"/>
<path d="M29.1472 34.9624C28.9166 35.437 28.5589 38.0024 28.6924 38.1963C28.7383 38.2539 28.8283 38.2893 28.9029 38.2688C29.0707 38.2227 29.7325 35.0121 29.604 34.8368C29.473 34.6522 29.2679 34.7086 29.1472 34.9624Z" fill="#FDAA87"/>
<path d="M40.6996 38.1344C40.4667 38.3088 40.5121 38.547 40.7904 38.6109C41.0144 38.6596 41.8519 38.4594 42.0594 38.3021C42.2186 38.1881 42.1655 37.9219 41.9634 37.807C41.797 37.7124 40.9739 37.9286 40.6996 38.1344Z" fill="#F38189"/>
<path d="M40.6996 38.1344C40.4667 38.3088 40.5121 38.547 40.7904 38.6109C41.0144 38.6596 41.8519 38.4594 42.0594 38.3021C42.2186 38.1881 42.1655 37.9219 41.9634 37.807C41.797 37.7124 40.9739 37.9286 40.6996 38.1344Z" fill="#F38189"/>
<path d="M40.6996 38.1344C40.4667 38.3088 40.5121 38.547 40.7904 38.6109C41.0144 38.6596 41.8519 38.4594 42.0594 38.3021C42.2186 38.1881 42.1655 37.9219 41.9634 37.807C41.797 37.7124 40.9739 37.9286 40.6996 38.1344Z" fill="#FDAA87"/>
<path d="M38.8268 39.7123C38.5651 39.8545 38.452 40.1363 38.6184 40.2309C38.6897 40.2715 39.2883 40.1872 39.9631 40.0518C43.0658 39.4094 44.6527 39.0533 44.7238 38.9836C44.8541 38.8375 44.718 38.6342 44.4898 38.6067C43.7798 38.5412 39.4224 39.3982 38.8268 39.7123Z" fill="#F38189"/>
<path d="M38.8268 39.7123C38.5651 39.8545 38.452 40.1363 38.6184 40.2309C38.6897 40.2715 39.2883 40.1872 39.9631 40.0518C43.0658 39.4094 44.6527 39.0533 44.7238 38.9836C44.8541 38.8375 44.718 38.6342 44.4898 38.6067C43.7798 38.5412 39.4224 39.3982 38.8268 39.7123Z" fill="#F38189"/>
<path d="M38.8268 39.7123C38.5651 39.8545 38.452 40.1363 38.6184 40.2309C38.6897 40.2715 39.2883 40.1872 39.9631 40.0518C43.0658 39.4094 44.6527 39.0533 44.7238 38.9836C44.8541 38.8375 44.718 38.6342 44.4898 38.6067C43.7798 38.5412 39.4224 39.3982 38.8268 39.7123Z" fill="#FDAA87"/>
<path d="M34.8357 42.1935C34.8282 42.2758 34.8844 42.3707 34.9651 42.4087C35.2401 42.5336 40.7506 41.5301 44.4093 40.6847C45.7647 40.3622 45.9766 40.2939 45.9459 40.182C45.9177 40.0795 45.6853 40.0731 45.0189 40.1661C44.5254 40.2316 44.0226 40.2996 43.903 40.3024C43.5308 40.3345 39.8836 40.9662 38.0363 41.3236C35.7033 41.7745 34.8548 42.0077 34.8357 42.1935Z" fill="#F38189"/>
<path d="M34.8357 42.1935C34.8282 42.2758 34.8844 42.3707 34.9651 42.4087C35.2401 42.5336 40.7506 41.5301 44.4093 40.6847C45.7647 40.3622 45.9766 40.2939 45.9459 40.182C45.9177 40.0795 45.6853 40.0731 45.0189 40.1661C44.5254 40.2316 44.0226 40.2996 43.903 40.3024C43.5308 40.3345 39.8836 40.9662 38.0363 41.3236C35.7033 41.7745 34.8548 42.0077 34.8357 42.1935Z" fill="#F38189"/>
<path d="M34.8357 42.1935C34.8282 42.2758 34.8844 42.3707 34.9651 42.4087C35.2401 42.5336 40.7506 41.5301 44.4093 40.6847C45.7647 40.3622 45.9766 40.2939 45.9459 40.182C45.9177 40.0795 45.6853 40.0731 45.0189 40.1661C44.5254 40.2316 44.0226 40.2996 43.903 40.3024C43.5308 40.3345 39.8836 40.9662 38.0363 41.3236C35.7033 41.7745 34.8548 42.0077 34.8357 42.1935Z" fill="#FDAA87"/>
</svg>
