<svg width="59" height="58" viewBox="0 0 59 58" fill="none" xmlns="http://www.w3.org/2000/svg">
<path d="M25.1533 7.6526C40.6286 6.02916 52.7728 14.6313 54.3962 29.5163C56.0197 44.2959 45.8995 55.3227 30.3187 56.9461C14.8433 58.675 2.67808 49.9674 1.07572 35.1878C-0.54772 20.3028 9.57241 9.27604 25.1743 7.6526H25.1533ZM36.18 31.4349C35.3788 24.2454 31.9211 19.7968 26.4604 20.3028C20.9998 20.9142 18.4697 26.0797 19.2709 33.2482C19.9877 40.3323 23.5298 44.8863 28.9905 44.2749C34.4511 43.6634 36.9811 38.4979 36.18 31.4138V31.4349Z" fill="#F9BDC1"/>
<path d="M28.4423 1.66493C43.9177 0.0414906 56.0619 8.6436 57.6853 23.5286C59.3087 38.3083 49.1886 49.335 33.6078 50.9585C18.1324 52.6873 5.96714 43.9798 4.36478 29.2001C2.74134 14.3151 12.8615 3.28837 28.4634 1.66493H28.4423ZM39.4691 25.4473C38.6679 18.2577 35.2101 13.8091 29.7495 14.3151C24.2888 14.9265 21.7588 20.092 22.56 27.2604C23.2768 34.3445 26.8189 38.8986 32.2795 38.2872C37.7402 37.6758 40.2703 32.5103 39.4691 25.4262V25.4473Z" stroke="#F0515B" stroke-miterlimit="10"/>
</svg>
