<svg width="79" height="79" viewBox="0 0 79 79" fill="none" xmlns="http://www.w3.org/2000/svg">
<path d="M68.2424 27.569C68.3603 27.8009 68.4907 28.1988 68.5317 28.4494C68.606 28.9604 68.1716 30.5954 67.7648 31.3445L67.5079 31.8185L68.2072 32.2494C68.5825 32.4924 69.2546 32.918 69.6788 33.1988L70.4587 33.7076L70.2299 34.4692C70.0558 35.0385 66.256 49.1653 65.3261 52.7165L65.2287 53.126L62.6083 53.7443C54.0517 55.7501 39.3023 59.6174 33.1343 61.4669C32.0553 61.7905 31.7428 61.8306 31.4775 61.6882C31.2959 61.5791 30.087 60.9577 28.7868 60.3128C23.0825 57.4534 16.813 53.9695 10.3414 50.0792C9.07989 49.3234 7.92925 48.6063 7.78236 48.4928C7.53755 48.3036 7.61054 47.7031 8.90577 39.2263C10.5869 28.1855 10.477 28.7731 10.7685 28.6386C10.8931 28.5785 11.4892 28.2727 12.0852 27.9669C13.6337 27.1773 15.4917 26.3921 17.5788 25.6745C18.9796 25.1773 19.4207 24.9708 19.6326 24.6966C20.2001 23.9621 21.547 23.5953 22.821 23.829C23.1001 23.8726 23.3921 23.8793 23.482 23.8237C23.5719 23.768 24.9273 23.3296 26.5039 22.8275C28.0827 22.3427 29.4457 21.8945 29.54 21.8736C29.6322 21.8353 29.8952 21.2722 30.1374 20.6147C30.6648 19.2237 31.1273 18.5645 31.8577 18.2062C33.1668 17.5443 35.4334 17.9507 37.7244 19.2361L38.5889 19.7164L40.2158 19.3314C41.1127 19.1017 41.9326 18.8907 42.0247 18.8524C42.1418 18.8021 42.3759 18.3574 42.6279 17.7076C43.1144 16.41 43.5243 15.9605 44.5218 15.6208C46.4074 14.9821 49.3923 16.0374 52.5901 18.4771C54.1231 19.6304 54.3955 19.966 54.4307 20.7908C54.465 21.3334 54.2393 22.3946 53.9549 23.0663C53.8213 23.401 53.7452 23.7019 53.7942 23.7397C54.2095 23.9512 56.6465 25.068 56.7355 25.0742C56.8072 25.0826 56.8958 24.9478 56.9528 24.7728C57.3556 23.4419 59.3702 22.7778 61.3626 23.3164C62.916 23.7348 64.3729 24.5008 66.3181 25.91C67.7291 26.9378 68.0567 27.2222 68.2424 27.569ZM63.5539 25.3381C62.2395 24.6508 61.1756 24.2667 60.244 24.1568C59.2505 24.0459 58.6064 24.252 58.1751 24.8102L57.8421 25.2411L58.6451 25.8616C59.6929 26.6712 60.5921 27.1471 62.0374 27.6852C64.3324 28.5202 67.1438 28.9097 67.3909 28.4281C67.4394 28.3248 67.4051 28.1263 67.2983 27.9812C67.0192 27.5935 64.6324 25.9056 63.5539 25.3381ZM64.7357 29.3949C62.1821 28.8136 59.7375 27.7066 58.2258 26.4447L57.3574 25.7267L57.2577 26.1189C57.1687 26.4567 57.1994 26.5587 57.5902 26.9232C57.9516 27.2651 57.9997 27.3648 57.8711 27.5312C57.7576 27.6781 57.6338 27.6763 57.3739 27.5068C57.0476 27.3016 56.8785 27.3585 56.8513 27.6973C56.8237 27.8949 58.5539 28.9347 59.7397 29.4443C60.5342 29.7924 60.7443 29.986 60.5627 30.2211C60.2979 30.5638 58.9211 30.0786 57.4865 29.1421C56.6969 28.6258 56.6501 28.6053 56.5575 28.8466C56.2949 29.5508 56.4147 29.6589 58.6033 30.834C60.6865 31.9432 63.9795 32.9238 64.9993 32.7578C65.7066 32.6318 66.7584 31.2706 67.1483 29.9766L67.2342 29.6833L66.4895 29.6553C66.0813 29.637 65.2908 29.5266 64.7357 29.3949ZM48.8462 17.3514C47.5015 16.7033 46.0731 16.3659 45.2149 16.4848C44.679 16.5712 44.5566 16.6486 44.1987 17.0915L43.8052 17.6007L44.841 18.3855C45.5634 18.9281 46.1844 19.2984 46.8757 19.598C48.994 20.4998 52.2069 21.1995 53.0005 20.9212C53.3388 20.8073 53.3539 20.7877 53.2738 20.5068C53.1661 20.0795 50.3605 18.0836 48.8462 17.3514ZM67.8961 32.7128L67.2057 32.3514L66.9257 32.7137C66.4793 33.2915 65.9073 33.6471 65.2 33.7731C63.6563 34.0504 59.5416 32.7164 57.0543 31.1385C56.2767 30.6471 56.1703 30.6431 56.2184 31.0869C56.323 31.9028 55.5445 33.8818 54.6818 34.9981C53.7057 36.2614 52.8457 36.504 50.9308 36.0878C48.6977 35.5978 45.974 34.4472 44.1107 33.1951C43.1937 32.5803 43.1523 32.5327 43.1011 32.1335C43.0232 31.5259 44.5046 27.3217 45.0343 26.6362C45.4731 26.0682 46.172 25.6698 46.9011 25.5764L47.3351 25.5207L47.0471 25.4077C45.7571 24.9114 43.9473 24.0759 43.1545 23.6041C42.1725 23.033 42.0368 23.0063 42.1227 23.4011C42.1877 23.7016 41.8596 24.9964 41.5085 25.8355C41.3447 26.2094 40.9365 26.8793 40.6035 27.3102C39.5744 28.642 38.7643 28.8605 36.6549 28.3722C34.5379 27.8938 32.412 27.0018 30.3925 25.7697C28.8711 24.8443 28.7104 24.4855 29.2525 23.2779C29.3268 23.1008 29.3642 22.9107 29.3478 22.851C29.3215 22.7838 28.2706 23.0509 27.0127 23.4239C25.7472 23.8067 24.6433 24.1424 24.5414 24.1731C24.4123 24.1985 24.5472 24.287 24.9949 24.4767C26.6633 25.1715 29.61 27.1669 30.2683 28.0353C30.4383 28.2606 30.6133 28.6616 30.6542 28.9122C30.8269 29.9841 30.1428 31.9422 29.144 33.2348C28.1202 34.5394 27.3871 34.7393 25.2973 34.2662C23.1629 33.7899 21.0588 32.9304 19.1176 31.7589C17.8855 31.0258 17.5001 30.6341 17.5486 30.1867C17.561 30.0087 17.8499 29.0276 18.194 27.9954C18.5305 26.9729 18.8176 26.1156 18.8131 26.0809C18.8042 26.0115 16.2768 26.8737 15.0866 27.3616C12.8481 28.275 11.5519 28.8999 11.7562 28.9796C11.8671 29.0183 12.8018 29.4278 13.8301 29.8783C17.6919 31.5799 20.7023 33.1085 30.1571 38.1778L36.9417 41.8251L37.6552 41.6101C46.4205 39.0306 64.2136 34.5436 68.7645 33.7748L69.576 33.6355L69.0824 33.3635C68.8073 33.2135 68.2842 32.9189 67.8961 32.7128ZM67.3967 34.7354C54.9325 37.7098 47.5631 39.6163 39.8897 41.8353L37.0561 42.6486L36.9434 43.0777C36.8834 43.2971 36.0857 46.4343 35.1701 50.0278C34.2644 53.6288 33.2727 57.5232 32.9736 58.6996L32.4256 60.8255L33.266 60.5678C39.8177 58.5455 55.4169 54.631 62.497 53.2204L64.8378 52.7615L67.3745 43.5078C68.7672 38.4063 69.8644 34.2337 69.8177 34.2133C69.7634 34.2026 68.6809 34.4296 67.3967 34.7354ZM50.7682 21.7456C48.0886 21.1452 46.1648 20.3155 44.4262 19.0033L43.2239 18.0899L43.13 18.596C43.0414 19.075 43.0579 19.1346 43.4789 19.46C43.7923 19.7021 43.8916 19.857 43.8573 20.0026C43.7821 20.2416 43.4727 20.2372 43.1594 19.995C42.9831 19.8588 42.8963 19.87 42.797 20.0591C42.6751 20.2777 42.7209 20.36 43.0997 20.6997C43.349 20.9236 44.095 21.3749 44.756 21.7136C46.1323 22.4018 46.4902 22.647 46.4671 22.8794C46.4185 23.3267 45.1865 22.9377 43.6628 21.995C42.7231 21.4096 42.4601 21.2846 42.416 21.4225C42.3924 21.5138 42.3288 21.6366 42.2834 21.6954C42.1926 21.8129 43.4064 22.6101 44.7284 23.2876C45.9004 23.896 48.3117 24.7426 49.5954 24.9839C50.8987 25.2403 51.3834 25.0987 52.0191 24.2761C52.4352 23.7375 53.1278 22.3959 53.1648 22.0648C53.1732 21.9931 52.9039 21.957 52.5794 21.9722C52.2474 21.9971 51.4319 21.8987 50.7682 21.7456ZM54.6893 25.0101L53.3695 24.35L52.9988 24.8298C52.4464 25.5447 51.8237 25.9863 51.136 26.1274L50.5252 26.2498L51.2134 26.5939C52.0591 26.9971 54.007 28.2208 54.81 28.8412C55.2213 29.1591 55.3909 29.2432 55.4274 29.115C55.4532 29.0411 55.6993 28.2773 55.9887 27.4373C56.4467 26.0552 56.4787 25.8923 56.2548 25.7975C56.1222 25.7263 55.4167 25.3844 54.6893 25.0101ZM40.6992 20.1428C40.1904 20.2345 39.7435 20.3271 39.7208 20.3565C39.6905 20.3957 40.0204 20.6975 40.461 21.038C41.0584 21.4996 41.2672 21.614 41.3135 21.4933C41.3295 21.4119 41.4586 21.0424 41.5801 20.6828C41.7114 20.3307 41.7777 20.0222 41.7234 20.0115C41.6789 20.0084 41.2177 20.0587 40.6992 20.1428ZM50.592 27.4587C48.1581 26.2974 46.3487 26.2912 45.7011 27.433C45.5413 27.7005 45.551 27.708 46.5846 28.4754C48.1078 29.6212 50.3771 30.5301 52.7869 30.9534C54.3747 31.2262 55.3597 31.0646 55.0922 30.5607C54.9044 30.1966 51.7008 27.9871 50.592 27.4587ZM53.9661 32.0991C52.9445 32.0448 52.081 31.8467 50.3739 31.2627C48.6691 30.6961 47.3645 30.0164 46.1012 29.0403C45.5235 28.5938 45.0383 28.2502 45.0231 28.2698C44.9096 28.4167 44.8696 29.1364 44.976 29.1404C45.0378 29.1413 45.4425 29.4071 45.8613 29.7151C46.4564 30.1593 46.622 30.3498 46.651 30.5755C46.7057 31.0714 46.2343 30.973 45.3726 30.3071C44.6773 29.7699 44.6675 29.7623 44.5794 30.0383C44.4988 30.3044 44.5424 30.3694 45.0427 30.6935C45.3517 30.9009 46.1039 31.2632 46.7342 31.5C48.1252 32.0275 48.2899 32.2799 47.2839 32.3471C46.5927 32.3916 45.7647 32.1272 44.8469 31.5744C44.55 31.3919 44.2847 31.2494 44.2696 31.269C44.262 31.2788 44.205 31.4537 44.1481 31.6287C44.0417 31.9687 44.0515 31.9763 44.753 32.4245C47.2848 34.0056 51.0479 35.3494 52.5453 35.1927L53.217 35.133L53.9376 34.079C54.5719 33.1772 55.013 32.2825 54.8857 32.1841C54.8661 32.169 54.4459 32.1258 53.9661 32.0991ZM36.6508 19.8767C34.1755 18.6678 32.4885 18.5841 31.6713 19.6417L31.4064 19.9844L32.3563 20.7184C33.8644 21.8838 35.5425 22.5861 38.1188 23.1381C39.8437 23.5168 40.737 23.5346 40.9173 23.2204C40.9885 23.0877 40.9716 22.887 40.8626 22.7245C40.5082 22.2318 38.0151 20.5399 36.6508 19.8767ZM40.1103 24.4267C39.2886 24.4173 38.3014 24.2175 36.7292 23.7221C34.654 23.0882 33.73 22.6244 32.3002 21.5197C31.5778 20.9771 30.9827 20.5328 30.9751 20.5426C30.9675 20.5524 30.9159 20.7002 30.8687 20.8827C30.7677 21.1956 30.7993 21.2357 31.4946 21.7729C32.0136 22.174 32.2183 22.3948 32.2232 22.5706C32.2442 23.009 31.8338 22.9734 31.1874 22.474C30.8643 22.2243 30.5945 22.0471 30.5794 22.0667C30.3902 22.3115 30.4637 22.5403 30.8358 22.8279C31.3352 23.2138 32.9256 23.9892 34.3558 24.5469C35.5621 25.0098 35.8808 25.2248 35.8078 25.4812C35.7424 25.7278 35.5296 25.7198 34.5681 25.446C33.4709 25.1456 31.8796 24.4321 30.9671 23.8521L30.2264 23.3736L30.1062 23.8125L29.9861 24.2514L30.9008 24.8487C32.6172 25.9873 35.1668 27.0191 37.238 27.4152C38.6771 27.6983 39.0576 27.5701 39.7796 26.5953C40.2163 26.01 40.9454 24.5402 40.8376 24.4569C40.8181 24.4418 40.4891 24.4222 40.1103 24.4267ZM26.0619 26.1926C23.3565 24.6338 21.1349 24.3716 20.2647 25.4978C20.0074 25.8307 20.0096 25.8481 20.4222 26.2452C20.9666 26.7753 22.314 27.5818 23.4411 28.0461C25.2594 28.8099 28.2475 29.4767 29.1012 29.3231C29.5503 29.2479 29.6763 28.9229 29.3919 28.5624C29.0999 28.2116 27.1275 26.797 26.0619 26.1926ZM28.6539 30.3068C27.716 30.2859 27.1013 30.1706 25.5314 29.6926C23.2617 28.9866 22.4333 28.5811 20.9177 27.4256C19.7546 26.5425 19.5534 26.4183 19.4942 26.5759C19.4532 26.6694 19.2258 27.5102 18.9845 28.4498L18.5394 30.1391L19.0811 30.5107C21.7114 32.3086 26.3032 33.8549 27.4521 33.3194C27.7686 33.1729 27.9773 32.9432 28.483 32.2079C29.0242 31.4062 29.5138 30.4083 29.4061 30.325C29.3963 30.3175 29.05 30.3001 28.6539 30.3068ZM23.333 35.3914C21.3673 34.373 18.9222 33.1249 17.8873 32.6224C16.1937 31.7985 11.2893 29.6041 11.1754 29.6099C11.158 29.6121 10.9875 30.6221 10.7992 31.8373C10.6208 33.06 9.99318 37.1106 9.40254 40.83C8.82168 44.557 8.34098 47.6889 8.33698 47.7953C8.30003 48.1265 16.2788 52.8998 22.5742 56.3099C25.1826 57.7311 31.3818 60.9417 31.4784 60.9381C31.5131 60.9337 32.6036 56.709 33.9256 51.5372L36.3034 42.1451L31.6055 39.7037C29.0158 38.3595 25.291 36.4197 23.333 35.3914Z" fill="#F38189"/>
<path d="M68.2424 27.569C68.3603 27.8009 68.4907 28.1988 68.5317 28.4494C68.606 28.9604 68.1716 30.5954 67.7648 31.3445L67.5079 31.8185L68.2072 32.2494C68.5825 32.4924 69.2546 32.918 69.6788 33.1988L70.4587 33.7076L70.2299 34.4692C70.0558 35.0385 66.256 49.1653 65.3261 52.7165L65.2287 53.126L62.6083 53.7443C54.0517 55.7501 39.3023 59.6174 33.1343 61.4669C32.0553 61.7905 31.7428 61.8306 31.4775 61.6882C31.2959 61.5791 30.087 60.9577 28.7868 60.3128C23.0825 57.4534 16.813 53.9695 10.3414 50.0792C9.07989 49.3234 7.92925 48.6063 7.78236 48.4928C7.53755 48.3036 7.61054 47.7031 8.90577 39.2263C10.5869 28.1855 10.477 28.7731 10.7685 28.6386C10.8931 28.5785 11.4892 28.2727 12.0852 27.9669C13.6337 27.1773 15.4917 26.3921 17.5788 25.6745C18.9796 25.1773 19.4207 24.9708 19.6326 24.6966C20.2001 23.9621 21.547 23.5953 22.821 23.829C23.1001 23.8726 23.3921 23.8793 23.482 23.8237C23.5719 23.768 24.9273 23.3296 26.5039 22.8275C28.0827 22.3427 29.4457 21.8945 29.54 21.8736C29.6322 21.8353 29.8952 21.2722 30.1374 20.6147C30.6648 19.2237 31.1273 18.5645 31.8577 18.2062C33.1668 17.5443 35.4334 17.9507 37.7244 19.2361L38.5889 19.7164L40.2158 19.3314C41.1127 19.1017 41.9326 18.8907 42.0247 18.8524C42.1418 18.8021 42.3759 18.3574 42.6279 17.7076C43.1144 16.41 43.5243 15.9605 44.5218 15.6208C46.4074 14.9821 49.3923 16.0374 52.5901 18.4771C54.1231 19.6304 54.3955 19.966 54.4307 20.7908C54.465 21.3334 54.2393 22.3946 53.9549 23.0663C53.8213 23.401 53.7452 23.7019 53.7942 23.7397C54.2095 23.9512 56.6465 25.068 56.7355 25.0742C56.8072 25.0826 56.8958 24.9478 56.9528 24.7728C57.3556 23.4419 59.3702 22.7778 61.3626 23.3164C62.916 23.7348 64.3729 24.5008 66.3181 25.91C67.7291 26.9378 68.0567 27.2222 68.2424 27.569ZM63.5539 25.3381C62.2395 24.6508 61.1756 24.2667 60.244 24.1568C59.2505 24.0459 58.6064 24.252 58.1751 24.8102L57.8421 25.2411L58.6451 25.8616C59.6929 26.6712 60.5921 27.1471 62.0374 27.6852C64.3324 28.5202 67.1438 28.9097 67.3909 28.4281C67.4394 28.3248 67.4051 28.1263 67.2983 27.9812C67.0192 27.5935 64.6324 25.9056 63.5539 25.3381ZM64.7357 29.3949C62.1821 28.8136 59.7375 27.7066 58.2258 26.4447L57.3574 25.7267L57.2577 26.1189C57.1687 26.4567 57.1994 26.5587 57.5902 26.9232C57.9516 27.2651 57.9997 27.3648 57.8711 27.5312C57.7576 27.6781 57.6338 27.6763 57.3739 27.5068C57.0476 27.3016 56.8785 27.3585 56.8513 27.6973C56.8237 27.8949 58.5539 28.9347 59.7397 29.4443C60.5342 29.7924 60.7443 29.986 60.5627 30.2211C60.2979 30.5638 58.9211 30.0786 57.4865 29.1421C56.6969 28.6258 56.6501 28.6053 56.5575 28.8466C56.2949 29.5508 56.4147 29.6589 58.6033 30.834C60.6865 31.9432 63.9795 32.9238 64.9993 32.7578C65.7066 32.6318 66.7584 31.2706 67.1483 29.9766L67.2342 29.6833L66.4895 29.6553C66.0813 29.637 65.2908 29.5266 64.7357 29.3949ZM48.8462 17.3514C47.5015 16.7033 46.0731 16.3659 45.2149 16.4848C44.679 16.5712 44.5566 16.6486 44.1987 17.0915L43.8052 17.6007L44.841 18.3855C45.5634 18.9281 46.1844 19.2984 46.8757 19.598C48.994 20.4998 52.2069 21.1995 53.0005 20.9212C53.3388 20.8073 53.3539 20.7877 53.2738 20.5068C53.1661 20.0795 50.3605 18.0836 48.8462 17.3514ZM67.8961 32.7128L67.2057 32.3514L66.9257 32.7137C66.4793 33.2915 65.9073 33.6471 65.2 33.7731C63.6563 34.0504 59.5416 32.7164 57.0543 31.1385C56.2767 30.6471 56.1703 30.6431 56.2184 31.0869C56.323 31.9028 55.5445 33.8818 54.6818 34.9981C53.7057 36.2614 52.8457 36.504 50.9308 36.0878C48.6977 35.5978 45.974 34.4472 44.1107 33.1951C43.1937 32.5803 43.1523 32.5327 43.1011 32.1335C43.0232 31.5259 44.5046 27.3217 45.0343 26.6362C45.4731 26.0682 46.172 25.6698 46.9011 25.5764L47.3351 25.5207L47.0471 25.4077C45.7571 24.9114 43.9473 24.0759 43.1545 23.6041C42.1725 23.033 42.0368 23.0063 42.1227 23.4011C42.1877 23.7016 41.8596 24.9964 41.5085 25.8355C41.3447 26.2094 40.9365 26.8793 40.6035 27.3102C39.5744 28.642 38.7643 28.8605 36.6549 28.3722C34.5379 27.8938 32.412 27.0018 30.3925 25.7697C28.8711 24.8443 28.7104 24.4855 29.2525 23.2779C29.3268 23.1008 29.3642 22.9107 29.3478 22.851C29.3215 22.7838 28.2706 23.0509 27.0127 23.4239C25.7472 23.8067 24.6433 24.1424 24.5414 24.1731C24.4123 24.1985 24.5472 24.287 24.9949 24.4767C26.6633 25.1715 29.61 27.1669 30.2683 28.0353C30.4383 28.2606 30.6133 28.6616 30.6542 28.9122C30.8269 29.9841 30.1428 31.9422 29.144 33.2348C28.1202 34.5394 27.3871 34.7393 25.2973 34.2662C23.1629 33.7899 21.0588 32.9304 19.1176 31.7589C17.8855 31.0258 17.5001 30.6341 17.5486 30.1867C17.561 30.0087 17.8499 29.0276 18.194 27.9954C18.5305 26.9729 18.8176 26.1156 18.8131 26.0809C18.8042 26.0115 16.2768 26.8737 15.0866 27.3616C12.8481 28.275 11.5519 28.8999 11.7562 28.9796C11.8671 29.0183 12.8018 29.4278 13.8301 29.8783C17.6919 31.5799 20.7023 33.1085 30.1571 38.1778L36.9417 41.8251L37.6552 41.6101C46.4205 39.0306 64.2136 34.5436 68.7645 33.7748L69.576 33.6355L69.0824 33.3635C68.8073 33.2135 68.2842 32.9189 67.8961 32.7128ZM67.3967 34.7354C54.9325 37.7098 47.5631 39.6163 39.8897 41.8353L37.0561 42.6486L36.9434 43.0777C36.8834 43.2971 36.0857 46.4343 35.1701 50.0278C34.2644 53.6288 33.2727 57.5232 32.9736 58.6996L32.4256 60.8255L33.266 60.5678C39.8177 58.5455 55.4169 54.631 62.497 53.2204L64.8378 52.7615L67.3745 43.5078C68.7672 38.4063 69.8644 34.2337 69.8177 34.2133C69.7634 34.2026 68.6809 34.4296 67.3967 34.7354ZM50.7682 21.7456C48.0886 21.1452 46.1648 20.3155 44.4262 19.0033L43.2239 18.0899L43.13 18.596C43.0414 19.075 43.0579 19.1346 43.4789 19.46C43.7923 19.7021 43.8916 19.857 43.8573 20.0026C43.7821 20.2416 43.4727 20.2372 43.1594 19.995C42.9831 19.8588 42.8963 19.87 42.797 20.0591C42.6751 20.2777 42.7209 20.36 43.0997 20.6997C43.349 20.9236 44.095 21.3749 44.756 21.7136C46.1323 22.4018 46.4902 22.647 46.4671 22.8794C46.4185 23.3267 45.1865 22.9377 43.6628 21.995C42.7231 21.4096 42.4601 21.2846 42.416 21.4225C42.3924 21.5138 42.3288 21.6366 42.2834 21.6954C42.1926 21.8129 43.4064 22.6101 44.7284 23.2876C45.9004 23.896 48.3117 24.7426 49.5954 24.9839C50.8987 25.2403 51.3834 25.0987 52.0191 24.2761C52.4352 23.7375 53.1278 22.3959 53.1648 22.0648C53.1732 21.9931 52.9039 21.957 52.5794 21.9722C52.2474 21.9971 51.4319 21.8987 50.7682 21.7456ZM54.6893 25.0101L53.3695 24.35L52.9988 24.8298C52.4464 25.5447 51.8237 25.9863 51.136 26.1274L50.5252 26.2498L51.2134 26.5939C52.0591 26.9971 54.007 28.2208 54.81 28.8412C55.2213 29.1591 55.3909 29.2432 55.4274 29.115C55.4532 29.0411 55.6993 28.2773 55.9887 27.4373C56.4467 26.0552 56.4787 25.8923 56.2548 25.7975C56.1222 25.7263 55.4167 25.3844 54.6893 25.0101ZM40.6992 20.1428C40.1904 20.2345 39.7435 20.3271 39.7208 20.3565C39.6905 20.3957 40.0204 20.6975 40.461 21.038C41.0584 21.4996 41.2672 21.614 41.3135 21.4933C41.3295 21.4119 41.4586 21.0424 41.5801 20.6828C41.7114 20.3307 41.7777 20.0222 41.7234 20.0115C41.6789 20.0084 41.2177 20.0587 40.6992 20.1428ZM50.592 27.4587C48.1581 26.2974 46.3487 26.2912 45.7011 27.433C45.5413 27.7005 45.551 27.708 46.5846 28.4754C48.1078 29.6212 50.3771 30.5301 52.7869 30.9534C54.3747 31.2262 55.3597 31.0646 55.0922 30.5607C54.9044 30.1966 51.7008 27.9871 50.592 27.4587ZM53.9661 32.0991C52.9445 32.0448 52.081 31.8467 50.3739 31.2627C48.6691 30.6961 47.3645 30.0164 46.1012 29.0403C45.5235 28.5938 45.0383 28.2502 45.0231 28.2698C44.9096 28.4167 44.8696 29.1364 44.976 29.1404C45.0378 29.1413 45.4425 29.4071 45.8613 29.7151C46.4564 30.1593 46.622 30.3498 46.651 30.5755C46.7057 31.0714 46.2343 30.973 45.3726 30.3071C44.6773 29.7699 44.6675 29.7623 44.5794 30.0383C44.4988 30.3044 44.5424 30.3694 45.0427 30.6935C45.3517 30.9009 46.1039 31.2632 46.7342 31.5C48.1252 32.0275 48.2899 32.2799 47.2839 32.3471C46.5927 32.3916 45.7647 32.1272 44.8469 31.5744C44.55 31.3919 44.2847 31.2494 44.2696 31.269C44.262 31.2788 44.205 31.4537 44.1481 31.6287C44.0417 31.9687 44.0515 31.9763 44.753 32.4245C47.2848 34.0056 51.0479 35.3494 52.5453 35.1927L53.217 35.133L53.9376 34.079C54.5719 33.1772 55.013 32.2825 54.8857 32.1841C54.8661 32.169 54.4459 32.1258 53.9661 32.0991ZM36.6508 19.8767C34.1755 18.6678 32.4885 18.5841 31.6713 19.6417L31.4064 19.9844L32.3563 20.7184C33.8644 21.8838 35.5425 22.5861 38.1188 23.1381C39.8437 23.5168 40.737 23.5346 40.9173 23.2204C40.9885 23.0877 40.9716 22.887 40.8626 22.7245C40.5082 22.2318 38.0151 20.5399 36.6508 19.8767ZM40.1103 24.4267C39.2886 24.4173 38.3014 24.2175 36.7292 23.7221C34.654 23.0882 33.73 22.6244 32.3002 21.5197C31.5778 20.9771 30.9827 20.5328 30.9751 20.5426C30.9675 20.5524 30.9159 20.7002 30.8687 20.8827C30.7677 21.1956 30.7993 21.2357 31.4946 21.7729C32.0136 22.174 32.2183 22.3948 32.2232 22.5706C32.2442 23.009 31.8338 22.9734 31.1874 22.474C30.8643 22.2243 30.5945 22.0471 30.5794 22.0667C30.3902 22.3115 30.4637 22.5403 30.8358 22.8279C31.3352 23.2138 32.9256 23.9892 34.3558 24.5469C35.5621 25.0098 35.8808 25.2248 35.8078 25.4812C35.7424 25.7278 35.5296 25.7198 34.5681 25.446C33.4709 25.1456 31.8796 24.4321 30.9671 23.8521L30.2264 23.3736L30.1062 23.8125L29.9861 24.2514L30.9008 24.8487C32.6172 25.9873 35.1668 27.0191 37.238 27.4152C38.6771 27.6983 39.0576 27.5701 39.7796 26.5953C40.2163 26.01 40.9454 24.5402 40.8376 24.4569C40.8181 24.4418 40.4891 24.4222 40.1103 24.4267ZM26.0619 26.1926C23.3565 24.6338 21.1349 24.3716 20.2647 25.4978C20.0074 25.8307 20.0096 25.8481 20.4222 26.2452C20.9666 26.7753 22.314 27.5818 23.4411 28.0461C25.2594 28.8099 28.2475 29.4767 29.1012 29.3231C29.5503 29.2479 29.6763 28.9229 29.3919 28.5624C29.0999 28.2116 27.1275 26.797 26.0619 26.1926ZM28.6539 30.3068C27.716 30.2859 27.1013 30.1706 25.5314 29.6926C23.2617 28.9866 22.4333 28.5811 20.9177 27.4256C19.7546 26.5425 19.5534 26.4183 19.4942 26.5759C19.4532 26.6694 19.2258 27.5102 18.9845 28.4498L18.5394 30.1391L19.0811 30.5107C21.7114 32.3086 26.3032 33.8549 27.4521 33.3194C27.7686 33.1729 27.9773 32.9432 28.483 32.2079C29.0242 31.4062 29.5138 30.4083 29.4061 30.325C29.3963 30.3175 29.05 30.3001 28.6539 30.3068ZM23.333 35.3914C21.3673 34.373 18.9222 33.1249 17.8873 32.6224C16.1937 31.7985 11.2893 29.6041 11.1754 29.6099C11.158 29.6121 10.9875 30.6221 10.7992 31.8373C10.6208 33.06 9.99318 37.1106 9.40254 40.83C8.82168 44.557 8.34098 47.6889 8.33698 47.7953C8.30003 48.1265 16.2788 52.8998 22.5742 56.3099C25.1826 57.7311 31.3818 60.9417 31.4784 60.9381C31.5131 60.9337 32.6036 56.709 33.9256 51.5372L36.3034 42.1451L31.6055 39.7037C29.0158 38.3595 25.291 36.4197 23.333 35.3914Z" fill="#F38189"/>
<path d="M68.2424 27.569C68.3603 27.8009 68.4907 28.1988 68.5317 28.4494C68.606 28.9604 68.1716 30.5954 67.7648 31.3445L67.5079 31.8185L68.2072 32.2494C68.5825 32.4924 69.2546 32.918 69.6788 33.1988L70.4587 33.7076L70.2299 34.4692C70.0558 35.0385 66.256 49.1653 65.3261 52.7165L65.2287 53.126L62.6083 53.7443C54.0517 55.7501 39.3023 59.6174 33.1343 61.4669C32.0553 61.7905 31.7428 61.8306 31.4775 61.6882C31.2959 61.5791 30.087 60.9577 28.7868 60.3128C23.0825 57.4534 16.813 53.9695 10.3414 50.0792C9.07989 49.3234 7.92925 48.6063 7.78236 48.4928C7.53755 48.3036 7.61054 47.7031 8.90577 39.2263C10.5869 28.1855 10.477 28.7731 10.7685 28.6386C10.8931 28.5785 11.4892 28.2727 12.0852 27.9669C13.6337 27.1773 15.4917 26.3921 17.5788 25.6745C18.9796 25.1773 19.4207 24.9708 19.6326 24.6966C20.2001 23.9621 21.547 23.5953 22.821 23.829C23.1001 23.8726 23.3921 23.8793 23.482 23.8237C23.5719 23.768 24.9273 23.3296 26.5039 22.8275C28.0827 22.3427 29.4457 21.8945 29.54 21.8736C29.6322 21.8353 29.8952 21.2722 30.1374 20.6147C30.6648 19.2237 31.1273 18.5645 31.8577 18.2062C33.1668 17.5443 35.4334 17.9507 37.7244 19.2361L38.5889 19.7164L40.2158 19.3314C41.1127 19.1017 41.9326 18.8907 42.0247 18.8524C42.1418 18.8021 42.3759 18.3574 42.6279 17.7076C43.1144 16.41 43.5243 15.9605 44.5218 15.6208C46.4074 14.9821 49.3923 16.0374 52.5901 18.4771C54.1231 19.6304 54.3955 19.966 54.4307 20.7908C54.465 21.3334 54.2393 22.3946 53.9549 23.0663C53.8213 23.401 53.7452 23.7019 53.7942 23.7397C54.2095 23.9512 56.6465 25.068 56.7355 25.0742C56.8072 25.0826 56.8958 24.9478 56.9528 24.7728C57.3556 23.4419 59.3702 22.7778 61.3626 23.3164C62.916 23.7348 64.3729 24.5008 66.3181 25.91C67.7291 26.9378 68.0567 27.2222 68.2424 27.569ZM63.5539 25.3381C62.2395 24.6508 61.1756 24.2667 60.244 24.1568C59.2505 24.0459 58.6064 24.252 58.1751 24.8102L57.8421 25.2411L58.6451 25.8616C59.6929 26.6712 60.5921 27.1471 62.0374 27.6852C64.3324 28.5202 67.1438 28.9097 67.3909 28.4281C67.4394 28.3248 67.4051 28.1263 67.2983 27.9812C67.0192 27.5935 64.6324 25.9056 63.5539 25.3381ZM64.7357 29.3949C62.1821 28.8136 59.7375 27.7066 58.2258 26.4447L57.3574 25.7267L57.2577 26.1189C57.1687 26.4567 57.1994 26.5587 57.5902 26.9232C57.9516 27.2651 57.9997 27.3648 57.8711 27.5312C57.7576 27.6781 57.6338 27.6763 57.3739 27.5068C57.0476 27.3016 56.8785 27.3585 56.8513 27.6973C56.8237 27.8949 58.5539 28.9347 59.7397 29.4443C60.5342 29.7924 60.7443 29.986 60.5627 30.2211C60.2979 30.5638 58.9211 30.0786 57.4865 29.1421C56.6969 28.6258 56.6501 28.6053 56.5575 28.8466C56.2949 29.5508 56.4147 29.6589 58.6033 30.834C60.6865 31.9432 63.9795 32.9238 64.9993 32.7578C65.7066 32.6318 66.7584 31.2706 67.1483 29.9766L67.2342 29.6833L66.4895 29.6553C66.0813 29.637 65.2908 29.5266 64.7357 29.3949ZM48.8462 17.3514C47.5015 16.7033 46.0731 16.3659 45.2149 16.4848C44.679 16.5712 44.5566 16.6486 44.1987 17.0915L43.8052 17.6007L44.841 18.3855C45.5634 18.9281 46.1844 19.2984 46.8757 19.598C48.994 20.4998 52.2069 21.1995 53.0005 20.9212C53.3388 20.8073 53.3539 20.7877 53.2738 20.5068C53.1661 20.0795 50.3605 18.0836 48.8462 17.3514ZM67.8961 32.7128L67.2057 32.3514L66.9257 32.7137C66.4793 33.2915 65.9073 33.6471 65.2 33.7731C63.6563 34.0504 59.5416 32.7164 57.0543 31.1385C56.2767 30.6471 56.1703 30.6431 56.2184 31.0869C56.323 31.9028 55.5445 33.8818 54.6818 34.9981C53.7057 36.2614 52.8457 36.504 50.9308 36.0878C48.6977 35.5978 45.974 34.4472 44.1107 33.1951C43.1937 32.5803 43.1523 32.5327 43.1011 32.1335C43.0232 31.5259 44.5046 27.3217 45.0343 26.6362C45.4731 26.0682 46.172 25.6698 46.9011 25.5764L47.3351 25.5207L47.0471 25.4077C45.7571 24.9114 43.9473 24.0759 43.1545 23.6041C42.1725 23.033 42.0368 23.0063 42.1227 23.4011C42.1877 23.7016 41.8596 24.9964 41.5085 25.8355C41.3447 26.2094 40.9365 26.8793 40.6035 27.3102C39.5744 28.642 38.7643 28.8605 36.6549 28.3722C34.5379 27.8938 32.412 27.0018 30.3925 25.7697C28.8711 24.8443 28.7104 24.4855 29.2525 23.2779C29.3268 23.1008 29.3642 22.9107 29.3478 22.851C29.3215 22.7838 28.2706 23.0509 27.0127 23.4239C25.7472 23.8067 24.6433 24.1424 24.5414 24.1731C24.4123 24.1985 24.5472 24.287 24.9949 24.4767C26.6633 25.1715 29.61 27.1669 30.2683 28.0353C30.4383 28.2606 30.6133 28.6616 30.6542 28.9122C30.8269 29.9841 30.1428 31.9422 29.144 33.2348C28.1202 34.5394 27.3871 34.7393 25.2973 34.2662C23.1629 33.7899 21.0588 32.9304 19.1176 31.7589C17.8855 31.0258 17.5001 30.6341 17.5486 30.1867C17.561 30.0087 17.8499 29.0276 18.194 27.9954C18.5305 26.9729 18.8176 26.1156 18.8131 26.0809C18.8042 26.0115 16.2768 26.8737 15.0866 27.3616C12.8481 28.275 11.5519 28.8999 11.7562 28.9796C11.8671 29.0183 12.8018 29.4278 13.8301 29.8783C17.6919 31.5799 20.7023 33.1085 30.1571 38.1778L36.9417 41.8251L37.6552 41.6101C46.4205 39.0306 64.2136 34.5436 68.7645 33.7748L69.576 33.6355L69.0824 33.3635C68.8073 33.2135 68.2842 32.9189 67.8961 32.7128ZM67.3967 34.7354C54.9325 37.7098 47.5631 39.6163 39.8897 41.8353L37.0561 42.6486L36.9434 43.0777C36.8834 43.2971 36.0857 46.4343 35.1701 50.0278C34.2644 53.6288 33.2727 57.5232 32.9736 58.6996L32.4256 60.8255L33.266 60.5678C39.8177 58.5455 55.4169 54.631 62.497 53.2204L64.8378 52.7615L67.3745 43.5078C68.7672 38.4063 69.8644 34.2337 69.8177 34.2133C69.7634 34.2026 68.6809 34.4296 67.3967 34.7354ZM50.7682 21.7456C48.0886 21.1452 46.1648 20.3155 44.4262 19.0033L43.2239 18.0899L43.13 18.596C43.0414 19.075 43.0579 19.1346 43.4789 19.46C43.7923 19.7021 43.8916 19.857 43.8573 20.0026C43.7821 20.2416 43.4727 20.2372 43.1594 19.995C42.9831 19.8588 42.8963 19.87 42.797 20.0591C42.6751 20.2777 42.7209 20.36 43.0997 20.6997C43.349 20.9236 44.095 21.3749 44.756 21.7136C46.1323 22.4018 46.4902 22.647 46.4671 22.8794C46.4185 23.3267 45.1865 22.9377 43.6628 21.995C42.7231 21.4096 42.4601 21.2846 42.416 21.4225C42.3924 21.5138 42.3288 21.6366 42.2834 21.6954C42.1926 21.8129 43.4064 22.6101 44.7284 23.2876C45.9004 23.896 48.3117 24.7426 49.5954 24.9839C50.8987 25.2403 51.3834 25.0987 52.0191 24.2761C52.4352 23.7375 53.1278 22.3959 53.1648 22.0648C53.1732 21.9931 52.9039 21.957 52.5794 21.9722C52.2474 21.9971 51.4319 21.8987 50.7682 21.7456ZM54.6893 25.0101L53.3695 24.35L52.9988 24.8298C52.4464 25.5447 51.8237 25.9863 51.136 26.1274L50.5252 26.2498L51.2134 26.5939C52.0591 26.9971 54.007 28.2208 54.81 28.8412C55.2213 29.1591 55.3909 29.2432 55.4274 29.115C55.4532 29.0411 55.6993 28.2773 55.9887 27.4373C56.4467 26.0552 56.4787 25.8923 56.2548 25.7975C56.1222 25.7263 55.4167 25.3844 54.6893 25.0101ZM40.6992 20.1428C40.1904 20.2345 39.7435 20.3271 39.7208 20.3565C39.6905 20.3957 40.0204 20.6975 40.461 21.038C41.0584 21.4996 41.2672 21.614 41.3135 21.4933C41.3295 21.4119 41.4586 21.0424 41.5801 20.6828C41.7114 20.3307 41.7777 20.0222 41.7234 20.0115C41.6789 20.0084 41.2177 20.0587 40.6992 20.1428ZM50.592 27.4587C48.1581 26.2974 46.3487 26.2912 45.7011 27.433C45.5413 27.7005 45.551 27.708 46.5846 28.4754C48.1078 29.6212 50.3771 30.5301 52.7869 30.9534C54.3747 31.2262 55.3597 31.0646 55.0922 30.5607C54.9044 30.1966 51.7008 27.9871 50.592 27.4587ZM53.9661 32.0991C52.9445 32.0448 52.081 31.8467 50.3739 31.2627C48.6691 30.6961 47.3645 30.0164 46.1012 29.0403C45.5235 28.5938 45.0383 28.2502 45.0231 28.2698C44.9096 28.4167 44.8696 29.1364 44.976 29.1404C45.0378 29.1413 45.4425 29.4071 45.8613 29.7151C46.4564 30.1593 46.622 30.3498 46.651 30.5755C46.7057 31.0714 46.2343 30.973 45.3726 30.3071C44.6773 29.7699 44.6675 29.7623 44.5794 30.0383C44.4988 30.3044 44.5424 30.3694 45.0427 30.6935C45.3517 30.9009 46.1039 31.2632 46.7342 31.5C48.1252 32.0275 48.2899 32.2799 47.2839 32.3471C46.5927 32.3916 45.7647 32.1272 44.8469 31.5744C44.55 31.3919 44.2847 31.2494 44.2696 31.269C44.262 31.2788 44.205 31.4537 44.1481 31.6287C44.0417 31.9687 44.0515 31.9763 44.753 32.4245C47.2848 34.0056 51.0479 35.3494 52.5453 35.1927L53.217 35.133L53.9376 34.079C54.5719 33.1772 55.013 32.2825 54.8857 32.1841C54.8661 32.169 54.4459 32.1258 53.9661 32.0991ZM36.6508 19.8767C34.1755 18.6678 32.4885 18.5841 31.6713 19.6417L31.4064 19.9844L32.3563 20.7184C33.8644 21.8838 35.5425 22.5861 38.1188 23.1381C39.8437 23.5168 40.737 23.5346 40.9173 23.2204C40.9885 23.0877 40.9716 22.887 40.8626 22.7245C40.5082 22.2318 38.0151 20.5399 36.6508 19.8767ZM40.1103 24.4267C39.2886 24.4173 38.3014 24.2175 36.7292 23.7221C34.654 23.0882 33.73 22.6244 32.3002 21.5197C31.5778 20.9771 30.9827 20.5328 30.9751 20.5426C30.9675 20.5524 30.9159 20.7002 30.8687 20.8827C30.7677 21.1956 30.7993 21.2357 31.4946 21.7729C32.0136 22.174 32.2183 22.3948 32.2232 22.5706C32.2442 23.009 31.8338 22.9734 31.1874 22.474C30.8643 22.2243 30.5945 22.0471 30.5794 22.0667C30.3902 22.3115 30.4637 22.5403 30.8358 22.8279C31.3352 23.2138 32.9256 23.9892 34.3558 24.5469C35.5621 25.0098 35.8808 25.2248 35.8078 25.4812C35.7424 25.7278 35.5296 25.7198 34.5681 25.446C33.4709 25.1456 31.8796 24.4321 30.9671 23.8521L30.2264 23.3736L30.1062 23.8125L29.9861 24.2514L30.9008 24.8487C32.6172 25.9873 35.1668 27.0191 37.238 27.4152C38.6771 27.6983 39.0576 27.5701 39.7796 26.5953C40.2163 26.01 40.9454 24.5402 40.8376 24.4569C40.8181 24.4418 40.4891 24.4222 40.1103 24.4267ZM26.0619 26.1926C23.3565 24.6338 21.1349 24.3716 20.2647 25.4978C20.0074 25.8307 20.0096 25.8481 20.4222 26.2452C20.9666 26.7753 22.314 27.5818 23.4411 28.0461C25.2594 28.8099 28.2475 29.4767 29.1012 29.3231C29.5503 29.2479 29.6763 28.9229 29.3919 28.5624C29.0999 28.2116 27.1275 26.797 26.0619 26.1926ZM28.6539 30.3068C27.716 30.2859 27.1013 30.1706 25.5314 29.6926C23.2617 28.9866 22.4333 28.5811 20.9177 27.4256C19.7546 26.5425 19.5534 26.4183 19.4942 26.5759C19.4532 26.6694 19.2258 27.5102 18.9845 28.4498L18.5394 30.1391L19.0811 30.5107C21.7114 32.3086 26.3032 33.8549 27.4521 33.3194C27.7686 33.1729 27.9773 32.9432 28.483 32.2079C29.0242 31.4062 29.5138 30.4083 29.4061 30.325C29.3963 30.3175 29.05 30.3001 28.6539 30.3068ZM23.333 35.3914C21.3673 34.373 18.9222 33.1249 17.8873 32.6224C16.1937 31.7985 11.2893 29.6041 11.1754 29.6099C11.158 29.6121 10.9875 30.6221 10.7992 31.8373C10.6208 33.06 9.99318 37.1106 9.40254 40.83C8.82168 44.557 8.34098 47.6889 8.33698 47.7953C8.30003 48.1265 16.2788 52.8998 22.5742 56.3099C25.1826 57.7311 31.3818 60.9417 31.4784 60.9381C31.5131 60.9337 32.6036 56.709 33.9256 51.5372L36.3034 42.1451L31.6055 39.7037C29.0158 38.3595 25.291 36.4197 23.333 35.3914Z" fill="#00B4A9"/>
<path d="M43.784 34.2251C44.0996 34.8287 44.1063 35.2248 43.8664 36.2437C43.5878 37.3734 43.1996 38.1996 42.4959 39.1103C41.5046 40.3932 40.6967 40.6291 38.7079 40.1871C36.5464 39.7055 34.3391 38.7975 32.2141 37.4995C31.0167 36.762 30.7834 36.4566 30.929 35.8027C31.1333 34.8502 32.5291 31.0804 32.8167 30.7083C33.7323 29.5234 35.6583 29.3382 37.96 30.2253C40.0205 31.0198 43.2806 33.2574 43.784 34.2251ZM40.0762 32.4861C38.6874 31.6319 37.283 31.0003 36.2664 30.7777C34.9782 30.5018 33.8124 30.8365 33.4946 31.5919C33.3998 31.8158 33.4532 31.8883 34.217 32.4785C35.686 33.6136 37.5586 34.3881 40.1251 34.9324C41.6207 35.2436 42.8408 35.2636 42.9441 34.968C43.058 34.6182 41.8651 33.5712 40.0762 32.4861ZM41.7062 36.1854C40.8454 36.1458 39.9177 35.9295 38.1194 35.3219C36.2646 34.6863 34.7806 33.9149 33.7096 32.9936C33.2351 32.5956 32.8358 32.3027 32.8056 32.3419C32.7753 32.3811 32.7628 32.5591 32.7677 32.7349C32.7784 33.0247 32.944 33.2152 33.8507 34.0253C34.7574 34.8354 34.8937 35.0033 34.8095 35.1728C34.7534 35.2859 34.6017 35.3407 34.4169 35.2761C34.1801 35.2183 34.2433 35.2984 34.7232 35.6692C35.1367 36.0043 35.3241 36.2273 35.3584 36.4259C35.3842 36.696 35.3691 36.7156 35.1087 36.749C34.883 36.7779 34.6057 36.6106 33.536 35.7684L32.2412 34.7522L32.0587 35.3932L31.886 36.0417L32.7713 36.6164C34.4779 37.7474 37.0374 38.7868 39.0987 39.1753C40.6193 39.4744 40.8979 39.377 41.6751 38.3509C42.2025 37.6481 42.3752 37.3436 42.7055 36.4102C42.7798 36.2331 42.7255 36.2224 41.7062 36.1854Z" fill="#F38189"/>
<path d="M43.784 34.2251C44.0996 34.8287 44.1063 35.2248 43.8664 36.2437C43.5878 37.3734 43.1996 38.1996 42.4959 39.1103C41.5046 40.3932 40.6967 40.6291 38.7079 40.1871C36.5464 39.7055 34.3391 38.7975 32.2141 37.4995C31.0167 36.762 30.7834 36.4566 30.929 35.8027C31.1333 34.8502 32.5291 31.0804 32.8167 30.7083C33.7323 29.5234 35.6583 29.3382 37.96 30.2253C40.0205 31.0198 43.2806 33.2574 43.784 34.2251ZM40.0762 32.4861C38.6874 31.6319 37.283 31.0003 36.2664 30.7777C34.9782 30.5018 33.8124 30.8365 33.4946 31.5919C33.3998 31.8158 33.4532 31.8883 34.217 32.4785C35.686 33.6136 37.5586 34.3881 40.1251 34.9324C41.6207 35.2436 42.8408 35.2636 42.9441 34.968C43.058 34.6182 41.8651 33.5712 40.0762 32.4861ZM41.7062 36.1854C40.8454 36.1458 39.9177 35.9295 38.1194 35.3219C36.2646 34.6863 34.7806 33.9149 33.7096 32.9936C33.2351 32.5956 32.8358 32.3027 32.8056 32.3419C32.7753 32.3811 32.7628 32.5591 32.7677 32.7349C32.7784 33.0247 32.944 33.2152 33.8507 34.0253C34.7574 34.8354 34.8937 35.0033 34.8095 35.1728C34.7534 35.2859 34.6017 35.3407 34.4169 35.2761C34.1801 35.2183 34.2433 35.2984 34.7232 35.6692C35.1367 36.0043 35.3241 36.2273 35.3584 36.4259C35.3842 36.696 35.3691 36.7156 35.1087 36.749C34.883 36.7779 34.6057 36.6106 33.536 35.7684L32.2412 34.7522L32.0587 35.3932L31.886 36.0417L32.7713 36.6164C34.4779 37.7474 37.0374 38.7868 39.0987 39.1753C40.6193 39.4744 40.8979 39.377 41.6751 38.3509C42.2025 37.6481 42.3752 37.3436 42.7055 36.4102C42.7798 36.2331 42.7255 36.2224 41.7062 36.1854Z" fill="#F38189"/>
<path d="M43.784 34.2251C44.0996 34.8287 44.1063 35.2248 43.8664 36.2437C43.5878 37.3734 43.1996 38.1996 42.4959 39.1103C41.5046 40.3932 40.6967 40.6291 38.7079 40.1871C36.5464 39.7055 34.3391 38.7975 32.2141 37.4995C31.0167 36.762 30.7834 36.4566 30.929 35.8027C31.1333 34.8502 32.5291 31.0804 32.8167 30.7083C33.7323 29.5234 35.6583 29.3382 37.96 30.2253C40.0205 31.0198 43.2806 33.2574 43.784 34.2251ZM40.0762 32.4861C38.6874 31.6319 37.283 31.0003 36.2664 30.7777C34.9782 30.5018 33.8124 30.8365 33.4946 31.5919C33.3998 31.8158 33.4532 31.8883 34.217 32.4785C35.686 33.6136 37.5586 34.3881 40.1251 34.9324C41.6207 35.2436 42.8408 35.2636 42.9441 34.968C43.058 34.6182 41.8651 33.5712 40.0762 32.4861ZM41.7062 36.1854C40.8454 36.1458 39.9177 35.9295 38.1194 35.3219C36.2646 34.6863 34.7806 33.9149 33.7096 32.9936C33.2351 32.5956 32.8358 32.3027 32.8056 32.3419C32.7753 32.3811 32.7628 32.5591 32.7677 32.7349C32.7784 33.0247 32.944 33.2152 33.8507 34.0253C34.7574 34.8354 34.8937 35.0033 34.8095 35.1728C34.7534 35.2859 34.6017 35.3407 34.4169 35.2761C34.1801 35.2183 34.2433 35.2984 34.7232 35.6692C35.1367 36.0043 35.3241 36.2273 35.3584 36.4259C35.3842 36.696 35.3691 36.7156 35.1087 36.749C34.883 36.7779 34.6057 36.6106 33.536 35.7684L32.2412 34.7522L32.0587 35.3932L31.886 36.0417L32.7713 36.6164C34.4779 37.7474 37.0374 38.7868 39.0987 39.1753C40.6193 39.4744 40.8979 39.377 41.6751 38.3509C42.2025 37.6481 42.3752 37.3436 42.7055 36.4102C42.7798 36.2331 42.7255 36.2224 41.7062 36.1854Z" fill="#00B4A9"/>
<path d="M39.2474 36.7565C39.1036 36.9426 38.5908 36.7966 38.1404 36.4485C37.7095 36.1155 37.8381 35.9491 38.4226 36.1035C39.0168 36.2655 39.3912 36.5704 39.2474 36.7565Z" fill="#F38189"/>
<path d="M39.2474 36.7565C39.1036 36.9426 38.5908 36.7966 38.1404 36.4485C37.7095 36.1155 37.8381 35.9491 38.4226 36.1035C39.0168 36.2655 39.3912 36.5704 39.2474 36.7565Z" fill="#F38189"/>
<path d="M39.2474 36.7565C39.1036 36.9426 38.5908 36.7966 38.1404 36.4485C37.7095 36.1155 37.8381 35.9491 38.4226 36.1035C39.0168 36.2655 39.3912 36.5704 39.2474 36.7565Z" fill="#00B4A9"/>
<path d="M39.2149 37.8106C38.8895 37.8876 37.9409 37.5769 37.697 37.3259C37.5314 37.1354 37.6182 37.1242 38.2645 37.2796C39.1356 37.4679 39.5848 37.7367 39.2149 37.8106Z" fill="#F38189"/>
<path d="M39.2149 37.8106C38.8895 37.8876 37.9409 37.5769 37.697 37.3259C37.5314 37.1354 37.6182 37.1242 38.2645 37.2796C39.1356 37.4679 39.5848 37.7367 39.2149 37.8106Z" fill="#F38189"/>
<path d="M39.2149 37.8106C38.8895 37.8876 37.9409 37.5769 37.697 37.3259C37.5314 37.1354 37.6182 37.1242 38.2645 37.2796C39.1356 37.4679 39.5848 37.7367 39.2149 37.8106Z" fill="#00B4A9"/>
<path d="M65.5513 40.1597C65.4605 40.2772 57.4471 41.3576 56.7393 41.3424C56.3334 41.3415 56.1473 41.1978 56.2835 41.0215C56.45 40.8061 60.323 40.186 62.9478 39.9465C65.0768 39.7617 65.8162 39.8169 65.5513 40.1597Z" fill="#F38189"/>
<path d="M65.5513 40.1597C65.4605 40.2772 57.4471 41.3576 56.7393 41.3424C56.3334 41.3415 56.1473 41.1978 56.2835 41.0215C56.45 40.8061 60.323 40.186 62.9478 39.9465C65.0768 39.7617 65.8162 39.8169 65.5513 40.1597Z" fill="#F38189"/>
<path d="M65.5513 40.1597C65.4605 40.2772 57.4471 41.3576 56.7393 41.3424C56.3334 41.3415 56.1473 41.1978 56.2835 41.0215C56.45 40.8061 60.323 40.186 62.9478 39.9465C65.0768 39.7617 65.8162 39.8169 65.5513 40.1597Z" fill="#00B4A9"/>
<path d="M65.5139 45.5109C65.5166 45.6694 65.3404 46.5654 65.1089 47.5126C64.885 48.4501 64.6055 49.6417 64.4964 50.1673C64.2717 51.1666 64.0375 51.6113 63.8123 51.4373C63.5773 51.2557 63.6485 50.4349 64.0526 48.495C64.4546 46.5378 64.8801 45.1775 65.1067 45.0867C65.3083 45.008 65.4912 45.1962 65.5139 45.5109Z" fill="#F38189"/>
<path d="M65.5139 45.5109C65.5166 45.6694 65.3404 46.5654 65.1089 47.5126C64.885 48.4501 64.6055 49.6417 64.4964 50.1673C64.2717 51.1666 64.0375 51.6113 63.8123 51.4373C63.5773 51.2557 63.6485 50.4349 64.0526 48.495C64.4546 46.5378 64.8801 45.1775 65.1067 45.0867C65.3083 45.008 65.4912 45.1962 65.5139 45.5109Z" fill="#F38189"/>
<path d="M65.5139 45.5109C65.5166 45.6694 65.3404 46.5654 65.1089 47.5126C64.885 48.4501 64.6055 49.6417 64.4964 50.1673C64.2717 51.1666 64.0375 51.6113 63.8123 51.4373C63.5773 51.2557 63.6485 50.4349 64.0526 48.495C64.4546 46.5378 64.8801 45.1775 65.1067 45.0867C65.3083 45.008 65.4912 45.1962 65.5139 45.5109Z" fill="#00B4A9"/>
<path d="M56.774 39.2735C56.7655 39.3452 56.6324 39.4769 56.4731 39.5415C55.4217 40.0115 40.496 43.7427 40.0767 43.6376C39.9952 43.6216 39.9276 43.5068 39.9218 43.3928C39.9093 43.2268 40.1835 43.0946 41.0586 42.8324C42.4781 42.4122 49.2639 40.6334 52.3864 39.8714C56.4157 38.8872 56.8225 38.8262 56.774 39.2735Z" fill="#F38189"/>
<path d="M56.774 39.2735C56.7655 39.3452 56.6324 39.4769 56.4731 39.5415C55.4217 40.0115 40.496 43.7427 40.0767 43.6376C39.9952 43.6216 39.9276 43.5068 39.9218 43.3928C39.9093 43.2268 40.1835 43.0946 41.0586 42.8324C42.4781 42.4122 49.2639 40.6334 52.3864 39.8714C56.4157 38.8872 56.8225 38.8262 56.774 39.2735Z" fill="#F38189"/>
<path d="M56.774 39.2735C56.7655 39.3452 56.6324 39.4769 56.4731 39.5415C55.4217 40.0115 40.496 43.7427 40.0767 43.6376C39.9952 43.6216 39.9276 43.5068 39.9218 43.3928C39.9093 43.2268 40.1835 43.0946 41.0586 42.8324C42.4781 42.4122 49.2639 40.6334 52.3864 39.8714C56.4157 38.8872 56.8225 38.8262 56.774 39.2735Z" fill="#00B4A9"/>
<path d="M63.7655 46.5997C63.7833 47.4267 63.356 49.943 63.1718 50.0196C62.9105 50.1148 62.7685 49.833 62.8539 49.3986C62.8945 49.164 63.0088 48.2671 63.1125 47.4245C63.2612 46.038 63.4054 45.6489 63.66 45.8457C63.709 45.8835 63.7513 46.2133 63.7655 46.5997Z" fill="#F38189"/>
<path d="M63.7655 46.5997C63.7833 47.4267 63.356 49.943 63.1718 50.0196C62.9105 50.1148 62.7685 49.833 62.8539 49.3986C62.8945 49.164 63.0088 48.2671 63.1125 47.4245C63.2612 46.038 63.4054 45.6489 63.66 45.8457C63.709 45.8835 63.7513 46.2133 63.7655 46.5997Z" fill="#F38189"/>
<path d="M63.7655 46.5997C63.7833 47.4267 63.356 49.943 63.1718 50.0196C62.9105 50.1148 62.7685 49.833 62.8539 49.3986C62.8945 49.164 63.0088 48.2671 63.1125 47.4245C63.2612 46.038 63.4054 45.6489 63.66 45.8457C63.709 45.8835 63.7513 46.2133 63.7655 46.5997Z" fill="#00B4A9"/>
<path d="M25.6245 31.3128C25.689 31.4722 25.636 31.5407 25.4593 31.6075C24.5584 31.9436 22.323 31.0921 20.5528 29.7398C19.8281 29.1799 19.6385 28.9395 19.7822 28.7534C19.9185 28.5772 20.1152 28.6666 21.3201 29.3944C22.5055 30.107 23.7207 30.6394 24.7765 30.8922C25.1958 30.9972 25.5337 31.0863 25.5435 31.0938C25.5435 31.0938 25.584 31.2033 25.6245 31.3128Z" fill="#F38189"/>
<path d="M25.6245 31.3128C25.689 31.4722 25.636 31.5407 25.4593 31.6075C24.5584 31.9436 22.323 31.0921 20.5528 29.7398C19.8281 29.1799 19.6385 28.9395 19.7822 28.7534C19.9185 28.5772 20.1152 28.6666 21.3201 29.3944C22.5055 30.107 23.7207 30.6394 24.7765 30.8922C25.1958 30.9972 25.5337 31.0863 25.5435 31.0938C25.5435 31.0938 25.584 31.2033 25.6245 31.3128Z" fill="#F38189"/>
<path d="M25.6245 31.3128C25.689 31.4722 25.636 31.5407 25.4593 31.6075C24.5584 31.9436 22.323 31.0921 20.5528 29.7398C19.8281 29.1799 19.6385 28.9395 19.7822 28.7534C19.9185 28.5772 20.1152 28.6666 21.3201 29.3944C22.5055 30.107 23.7207 30.6394 24.7765 30.8922C25.1958 30.9972 25.5337 31.0863 25.5435 31.0938C25.5435 31.0938 25.584 31.2033 25.6245 31.3128Z" fill="#00B4A9"/>
<path d="M32.0476 43.9083C32.1255 44.86 29.3761 56.17 29.0164 56.3926C28.7142 56.5813 28.6804 56.1798 28.9176 55.0025C29.4526 52.2254 30.8155 45.9278 31.1008 44.8502C31.3261 43.992 31.4694 43.6648 31.6363 43.5905C31.9279 43.4561 32.0258 43.5317 32.0476 43.9083Z" fill="#F38189"/>
<path d="M32.0476 43.9083C32.1255 44.86 29.3761 56.17 29.0164 56.3926C28.7142 56.5813 28.6804 56.1798 28.9176 55.0025C29.4526 52.2254 30.8155 45.9278 31.1008 44.8502C31.3261 43.992 31.4694 43.6648 31.6363 43.5905C31.9279 43.4561 32.0258 43.5317 32.0476 43.9083Z" fill="#F38189"/>
<path d="M32.0476 43.9083C32.1255 44.86 29.3761 56.17 29.0164 56.3926C28.7142 56.5813 28.6804 56.1798 28.9176 55.0025C29.4526 52.2254 30.8155 45.9278 31.1008 44.8502C31.3261 43.992 31.4694 43.6648 31.6363 43.5905C31.9279 43.4561 32.0258 43.5317 32.0476 43.9083Z" fill="#00B4A9"/>
<path d="M33.1671 48.5113C33.2094 49.1852 32.386 52.3963 32.1336 52.561C32.0512 52.6068 31.9275 52.6051 31.8492 52.5445C31.6729 52.4083 32.45 48.2856 32.6873 48.1405C32.9321 47.9856 33.1475 48.1521 33.1671 48.5113Z" fill="#F38189"/>
<path d="M33.1671 48.5113C33.2094 49.1852 32.386 52.3963 32.1336 52.561C32.0512 52.6068 31.9275 52.6051 31.8492 52.5445C31.6729 52.4083 32.45 48.2856 32.6873 48.1405C32.9321 47.9856 33.1475 48.1521 33.1671 48.5113Z" fill="#F38189"/>
<path d="M33.1671 48.5113C33.2094 49.1852 32.386 52.3963 32.1336 52.561C32.0512 52.6068 31.9275 52.6051 31.8492 52.5445C31.6729 52.4083 32.45 48.2856 32.6873 48.1405C32.9321 47.9856 33.1475 48.1521 33.1671 48.5113Z" fill="#00B4A9"/>
<path d="M17.9481 46.6513C18.139 46.9709 17.9694 47.2308 17.6089 47.1712C17.32 47.12 16.4257 46.4759 16.2566 46.1888C16.1235 45.9765 16.3158 45.6871 16.6109 45.6493C16.8539 45.6181 17.7233 46.2742 17.9481 46.6513Z" fill="#F38189"/>
<path d="M17.9481 46.6513C18.139 46.9709 17.9694 47.2308 17.6089 47.1712C17.32 47.12 16.4257 46.4759 16.2566 46.1888C16.1235 45.9765 16.3158 45.6871 16.6109 45.6493C16.8539 45.6181 17.7233 46.2742 17.9481 46.6513Z" fill="#F38189"/>
<path d="M17.9481 46.6513C18.139 46.9709 17.9694 47.2308 17.6089 47.1712C17.32 47.12 16.4257 46.4759 16.2566 46.1888C16.1235 45.9765 16.3158 45.6871 16.6109 45.6493C16.8539 45.6181 17.7233 46.2742 17.9481 46.6513Z" fill="#00B4A9"/>
<path d="M19.3983 49.4297C19.6391 49.7253 19.636 50.1138 19.393 50.145C19.2888 50.1584 18.6211 49.7675 17.888 49.2793C14.5269 47.0105 12.8212 45.8176 12.7709 45.7005C12.6876 45.4642 12.9476 45.2897 13.2311 45.368C14.1036 45.6355 18.8459 48.7682 19.3983 49.4297Z" fill="#F38189"/>
<path d="M19.3983 49.4297C19.6391 49.7253 19.636 50.1138 19.393 50.145C19.2888 50.1584 18.6211 49.7675 17.888 49.2793C14.5269 47.0105 12.8212 45.8176 12.7709 45.7005C12.6876 45.4642 12.9476 45.2897 13.2311 45.368C14.1036 45.6355 18.8459 48.7682 19.3983 49.4297Z" fill="#F38189"/>
<path d="M19.3983 49.4297C19.6391 49.7253 19.636 50.1138 19.393 50.145C19.2888 50.1584 18.6211 49.7675 17.888 49.2793C14.5269 47.0105 12.8212 45.8176 12.7709 45.7005C12.6876 45.4642 12.9476 45.2897 13.2311 45.368C14.1036 45.6355 18.8459 48.7682 19.3983 49.4297Z" fill="#00B4A9"/>
<path d="M22.9174 54.3073C22.8863 54.4083 22.7736 54.4933 22.6597 54.4991C22.2733 54.5134 16.237 50.6466 12.3164 47.8674C10.8684 46.8267 10.6507 46.6428 10.7415 46.5253C10.8248 46.4176 11.103 46.5231 11.8468 46.9571C12.3992 47.2745 12.9614 47.5994 13.1016 47.6608C13.5267 47.8798 17.5377 50.4005 19.551 51.7216C22.0939 53.3894 22.9851 54.078 22.9174 54.3073Z" fill="#F38189"/>
<path d="M22.9174 54.3073C22.8863 54.4083 22.7736 54.4933 22.6597 54.4991C22.2733 54.5134 16.237 50.6466 12.3164 47.8674C10.8684 46.8267 10.6507 46.6428 10.7415 46.5253C10.8248 46.4176 11.103 46.5231 11.8468 46.9571C12.3992 47.2745 12.9614 47.5994 13.1016 47.6608C13.5267 47.8798 17.5377 50.4005 19.551 51.7216C22.0939 53.3894 22.9851 54.078 22.9174 54.3073Z" fill="#F38189"/>
<path d="M22.9174 54.3073C22.8863 54.4083 22.7736 54.4933 22.6597 54.4991C22.2733 54.5134 16.237 50.6466 12.3164 47.8674C10.8684 46.8267 10.6507 46.6428 10.7415 46.5253C10.8248 46.4176 11.103 46.5231 11.8468 46.9571C12.3992 47.2745 12.9614 47.5994 13.1016 47.6608C13.5267 47.8798 17.5377 50.4005 19.551 51.7216C22.0939 53.3894 22.9851 54.078 22.9174 54.3073Z" fill="#00B4A9"/>
</svg>
