<svg width="56" height="57" viewBox="0 0 56 57" fill="none" xmlns="http://www.w3.org/2000/svg">
<path d="M37.5386 37.1334L49.7882 41.2869C46.457 50.2896 37.4332 55.3497 28.0299 56.1719C14.2623 57.2894 1.82291 49.2986 0.494639 33.4016C-0.622793 19.4442 8.88595 7.99581 23.9818 6.79404C40.2795 5.38144 50.0834 16.3028 51.4117 31.483L51.517 33.6124L18.3103 36.3533C19.1115 41.0128 23.0753 44.6603 28.0299 44.2597C31.2768 43.9645 34.9031 42.341 37.5386 37.1756V37.1334ZM24.8884 18.6009C21.2409 18.8961 18.0995 21.8478 17.6989 27.0976L33.1743 25.8748C31.7617 20.0135 28.4094 18.2846 24.8674 18.5798L24.8884 18.6009Z" fill="#F9BDC1"/>
<path d="M40.8281 31.1668L53.0777 35.3203C49.7464 44.323 40.7227 49.383 31.3194 50.2053C17.5518 51.3227 5.11246 43.3321 3.78419 27.435C2.66676 13.4777 12.1754 2.02926 27.2713 0.82749C43.569 -0.585113 53.3729 10.3362 54.7011 25.5164L54.8065 27.6459L21.5998 30.3867C22.401 35.0462 26.3648 38.6937 31.3194 38.2931C34.5663 37.9979 38.1926 36.3745 40.8281 31.209V31.1668ZM28.1779 12.6343C24.5304 12.9295 21.389 15.8812 20.9884 21.131L36.4638 19.9081C35.0512 14.0469 31.6989 12.3181 28.1569 12.6132L28.1779 12.6343Z" stroke="#F0515B" stroke-miterlimit="10"/>
</svg>
