<svg width="53" height="51" viewBox="0 0 53 51" fill="none" xmlns="http://www.w3.org/2000/svg">
<path d="M37.8281 31.1668L50.0777 35.3203C46.7464 44.323 37.7227 49.383 28.3194 50.2053C14.5518 51.3227 2.11246 43.3321 0.78419 27.435C-0.333242 13.4777 9.17544 2.02926 24.2713 0.82749C40.569 -0.585113 50.3729 10.3362 51.7011 25.5164L51.8065 27.6459L18.5998 30.3867C19.401 35.0462 23.3648 38.6937 28.3194 38.2931C31.5663 37.9979 35.1926 36.3745 37.8281 31.209V31.1668ZM25.1779 12.6343C21.5304 12.9295 18.389 15.8812 17.9884 21.131L33.4638 19.9081C32.0512 14.0469 28.6989 12.3181 25.1569 12.6132L25.1779 12.6343Z" stroke="#F0515B" stroke-miterlimit="10"/>
</svg>
