<svg width="131" height="32" viewBox="0 0 131 32" fill="none" xmlns="http://www.w3.org/2000/svg">
<path d="M8.62811 16.5426H6.45488C6.39 19.2673 6.35756 21.992 6.32513 24.6842H0L0.405456 0.308167C3.9086 0.340603 7.41174 0.405452 10.9311 0.486543C16.8508 0.583853 19.7862 4.50873 19.7862 8.25514C19.7862 11.6934 17.5319 14.4505 14.7748 15.5696C16.9967 18.7321 19.2024 21.9433 21.4081 25.0734C18.9591 25.041 16.5102 25.0085 14.045 24.9437C12.2448 22.1866 10.4283 19.3646 8.62811 16.5589V16.5426ZM9.89313 11.7745C12.2448 11.7745 13.1692 10.104 13.1692 8.49836C13.1692 6.89275 12.3097 5.30338 10.0715 5.27094L6.6657 5.20611L6.53595 11.742C7.68744 11.7744 8.70919 11.7745 9.90934 11.7745H9.89313Z" fill="#FDAA87"/>
<path d="M33.8312 18.5862L37.8858 20.1593C36.6208 23.1272 33.5555 24.7167 30.3605 24.8626C25.7221 25.041 21.6838 22.1704 21.4405 16.8183C21.2621 12.115 24.603 8.40107 29.6794 8.20645C35.1936 7.96318 38.3237 11.7421 38.567 16.8833V17.5969L27.3926 18.0347C27.6034 19.6079 28.8522 20.8892 30.5227 20.8243C31.6093 20.7594 32.8743 20.2728 33.8312 18.5699V18.5862ZM29.8415 12.1799C28.5765 12.2448 27.4899 13.1693 27.2953 14.9371L32.5338 14.7262C32.1283 12.7476 31.0417 12.1313 29.8415 12.1799Z" fill="#FDAA87"/>
<path d="M47.487 7.50903C49.2872 7.50903 51.055 8.25512 52.4173 9.68232H52.5147L52.7255 8.19017C54.5257 8.28748 56.3746 8.40108 58.1748 8.46595L57.5909 21.1648C57.2828 27.9115 53.7797 31.3174 48.3303 31.3174C45.2327 31.3174 42.4756 30.1659 40.2861 27.6683C42.881 24.9112 43.2865 24.3598 43.2865 24.3598C44.6164 25.8843 46.3193 26.9872 48.0222 26.9872C50.1306 26.9872 51.4605 25.6897 51.5578 22.8353C51.5253 22.8353 51.4929 22.8028 51.4605 22.8028C50.2279 23.7273 48.8331 24.1976 47.4384 24.1976C43.5136 24.1976 40.351 21.1973 40.351 16.1534C40.351 11.1095 43.1405 7.50903 47.4708 7.50903H47.487ZM51.9146 15.683C51.9146 13.3962 50.8928 11.9042 49.1899 11.9042C47.3248 11.9042 46.3355 13.8828 46.3355 16.1534C46.3355 18.4239 47.3573 19.9646 49.0602 19.9646C50.9739 19.9646 51.9146 17.9536 51.9146 15.6669V15.683Z" fill="#FDAA87"/>
<path d="M63.608 0.0162341C65.4082 0.0486706 66.8516 1.50828 66.8516 3.32472C66.8516 5.14116 65.3919 6.51976 63.5755 6.51976C61.7591 6.51976 60.3318 5.12499 60.3318 3.27612C60.3318 1.42724 61.7915 0 63.608 0V0.0162341ZM61.2563 24.5382L60.8184 8.67682L66.7057 8.54704L67.1435 24.3761L61.2563 24.5382Z" fill="#FDAA87"/>
<path d="M76.615 24.6355C73.3713 24.6355 70.3872 23.2407 68.8789 21.7L71.4738 18.5051C72.6739 19.6241 74.7499 20.8566 76.2095 20.8566C77.1339 20.8566 77.6367 20.4188 77.6367 19.8998C77.6367 19.0564 76.5176 18.8132 75.5283 18.4077L74.5066 18.0023C71.5062 16.8184 69.8682 15.5857 69.8682 13.2017C69.8682 10.3148 72.4631 7.9632 76.5501 7.9632C79.9883 7.9632 82.6481 9.6336 83.605 10.7202L81.0912 13.7207C79.8586 12.6016 78.2692 11.6447 76.7933 11.6447C75.9824 11.6447 75.431 12.0177 75.431 12.5367C75.431 13.0881 76.0798 13.4612 76.7285 13.7369C77.5881 14.1099 78.3017 14.2882 79.2099 14.6937L79.6478 14.8883C81.3182 15.6668 83.5239 16.6885 83.5239 19.5267C83.5239 22.3649 80.8966 24.668 76.615 24.668V24.6355Z" fill="#FDAA87"/>
<path d="M96.5959 13.0233L93.4982 12.8935L93.1576 24.2949L87.2379 24.1165L87.546 12.7475L85.3079 12.6827L85.4377 8.22268L87.6758 8.28752L87.8055 3.14636L93.7252 3.32474L93.5955 8.43352L96.6932 8.5633L96.5959 13.0233Z" fill="#FDAA87"/>
<path d="M107.089 19.9809C108.143 19.9809 109.343 19.543 110.365 18.0347L114.29 19.9809C112.83 22.6731 109.895 24.003 106.894 24.003C102.305 24.003 98.169 20.9702 98.169 15.6669C98.169 10.9636 101.607 7.28198 106.684 7.28198C111.76 7.28198 115.263 10.8987 115.263 16.1372C115.263 16.4778 115.231 16.8183 115.198 17.4995L104.024 16.9156C104.089 18.5861 105.321 19.9809 107.089 19.9809ZM106.846 11.3365C105.662 11.3365 104.559 12.1475 104.218 13.818C105.954 13.9153 107.689 14.0288 109.424 14.0937C109.181 12.0826 108.159 11.3365 106.83 11.3365H106.846Z" fill="#FDAA87"/>
<path d="M128.984 13.818C128.14 13.4774 127.313 13.3152 126.632 13.3152C124.929 13.3152 123.81 14.3693 123.729 16.5912L123.453 24.149C121.475 24.0841 119.545 24.0192 117.566 23.9057L118.182 8.07666L123.664 8.28751C123.664 8.9038 123.697 9.55257 123.697 10.1526C125.124 8.61191 126.664 8.07666 127.913 8.07666C128.903 8.07666 129.649 8.31995 130.265 8.59566L128.967 13.8342L128.984 13.818Z" fill="#FDAA87"/>
</svg>
