<svg width="78" height="27" viewBox="0 0 78 27" fill="none" xmlns="http://www.w3.org/2000/svg">
<path d="M18.1002 25.1673L16.964 15.573L8.01461 16.5979L9.15082 26.1923L2.86181 26.9285L0.0390656 2.53118L6.3312 1.82744L7.44119 11.4898L16.4184 10.4131L15.2791 0.786239L21.6168 0.0452979L24.4395 24.4426L18.1149 25.1495L18.1002 25.1673Z" fill="#037FA5"/>
<path d="M35.5299 18.7532C36.5856 18.6516 37.7452 18.0975 38.6231 16.4886L42.7409 18.0594C41.5386 20.896 38.7272 22.5106 35.7226 22.7997C31.1264 23.2419 26.6927 20.6034 26.1817 15.2926C25.7286 10.5827 28.8169 6.56466 33.9004 6.07556C38.9838 5.58646 42.8403 8.8707 43.3451 14.1165C43.3779 14.4576 43.3782 14.8018 43.4113 15.4871L32.1651 15.979C32.391 17.6455 33.7597 18.9235 35.5299 18.7532ZM34.4534 10.1202C33.2679 10.2342 32.2416 11.1526 32.0615 12.8582C33.8087 12.7885 35.5574 12.7349 37.3014 12.6327C36.864 10.6423 35.7689 9.9936 34.4372 10.1217L34.4534 10.1202Z" fill="#037FA5"/>
<path d="M56.8615 10.4721C55.9841 10.2123 55.1402 10.1296 54.4581 10.1952C52.7528 10.3593 51.7337 11.5228 51.8666 13.7557L52.3187 21.3505C50.331 21.4761 48.3921 21.5971 46.3997 21.674L45.4918 5.76356L51.0016 5.44653C51.061 6.06369 51.1559 6.71014 51.2137 7.31106C52.4945 5.63066 53.9858 4.94631 55.2364 4.82598C56.2271 4.73066 56.9976 4.90231 57.6413 5.11903L56.8468 10.4899L56.8615 10.4721Z" fill="#037FA5"/>
<path d="M72.1636 13.8025L76.3754 14.9872C75.3946 18.0812 72.4781 19.9681 69.2927 20.4221C64.665 21.0477 60.3444 18.5622 59.5851 13.2261C58.9533 8.53341 61.9411 4.49224 67.0058 3.80824C72.5042 3.03334 76.0029 6.51596 76.7418 11.6409L76.8106 12.3555L65.6628 13.8707C66.0255 15.4258 67.3995 16.5884 69.066 16.3625C70.1479 16.1929 71.3679 15.5837 72.162 13.7862L72.1636 13.8025ZM67.551 7.77167C66.2905 7.95852 65.2914 8.98897 65.2669 10.778L70.4924 10.0621C69.8957 8.11979 68.7482 7.60732 67.551 7.77167Z" fill="#037FA5"/>
</svg>
