<svg width="63" height="78" viewBox="0 0 63 78" fill="none" xmlns="http://www.w3.org/2000/svg">
<path d="M61.907 23.0491C61.9748 30.3438 57.4885 37.6596 49.2054 40.2667C56.6145 43.4449 60.4291 50.0722 60.4922 56.8608C60.5553 63.6494 56.6804 70.9596 48.6176 74.5767C45.6992 75.9111 42.3537 76.659 38.5167 76.6947C37.6101 76.7031 36.5982 76.7125 33.1589 76.4493L0.640303 73.5045L6.84271 1.27442L40.1615 4.1064C46.4498 4.65942 50.3 6.03633 53.3547 8.03206C59.0609 11.7321 61.833 17.357 61.8857 23.0282L61.907 23.0491ZM31.7001 62.3995C34.4408 62.374 36.4591 61.7438 38.0502 60.5272C40.06 58.9904 41.1549 56.5555 41.1324 54.131C41.1126 52.0017 40.1854 49.7964 38.3371 48.2955C36.807 47.0025 34.6701 46.2 32.032 45.9294L21.9028 45.0114L20.5381 61.5122L27.9245 62.2448L31.6792 62.4207L31.7001 62.3995ZM34.2552 33.3212C36.0683 33.3044 37.8968 32.6759 39.1965 31.8626C41.5015 30.3231 42.8052 27.6754 42.7807 25.0401C42.7591 22.721 41.7255 20.3902 39.3932 18.9992C38.163 18.2094 36.4496 17.614 33.4108 17.3259L24.401 16.6084L23.0298 32.4135L32.5465 33.2316C33.0535 33.3324 33.5595 33.3277 34.2763 33.321L34.2552 33.3212Z" stroke="#F0515B" stroke-miterlimit="10"/>
</svg>
