<svg width="67" height="84" viewBox="0 0 67 84" fill="none" xmlns="http://www.w3.org/2000/svg">
<path d="M62.6951 29.0459C62.7629 36.3405 58.2766 43.6564 49.9936 46.2635C57.4027 49.4417 61.2173 56.0689 61.2804 62.8576C61.3435 69.6462 57.4685 76.9564 49.4057 80.5735C46.4873 81.9079 43.1419 82.6558 39.3048 82.6915C38.3983 82.6999 37.3863 82.7093 33.947 82.4461L1.42839 79.5013L7.6308 7.27121L40.9496 10.1033C47.238 10.6563 51.0881 12.0331 54.1428 14.0289C59.849 17.7289 62.6211 23.3538 62.6738 29.0251L62.6951 29.0459ZM32.4882 68.3963C35.229 68.3708 37.2472 67.7406 38.8383 66.524C40.8482 64.9873 41.943 62.5523 41.9205 60.1278C41.9007 57.9984 40.9736 55.7932 39.1253 54.2923C37.5952 52.9993 35.4582 52.1968 32.8201 51.9262L22.691 51.0083L21.3262 67.509L28.7126 68.2416L32.4673 68.4176L32.4882 68.3963ZM35.0433 39.318C36.8564 39.3012 38.6849 38.6728 39.9846 37.8595C42.2896 36.32 43.5933 33.6723 43.5688 31.037C43.5473 28.7179 42.5136 26.3871 40.1814 24.9961C38.9511 24.2063 37.2377 23.6107 34.1989 23.3227L25.1891 22.6052L23.8179 38.4103L33.3347 39.2285C33.8416 39.3292 34.3476 39.3245 35.0644 39.3178L35.0433 39.318Z" fill="#F9BDC1"/>
<path d="M65.907 23.0491C65.9748 30.3437 61.4885 37.6596 53.2054 40.2667C60.6145 43.4449 64.4291 50.0722 64.4922 56.8608C64.5553 63.6494 60.6804 70.9596 52.6176 74.5767C49.6992 75.9111 46.3537 76.659 42.5167 76.6947C41.6101 76.7031 40.5982 76.7125 37.1589 76.4493L4.6403 73.5045L10.8427 1.27442L44.1615 4.10639C50.4498 4.65941 54.3 6.03633 57.3547 8.03206C63.0609 11.7321 65.833 17.357 65.8857 23.0282L65.907 23.0491ZM35.7001 62.3995C38.4408 62.374 40.4591 61.7438 42.0502 60.5272C44.06 58.9904 45.1549 56.5555 45.1324 54.131C45.1126 52.0017 44.1854 49.7964 42.3371 48.2955C40.807 47.0025 38.6701 46.2 36.032 45.9294L25.9028 45.0114L24.5381 61.5122L31.9245 62.2448L35.6792 62.4207L35.7001 62.3995ZM38.2552 33.3212C40.0683 33.3044 41.8968 32.6759 43.1965 31.8626C45.5015 30.3231 46.8052 27.6754 46.7807 25.0401C46.7591 22.721 45.7255 20.3902 43.3932 18.9992C42.163 18.2094 40.4496 17.6139 37.4108 17.3259L28.401 16.6084L27.0298 32.4135L36.5465 33.2316C37.0535 33.3324 37.5595 33.3277 38.2763 33.321L38.2552 33.3212Z" stroke="#F0515B" stroke-miterlimit="10"/>
</svg>
