<svg width="161" height="70" viewBox="0 0 161 70" fill="none" xmlns="http://www.w3.org/2000/svg">
<path d="M7.40219 41.569L12.9283 50.3744L12.977 50.3619L14.6356 39.9229L20.9068 38.4716L15.7655 67.522L9.11662 69.0183L11.0647 59.1018L0.132019 43.1725L7.40219 41.569Z" fill="#227C9E"/>
<path d="M30.6528 34.8844C36.4565 32.7226 41.9803 34.8354 44.0613 40.4247C46.1542 45.959 43.3436 51.1934 37.4912 53.3676C31.6937 55.5537 26.1637 53.4166 24.0952 47.876C21.996 42.3174 24.8004 37.0586 30.659 34.9087L30.6528 34.8844ZM37.2354 42.9521C36.2077 40.258 34.4561 38.8908 32.3875 39.6284C30.3314 40.4148 29.887 42.6301 30.8904 45.3305C31.857 47.9884 33.6698 49.3918 35.7322 48.6298C37.7639 47.8497 38.2326 45.6281 37.2417 42.9765L37.2354 42.9521Z" fill="#227C9E"/>
<path d="M45.3363 31.1216L52.1999 29.8557L53.8893 39.3849C54.0346 40.2557 54.198 41.0959 54.2853 41.4367C54.616 42.727 55.9488 43.3712 57.2394 43.0405C58.7248 42.6598 59.2046 41.2916 58.9906 40.1531L56.9626 28.9984L63.8387 27.7813L65.6984 38.2785C66.2222 41.3353 65.4013 43.8027 63.7589 45.4948C62.553 46.7637 60.8697 47.688 59.0677 48.1497C56.3405 48.8486 53.396 48.9027 51.1149 47.6971C49.2802 46.7145 48.0206 45.0397 47.3718 42.5079C47.3032 42.2401 47.2345 41.9724 47.2021 41.6434L45.3363 31.1216Z" fill="#227C9E"/>
<path d="M81.2755 29.9024C80.1892 29.7138 79.1591 29.7443 78.4342 29.8523C77.8373 29.9533 77.3508 30.1817 76.8894 30.5075C76.5372 30.7534 76.1737 31.1579 76.0057 31.6161C75.6565 32.3801 75.6677 33.2333 75.8941 34.4206L77.4512 43.2313L70.5688 44.4241L67.3641 25.9438L73.7289 24.8576L74.2292 27.0124L74.2779 26.9999C75.6119 24.7123 77.3927 23.763 78.9031 23.4798C79.8409 23.2913 80.7562 23.42 81.4579 23.5256L81.2818 29.9268L81.2755 29.9024Z" fill="#227C9E"/>
<path d="M105.257 11.6304C105.067 11.7942 104.805 12.1017 104.676 12.3104C104.423 12.7394 104.211 14.3582 104.3 15.1761L104.355 15.6935L103.573 15.8218C103.149 15.9013 102.393 16.0348 101.911 16.1301L101.029 16.2984L100.954 17.0622C100.9 17.6343 99.1147 31.639 98.6432 35.1501L98.5801 35.5515L100.693 37.064C107.597 41.9909 119.347 50.8498 124.176 54.7618C125.02 55.4462 125.284 55.5965 125.574 55.5666C125.776 55.5358 127.083 55.4242 128.48 55.325C134.62 54.863 141.495 54.0508 148.698 52.9498C150.102 52.7374 151.392 52.519 151.564 52.4715C151.852 52.3923 152.007 51.8295 153.958 43.7869C156.504 33.3139 156.387 33.8787 156.176 33.6519C156.087 33.5525 155.667 33.061 155.247 32.5696C154.153 31.297 152.783 29.915 151.182 28.5093C150.114 27.552 149.796 27.2059 149.707 26.8835C149.47 26.0198 148.402 25.1986 147.179 24.9403C146.914 24.8769 146.65 24.7759 146.591 24.6932C146.531 24.6106 145.481 23.7224 144.258 22.6962C143.026 21.6847 141.973 20.785 141.897 20.7317C141.829 20.6638 141.8 20.0646 141.825 19.3889C141.864 17.9538 141.693 17.1957 141.172 16.6081C140.246 15.5373 138.073 15.0693 135.557 15.3772L134.609 15.4891L133.298 14.5491C132.581 14.0153 131.927 13.5264 131.858 13.4584C131.772 13.3706 131.726 12.8878 131.74 12.2153C131.781 10.8785 131.58 10.3269 130.814 9.65807C129.364 8.39669 126.313 8.24476 122.564 9.2507C120.772 9.71842 120.406 9.91819 120.072 10.6417C119.843 11.1135 119.655 12.1436 119.663 12.8475C119.66 13.1953 119.617 13.4918 119.56 13.5077C119.111 13.5442 116.526 13.6479 116.445 13.6209C116.377 13.6022 116.348 13.4493 116.361 13.2722C116.489 11.9364 114.934 10.605 112.958 10.3556C111.418 10.1597 109.836 10.3096 107.583 10.8547C105.947 11.2551 105.55 11.3889 105.257 11.6304ZM110.261 11.3573C111.686 11.2255 112.777 11.2725 113.649 11.5159C114.576 11.7811 115.076 12.2012 115.256 12.8576L115.395 13.3643L114.451 13.6239C113.219 13.9627 112.242 14.0579 110.754 14.0086C108.399 13.9128 105.747 13.23 105.703 12.7095C105.697 12.5995 105.8 12.4349 105.949 12.3445C106.34 12.1007 109.09 11.4686 110.261 11.3573ZM107.719 14.5459C110.211 14.9629 112.8 14.8707 114.612 14.2982L115.65 13.9755L115.595 14.3622C115.551 14.6964 115.486 14.7761 115.004 14.9584C114.556 15.1311 114.476 15.2025 114.53 15.3982C114.578 15.571 114.689 15.6147 114.983 15.5586C115.35 15.495 115.48 15.6079 115.38 15.9202C115.332 16.1068 113.406 16.4009 112.161 16.4213C111.324 16.4408 111.065 16.5366 111.141 16.813C111.252 17.2161 112.659 17.2876 114.283 16.9773C115.177 16.8058 115.227 16.8047 115.221 17.054C115.197 17.7789 115.051 17.8316 112.666 18.0784C110.4 18.3051 107.1 17.9735 106.251 17.4515C105.665 17.0798 105.225 15.4791 105.351 14.1809L105.382 13.8876L106.057 14.1355C106.429 14.2688 107.175 14.46 107.719 14.5459ZM126.319 9.61803C127.757 9.53234 129.156 9.75469 129.878 10.1754C130.325 10.4489 130.406 10.5629 130.563 11.0895L130.728 11.6883L129.515 12.0093C128.671 12.2289 127.981 12.3319 127.254 12.3459C125.033 12.3746 121.908 11.8216 121.301 11.2823C121.041 11.0566 121.035 11.0336 121.209 10.8122C121.462 10.4702 124.698 9.71667 126.319 9.61803ZM103.681 16.3496L104.43 16.2799L104.547 16.706C104.734 17.3855 105.114 17.9127 105.699 18.2844C106.976 19.0978 111.138 19.415 113.937 18.918C114.812 18.7644 114.908 18.7998 114.702 19.1783C114.31 19.8684 114.28 21.9206 114.64 23.2334C115.049 24.719 115.728 25.2508 117.59 25.5811C119.763 25.9622 122.617 25.9333 124.739 25.4984C125.783 25.2857 125.837 25.2584 126.029 24.9207C126.322 24.4068 126.54 20.1105 126.319 19.3044C126.135 18.6364 125.657 18.0246 125.04 17.6739L124.673 17.4652L124.972 17.4698C126.305 17.4995 128.227 17.4171 129.108 17.2864C130.194 17.1365 130.325 17.1624 130.104 17.4834C129.935 17.7278 129.754 19.0041 129.76 19.8819C129.769 20.2757 129.888 21.0234 130.027 21.5301C130.458 23.0963 131.101 23.5884 133.163 23.9256C135.228 24.2744 137.453 24.2573 139.708 23.8976C141.405 23.6291 141.68 23.3677 141.639 22.0909C141.637 21.9055 141.674 21.7221 141.71 21.6749C141.758 21.6245 142.599 22.2481 143.585 23.0422C144.574 23.8478 145.437 24.5521 145.517 24.6169C145.623 24.6868 145.47 24.7165 145 24.7216C143.256 24.7304 139.894 25.4318 138.988 25.9658C138.754 26.1045 138.451 26.3985 138.322 26.6072C137.775 27.5008 137.668 29.4997 138.086 31.0198C138.522 32.5598 139.103 33.0069 141.142 33.3505C143.222 33.7077 145.416 33.7116 147.578 33.3772C148.947 33.1743 149.435 32.9659 149.555 32.5487C149.609 32.3852 149.711 31.4035 149.782 30.3558C149.857 29.3197 149.915 28.4491 149.931 28.4197C149.965 28.361 151.905 30.0571 152.789 30.929C154.452 32.5649 155.381 33.598 155.169 33.5942C155.056 33.5881 154.071 33.6111 152.988 33.6364C148.917 33.74 145.669 34.0012 135.37 35.0614L127.976 35.8307L127.418 35.3773C120.538 29.8615 106.297 19.3338 102.516 16.9794L101.843 16.5576L102.383 16.4957C102.684 16.4626 103.259 16.3913 103.681 16.3496ZM103.385 18.3383C113.423 25.5624 119.303 29.9657 125.34 34.7593L127.572 36.524L127.515 36.9483C127.488 37.1663 127.051 40.2594 126.551 43.8031C126.04 47.35 125.498 51.1903 125.333 52.3502L125.043 54.4489L124.387 53.9108C119.28 49.704 106.788 40.4915 100.984 36.637L99.0626 35.3693L100.19 26.1782C100.816 21.1132 101.366 16.9859 101.415 16.9848C101.468 16.9952 102.351 17.5946 103.385 18.3383ZM122.992 12.8365C125.604 13.2826 127.626 13.2471 129.659 12.7129L131.067 12.3381L130.966 12.8244C130.869 13.2844 130.833 13.3317 130.337 13.4678C129.969 13.5691 129.823 13.671 129.801 13.8135C129.78 14.0545 130.058 14.1639 130.427 14.0626C130.634 14.0056 130.707 14.0474 130.727 14.2526C130.755 14.4925 130.684 14.5492 130.222 14.7135C129.917 14.8221 129.086 14.9515 128.371 15.0117C126.89 15.1215 126.481 15.2093 126.416 15.4252C126.296 15.8424 127.538 15.9467 129.244 15.6635C130.298 15.4854 130.578 15.4702 130.567 15.6095C130.555 15.6996 130.566 15.8326 130.585 15.9017C130.623 16.0399 129.248 16.3067 127.819 16.4269C126.55 16.5406 124.087 16.4126 122.852 16.1574C121.595 15.9086 121.214 15.6045 120.948 14.6372C120.774 14.0038 120.647 12.5522 120.735 12.243C120.754 12.1759 121.008 12.2424 121.292 12.3749C121.579 12.5189 122.343 12.7299 122.992 12.8365ZM118.295 14.3137L119.715 14.2081L119.87 14.7724C120.101 15.6131 120.495 16.2356 121.058 16.6136L121.558 16.9467L120.817 17.0017C119.915 17.0517 117.727 17.4301 116.783 17.6898C116.299 17.8227 116.117 17.8357 116.131 17.7079C116.135 17.6324 116.196 16.8603 116.245 16.0044C116.343 14.6026 116.374 14.4454 116.609 14.4428C116.753 14.4279 117.508 14.3813 118.295 14.3137ZM132.569 15.0963C132.989 15.3647 133.354 15.6111 133.364 15.6457C133.377 15.6917 132.972 15.8403 132.453 15.9827C131.751 16.1759 131.522 16.2015 131.525 16.0768C131.541 15.9982 131.561 15.6211 131.584 15.2555C131.596 14.893 131.65 14.5933 131.703 14.6037C131.743 14.6172 132.137 14.8311 132.569 15.0963ZM121.055 18.0016C123.654 17.8569 125.271 18.5146 125.431 19.7713C125.476 20.0687 125.464 20.0719 124.26 20.3781C122.48 20.8426 120.121 20.8223 117.815 20.3169C116.297 19.9785 115.477 19.4732 115.901 19.1214C116.202 18.8652 119.872 18.0668 121.055 18.0016ZM116.342 20.9076C117.274 21.2335 118.118 21.3732 119.856 21.4776C121.585 21.5966 122.999 21.468 124.485 21.0596C125.164 20.8728 125.723 20.7438 125.73 20.7669C125.777 20.9396 125.549 21.5969 125.453 21.5615C125.397 21.5396 124.938 21.6285 124.452 21.75C123.757 21.9284 123.54 22.0378 123.431 22.2287C123.201 22.6513 123.658 22.7362 124.671 22.4576C125.489 22.2328 125.5 22.2297 125.478 22.5083C125.452 22.7755 125.389 22.8175 124.824 22.9235C124.472 22.9954 123.668 23.0431 123.018 23.0235C121.583 22.9846 121.343 23.1495 122.217 23.5782C122.818 23.8714 123.654 23.9388 124.676 23.7817C125.008 23.7276 125.297 23.6976 125.303 23.7207C125.306 23.7322 125.293 23.9093 125.28 24.0863C125.25 24.4289 125.239 24.4321 124.448 24.5751C121.608 25.0586 117.756 24.879 116.477 24.1902L115.899 23.8908L115.642 22.6856C115.406 21.648 115.34 20.6876 115.49 20.6464C115.513 20.6401 115.904 20.7555 116.342 20.9076ZM136.281 16.3426C138.934 16.1706 140.47 16.7143 140.812 17.958L140.923 18.3611L139.806 18.6682C138.033 19.1558 136.277 19.1677 133.775 18.7161C132.096 18.4221 131.292 18.1105 131.246 17.7639C131.231 17.6194 131.32 17.4463 131.477 17.3413C131.974 17.0312 134.819 16.4346 136.281 16.3426ZM131.524 19.1366C132.261 19.4295 133.216 19.6129 134.801 19.7469C136.886 19.9417 137.881 19.8663 139.562 19.404C140.406 19.1844 141.1 19.006 141.104 19.0175C141.107 19.029 141.099 19.1799 141.074 19.3601C141.049 19.6765 141.006 19.7007 140.189 19.9255C139.578 20.0933 139.315 20.2153 139.246 20.3705C139.067 20.7543 139.446 20.8729 140.206 20.6639C140.586 20.5595 140.892 20.5002 140.898 20.5232C140.977 20.8111 140.828 20.9884 140.39 21.1088C139.803 21.2702 138.099 21.3795 136.618 21.3532C135.371 21.3243 135.008 21.3994 134.979 21.6551C134.947 21.8992 135.14 21.9701 136.099 22.0781C137.188 22.212 138.87 22.1583 139.898 21.975L140.734 21.8193L140.681 22.2552L140.627 22.6911L139.592 22.8891C137.642 23.2764 134.987 23.263 132.993 22.8575C131.605 22.5828 131.312 22.3288 131.025 21.1939C130.849 20.5113 130.737 18.9319 130.864 18.897C130.887 18.8907 131.188 18.9938 131.524 19.1366ZM143.419 25.8625C146.406 25.4625 148.485 26.0427 148.849 27.3671C148.957 27.7586 148.948 27.7733 148.435 27.9765C147.754 28.2503 146.256 28.4765 145.079 28.4778C143.176 28.4933 140.264 27.9933 139.558 27.5432C139.185 27.3114 139.191 26.9752 139.577 26.7576C139.967 26.5514 142.246 26.0115 143.419 25.8625ZM139.597 28.5854C140.442 28.9105 141.033 29.0329 142.61 29.1816C144.895 29.3833 145.783 29.3249 147.56 28.8488C148.922 28.4867 149.147 28.4496 149.142 28.612C149.144 28.7105 149.039 29.5445 148.91 30.4718L148.688 32.143L148.068 32.2763C145.061 32.9172 140.395 32.6146 139.566 31.7155C139.337 31.4687 139.235 31.1871 139.053 30.3453C138.863 29.4312 138.792 28.3608 138.919 28.326C138.93 28.3228 139.246 28.4343 139.597 28.5854ZM142.484 35.0751C144.612 34.8864 147.252 34.6684 148.36 34.5991C150.174 34.4843 155.357 34.3229 155.457 34.3698C155.471 34.3782 155.253 35.3423 154.976 36.4962C154.687 37.6533 153.763 41.4995 152.927 45.0366C152.079 48.5768 151.36 51.549 151.325 51.6455C151.236 51.9547 142.364 53.2916 135.493 54.0285C132.644 54.3412 125.933 54.9353 125.848 54.8967C125.818 54.88 126.393 50.7087 127.109 45.6069L128.428 36.3504L133.517 35.8927C136.322 35.6419 140.359 35.2754 142.484 35.0751Z" fill="#F38189"/>
<path d="M105.257 11.6304C105.067 11.7942 104.805 12.1017 104.676 12.3104C104.423 12.7394 104.211 14.3582 104.3 15.1761L104.355 15.6935L103.573 15.8218C103.149 15.9013 102.393 16.0348 101.911 16.1301L101.029 16.2984L100.954 17.0622C100.9 17.6343 99.1147 31.639 98.6432 35.1501L98.5801 35.5515L100.693 37.064C107.597 41.9909 119.347 50.8498 124.176 54.7618C125.02 55.4462 125.284 55.5965 125.574 55.5666C125.776 55.5358 127.083 55.4242 128.48 55.325C134.62 54.863 141.495 54.0508 148.698 52.9498C150.102 52.7374 151.392 52.519 151.564 52.4715C151.852 52.3923 152.007 51.8295 153.958 43.7869C156.504 33.3139 156.387 33.8787 156.176 33.6519C156.087 33.5525 155.667 33.061 155.247 32.5696C154.153 31.297 152.783 29.915 151.182 28.5093C150.114 27.552 149.796 27.2059 149.707 26.8835C149.47 26.0198 148.402 25.1986 147.179 24.9403C146.914 24.8769 146.65 24.7759 146.591 24.6932C146.531 24.6106 145.481 23.7224 144.258 22.6962C143.026 21.6847 141.973 20.785 141.897 20.7317C141.829 20.6638 141.8 20.0646 141.825 19.3889C141.864 17.9538 141.693 17.1957 141.172 16.6081C140.246 15.5373 138.073 15.0693 135.557 15.3772L134.609 15.4891L133.298 14.5491C132.581 14.0153 131.927 13.5264 131.858 13.4584C131.772 13.3706 131.726 12.8878 131.74 12.2153C131.781 10.8785 131.58 10.3269 130.814 9.65807C129.364 8.39669 126.313 8.24476 122.564 9.2507C120.772 9.71842 120.406 9.91819 120.072 10.6417C119.843 11.1135 119.655 12.1436 119.663 12.8475C119.66 13.1953 119.617 13.4918 119.56 13.5077C119.111 13.5442 116.526 13.6479 116.445 13.6209C116.377 13.6022 116.348 13.4493 116.361 13.2722C116.489 11.9364 114.934 10.605 112.958 10.3556C111.418 10.1597 109.836 10.3096 107.583 10.8547C105.947 11.2551 105.55 11.3889 105.257 11.6304ZM110.261 11.3573C111.686 11.2255 112.777 11.2725 113.649 11.5159C114.576 11.7811 115.076 12.2012 115.256 12.8576L115.395 13.3643L114.451 13.6239C113.219 13.9627 112.242 14.0579 110.754 14.0086C108.399 13.9128 105.747 13.23 105.703 12.7095C105.697 12.5995 105.8 12.4349 105.949 12.3445C106.34 12.1007 109.09 11.4686 110.261 11.3573ZM107.719 14.5459C110.211 14.9629 112.8 14.8707 114.612 14.2982L115.65 13.9755L115.595 14.3622C115.551 14.6964 115.486 14.7761 115.004 14.9584C114.556 15.1311 114.476 15.2025 114.53 15.3982C114.578 15.571 114.689 15.6147 114.983 15.5586C115.35 15.495 115.48 15.6079 115.38 15.9202C115.332 16.1068 113.406 16.4009 112.161 16.4213C111.324 16.4408 111.065 16.5366 111.141 16.813C111.252 17.2161 112.659 17.2876 114.283 16.9773C115.177 16.8058 115.227 16.8047 115.221 17.054C115.197 17.7789 115.051 17.8316 112.666 18.0784C110.4 18.3051 107.1 17.9735 106.251 17.4515C105.665 17.0798 105.225 15.4791 105.351 14.1809L105.382 13.8876L106.057 14.1355C106.429 14.2688 107.175 14.46 107.719 14.5459ZM126.319 9.61803C127.757 9.53234 129.156 9.75469 129.878 10.1754C130.325 10.4489 130.406 10.5629 130.563 11.0895L130.728 11.6883L129.515 12.0093C128.671 12.2289 127.981 12.3319 127.254 12.3459C125.033 12.3746 121.908 11.8216 121.301 11.2823C121.041 11.0566 121.035 11.0336 121.209 10.8122C121.462 10.4702 124.698 9.71667 126.319 9.61803ZM103.681 16.3496L104.43 16.2799L104.547 16.706C104.734 17.3855 105.114 17.9127 105.699 18.2844C106.976 19.0978 111.138 19.415 113.937 18.918C114.812 18.7644 114.908 18.7998 114.702 19.1783C114.31 19.8684 114.28 21.9206 114.64 23.2334C115.049 24.719 115.728 25.2508 117.59 25.5811C119.763 25.9622 122.617 25.9333 124.739 25.4984C125.783 25.2857 125.837 25.2584 126.029 24.9207C126.322 24.4068 126.54 20.1105 126.319 19.3044C126.135 18.6364 125.657 18.0246 125.04 17.6739L124.673 17.4652L124.972 17.4698C126.305 17.4995 128.227 17.4171 129.108 17.2864C130.194 17.1365 130.325 17.1624 130.104 17.4834C129.935 17.7278 129.754 19.0041 129.76 19.8819C129.769 20.2757 129.888 21.0234 130.027 21.5301C130.458 23.0963 131.101 23.5884 133.163 23.9256C135.228 24.2744 137.453 24.2573 139.708 23.8976C141.405 23.6291 141.68 23.3677 141.639 22.0909C141.637 21.9055 141.674 21.7221 141.71 21.6749C141.758 21.6245 142.599 22.2481 143.585 23.0422C144.574 23.8478 145.437 24.5521 145.517 24.6169C145.623 24.6868 145.47 24.7165 145 24.7216C143.256 24.7304 139.894 25.4318 138.988 25.9658C138.754 26.1045 138.451 26.3985 138.322 26.6072C137.775 27.5008 137.668 29.4997 138.086 31.0198C138.522 32.5598 139.103 33.0069 141.142 33.3505C143.222 33.7077 145.416 33.7116 147.578 33.3772C148.947 33.1743 149.435 32.9659 149.555 32.5487C149.609 32.3852 149.711 31.4035 149.782 30.3558C149.857 29.3197 149.915 28.4491 149.931 28.4197C149.965 28.361 151.905 30.0571 152.789 30.929C154.452 32.5649 155.381 33.598 155.169 33.5942C155.056 33.5881 154.071 33.6111 152.988 33.6364C148.917 33.74 145.669 34.0012 135.37 35.0614L127.976 35.8307L127.418 35.3773C120.538 29.8615 106.297 19.3338 102.516 16.9794L101.843 16.5576L102.383 16.4957C102.684 16.4626 103.259 16.3913 103.681 16.3496ZM103.385 18.3383C113.423 25.5624 119.303 29.9657 125.34 34.7593L127.572 36.524L127.515 36.9483C127.488 37.1663 127.051 40.2594 126.551 43.8031C126.04 47.35 125.498 51.1903 125.333 52.3502L125.043 54.4489L124.387 53.9108C119.28 49.704 106.788 40.4915 100.984 36.637L99.0626 35.3693L100.19 26.1782C100.816 21.1132 101.366 16.9859 101.415 16.9848C101.468 16.9952 102.351 17.5946 103.385 18.3383ZM122.992 12.8365C125.604 13.2826 127.626 13.2471 129.659 12.7129L131.067 12.3381L130.966 12.8244C130.869 13.2844 130.833 13.3317 130.337 13.4678C129.969 13.5691 129.823 13.671 129.801 13.8135C129.78 14.0545 130.058 14.1639 130.427 14.0626C130.634 14.0056 130.707 14.0474 130.727 14.2526C130.755 14.4925 130.684 14.5492 130.222 14.7135C129.917 14.8221 129.086 14.9515 128.371 15.0117C126.89 15.1215 126.481 15.2093 126.416 15.4252C126.296 15.8424 127.538 15.9467 129.244 15.6635C130.298 15.4854 130.578 15.4702 130.567 15.6095C130.555 15.6996 130.566 15.8326 130.585 15.9017C130.623 16.0399 129.248 16.3067 127.819 16.4269C126.55 16.5406 124.087 16.4126 122.852 16.1574C121.595 15.9086 121.214 15.6045 120.948 14.6372C120.774 14.0038 120.647 12.5522 120.735 12.243C120.754 12.1759 121.008 12.2424 121.292 12.3749C121.579 12.5189 122.343 12.7299 122.992 12.8365ZM118.295 14.3137L119.715 14.2081L119.87 14.7724C120.101 15.6131 120.495 16.2356 121.058 16.6136L121.558 16.9467L120.817 17.0017C119.915 17.0517 117.727 17.4301 116.783 17.6898C116.299 17.8227 116.117 17.8357 116.131 17.7079C116.135 17.6324 116.196 16.8603 116.245 16.0044C116.343 14.6026 116.374 14.4454 116.609 14.4428C116.753 14.4279 117.508 14.3813 118.295 14.3137ZM132.569 15.0963C132.989 15.3647 133.354 15.6111 133.364 15.6457C133.377 15.6917 132.972 15.8403 132.453 15.9827C131.751 16.1759 131.522 16.2015 131.525 16.0768C131.541 15.9982 131.561 15.6211 131.584 15.2555C131.596 14.893 131.65 14.5933 131.703 14.6037C131.743 14.6172 132.137 14.8311 132.569 15.0963ZM121.055 18.0016C123.654 17.8569 125.271 18.5146 125.431 19.7713C125.476 20.0687 125.464 20.0719 124.26 20.3781C122.48 20.8426 120.121 20.8223 117.815 20.3169C116.297 19.9785 115.477 19.4732 115.901 19.1214C116.202 18.8652 119.872 18.0668 121.055 18.0016ZM116.342 20.9076C117.274 21.2335 118.118 21.3732 119.856 21.4776C121.585 21.5966 122.999 21.468 124.485 21.0596C125.164 20.8728 125.723 20.7438 125.73 20.7669C125.777 20.9396 125.549 21.5969 125.453 21.5615C125.397 21.5396 124.938 21.6285 124.452 21.75C123.757 21.9284 123.54 22.0378 123.431 22.2287C123.201 22.6513 123.658 22.7362 124.671 22.4576C125.489 22.2328 125.5 22.2297 125.478 22.5083C125.452 22.7755 125.389 22.8175 124.824 22.9235C124.472 22.9954 123.668 23.0431 123.018 23.0235C121.583 22.9846 121.343 23.1495 122.217 23.5782C122.818 23.8714 123.654 23.9388 124.676 23.7817C125.008 23.7276 125.297 23.6976 125.303 23.7207C125.306 23.7322 125.293 23.9093 125.28 24.0863C125.25 24.4289 125.239 24.4321 124.448 24.5751C121.608 25.0586 117.756 24.879 116.477 24.1902L115.899 23.8908L115.642 22.6856C115.406 21.648 115.34 20.6876 115.49 20.6464C115.513 20.6401 115.904 20.7555 116.342 20.9076ZM136.281 16.3426C138.934 16.1706 140.47 16.7143 140.812 17.958L140.923 18.3611L139.806 18.6682C138.033 19.1558 136.277 19.1677 133.775 18.7161C132.096 18.4221 131.292 18.1105 131.246 17.7639C131.231 17.6194 131.32 17.4463 131.477 17.3413C131.974 17.0312 134.819 16.4346 136.281 16.3426ZM131.524 19.1366C132.261 19.4295 133.216 19.6129 134.801 19.7469C136.886 19.9417 137.881 19.8663 139.562 19.404C140.406 19.1844 141.1 19.006 141.104 19.0175C141.107 19.029 141.099 19.1799 141.074 19.3601C141.049 19.6765 141.006 19.7007 140.189 19.9255C139.578 20.0933 139.315 20.2153 139.246 20.3705C139.067 20.7543 139.446 20.8729 140.206 20.6639C140.586 20.5595 140.892 20.5002 140.898 20.5232C140.977 20.8111 140.828 20.9884 140.39 21.1088C139.803 21.2702 138.099 21.3795 136.618 21.3532C135.371 21.3243 135.008 21.3994 134.979 21.6551C134.947 21.8992 135.14 21.9701 136.099 22.0781C137.188 22.212 138.87 22.1583 139.898 21.975L140.734 21.8193L140.681 22.2552L140.627 22.6911L139.592 22.8891C137.642 23.2764 134.987 23.263 132.993 22.8575C131.605 22.5828 131.312 22.3288 131.025 21.1939C130.849 20.5113 130.737 18.9319 130.864 18.897C130.887 18.8907 131.188 18.9938 131.524 19.1366ZM143.419 25.8625C146.406 25.4625 148.485 26.0427 148.849 27.3671C148.957 27.7586 148.948 27.7733 148.435 27.9765C147.754 28.2503 146.256 28.4765 145.079 28.4778C143.176 28.4933 140.264 27.9933 139.558 27.5432C139.185 27.3114 139.191 26.9752 139.577 26.7576C139.967 26.5514 142.246 26.0115 143.419 25.8625ZM139.597 28.5854C140.442 28.9105 141.033 29.0329 142.61 29.1816C144.895 29.3833 145.783 29.3249 147.56 28.8488C148.922 28.4867 149.147 28.4496 149.142 28.612C149.144 28.7105 149.039 29.5445 148.91 30.4718L148.688 32.143L148.068 32.2763C145.061 32.9172 140.395 32.6146 139.566 31.7155C139.337 31.4687 139.235 31.1871 139.053 30.3453C138.863 29.4312 138.792 28.3608 138.919 28.326C138.93 28.3228 139.246 28.4343 139.597 28.5854ZM142.484 35.0751C144.612 34.8864 147.252 34.6684 148.36 34.5991C150.174 34.4843 155.357 34.3229 155.457 34.3698C155.471 34.3782 155.253 35.3423 154.976 36.4962C154.687 37.6533 153.763 41.4995 152.927 45.0366C152.079 48.5768 151.36 51.549 151.325 51.6455C151.236 51.9547 142.364 53.2916 135.493 54.0285C132.644 54.3412 125.933 54.9353 125.848 54.8967C125.818 54.88 126.393 50.7087 127.109 45.6069L128.428 36.3504L133.517 35.8927C136.322 35.6419 140.359 35.2754 142.484 35.0751Z" fill="#F38189"/>
<path d="M105.257 11.6304C105.067 11.7942 104.805 12.1017 104.676 12.3104C104.423 12.7394 104.211 14.3582 104.3 15.1761L104.355 15.6935L103.573 15.8218C103.149 15.9013 102.393 16.0348 101.911 16.1301L101.029 16.2984L100.954 17.0622C100.9 17.6343 99.1147 31.639 98.6432 35.1501L98.5801 35.5515L100.693 37.064C107.597 41.9909 119.347 50.8498 124.176 54.7618C125.02 55.4462 125.284 55.5965 125.574 55.5666C125.776 55.5358 127.083 55.4242 128.48 55.325C134.62 54.863 141.495 54.0508 148.698 52.9498C150.102 52.7374 151.392 52.519 151.564 52.4715C151.852 52.3923 152.007 51.8295 153.958 43.7869C156.504 33.3139 156.387 33.8787 156.176 33.6519C156.087 33.5525 155.667 33.061 155.247 32.5696C154.153 31.297 152.783 29.915 151.182 28.5093C150.114 27.552 149.796 27.2059 149.707 26.8835C149.47 26.0198 148.402 25.1986 147.179 24.9403C146.914 24.8769 146.65 24.7759 146.591 24.6932C146.531 24.6106 145.481 23.7224 144.258 22.6962C143.026 21.6847 141.973 20.785 141.897 20.7317C141.829 20.6638 141.8 20.0646 141.825 19.3889C141.864 17.9538 141.693 17.1957 141.172 16.6081C140.246 15.5373 138.073 15.0693 135.557 15.3772L134.609 15.4891L133.298 14.5491C132.581 14.0153 131.927 13.5264 131.858 13.4584C131.772 13.3706 131.726 12.8878 131.74 12.2153C131.781 10.8785 131.58 10.3269 130.814 9.65807C129.364 8.39669 126.313 8.24476 122.564 9.2507C120.772 9.71842 120.406 9.91819 120.072 10.6417C119.843 11.1135 119.655 12.1436 119.663 12.8475C119.66 13.1953 119.617 13.4918 119.56 13.5077C119.111 13.5442 116.526 13.6479 116.445 13.6209C116.377 13.6022 116.348 13.4493 116.361 13.2722C116.489 11.9364 114.934 10.605 112.958 10.3556C111.418 10.1597 109.836 10.3096 107.583 10.8547C105.947 11.2551 105.55 11.3889 105.257 11.6304ZM110.261 11.3573C111.686 11.2255 112.777 11.2725 113.649 11.5159C114.576 11.7811 115.076 12.2012 115.256 12.8576L115.395 13.3643L114.451 13.6239C113.219 13.9627 112.242 14.0579 110.754 14.0086C108.399 13.9128 105.747 13.23 105.703 12.7095C105.697 12.5995 105.8 12.4349 105.949 12.3445C106.34 12.1007 109.09 11.4686 110.261 11.3573ZM107.719 14.5459C110.211 14.9629 112.8 14.8707 114.612 14.2982L115.65 13.9755L115.595 14.3622C115.551 14.6964 115.486 14.7761 115.004 14.9584C114.556 15.1311 114.476 15.2025 114.53 15.3982C114.578 15.571 114.689 15.6147 114.983 15.5586C115.35 15.495 115.48 15.6079 115.38 15.9202C115.332 16.1068 113.406 16.4009 112.161 16.4213C111.324 16.4408 111.065 16.5366 111.141 16.813C111.252 17.2161 112.659 17.2876 114.283 16.9773C115.177 16.8058 115.227 16.8047 115.221 17.054C115.197 17.7789 115.051 17.8316 112.666 18.0784C110.4 18.3051 107.1 17.9735 106.251 17.4515C105.665 17.0798 105.225 15.4791 105.351 14.1809L105.382 13.8876L106.057 14.1355C106.429 14.2688 107.175 14.46 107.719 14.5459ZM126.319 9.61803C127.757 9.53234 129.156 9.75469 129.878 10.1754C130.325 10.4489 130.406 10.5629 130.563 11.0895L130.728 11.6883L129.515 12.0093C128.671 12.2289 127.981 12.3319 127.254 12.3459C125.033 12.3746 121.908 11.8216 121.301 11.2823C121.041 11.0566 121.035 11.0336 121.209 10.8122C121.462 10.4702 124.698 9.71667 126.319 9.61803ZM103.681 16.3496L104.43 16.2799L104.547 16.706C104.734 17.3855 105.114 17.9127 105.699 18.2844C106.976 19.0978 111.138 19.415 113.937 18.918C114.812 18.7644 114.908 18.7998 114.702 19.1783C114.31 19.8684 114.28 21.9206 114.64 23.2334C115.049 24.719 115.728 25.2508 117.59 25.5811C119.763 25.9622 122.617 25.9333 124.739 25.4984C125.783 25.2857 125.837 25.2584 126.029 24.9207C126.322 24.4068 126.54 20.1105 126.319 19.3044C126.135 18.6364 125.657 18.0246 125.04 17.6739L124.673 17.4652L124.972 17.4698C126.305 17.4995 128.227 17.4171 129.108 17.2864C130.194 17.1365 130.325 17.1624 130.104 17.4834C129.935 17.7278 129.754 19.0041 129.76 19.8819C129.769 20.2757 129.888 21.0234 130.027 21.5301C130.458 23.0963 131.101 23.5884 133.163 23.9256C135.228 24.2744 137.453 24.2573 139.708 23.8976C141.405 23.6291 141.68 23.3677 141.639 22.0909C141.637 21.9055 141.674 21.7221 141.71 21.6749C141.758 21.6245 142.599 22.2481 143.585 23.0422C144.574 23.8478 145.437 24.5521 145.517 24.6169C145.623 24.6868 145.47 24.7165 145 24.7216C143.256 24.7304 139.894 25.4318 138.988 25.9658C138.754 26.1045 138.451 26.3985 138.322 26.6072C137.775 27.5008 137.668 29.4997 138.086 31.0198C138.522 32.5598 139.103 33.0069 141.142 33.3505C143.222 33.7077 145.416 33.7116 147.578 33.3772C148.947 33.1743 149.435 32.9659 149.555 32.5487C149.609 32.3852 149.711 31.4035 149.782 30.3558C149.857 29.3197 149.915 28.4491 149.931 28.4197C149.965 28.361 151.905 30.0571 152.789 30.929C154.452 32.5649 155.381 33.598 155.169 33.5942C155.056 33.5881 154.071 33.6111 152.988 33.6364C148.917 33.74 145.669 34.0012 135.37 35.0614L127.976 35.8307L127.418 35.3773C120.538 29.8615 106.297 19.3338 102.516 16.9794L101.843 16.5576L102.383 16.4957C102.684 16.4626 103.259 16.3913 103.681 16.3496ZM103.385 18.3383C113.423 25.5624 119.303 29.9657 125.34 34.7593L127.572 36.524L127.515 36.9483C127.488 37.1663 127.051 40.2594 126.551 43.8031C126.04 47.35 125.498 51.1903 125.333 52.3502L125.043 54.4489L124.387 53.9108C119.28 49.704 106.788 40.4915 100.984 36.637L99.0626 35.3693L100.19 26.1782C100.816 21.1132 101.366 16.9859 101.415 16.9848C101.468 16.9952 102.351 17.5946 103.385 18.3383ZM122.992 12.8365C125.604 13.2826 127.626 13.2471 129.659 12.7129L131.067 12.3381L130.966 12.8244C130.869 13.2844 130.833 13.3317 130.337 13.4678C129.969 13.5691 129.823 13.671 129.801 13.8135C129.78 14.0545 130.058 14.1639 130.427 14.0626C130.634 14.0056 130.707 14.0474 130.727 14.2526C130.755 14.4925 130.684 14.5492 130.222 14.7135C129.917 14.8221 129.086 14.9515 128.371 15.0117C126.89 15.1215 126.481 15.2093 126.416 15.4252C126.296 15.8424 127.538 15.9467 129.244 15.6635C130.298 15.4854 130.578 15.4702 130.567 15.6095C130.555 15.6996 130.566 15.8326 130.585 15.9017C130.623 16.0399 129.248 16.3067 127.819 16.4269C126.55 16.5406 124.087 16.4126 122.852 16.1574C121.595 15.9086 121.214 15.6045 120.948 14.6372C120.774 14.0038 120.647 12.5522 120.735 12.243C120.754 12.1759 121.008 12.2424 121.292 12.3749C121.579 12.5189 122.343 12.7299 122.992 12.8365ZM118.295 14.3137L119.715 14.2081L119.87 14.7724C120.101 15.6131 120.495 16.2356 121.058 16.6136L121.558 16.9467L120.817 17.0017C119.915 17.0517 117.727 17.4301 116.783 17.6898C116.299 17.8227 116.117 17.8357 116.131 17.7079C116.135 17.6324 116.196 16.8603 116.245 16.0044C116.343 14.6026 116.374 14.4454 116.609 14.4428C116.753 14.4279 117.508 14.3813 118.295 14.3137ZM132.569 15.0963C132.989 15.3647 133.354 15.6111 133.364 15.6457C133.377 15.6917 132.972 15.8403 132.453 15.9827C131.751 16.1759 131.522 16.2015 131.525 16.0768C131.541 15.9982 131.561 15.6211 131.584 15.2555C131.596 14.893 131.65 14.5933 131.703 14.6037C131.743 14.6172 132.137 14.8311 132.569 15.0963ZM121.055 18.0016C123.654 17.8569 125.271 18.5146 125.431 19.7713C125.476 20.0687 125.464 20.0719 124.26 20.3781C122.48 20.8426 120.121 20.8223 117.815 20.3169C116.297 19.9785 115.477 19.4732 115.901 19.1214C116.202 18.8652 119.872 18.0668 121.055 18.0016ZM116.342 20.9076C117.274 21.2335 118.118 21.3732 119.856 21.4776C121.585 21.5966 122.999 21.468 124.485 21.0596C125.164 20.8728 125.723 20.7438 125.73 20.7669C125.777 20.9396 125.549 21.5969 125.453 21.5615C125.397 21.5396 124.938 21.6285 124.452 21.75C123.757 21.9284 123.54 22.0378 123.431 22.2287C123.201 22.6513 123.658 22.7362 124.671 22.4576C125.489 22.2328 125.5 22.2297 125.478 22.5083C125.452 22.7755 125.389 22.8175 124.824 22.9235C124.472 22.9954 123.668 23.0431 123.018 23.0235C121.583 22.9846 121.343 23.1495 122.217 23.5782C122.818 23.8714 123.654 23.9388 124.676 23.7817C125.008 23.7276 125.297 23.6976 125.303 23.7207C125.306 23.7322 125.293 23.9093 125.28 24.0863C125.25 24.4289 125.239 24.4321 124.448 24.5751C121.608 25.0586 117.756 24.879 116.477 24.1902L115.899 23.8908L115.642 22.6856C115.406 21.648 115.34 20.6876 115.49 20.6464C115.513 20.6401 115.904 20.7555 116.342 20.9076ZM136.281 16.3426C138.934 16.1706 140.47 16.7143 140.812 17.958L140.923 18.3611L139.806 18.6682C138.033 19.1558 136.277 19.1677 133.775 18.7161C132.096 18.4221 131.292 18.1105 131.246 17.7639C131.231 17.6194 131.32 17.4463 131.477 17.3413C131.974 17.0312 134.819 16.4346 136.281 16.3426ZM131.524 19.1366C132.261 19.4295 133.216 19.6129 134.801 19.7469C136.886 19.9417 137.881 19.8663 139.562 19.404C140.406 19.1844 141.1 19.006 141.104 19.0175C141.107 19.029 141.099 19.1799 141.074 19.3601C141.049 19.6765 141.006 19.7007 140.189 19.9255C139.578 20.0933 139.315 20.2153 139.246 20.3705C139.067 20.7543 139.446 20.8729 140.206 20.6639C140.586 20.5595 140.892 20.5002 140.898 20.5232C140.977 20.8111 140.828 20.9884 140.39 21.1088C139.803 21.2702 138.099 21.3795 136.618 21.3532C135.371 21.3243 135.008 21.3994 134.979 21.6551C134.947 21.8992 135.14 21.9701 136.099 22.0781C137.188 22.212 138.87 22.1583 139.898 21.975L140.734 21.8193L140.681 22.2552L140.627 22.6911L139.592 22.8891C137.642 23.2764 134.987 23.263 132.993 22.8575C131.605 22.5828 131.312 22.3288 131.025 21.1939C130.849 20.5113 130.737 18.9319 130.864 18.897C130.887 18.8907 131.188 18.9938 131.524 19.1366ZM143.419 25.8625C146.406 25.4625 148.485 26.0427 148.849 27.3671C148.957 27.7586 148.948 27.7733 148.435 27.9765C147.754 28.2503 146.256 28.4765 145.079 28.4778C143.176 28.4933 140.264 27.9933 139.558 27.5432C139.185 27.3114 139.191 26.9752 139.577 26.7576C139.967 26.5514 142.246 26.0115 143.419 25.8625ZM139.597 28.5854C140.442 28.9105 141.033 29.0329 142.61 29.1816C144.895 29.3833 145.783 29.3249 147.56 28.8488C148.922 28.4867 149.147 28.4496 149.142 28.612C149.144 28.7105 149.039 29.5445 148.91 30.4718L148.688 32.143L148.068 32.2763C145.061 32.9172 140.395 32.6146 139.566 31.7155C139.337 31.4687 139.235 31.1871 139.053 30.3453C138.863 29.4312 138.792 28.3608 138.919 28.326C138.93 28.3228 139.246 28.4343 139.597 28.5854ZM142.484 35.0751C144.612 34.8864 147.252 34.6684 148.36 34.5991C150.174 34.4843 155.357 34.3229 155.457 34.3698C155.471 34.3782 155.253 35.3423 154.976 36.4962C154.687 37.6533 153.763 41.4995 152.927 45.0366C152.079 48.5768 151.36 51.549 151.325 51.6455C151.236 51.9547 142.364 53.2916 135.493 54.0285C132.644 54.3412 125.933 54.9353 125.848 54.8967C125.818 54.88 126.393 50.7087 127.109 45.6069L128.428 36.3504L133.517 35.8927C136.322 35.6419 140.359 35.2754 142.484 35.0751Z" fill="#15C4B3"/>
<path d="M124.653 26.5378C124.15 26.961 123.999 27.3122 123.84 28.3097C123.674 29.4204 123.718 30.3003 124.013 31.3713C124.427 32.8799 125.062 33.3866 127 33.721C129.106 34.0833 131.409 34.0818 133.782 33.7019C135.122 33.4823 135.442 33.2952 135.551 32.6581C135.718 31.7328 135.854 27.8557 135.733 27.4181C135.35 26.0246 133.699 25.1533 131.319 25.1016C129.188 25.0557 125.457 25.8584 124.653 26.5378ZM128.601 26.3443C130.154 26.0908 131.639 26.0416 132.628 26.2156C133.879 26.4414 134.798 27.1675 134.804 27.9584C134.807 28.193 134.733 28.2382 133.834 28.4852C132.107 28.9601 130.151 28.9651 127.66 28.5104C126.211 28.2399 125.115 27.8106 125.131 27.5089C125.157 27.1548 126.606 26.6574 128.601 26.3443ZM125.79 29.0495C126.573 29.3297 127.48 29.4766 129.308 29.5933C131.197 29.7057 132.805 29.561 134.099 29.131C134.668 28.9496 135.132 28.8345 135.145 28.8806C135.157 28.9266 135.103 29.0901 135.034 29.2453C134.919 29.5001 134.701 29.6095 133.594 30.0004C132.488 30.3913 132.305 30.4912 132.318 30.6734C132.327 30.7949 132.442 30.8994 132.631 30.9095C132.863 30.9446 132.777 30.993 132.213 31.1481C131.721 31.2958 131.472 31.4262 131.369 31.5909C131.247 31.8226 131.253 31.8456 131.473 31.9709C131.664 32.0795 131.973 32.0317 133.236 31.6719L134.765 31.2393L134.693 31.8784L134.609 32.5207L133.608 32.7092C131.67 33.0934 129.004 33.0832 127.022 32.6745C125.554 32.3842 125.341 32.195 125.024 30.9942C124.81 30.1734 124.768 29.8383 124.815 28.8839C124.814 28.6985 124.866 28.7088 125.79 29.0495Z" fill="#F38189"/>
<path d="M124.653 26.5378C124.15 26.961 123.999 27.3122 123.84 28.3097C123.674 29.4204 123.718 30.3003 124.013 31.3713C124.427 32.8799 125.062 33.3866 127 33.721C129.106 34.0833 131.409 34.0818 133.782 33.7019C135.122 33.4823 135.442 33.2952 135.551 32.6581C135.718 31.7328 135.854 27.8557 135.733 27.4181C135.35 26.0246 133.699 25.1533 131.319 25.1016C129.188 25.0557 125.457 25.8584 124.653 26.5378ZM128.601 26.3443C130.154 26.0908 131.639 26.0416 132.628 26.2156C133.879 26.4414 134.798 27.1675 134.804 27.9584C134.807 28.193 134.733 28.2382 133.834 28.4852C132.107 28.9601 130.151 28.9651 127.66 28.5104C126.211 28.2399 125.115 27.8106 125.131 27.5089C125.157 27.1548 126.606 26.6574 128.601 26.3443ZM125.79 29.0495C126.573 29.3297 127.48 29.4766 129.308 29.5933C131.197 29.7057 132.805 29.561 134.099 29.131C134.668 28.9496 135.132 28.8345 135.145 28.8806C135.157 28.9266 135.103 29.0901 135.034 29.2453C134.919 29.5001 134.701 29.6095 133.594 30.0004C132.488 30.3913 132.305 30.4912 132.318 30.6734C132.327 30.7949 132.442 30.8994 132.631 30.9095C132.863 30.9446 132.777 30.993 132.213 31.1481C131.721 31.2958 131.472 31.4262 131.369 31.5909C131.247 31.8226 131.253 31.8456 131.473 31.9709C131.664 32.0795 131.973 32.0317 133.236 31.6719L134.765 31.2393L134.693 31.8784L134.609 32.5207L133.608 32.7092C131.67 33.0934 129.004 33.0832 127.022 32.6745C125.554 32.3842 125.341 32.195 125.024 30.9942C124.81 30.1734 124.768 29.8383 124.815 28.8839C124.814 28.6985 124.866 28.7088 125.79 29.0495Z" fill="#F38189"/>
<path d="M124.653 26.5378C124.15 26.961 123.999 27.3122 123.84 28.3097C123.674 29.4204 123.718 30.3003 124.013 31.3713C124.427 32.8799 125.062 33.3866 127 33.721C129.106 34.0833 131.409 34.0818 133.782 33.7019C135.122 33.4823 135.442 33.2952 135.551 32.6581C135.718 31.7328 135.854 27.8557 135.733 27.4181C135.35 26.0246 133.699 25.1533 131.319 25.1016C129.188 25.0557 125.457 25.8584 124.653 26.5378ZM128.601 26.3443C130.154 26.0908 131.639 26.0416 132.628 26.2156C133.879 26.4414 134.798 27.1675 134.804 27.9584C134.807 28.193 134.733 28.2382 133.834 28.4852C132.107 28.9601 130.151 28.9651 127.66 28.5104C126.211 28.2399 125.115 27.8106 125.131 27.5089C125.157 27.1548 126.606 26.6574 128.601 26.3443ZM125.79 29.0495C126.573 29.3297 127.48 29.4766 129.308 29.5933C131.197 29.7057 132.805 29.561 134.099 29.131C134.668 28.9496 135.132 28.8345 135.145 28.8806C135.157 28.9266 135.103 29.0901 135.034 29.2453C134.919 29.5001 134.701 29.6095 133.594 30.0004C132.488 30.3913 132.305 30.4912 132.318 30.6734C132.327 30.7949 132.442 30.8994 132.631 30.9095C132.863 30.9446 132.777 30.993 132.213 31.1481C131.721 31.2958 131.472 31.4262 131.369 31.5909C131.247 31.8226 131.253 31.8456 131.473 31.9709C131.664 32.0795 131.973 32.0317 133.236 31.6719L134.765 31.2393L134.693 31.8784L134.609 32.5207L133.608 32.7092C131.67 33.0934 129.004 33.0832 127.022 32.6745C125.554 32.3842 125.341 32.195 125.024 30.9942C124.81 30.1734 124.768 29.8383 124.815 28.8839C124.814 28.6985 124.866 28.7088 125.79 29.0495Z" fill="#15C4B3"/>
<path d="M127.775 30.4606C127.836 30.6794 128.347 30.737 128.877 30.5914C129.383 30.452 129.329 30.2563 128.751 30.1799C128.161 30.1068 127.715 30.2418 127.775 30.4606Z" fill="#F38189"/>
<path d="M127.775 30.4606C127.836 30.6794 128.347 30.737 128.877 30.5914C129.383 30.452 129.329 30.2563 128.751 30.1799C128.161 30.1068 127.715 30.2418 127.775 30.4606Z" fill="#F38189"/>
<path d="M127.775 30.4606C127.836 30.6794 128.347 30.737 128.877 30.5914C129.383 30.452 129.329 30.2563 128.751 30.1799C128.161 30.1068 127.715 30.2418 127.775 30.4606Z" fill="#15C4B3"/>
<path d="M127.418 31.4135C127.68 31.6016 128.641 31.6719 128.951 31.5372C129.168 31.4278 129.095 31.386 128.461 31.2878C127.614 31.1366 127.115 31.212 127.418 31.4135Z" fill="#F38189"/>
<path d="M127.418 31.4135C127.68 31.6016 128.641 31.6719 128.951 31.5372C129.168 31.4278 129.095 31.386 128.461 31.2878C127.614 31.1366 127.115 31.212 127.418 31.4135Z" fill="#F38189"/>
<path d="M127.418 31.4135C127.68 31.6016 128.641 31.6719 128.951 31.5372C129.168 31.4278 129.095 31.386 128.461 31.2878C127.614 31.1366 127.115 31.212 127.418 31.4135Z" fill="#15C4B3"/>
<path d="M103.045 23.8574C103.083 23.9956 109.841 27.8973 110.478 28.1432C110.841 28.2913 111.06 28.2311 111.003 28.0238C110.933 27.7705 107.703 25.7973 105.447 24.6213C103.614 23.676 102.934 23.4543 103.045 23.8574Z" fill="#F38189"/>
<path d="M103.045 23.8574C103.083 23.9956 109.841 27.8973 110.478 28.1432C110.841 28.2913 111.06 28.2311 111.003 28.0238C110.933 27.7705 107.703 25.7973 105.447 24.6213C103.614 23.676 102.934 23.4543 103.045 23.8574Z" fill="#F38189"/>
<path d="M103.045 23.8574C103.083 23.9956 109.841 27.8973 110.478 28.1432C110.841 28.2913 111.06 28.2311 111.003 28.0238C110.933 27.7705 107.703 25.7973 105.447 24.6213C103.614 23.676 102.934 23.4543 103.045 23.8574Z" fill="#15C4B3"/>
<path d="M101.117 28.6485C101.056 28.789 100.885 29.6535 100.745 30.584C100.601 31.503 100.414 32.6692 100.318 33.1785C100.153 34.153 100.199 34.6359 100.464 34.563C100.74 34.487 100.977 33.7282 101.328 31.8482C101.686 29.9536 101.805 28.5832 101.636 28.4191C101.485 28.2748 101.252 28.3759 101.117 28.6485Z" fill="#F38189"/>
<path d="M101.117 28.6485C101.056 28.789 100.885 29.6535 100.745 30.584C100.601 31.503 100.414 32.6692 100.318 33.1785C100.153 34.153 100.199 34.6359 100.464 34.563C100.74 34.487 100.977 33.7282 101.328 31.8482C101.686 29.9536 101.805 28.5832 101.636 28.4191C101.485 28.2748 101.252 28.3759 101.117 28.6485Z" fill="#F38189"/>
<path d="M101.117 28.6485C101.056 28.789 100.885 29.6535 100.745 30.584C100.601 31.503 100.414 32.6692 100.318 33.1785C100.153 34.153 100.199 34.6359 100.464 34.563C100.74 34.487 100.977 33.7282 101.328 31.8482C101.686 29.9536 101.805 28.5832 101.636 28.4191C101.485 28.2748 101.252 28.3759 101.117 28.6485Z" fill="#15C4B3"/>
<path d="M111.206 26.2835C111.187 26.3506 111.258 26.517 111.376 26.633C112.142 27.438 124.1 36.2399 124.513 36.2998C124.591 36.3154 124.694 36.2377 124.741 36.138C124.813 35.9944 124.617 35.7759 123.931 35.221C122.818 34.3256 117.412 30.2503 114.904 28.4254C111.667 26.0699 111.326 25.8663 111.206 26.2835Z" fill="#F38189"/>
<path d="M111.206 26.2835C111.187 26.3506 111.258 26.517 111.376 26.633C112.142 27.438 124.1 36.2399 124.513 36.2998C124.591 36.3154 124.694 36.2377 124.741 36.138C124.813 35.9944 124.617 35.7759 123.931 35.221C122.818 34.3256 117.412 30.2503 114.904 28.4254C111.667 26.0699 111.326 25.8663 111.206 26.2835Z" fill="#F38189"/>
<path d="M111.206 26.2835C111.187 26.3506 111.258 26.517 111.376 26.633C112.142 27.438 124.1 36.2399 124.513 36.2998C124.591 36.3154 124.694 36.2377 124.741 36.138C124.813 35.9944 124.617 35.7759 123.931 35.221C122.818 34.3256 117.412 30.2503 114.904 28.4254C111.667 26.0699 111.326 25.8663 111.206 26.2835Z" fill="#15C4B3"/>
<path d="M102.278 30.2613C101.959 30.9932 101.419 33.3962 101.555 33.5321C101.753 33.7129 101.983 33.5134 102.066 33.0942C102.116 32.87 102.343 32.0273 102.559 31.237C102.935 29.9447 102.948 29.5445 102.649 29.6268C102.591 29.6427 102.433 29.9216 102.278 30.2613Z" fill="#F38189"/>
<path d="M102.278 30.2613C101.959 30.9932 101.419 33.3962 101.555 33.5321C101.753 33.7129 101.983 33.5134 102.066 33.0942C102.116 32.87 102.343 32.0273 102.559 31.237C102.935 29.9447 102.948 29.5445 102.649 29.6268C102.591 29.6427 102.433 29.9216 102.278 30.2613Z" fill="#F38189"/>
<path d="M102.278 30.2613C101.959 30.9932 101.419 33.3962 101.555 33.5321C101.753 33.7129 101.983 33.5134 102.066 33.0942C102.116 32.87 102.343 32.0273 102.559 31.237C102.935 29.9447 102.948 29.5445 102.649 29.6268C102.591 29.6427 102.433 29.9216 102.278 30.2613Z" fill="#15C4B3"/>
<path d="M141.933 30.594C141.817 30.7126 141.839 30.7932 141.972 30.9176C142.653 31.5479 144.961 31.607 147.037 31.0487C147.889 30.8144 148.147 30.6693 148.087 30.4505C148.03 30.2432 147.821 30.2509 146.479 30.459C145.159 30.6607 143.879 30.6906 142.844 30.5293C142.431 30.4694 142.097 30.425 142.085 30.4282C142.085 30.4282 142.009 30.5111 141.933 30.594Z" fill="#F38189"/>
<path d="M141.933 30.594C141.817 30.7126 141.839 30.7932 141.972 30.9176C142.653 31.5479 144.961 31.607 147.037 31.0487C147.889 30.8144 148.147 30.6693 148.087 30.4505C148.03 30.2432 147.821 30.2509 146.479 30.459C145.159 30.6607 143.879 30.6906 142.844 30.5293C142.431 30.4694 142.097 30.425 142.085 30.4282C142.085 30.4282 142.009 30.5111 141.933 30.594Z" fill="#F38189"/>
<path d="M141.933 30.594C141.817 30.7126 141.839 30.7932 141.972 30.9176C142.653 31.5479 144.961 31.607 147.037 31.0487C147.889 30.8144 148.147 30.6693 148.087 30.4505C148.03 30.2432 147.821 30.2509 146.479 30.459C145.159 30.6607 143.879 30.6906 142.844 30.5293C142.431 30.4694 142.097 30.425 142.085 30.4282C142.085 30.4282 142.009 30.5111 141.933 30.594Z" fill="#15C4B3"/>
<path d="M131.582 39.4844C131.163 40.3055 129.472 51.4105 129.712 51.741C129.912 52.0203 130.09 51.6743 130.31 50.5362C130.85 47.8608 131.941 41.739 132.082 40.6723C132.195 39.8236 132.187 39.479 132.065 39.3515C131.854 39.1246 131.739 39.1562 131.582 39.4844Z" fill="#F38189"/>
<path d="M131.582 39.4844C131.163 40.3055 129.472 51.4105 129.712 51.741C129.912 52.0203 130.09 51.6743 130.31 50.5362C130.85 47.8608 131.941 41.739 132.082 40.6723C132.195 39.8236 132.187 39.479 132.065 39.3515C131.854 39.1246 131.739 39.1562 131.582 39.4844Z" fill="#F38189"/>
<path d="M131.582 39.4844C131.163 40.3055 129.472 51.4105 129.712 51.741C129.912 52.0203 130.09 51.6743 130.31 50.5362C130.85 47.8608 131.941 41.739 132.082 40.6723C132.195 39.8236 132.187 39.479 132.065 39.3515C131.854 39.1246 131.739 39.1562 131.582 39.4844Z" fill="#15C4B3"/>
<path d="M128.895 43.1835C128.61 43.7696 128.168 46.9382 128.333 47.1777C128.39 47.2489 128.501 47.2926 128.593 47.2673C128.801 47.2103 129.618 43.2449 129.459 43.0283C129.298 42.8003 129.044 42.87 128.895 43.1835Z" fill="#F38189"/>
<path d="M128.895 43.1835C128.61 43.7696 128.168 46.9382 128.333 47.1777C128.39 47.2489 128.501 47.2926 128.593 47.2673C128.801 47.2103 129.618 43.2449 129.459 43.0283C129.298 42.8003 129.044 42.87 128.895 43.1835Z" fill="#F38189"/>
<path d="M128.895 43.1835C128.61 43.7696 128.168 46.9382 128.333 47.1777C128.39 47.2489 128.501 47.2926 128.593 47.2673C128.801 47.2103 129.618 43.2449 129.459 43.0283C129.298 42.8003 129.044 42.87 128.895 43.1835Z" fill="#15C4B3"/>
<path d="M143.164 47.1013C142.876 47.3166 142.932 47.6109 143.276 47.6898C143.553 47.75 144.587 47.5027 144.843 47.3084C145.04 47.1677 144.974 46.8389 144.725 46.6969C144.519 46.58 143.503 46.8471 143.164 47.1013Z" fill="#F38189"/>
<path d="M143.164 47.1013C142.876 47.3166 142.932 47.6109 143.276 47.6898C143.553 47.75 144.587 47.5027 144.843 47.3084C145.04 47.1677 144.974 46.8389 144.725 46.6969C144.519 46.58 143.503 46.8471 143.164 47.1013Z" fill="#F38189"/>
<path d="M143.164 47.1013C142.876 47.3166 142.932 47.6109 143.276 47.6898C143.553 47.75 144.587 47.5027 144.843 47.3084C145.04 47.1677 144.974 46.8389 144.725 46.6969C144.519 46.58 143.503 46.8471 143.164 47.1013Z" fill="#15C4B3"/>
<path d="M140.851 49.0502C140.527 49.2258 140.388 49.5739 140.593 49.6908C140.681 49.7409 141.421 49.6367 142.254 49.4695C146.086 48.676 148.047 48.2363 148.134 48.1502C148.295 47.9697 148.127 47.7186 147.845 47.6846C146.968 47.6037 141.586 48.6622 140.851 49.0502Z" fill="#F38189"/>
<path d="M140.851 49.0502C140.527 49.2258 140.388 49.5739 140.593 49.6908C140.681 49.7409 141.421 49.6367 142.254 49.4695C146.086 48.676 148.047 48.2363 148.134 48.1502C148.295 47.9697 148.127 47.7186 147.845 47.6846C146.968 47.6037 141.586 48.6622 140.851 49.0502Z" fill="#F38189"/>
<path d="M140.851 49.0502C140.527 49.2258 140.388 49.5739 140.593 49.6908C140.681 49.7409 141.421 49.6367 142.254 49.4695C146.086 48.676 148.047 48.2363 148.134 48.1502C148.295 47.9697 148.127 47.7186 147.845 47.6846C146.968 47.6037 141.586 48.6622 140.851 49.0502Z" fill="#15C4B3"/>
<path d="M135.921 52.1149C135.912 52.2165 135.981 52.3337 136.081 52.3806C136.421 52.5349 143.227 51.2954 147.746 50.2512C149.42 49.8529 149.682 49.7686 149.644 49.6304C149.609 49.5037 149.322 49.4959 148.499 49.6107C147.889 49.6916 147.268 49.7756 147.121 49.779C146.661 49.8187 142.156 50.5989 139.874 51.0404C136.993 51.5973 135.945 51.8854 135.921 52.1149Z" fill="#F38189"/>
<path d="M135.921 52.1149C135.912 52.2165 135.981 52.3337 136.081 52.3806C136.421 52.5349 143.227 51.2954 147.746 50.2512C149.42 49.8529 149.682 49.7686 149.644 49.6304C149.609 49.5037 149.322 49.4959 148.499 49.6107C147.889 49.6916 147.268 49.7756 147.121 49.779C146.661 49.8187 142.156 50.5989 139.874 51.0404C136.993 51.5973 135.945 51.8854 135.921 52.1149Z" fill="#F38189"/>
<path d="M135.921 52.1149C135.912 52.2165 135.981 52.3337 136.081 52.3806C136.421 52.5349 143.227 51.2954 147.746 50.2512C149.42 49.8529 149.682 49.7686 149.644 49.6304C149.609 49.5037 149.322 49.4959 148.499 49.6107C147.889 49.6916 147.268 49.7756 147.121 49.779C146.661 49.8187 142.156 50.5989 139.874 51.0404C136.993 51.5973 135.945 51.8854 135.921 52.1149Z" fill="#15C4B3"/>
</svg>
