<svg width="77" height="33" viewBox="0 0 77 33" fill="none" xmlns="http://www.w3.org/2000/svg">
<path d="M16.3538 25.6516L0 25.1643L0.779684 0L7.27053 0.214384L6.66628 19.765L16.5292 20.0184L16.3538 25.671V25.6516Z" fill="#FDAA87"/>
<path d="M30.8559 19.3753L35.0272 20.9932C33.7213 24.0534 30.5636 25.6907 27.2694 25.8467C22.4939 26.0221 18.3226 23.0788 18.0692 17.5625C17.8937 12.7285 21.3243 8.88861 26.5677 8.69369C32.2594 8.44029 35.4756 12.3386 35.729 17.6405V18.3812L24.2092 18.8296C24.4236 20.4474 25.7101 21.7728 27.4448 21.7144C28.5754 21.6364 29.8619 21.1491 30.8559 19.3948V19.3753ZM26.7431 12.787C25.4372 12.8649 24.3261 13.8006 24.1117 15.6328L29.511 15.4185C29.0822 13.3913 27.9711 12.748 26.7431 12.787Z" fill="#FDAA87"/>
<path d="M44.9096 7.97241C46.7614 7.97241 48.5936 8.75202 49.997 10.2139H50.0945L50.3089 8.6741C52.1607 8.77156 54.0709 8.88854 55.9226 8.94701L55.3184 22.0456C55.0065 29.0043 51.381 32.5128 45.7673 32.5128C42.5706 32.5128 39.7247 31.3238 37.4832 28.7509C40.1536 25.905 40.5629 25.3398 40.5629 25.3398C41.9273 26.9186 43.6816 28.0492 45.4359 28.0492C47.619 28.0492 48.9835 26.7237 49.0809 23.7609C49.0419 23.7609 49.0029 23.7219 48.9835 23.7219C47.7165 24.677 46.2741 25.1644 44.8511 25.1644C40.8163 25.1644 37.5416 22.0847 37.5416 16.8803C37.5416 11.6759 40.4265 7.97241 44.8706 7.97241H44.9096ZM49.4708 16.393C49.4708 14.0344 48.4182 12.4946 46.6639 12.4946C44.7342 12.4946 43.7206 14.5217 43.7206 16.8803C43.7206 19.2388 44.7732 20.8176 46.5275 20.8176C48.4962 20.8176 49.4708 18.7515 49.4708 16.393Z" fill="#FDAA87"/>
<path d="M66.955 8.109C72.3543 7.83611 76.3891 11.0522 76.6815 16.2176C76.9544 21.344 73.2704 24.9891 67.8711 25.2815C62.4718 25.5544 58.437 22.3381 58.1446 17.2117C57.8717 12.0464 61.5557 8.40128 66.955 8.12839V8.109ZM70.3661 16.5296C70.2296 14.0346 69.0991 12.4167 67.2084 12.5336C65.3177 12.6311 64.3236 14.3659 64.4795 16.8414C64.6159 19.3364 65.7465 20.9542 67.6372 20.8372C69.5279 20.7398 70.522 19.0051 70.3661 16.5296Z" fill="#FDAA87"/>
</svg>
