<svg width="97" height="51" viewBox="0 0 97 51" fill="none" xmlns="http://www.w3.org/2000/svg">
<path d="M10.2765 20.0284L11.2231 28.6263L24.2238 26.9147L25.0497 34.3631L12.049 36.0748L13.4534 48.1696L4.69196 49.1983L0.810168 13.6222L23.9654 10.8046L24.7914 18.253L10.3057 20.0241L10.2765 20.0284Z" fill="#227C9E"/>
<path d="M31.1604 10.3518C33.6584 10.0497 35.9006 11.8982 36.2409 14.4977C36.5813 17.0972 34.8275 19.4352 32.3377 19.7992C29.8478 20.1632 27.6179 18.4077 27.2694 15.7463C26.921 13.0849 28.6665 10.6851 31.1564 10.321L31.1604 10.3518ZM33.4019 46.1677L29.1489 23.2615L37.2061 21.642L41.451 44.4863L33.4019 46.1677Z" fill="#227C9E"/>
<path d="M57.4826 27.1614C57.4751 25.964 57.1971 25.437 56.8898 24.9142C56.3825 24.2314 55.5641 23.9094 54.6065 23.8917C53.561 23.8869 52.6259 24.4967 52.0999 25.2675C51.8303 25.7169 51.681 26.401 51.6764 27.5056L51.8107 41.3L43.6428 41.3904L43.4021 18.1183L50.9801 18.0828L51.201 20.2266L51.2597 20.2181C52.7853 18.4181 55.4325 17.4317 58.1133 17.3867C60.0204 17.3602 61.9459 17.9302 63.3667 19.2048C64.6661 20.4656 65.5366 22.3252 65.5569 25.4445L65.7121 41.2228L57.5442 41.3133L57.428 27.2009L57.4826 27.1614Z" fill="#227C9E"/>
<path d="M77.7307 13.5408C79.9186 13.3786 82.1573 14.0605 84.0286 15.5846L84.1084 15.5098L83.3365 1.17782L91.481 0.680969L93.4547 36.5044L85.8122 36.9594L85.5448 34.9171L85.4488 34.868C83.7303 36.7908 81.5305 37.7747 79.2466 37.8878C73.9759 38.2169 69.0319 34.4297 68.5896 26.2628C68.1472 18.0958 72.6236 13.7513 77.7226 13.4788L77.7307 13.5408ZM84.8322 25.3702C84.6672 21.8304 83.1088 19.5037 80.5573 19.6245C78.0138 19.8071 76.6944 22.2708 76.9179 25.802C77.0869 29.3727 78.6414 31.6686 81.1929 31.5479C83.7364 31.3652 84.9971 28.91 84.8322 25.3702Z" fill="#227C9E"/>
</svg>
