<svg width="158" height="51" viewBox="0 0 158 51" fill="none" xmlns="http://www.w3.org/2000/svg">
<path d="M16.1924 42.265C11.0537 42.6956 5.92213 40.4605 1.99826 36.7402L6.25286 31.8732C8.47139 33.8913 11.8307 36.3775 15.1887 36.0961C16.4606 35.9895 17.7429 35.3952 17.6171 33.8938C17.5489 33.0794 16.94 32.2334 15.5808 31.6041C14.6711 31.1422 13.7953 30.78 12.7584 30.3287L10.8924 29.46C7.31933 27.7861 4.65994 26.01 4.32512 22.0146C3.88581 16.7723 7.62339 12.4612 13.7033 11.9517C18.028 11.5893 22.485 13.1122 25.8914 16.4658L21.6517 21.5109C19.7132 19.7769 16.8799 17.7592 14.0307 17.9979C12.8605 18.096 11.4935 18.9025 11.6108 20.3021C11.6684 20.9893 12.2306 21.8903 13.5644 22.5217C14.6332 23.0472 15.6955 23.4964 16.8936 24.0367L18.9695 24.9647C22.4302 26.5198 25.2889 28.5354 25.6003 32.2509C26.0481 37.5951 22.0985 41.8214 16.2221 42.3138L16.1924 42.265Z" fill="#037FA5"/>
<path d="M43.0715 32.5562L48.1474 33.8222C47.102 37.5488 43.6602 39.8875 39.8975 40.536C34.3901 41.4588 29.1078 38.6467 28.0638 32.3018C27.1345 26.7161 30.5898 21.7881 36.6038 20.7972C43.1202 19.6873 47.4301 23.734 48.4782 29.8223L48.6017 30.6833L35.3378 32.8968C35.8263 34.7523 37.5251 36.0706 39.522 35.7495C40.8087 35.5136 42.2309 34.7537 43.099 32.5796L43.0715 32.5562ZM37.3588 25.5262C35.894 25.7771 34.7455 27.0521 34.7445 29.1792L40.9366 28.1734C40.1786 25.8536 38.7727 25.2796 37.3588 25.5262Z" fill="#037FA5"/>
<path d="M62.6215 22.5112L58.8947 22.9773L60.6483 36.5666L53.5786 37.4922L51.8249 23.9029L49.139 24.2562L48.4877 18.929L51.1736 18.5758L50.3776 12.4408L57.4517 11.566L58.2222 17.7033L61.9447 17.1863L62.6469 22.5091L62.6215 22.5112Z" fill="#037FA5"/>
<path d="M78.1637 23.3359L74.4197 23.2908L74.259 36.9636L67.1569 36.8924L67.2922 23.2219L64.5743 23.1933L64.6608 17.8044L67.3277 17.8372L67.4265 11.6784L74.5285 11.7495L74.4807 17.9041L78.2246 17.9491L78.1891 23.3338L78.1637 23.3359Z" fill="#037FA5"/>
<path d="M81.7375 35.1067L81.0369 16.0474L88.1113 15.7878L88.8119 34.847L81.7375 35.1067ZM84.0021 5.88126C86.1687 5.75095 88.0181 7.33859 88.1994 9.50171C88.3806 11.6648 86.7639 13.4661 84.6016 13.6473C82.4393 13.8285 80.592 12.2664 80.4107 10.1033C80.2803 7.93587 81.8376 6.03699 84 5.85579L84.0021 5.88126Z" fill="#037FA5"/>
<path d="M104.254 21.9443C104.122 20.9815 103.88 20.5405 103.545 20.2098C103.097 19.7604 102.387 19.538 101.649 19.5999C100.835 19.6681 99.9982 20.0714 99.5767 20.8499C99.2611 21.3632 99.3272 22.1523 99.3506 22.4322L99.3847 22.8393L100.864 34.0682L93.8448 34.9895L91.3635 16.0797L97.9034 15.2496L98.3048 16.9843L98.4278 16.9228C99.5761 15.3402 101.628 14.1431 103.917 13.9512C105.876 13.7871 107.411 14.0685 108.63 14.8633C109.882 15.7322 110.743 17.1465 111.086 19.7061L112.771 32.481L105.803 33.398L104.307 21.9655L104.254 21.9443Z" fill="#037FA5"/>
<path d="M122.097 12.0169C124.412 11.8229 126.711 12.6554 128.522 14.4L128.649 14.3894L128.833 12.6057L135.401 12.7215L135.087 29.1493C135.027 32.7164 133.97 35.3934 132.4 37.1395C130.591 39.085 128.003 40.3013 125.103 40.5443C121.287 40.8641 117.78 39.6716 114.67 36.4982C117.664 33.0951 118.147 32.4395 118.147 32.4395C119.643 34.0825 121.817 35.5662 124.208 35.3658C126.803 35.1483 127.987 33.0758 128.006 30.2552L127.875 30.2149C126.529 31.2759 125.018 31.8894 123.466 32.0194C118.633 32.4245 114.798 28.8506 114.344 23.4301C113.917 18.3404 116.147 12.5412 122.074 12.0445L122.097 12.0169ZM128.112 21.123C127.912 18.7309 126.666 17.0157 124.58 17.1905C122.087 17.3994 121.29 20.4133 121.494 22.8564C121.699 25.2994 122.947 27.0402 125.058 26.8632C127.576 26.6522 128.319 23.5915 128.112 21.123Z" fill="#037FA5"/>
<path d="M147.093 29.9634C144.32 30.1957 141.352 29.6243 138.947 28.1344L141.245 23.7646C142.975 24.8497 145.212 25.5592 146.917 25.4164C148.087 25.3184 148.969 24.8345 148.9 24.0201C148.832 23.2058 147.995 22.994 145.966 22.6259L144.666 22.4016C143.576 22.2367 142.739 22.0251 141.999 21.7539C139.946 21.1059 138.22 19.764 138.015 17.321C137.646 12.9184 141.849 10.183 146.122 9.82481C149.379 9.55194 152.069 10.4797 153.647 11.5775L151.381 15.714C149.922 14.8112 148.251 14.1312 146.394 14.2868C145.376 14.3721 144.382 14.7373 144.457 15.628C144.565 16.3109 145.437 16.6221 146.27 16.783C147.055 16.9735 147.881 17.058 148.819 17.2357L150.012 17.4176C153.127 17.8997 155.512 19.4681 155.771 22.5474C156.099 26.4664 152.202 29.4839 147.114 29.9103L147.093 29.9634Z" fill="#037FA5"/>
</svg>
