<svg width="159" height="64" viewBox="0 0 159 64" fill="none" xmlns="http://www.w3.org/2000/svg">
<path d="M31.3882 45.5669C29.4792 50.4932 25.0551 53.4283 20.2317 53.9974C12.1238 54.9541 4.81492 51.2408 3.73538 42.0914C3.62596 41.1641 3.56114 40.1063 3.53362 38.8559L3.43908 17.7123L12.2665 17.7676L12.3275 39.1346C12.3189 39.8251 12.3326 40.4501 12.3946 40.9756C12.7739 44.1903 15.0775 46.6765 18.5989 46.261C20.108 46.083 21.511 45.2593 22.5451 43.8523C23.1568 42.934 23.5731 41.6311 23.5399 39.3159L23.4017 17.8014L32.2956 17.9115L32.3565 39.2785C32.3596 41.848 31.9939 43.8344 31.3291 45.5739L31.3882 45.5669Z" fill="#F37079"/>
<path d="M52.7253 48.6592C50.5656 48.6633 48.407 47.915 46.6345 46.3691L46.5457 46.3796L46.596 58.5023L38.3344 58.4117L38.2051 24.7674L45.8898 24.8009L46.0932 27.0333L46.1892 27.0847C48.0377 25.2055 50.4764 24.2597 52.8137 24.2347C57.9504 24.2868 62.6662 28.4 62.7303 36.5723C62.7872 44.6827 58.0136 48.7247 52.7216 48.6282L52.7253 48.6592ZM54.3467 36.4645C54.3525 32.9537 52.929 30.5518 50.344 30.512C47.7627 30.5032 46.3646 32.8933 46.392 36.4315C46.3862 39.9423 47.8207 42.437 50.4057 42.4768C52.9574 42.4891 54.3741 40.0027 54.3431 36.4335L54.3467 36.4645Z" fill="#F37079"/>
<path d="M68.054 46.5998L62.8314 11.2373L70.999 10.0228L76.2215 45.3853L68.054 46.5998Z" fill="#F37079"/>
<path d="M87.7941 20.1385C94.9491 18.4794 101.127 22.0129 102.727 29.2204C104.35 36.3626 100.25 42.2996 93.0357 43.9657C85.8844 45.6557 79.7032 42.0913 78.11 34.9457C76.4836 27.7726 80.5799 21.8046 87.7977 20.1695L87.7941 20.1385ZM94.3142 31.1532C93.5138 27.6748 91.6605 25.6997 89.1153 26.2507C86.6069 26.8601 85.7187 29.5036 86.4896 32.9854C87.2236 36.4089 89.1433 38.4389 91.6849 37.857C94.1933 37.2476 95.0814 34.6042 94.3179 31.1841L94.3142 31.1532Z" fill="#F37079"/>
<path d="M118.914 26.8091C118.937 26.493 118.915 26.0568 118.868 25.6549C118.744 24.604 118.427 23.9517 117.888 23.4512C117.02 22.7074 115.767 22.5105 114.583 22.6502C113.074 22.8283 111.139 23.4642 108.851 24.6743L106.464 19.1893C109.218 17.6107 112 16.781 114.841 16.4458C119.961 15.8418 126.078 17.5959 126.822 23.9015C126.899 24.5507 126.901 25.3339 126.926 26.0518L127.199 40.06L119.465 40.1262L119.272 38.4881C117.802 39.7585 116.055 40.466 114.28 40.6755C110.344 41.1399 105.917 38.9668 105.348 34.1449C104.834 29.7865 108.017 26.2457 112.426 25.7255C114.556 25.4741 116.756 25.81 118.881 26.7816L118.914 26.8091ZM115.513 30.5324C114.152 30.693 112.841 31.537 113.046 33.268C113.21 34.659 114.521 35.6011 116.326 35.3881C117.687 35.2275 119.179 34.3935 118.975 32.6625C118.789 31.0861 117.196 30.3025 115.51 30.5015L115.513 30.5324Z" fill="#F37079"/>
<path d="M139.675 13.829C141.883 13.7251 144.13 14.4629 145.995 16.0292L146.077 15.9571L145.501 1.67104L153.719 1.39081L155.202 37.1006L147.491 37.3524L147.25 35.3122L147.154 35.2608C145.395 37.1295 143.163 38.0511 140.859 38.1035C135.541 38.2923 130.61 34.3924 130.28 26.2516C129.949 18.1107 134.523 13.9042 139.668 13.7673L139.675 13.829ZM146.667 25.7909C146.547 22.2322 145.013 19.906 142.439 19.959C139.872 20.0738 138.507 22.4915 138.682 26.0123C138.802 29.5709 140.337 31.8969 142.911 31.844C145.478 31.7291 146.783 29.3186 146.667 25.7909Z" fill="#F37079"/>
</svg>
